<?xml version="1.0" encoding="UTF-8"?>
<svg version="1.1" viewBox="0 0 360 540" xmlns="http://www.w3.org/2000/svg">
 <g transform="translate(0,-512.36)">
  <rect x=".5" y="512.86" width="359" height="539" rx="29.944" fill="#fff" stroke="#000"/>
  <g fill="#f55">
   <path d="m100 562.36s8 13.333 17.333 22.667c9.333 9.333 22.667 17.333 22.667 17.333s-13.333 8-22.667 17.333c-9.33 9.34-17.33 22.67-17.33 22.67s-8-13.333-17.333-22.667c-9.333-9.33-22.667-17.33-22.667-17.33s13.333-8 22.667-17.333c9.333-9.34 17.333-22.67 17.333-22.67"/>
   <path d="m260 562.36s8 13.333 17.333 22.667c9.333 9.333 22.667 17.333 22.667 17.333s-13.333 8-22.667 17.333c-9.33 9.34-17.33 22.67-17.33 22.67s-8-13.333-17.333-22.667c-9.34-9.33-22.67-17.33-22.67-17.33s13.333-8 22.667-17.333c9.33-9.34 17.33-22.67 17.33-22.67"/>
   <path d="m180 742.36s8 13.333 17.333 22.667c9.333 9.333 22.667 17.333 22.667 17.333s-13.333 8-22.667 17.333c-9.33 9.34-17.33 22.67-17.33 22.67s-8-13.333-17.333-22.667c-9.34-9.33-22.67-17.33-22.67-17.33s13.333-8 22.667-17.333c9.33-9.34 17.33-22.67 17.33-22.67"/>
   <path d="m100 682.36s8 13.333 17.333 22.667c9.333 9.333 22.667 17.333 22.667 17.333s-13.333 8-22.667 17.333c-9.33 9.34-17.33 22.67-17.33 22.67s-8-13.333-17.333-22.667c-9.333-9.33-22.667-17.33-22.667-17.33s13.333-8 22.667-17.333c9.333-9.34 17.333-22.67 17.333-22.67"/>
   <path d="m260 682.36s8 13.333 17.333 22.667c9.333 9.333 22.667 17.333 22.667 17.333s-13.333 8-22.667 17.333c-9.33 9.34-17.33 22.67-17.33 22.67s-8-13.333-17.333-22.667c-9.34-9.33-22.67-17.33-22.67-17.33s13.333-8 22.667-17.333c9.33-9.34 17.33-22.67 17.33-22.67"/>
   <path d="m100 802.36s8 13.333 17.333 22.667c9.333 9.333 22.667 17.333 22.667 17.333s-13.333 8-22.667 17.333c-9.33 9.34-17.33 22.67-17.33 22.67s-8-13.333-17.333-22.667c-9.333-9.33-22.667-17.33-22.667-17.33s13.333-8 22.667-17.333c9.333-9.34 17.333-22.67 17.333-22.67"/>
   <path d="m260 802.36s8 13.333 17.333 22.667c9.333 9.333 22.667 17.333 22.667 17.333s-13.333 8-22.667 17.333c-9.33 9.34-17.33 22.67-17.33 22.67s-8-13.333-17.333-22.667c-9.34-9.33-22.67-17.33-22.67-17.33s13.333-8 22.667-17.333c9.33-9.34 17.33-22.67 17.33-22.67"/>
   <path d="m100 922.36s8 13.333 17.333 22.667c9.333 9.333 22.667 17.333 22.667 17.333s-13.333 8-22.667 17.333c-9.33 9.34-17.33 22.71-17.33 22.71s-8-13.333-17.333-22.667c-9.333-9.37-22.667-17.37-22.667-17.37s13.333-8 22.667-17.333c9.333-9.34 17.333-22.67 17.333-22.67"/>
   <path d="m260 922.36s8 13.333 17.333 22.667c9.333 9.333 22.667 17.333 22.667 17.333s-13.333 8-22.667 17.333c-9.33 9.34-17.33 22.71-17.33 22.71s-8-13.333-17.333-22.667c-9.34-9.37-22.67-17.37-22.67-17.37s13.333-8 22.667-17.333c9.33-9.34 17.33-22.67 17.33-22.67"/>
   <path d="m330 932.36s3 5 6.5 8.5 8.5 6.5 8.5 6.5-5 3-8.5 6.5-6.5 8.5-6.5 8.5-3-5-6.5-8.5-8.5-6.5-8.5-6.5 5-3 8.5-6.5 6.5-8.5 6.5-8.5"/>
   <path d="m30 602.36s3 5 6.5 8.5 8.5 6.5 8.5 6.5-5 3-8.5 6.5-6.5 8.5-6.5 8.5-3-5-6.5-8.5-8.5-6.5-8.5-6.5 5-3 8.5-6.5 6.5-8.5 6.5-8.5"/>
   <path d="m30 592.36c5.54 0 10-4.46 10-10v-30c0-5.54-4.46-10-10-10s-10 4.46-10 10v10c0 5.54 4.46 10 10 10 1.823 0 3.532-0.499 5-1.344v11.344c0 2.77-2.23 5-5 5s-5-2.23-5-5v-1h-5v1c0 5.54 4.46 10 10 10m0-25c-2.77 0-5-2.23-5-5v-10c0-2.77 2.23-5 5-5s5 2.23 5 5v10c0 2.77-2.23 5-5 5"/>
   <path d="m330 972.36c-5.54 0-10 4.46-10 10v30c0 5.54 4.46 10 10 10s10-4.46 10-10v-10c0-5.54-4.46-10-10-10-1.823 0-3.532 0.499-5 1.344v-11.38c0-2.77 2.23-5 5-5s5 2.23 5 5v1h5v-1c0-5.54-4.46-10-10-10m0 25c2.77 0 5 2.23 5 5v10c0 2.77-2.23 5-5 5s-5-2.23-5-5v-10c0-2.77 2.23-5 5-5"/>
  </g>
 </g>
</svg>
