<?xml version="1.0" encoding="UTF-8"?>
<svg viewBox="0 0 360 540" xmlns="http://www.w3.org/2000/svg">
 <g transform="translate(0-512.36)">
  <rect x=".5" y="512.86" width="359" height="539" rx="29.944" fill="#fff" stroke="#000"/>
  <g fill="#f55">
   <path d="m100 562.36s8 13.333 17.333 22.667c9.333 9.333 22.667 17.333 22.667 17.333s-13.333 8-22.667 17.333c-9.333 9.333-17.333 22.667-17.333 22.667s-8-13.333-17.333-22.667c-9.333-9.333-22.667-17.333-22.667-17.333s13.333-8 22.667-17.333c9.333-9.333 17.333-22.667 17.333-22.667"/>
   <path d="m260 562.36s8 13.333 17.333 22.667c9.333 9.333 22.667 17.333 22.667 17.333s-13.333 8-22.667 17.333c-9.333 9.333-17.333 22.667-17.333 22.667s-8-13.333-17.333-22.667c-9.333-9.333-22.667-17.333-22.667-17.333s13.333-8 22.667-17.333c9.333-9.333 17.333-22.667 17.333-22.667"/>
   <path d="m180 652.36s8 13.333 17.333 22.667c9.333 9.333 22.667 17.333 22.667 17.333s-13.333 8-22.667 17.333c-9.333 9.333-17.333 22.667-17.333 22.667s-8-13.333-17.333-22.667c-9.333-9.333-22.667-17.333-22.667-17.333s13.333-8 22.667-17.333c9.333-9.333 17.333-22.667 17.333-22.667"/>
   <path d="m100 742.36s8 13.333 17.333 22.667c9.333 9.333 22.667 17.333 22.667 17.333s-13.333 8-22.667 17.333c-9.333 9.333-17.333 22.667-17.333 22.667s-8-13.333-17.333-22.667c-9.333-9.333-22.667-17.333-22.667-17.333s13.333-8 22.667-17.333c9.333-9.333 17.333-22.667 17.333-22.667"/>
   <path d="m260 742.36s8 13.333 17.333 22.667c9.333 9.333 22.667 17.333 22.667 17.333s-13.333 8-22.667 17.333c-9.333 9.333-17.333 22.667-17.333 22.667s-8-13.333-17.333-22.667c-9.333-9.333-22.667-17.333-22.667-17.333s13.333-8 22.667-17.333c9.333-9.333 17.333-22.667 17.333-22.667"/>
   <path d="m180 832.36s8 13.333 17.333 22.667c9.333 9.333 22.667 17.333 22.667 17.333s-13.333 8-22.667 17.333c-9.333 9.333-17.333 22.667-17.333 22.667s-8-13.333-17.333-22.667c-9.333-9.333-22.667-17.333-22.667-17.333s13.333-8 22.667-17.333c9.333-9.333 17.333-22.667 17.333-22.667"/>
   <path d="m100 922.36s8 13.333 17.333 22.667c9.333 9.333 22.667 17.333 22.667 17.333s-13.333 8-22.667 17.333c-9.333 9.333-17.333 22.667-17.333 22.667s-8-13.333-17.333-22.667c-9.333-9.333-22.667-17.333-22.667-17.333s13.333-8 22.667-17.333c9.333-9.333 17.333-22.667 17.333-22.667"/>
   <path d="m260 922.36s8 13.333 17.333 22.667c9.333 9.333 22.667 17.333 22.667 17.333s-13.333 8-22.667 17.333c-9.333 9.333-17.333 22.667-17.333 22.667s-8-13.333-17.333-22.667c-9.333-9.333-22.667-17.333-22.667-17.333s13.333-8 22.667-17.333c9.333-9.333 17.333-22.667 17.333-22.667"/>
   <path d="m330 932.36s3 5 6.5 8.5 8.5 6.5 8.5 6.5-5 3-8.5 6.5-6.5 8.5-6.5 8.5-3-5-6.5-8.5-8.5-6.5-8.5-6.5 5-3 8.5-6.5 6.5-8.5 6.5-8.5"/>
   <path d="m30 602.36s3 5 6.5 8.5 8.5 6.5 8.5 6.5-5 3-8.5 6.5-6.5 8.5-6.5 8.5-3-5-6.5-8.5-8.5-6.5-8.5-6.5 5-3 8.5-6.5 6.5-8.5 6.5-8.5"/>
   <path d="m30 542.36c-5.54 0-10 4.46-10 10v5c0 3 1.323 5.67 3.406 7.5-2.083 1.83-3.406 4.496-3.406 7.5v10c0 5.54 4.46 10 10 10s10-4.46 10-10v-10c0-3-1.323-5.67-3.406-7.5 2.083-1.83 3.406-4.496 3.406-7.5v-5c0-5.54-4.46-10-10-10m0 5c2.77 0 5 2.23 5 5v5c0 2.77-2.23 5-5 5s-5-2.23-5-5v-5c0-2.77 2.23-5 5-5m0 20c2.77 0 5 2.23 5 5v10c0 2.77-2.23 5-5 5s-5-2.23-5-5v-10c0-2.77 2.23-5 5-5"/>
   <path d="m330 1022.4c-5.54 0-10-4.46-10-10v-5c0-3 1.323-5.67 3.406-7.5-2.083-1.83-3.406-4.496-3.406-7.5v-10c0-5.54 4.46-10 10-10s10 4.46 10 10v10c0 3-1.323 5.67-3.406 7.5 2.083 1.83 3.406 4.496 3.406 7.5v5c0 5.54-4.46 10-10 10m0-5c2.77 0 5-2.23 5-5v-5c0-2.77-2.23-5-5-5s-5 2.23-5 5v5c0 2.77 2.23 5 5 5m0-20c2.77 0 5-2.23 5-5v-10c0-2.77-2.23-5-5-5s-5 2.23-5 5v10c0 2.77 2.23 5 5 5"/>
  </g>
 </g>
</svg>
