<?xml version="1.0" encoding="UTF-8"?>
<svg version="1.1" viewBox="0 0 360 540" xmlns="http://www.w3.org/2000/svg" xmlns:xlink="http://www.w3.org/1999/xlink">
 <defs>
  <path id="g" d="m159.81 17.095a3.2704 1.591 0 1 1 -6.5407 0 3.2704 1.591 0 1 1 6.5407 0z" fill="#a00" stroke="#000" stroke-linecap="round" stroke-linejoin="round"/>
  <path id="a" d="m175.93 157a2.5117 2.3949 0 1 1 -5.0234 0 2.5117 2.3949 0 1 1 5.0234 0z" fill="#fff" stroke="#000" stroke-linecap="round" stroke-linejoin="round"/>
  <path id="f" d="m162.25 666.89h2.884v11.374h-2.884z" fill="#fa5" stroke="#000" stroke-linecap="round" stroke-linejoin="round"/>
  <path id="b" d="m165.5 186.92a3.981 1.8009 0 1 1 -7.9621 0 3.981 1.8009 0 1 1 7.9621 0z" fill="#fa5" stroke="#000" stroke-linecap="round" stroke-linejoin="round"/>
  <path id="c" d="m127.28 750.43c0.943 1.179 1.486 1.504 2.21 2.828 0.732 1.34 1.148 4.257 1.726 5.67 0.625 1.527 1.446 3.169 2.428 4.495 0.702 0.947 1.836 1.995 2.917 2.21 0.557-0.425-0.652-2.888-0.806-4-0.173-1.253-0.432-2.517-0.343-3.778 0.037-0.526 0.707-0.887 0.707-1.414 0-1.087-0.471-2.121-0.707-3.182" fill="none" stroke="#000" stroke-linecap="round" stroke-linejoin="round"/>
  <path id="d" d="m133.82 754.85c0.23 0.485 0.583 0.934 0.707 1.451 0.095 0.398-0.126 0.857 0.02 1.232 0.197 0.507 0.576 0.922 0.864 1.383" fill="none" stroke="#000" stroke-linecap="round" stroke-linejoin="round"/>
  <path id="e" d="m132.05 755.02c0.36 0.934 0.815 1.837 1.097 2.796 0.329 1.118 0.27 2.379 0.848 3.392 0.301 0.527 1.061 0.589 1.591 0.884" fill="none" stroke="#000" stroke-linecap="round" stroke-linejoin="round"/>
 </defs>
 <g transform="translate(0,-512.36)">
  <rect x=".5" y="512.86" width="359" height="539" rx="29.944" fill="#fff" stroke="#000"/>
  <path d="m22 542.36v5l-2 40h-3v10h5v-5h16v5h5v-10h-3v-45zm5 5h8v40h-10z"/>
  <path d="m338 1022.4v-5l2-40h3v-10h-5v5h-16v-5h-5v10h3v45zm-5-5h-8v-40h10z"/>
  <path d="m90 552.37c-3.999-0.082-6.667 1.333-9.333 4-2.667 2.667-4 5.333-4 9.333s1.518 6.372 4 9.333c2.375 2.833 4 4 5.333 6.666 1.333 2.667 2.667 8 2.667 10.666v4h-2.667c-2.667 0-8-2.667-9.333-4l-4-4c-2.667-2.667-5.333-4-9.333-4s-6.667 1.333-9.333 4c-2.667 2.667-4 5.333-4 9.333s1.333 6.666 4 9.333 5.333 4 9.333 4 6.667-1.333 9.333-4l4-4c1.333-1.333 6.667-4 9.333-4h2.667c-0.066 3.776-0.346 10.37-1.333 13.333-1.333 4-4 8-6.667 10.666-2.667 2.667-10.667 8-10.667 8v1.333s13.333-2.667 16-2.667h8c2.667 0 16 2.667 16 2.667v-1.333s-8-5.333-10.667-8-5.333-6.666-6.667-10.666c-0.988-2.963-1.267-9.557-1.333-13.333h2.667c2.667 0 8 2.667 9.333 4l4 4c2.667 2.667 5.333 4 9.333 4s6.667-1.333 9.333-4c2.667-2.667 4-5.333 4-9.333s-1.333-6.666-4-9.333-5.333-4-9.333-4-6.667 1.333-9.333 4l-4 4c-1.333 1.333-6.667 4-9.333 4h-2.667v-4c0-2.667 1.333-8 2.667-10.666 1.333-2.667 2.667-4 5.333-6.666 2.653-2.653 4-5.333 4-9.333s-1.333-6.666-4-9.333-5.333-4-9.333-4"/>
  <path d="m270 1012.4c-4.02 0.081-6.695-1.333-9.373-4s-4.02-5.333-4.02-9.333 1.524-6.372 4.02-9.333c2.385-2.833 4.02-4 5.356-6.666 1.339-2.667 2.678-8 2.678-10.666v-4h-2.678c-2.678 0-8.03 2.667-9.373 4l-4.02 4c-2.678 2.667-5.356 4-9.373 4-4.02 0-6.695-1.333-9.373-4s-4.02-5.333-4.02-9.333 1.339-6.666 4.02-9.333c2.678-2.667 5.356-4 9.373-4 4.02 0 6.695 1.333 9.373 4l4.02 4c1.339 1.333 6.695 4 9.373 4h2.678c-0.067-3.776-0.347-10.37-1.339-13.333-1.339-4-4.02-8-6.695-10.666-2.678-2.667-10.712-8-10.712-8v-1.333s13.39 2.667 16.07 2.667h8.03c2.678 0 16.07-2.667 16.07-2.667v1.333s-8.03 5.333-10.712 8c-2.678 2.667-5.356 6.666-6.695 10.666-0.992 2.963-1.272 9.557-1.339 13.333h2.678c2.678 0 8.03-2.667 9.373-4l4.02-4c2.678-2.667 5.356-4 9.373-4 4.02 0 6.695 1.333 9.373 4s4.02 5.333 4.02 9.333-1.339 6.666-4.02 9.333c-2.678 2.667-5.356 4-9.373 4-4.02 0-6.695-1.333-9.373-4l-4.02-4c-1.339-1.333-6.695-4-9.373-4h-2.678v4c0 2.667 1.339 8 2.678 10.666 1.339 2.667 2.678 4 5.356 6.666 2.665 2.653 4.02 5.333 4.02 9.333s-1.339 6.666-4.02 9.333c-2.678 2.667-5.356 4-9.373 4"/>
  <path d="m30 602.36c-1.5-0.031-2.5 0.5-3.5 1.5s-1.5 2-1.5 3.5 0.569 2.39 1.5 3.5c0.891 1.063 1.5 1.5 2 2.5s1 3 1 4v1.5h-1c-1 0-3-1-3.5-1.5l-1.5-1.5c-1-1-2-1.5-3.5-1.5s-2.5 0.5-3.5 1.5-1.5 2-1.5 3.5 0.5 2.5 1.5 3.5 2 1.5 3.5 1.5 2.5-0.5 3.5-1.5l1.5-1.5c0.5-0.5 2.5-1.5 3.5-1.5h1c-0.025 1.416-0.13 3.889-0.5 5-0.5 1.5-1.5 3-2.5 4s-4 3-4 3v0.5s5-1 6-1h3c1 0 6 1 6 1v-0.5s-3-2-4-3-2-2.5-2.5-4c-0.37-1.111-0.475-3.584-0.5-5h1c1 0 3 1 3.5 1.5l1.5 1.5c1 1 2 1.5 3.5 1.5s2.5-0.5 3.5-1.5 1.5-2 1.5-3.5-0.5-2.5-1.5-3.5-2-1.5-3.5-1.5-2.5 0.5-3.5 1.5l-1.5 1.5c-0.5 0.5-2.5 1.5-3.5 1.5h-1v-1.5c0-1 0.5-3 1-4s1-1.5 2-2.5c0.995-0.995 1.5-2 1.5-3.5s-0.5-2.5-1.5-3.5-2-1.5-3.5-1.5"/>
  <path d="m330 962.36c-1.5 0.031-2.5-0.5-3.5-1.5s-1.5-2-1.5-3.5 0.569-2.39 1.5-3.5c0.891-1.063 1.5-1.5 2-2.5s1-3 1-4v-1.5h-1c-1 0-3 1-3.5 1.5l-1.5 1.5c-1 1-2 1.5-3.5 1.5s-2.5-0.5-3.5-1.5-1.5-2-1.5-3.5 0.5-2.5 1.5-3.5 2-1.5 3.5-1.5 2.5 0.5 3.5 1.5l1.5 1.5c0.5 0.5 2.5 1.5 3.5 1.5h1c-0.025-1.416-0.13-3.889-0.5-5-0.5-1.5-1.5-3-2.5-4s-4-3-4-3v-0.5s5 1 6 1h3c1 0 6-1 6-1v0.5s-3 2-4 3-2 2.5-2.5 4c-0.37 1.111-0.475 3.584-0.5 5h1c1 0 3-1 3.5-1.5l1.5-1.5c1-1 2-1.5 3.5-1.5s2.5 0.5 3.5 1.5 1.5 2 1.5 3.5-0.5 2.5-1.5 3.5-2 1.5-3.5 1.5-2.5-0.5-3.5-1.5l-1.5-1.5c-0.5-0.5-2.5-1.5-3.5-1.5h-1v1.5c0 1 0.5 3 1 4s1 1.5 2 2.5c0.995 0.995 1.5 2 1.5 3.5s-0.5 2.5-1.5 3.5-2 1.5-3.5 1.5"/>
  <path id="dg" d="m128.52 682.37c2.969 1.765 5.971 3.446 9.138 4.783 4.987 2.105 10.182 3.741 15.433 5.059 9.489 2.381 19.17 4.141 28.901 5.108 6.04 0.6 12.15 0.745 18.214 0.421 7.09-0.379 14.17-1.311 21.12-2.759 5.155-1.074 10.377-2.216 15.178-4.379 3.064-1.38 5.826-3.355 8.51-5.404 2.895 4.04 5.171 6.666 6.094 11.294 0 0-6.747 4.095-10.378 5.6-5.335 2.211-10.964 3.7-16.598 4.971-5.514 1.244-11.143 1.957-16.761 2.583-6.941 0.774-13.919 1.577-20.902 1.446-5.289-0.099-10.555-0.863-15.781-1.685-7.311-1.15-14.625-2.482-21.736-4.535-4.879-1.409-9.623-3.286-14.277-5.318-4.948-2.16-9.564-5.157-14.465-7.285 2.677-3.418 5.595-7.207 8.309-9.899z" fill="#fa5" stroke="#000"/>
  <path id="dh" d="m212.12 550.49c-5.702-8-15.463-8.768-24.435-8.06-11.05-0.091-19.548 9.74-26.794 17.15-10.429 12.752-21.09 27.308-22.521 44.32-7.662 13.176-12.357 27.18-19.5 40.595-20.604 14.219-44.961 22.919-63.856 39.481-11.07 10.916-21.92 24.14-24.754 39.69 0.12 19.568 0.24 38.637 0.36 58.2 11.958-0.083 21.417 0.083 33.375 0 17.17-18.473 26.15-38.623 31.982-60.909 1.238-9.546 0.854-20.649-0.232-28.09 7.655-0.807 16.68 5.62 22.242 2.82 3.104-6.066 9.11-12.582 14.581-17.13 5.888-1.143 11.454-9.356 10.1-15.594 1.479-6.143 3.204-11.719 2.209-18.24 3.572-5.275 4.772-11.06 4.868-17.235 5.175-7.175 0.102-15.82 4.875-23 1.883-11.413 1.408-24.06 9.473-33.464 8.374-12.631 19.262-22.285 34.521-24.955 5.122-0.518 9.3 2.188 13.507 4.418z" fill="#aaf" stroke="#000" stroke-linecap="round" stroke-linejoin="round"/>
  <path id="di" d="m128.53 682.62c1.636-2.192 3.3-4.348 6.071-5.08 2.563-0.835 4.503-2.814 4.687-5.57 0.639-3.588 3.01-6.459 6.03-8.377 3.117-2.619 6.585-4.955 9.489-7.747 1.388-3.251 3.616-6.287 4.485-9.671 0.383-15.174 2.428-30.28 1.953-45.48-0.4-6.622 1.715-13.02 2.643-19.52 4.111-5.623 7.472-11.874 12.825-16.46 4.608-5.266 10.734-8.75 16.252-12.948 3.407-0.31 6.904-1.205 10.257-1.161 3.202 1.654 6.812 2.86 9.761 4.793 2.896 5.232 6.358 10.238 8.903 15.611 1.638 7.503 3.774 14.953 5.099 22.489-0.263 6.141 0.086 12.389-0.561 18.463-4.373 12.323-8.154 24.851-12.151 37.29-0.851 2.359-2.94 4.545-2.994 7.02 0.491 2.36 0.374 5.055 2.799 6.349 2.89 3.133 6.922 4.837 10.675 6.67 2.645 0.053 3.634 2.32 4.859 4.272 1.441 2.4 2.85 4.833 5.662 5.761 3.549 1.571 6.333 4.479 9.899 5.94-3.467 2.374-6.688 5.232-10.919 6.104-5.213 2.118-10.677 3.271-16.221 4.117-12.05 1.794-24.29 3.953-36.474 2.394-12.15-2.389-24.59-3.811-36.23-8.227-5.421-2.024-11.358-2.898-16.02-6.544-0.26-0.162-0.519-0.324-0.779-0.487z" fill="#faa" stroke="#000" stroke-linecap="round" stroke-linejoin="round"/>
  <path id="dj" d="m182.79 542.36c-2.283 1.206-4.723 2.141-6.889 3.549-2.917 1.896-5.57 4.188-8.137 6.536-3.158 2.889-6.106 6.01-8.9 9.256-1.686 1.957-3.215 4.045-4.728 6.138-2.156 2.981-4.261 6-6.194 9.133-1.64 2.655-3.049 5.445-4.574 8.168-1.147-0.915-2.492-1.617-3.503-2.687-1.165-1.233-2.473-2.557-2.861-4.207-0.276-1.172 0.085-2.443 0.486-3.578 1.788-5.058 5.199-9.416 8.339-13.767 2.03-2.813 4.326-5.441 6.75-7.923 2.728-2.794 5.712-5.334 8.733-7.808 1.208-0.99 2.506-2.089 3.75-2.81h17.726z" fill="#fa5" stroke="#000" stroke-linecap="round" stroke-linejoin="round"/>
  <path id="dk" d="m144.78 583.02c-1.157-1.182-2.388-2.301-3.389-3.614-0.467-0.612-1.051-1.216-1.207-1.97-0.195-0.944 0.106-1.948 0.408-2.864 0.671-2.036 1.922-3.84 3.059-5.657 1.544-2.467 3.274-4.818 5.091-7.092 2.797-3.501 5.733-6.907 8.922-10.06 2.614-2.581 5.312-5.123 8.337-7.207 1.375-0.948 2.942-1.584 4.412-2.376" fill="none" stroke="#000"/>
  <use transform="matrix(.44149 -.72446 .87244 .53167 61.55 674.43)" width="360" height="540" xlink:href="#g"/>
  <use transform="matrix(.5901 -.60954 .73405 .71064 48.52 642.95)" width="360" height="540" xlink:href="#g"/>
  <use transform="matrix(.64485 -.5513 .66391 .77657 49.637 623.52)" width="360" height="540" xlink:href="#g"/>
  <use transform="matrix(.79867 -.28616 .34461 .96181 40.03 572.48)" width="360" height="540" xlink:href="#g"/>
  <path transform="translate(0,512.36)" d="m136.83 65-17.15-5.303 17.854-3.889-10.96-13.08 19.269 1.591-1.945-13.08 14.1 1.945-0.044-2.475c3.388-0.118 2.887-0.059 6.276-0.177 0 0-7.824 6.18-11.314 9.723-2.261 2.295-4.212 4.88-6.187 7.425-1.605 2.067-3.139 4.191-4.596 6.364-1.43 2.132-3.03 4.191-4.066 6.541-0.616 1.4-1.237 4.419-1.237 4.419z" fill="#fa5" stroke="#000" stroke-linecap="round" stroke-linejoin="round"/>
  <path id="dl" transform="translate(0,512.36)" d="m129.93 42.904a3.8007 3.7123 0 1 1 -7.6014 0 3.8007 3.7123 0 1 1 7.6014 0z" fill="#fa5" stroke="#000" stroke-linecap="round" stroke-linejoin="round"/>
  <path id="dm" transform="translate(0,512.36)" d="m123.57 59.609a3.4471 3.8007 0 1 1 -6.8943 0 3.4471 3.8007 0 1 1 6.8943 0z" fill="#fa5" stroke="#000" stroke-linecap="round" stroke-linejoin="round"/>
  <path id="dn" transform="matrix(1 0 0 -1 -.177 573.16)" d="m139.3 30.264a3.5355 3.4471 0 0 1 7.0711 0h-3.536z" fill="#fa5" stroke="#000" stroke-linecap="round" stroke-linejoin="round"/>
  <path id="do" transform="translate(0,512.36)" d="m126.4 61.47 12.728-3.01 2.121-2.652-8.839-10.08 14.496 1.945 2.652-3.536-2.475-9.723 9.369 2.121" fill="none" stroke="#000" stroke-linecap="round" stroke-linejoin="round"/>
  <path id="dp" d="m199.75 553.36c-3.072 4.145-4.371 10.11-9.362 12.334-2.777 0.371-6.702-1.16-8.09 2.134-2.594 2.906-1.061 8.497-5.303 10.209-2.477 1.932-6.247 1.229-7.379 4.816-2.336 4.207-0.735 9.341-0.485 13.902 1.164 4.574 3.671 9.3 1.572 13.981-1.354 2.907 2.298 4.99 0.877 7.897-1.514 2.337-2.384 5.225-0.042 7.571 2.516 3.692 1.528 8.371-0.609 12.04-0.283 3.01-3.948 2.678-4.216 6.337 1.74 2.596 3.457 5.16 2.835 8.25 0.14 3.467-2.887 5.331-6.211 5.497-2.912-1.343-6.54 2.204-3.232 4.259 2.515 3.156 0.734 9.346-3.578 9.13-3.745-0.141-4.674-3.292-6.568-4.631-0.362 2.388 1.452 2.95 1.473 6.5 2e-3 3.01-1.149 4.073-4.083 5.687-2.494 0.78-6.824-2e-3 -6.64-3.266 4.329 2.032 6.767-2.618 3.536-6.363-2.784-1.857-4.536-4.34-3.514-7.6 0.44-4.135 3.739-2.501 1.948-12.167-0.5-3.7 2.066-6.516 3.607-9.477 1.635-3.223 0.724-6.757 0.977-10.11 1.46-3.379 3.404-6.476 3.505-10.284-0.026-2.818-1.812-5.451-6e-3 -8.31 2.126-4.801 3.287-9.958 2.852-15.239 1.045-5.934 1.116-12.226 4.686-17.342 2.896-3.88 4.883-8.415 7.828-12.211 4.857-5.138 8.136-7.681 13.401-12.362 4.141-3.372 8.06-5.04 12.847-6.997 3.201-1.194 6.996-1.891 10.399-1.134 5.442 1.21 9.956 5.082 14.289 8.689 3.02 2.546 3.789 6.952 5.315 10.597 1.301 3.108 3.33 5.668 3.257 9.57-0.059 2.917 0.048 5.706 2.131 8.01 1.548 3.349 1.434 7.092 1.497 10.646 0.877 3.808 3.467 7.182 4.04 10.957 0.332 3.208-1.698 6.297 0.217 9.256 2.337 5.398 0.533 11.387-1.834 16.286-1.609 4.32-1.361 10.271-1.139 15.387 0.221 5.094-5.862 4.624-4.592 12.58 0.419 2.625 8e-3 4.01 2.995 6.982 2.161 1.864 3.281 5.124 3.395 7.886 0.342 2.151 0.305 2.365 0.51 4.467-1.796-0.774-2.85-0.91-4.546-2.212-6.115-2.821-11.637-7.729-18.653-7.813-4.699-1.464-10.883-4.243-10.483-10.05-0.156-4.83 0.462-9.672 0.23-14.517 5.718 0.725 10.698-2.678 13.516-7.269 3.652-4.606 5.37-10.475 7.154-15.989 1.603-8.896 3.14-17.842 2.718-26.912 0.633-5.508 0.524-12.564-3.059-17.798-2.457-3.589-2.832-7.847-5.657-11.758-2.994-1.084-6.499 0.294-8.864-2.446-2.55-1.639-3.054-5.181-4.04-7.63-0.177-0.44-0.948 0.024-1.422 0.041z" fill="#a55" stroke="#000" stroke-linecap="round" stroke-linejoin="round"/>
  <path id="dq" d="m195.62 546.61c0.075 0.447 5e-3 1.083-0.151 1.592-0.573 1.864-1.682 3.542-2.815 5.13-1.741 2.442-3.687 4.813-6.05 6.663-3.197 2.505-8.08 2.703-10.718 5.793-1.358 1.593-0.748 4.309-2.076 5.926-1.89 2.302-5.24 3.409-7.697 4.539-3 1.38-2.448 7.212-2.787 10.969-0.332 3.678 0.612 7.363 0.759 11.05 0.145 3.618 1.778 7.217 0.124 10.863-2.349 5.18 2.427 4.105 2.281 6.35-0.173 2.654-3.262 4.857-3.648 7.095-0.214 1.24 0.149 2.514 0.294 3.764 0.262 2.258 1.497 4.513 1.04 6.739-0.34 1.653-2.243 2.665-2.683 4.295-0.3 1.112-0.165 2.334 0.108 3.453 0.254 1.042 0.968 1.917 1.392 2.901" fill="none" stroke="#000" stroke-linecap="round" stroke-linejoin="round"/>
  <path id="dr" d="m164.5 607.61c-1.627 2.052-3.071 2.46-4.269 3.999-1.691 2.173-3.476 4.526-3.996 7.23-0.533 2.773 1.367 5.598 1.058 8.404-0.243 2.209-1.859 4.088-2.25 6.276-0.75 4.187 1.195 8.718-0.128 12.761-0.616 1.884-2.696 3.01-3.467 4.832-0.534 1.264-1.046 2.268-0.723 4.053 0.343 1.897 1.395 1.149 1.816 4.198 0.139 1.01-0.753 2.534-1.535 3.759-0.85 1.333-1.629 2.136-1.131 4.237" fill="none" stroke="#000" stroke-linecap="round" stroke-linejoin="round"/>
  <path id="ds" d="m221.12 612.86c2.188 10.256-0.58 13.376-2.098 19.768-0.693 2.917 1.337 9.111 0.473 11.982-1.433 4.759-4.672 4.54-5.75 7.5-0.492 1.35-0.305 2.874-0.193 4.306 0.103 1.315 0.337 2.638 0.789 3.878 0.636 1.744 1.704 3.301 2.663 4.89 0.688 1.141 1.577 2.158 2.215 3.327 0.409 0.75 0.601 1.316 1.026 2.349" fill="none" stroke="#000" stroke-linecap="round" stroke-linejoin="round"/>
  <path id="dt" d="m164.2 603.11c-1.627 2.052-5.177 3.681-7.144 6.124-1.598 1.984-3.715 4.185-3.621 6.73 0.145 3.914 0.051 7.555-0.442 11.279-0.364 2.746-2.187 6-1.625 8.151 2.232 8.539-2.884 9.831-4.378 14.886-0.788 2.666 2.036 6.04 1.283 8.957-0.566 2.195-3.969 3.165-4.098 5.428-0.175 3.071 4.597 4.873 4.691 7.948 0.031 1.032-0.625 2.087-1.41 2.759-0.901 0.772-2.379 1.511-3.381 1.112" fill="none" stroke="#000" stroke-linecap="round" stroke-linejoin="round"/>
  <path id="du" d="m163.94 613.11c-1.686 2.177-4.176 4.938-4.746 7.98-0.577 3.083 2.034 6.179 1.558 9.279-0.307 1.997-2.444 3.404-2.75 5.401-0.725 4.722 3.619 10.1 2.372 14.14-0.508 1.644-2.666 2.22-3.717 3.582-0.77 0.999-1.734 2.047-1.848 3.303-0.296 3.271 4.094 6.165 3.191 9.323-0.255 0.893-1.318 2.151-2.16 1.759-3.759-1.751-1.013-4.389-3.889-6.162" fill="none" stroke="#000" stroke-linecap="round" stroke-linejoin="round"/>
  <path id="dv" d="m215.57 631.82c-0.063 2.694 0.834 6.403 0.017 9.442-0.886 3.292-4.273 7.212-5.147 8.839-1.449 2.696-1.154 3.368-1.313 5.124-0.13 1.436 0.091 2.889 0.305 4.315 0.175 1.166 0.345 2.358 0.798 3.447 0.437 1.052 1.088 2.02 1.817 2.896 0.829 0.997 2.231 1.969 2.864 2.635" fill="none" stroke="#000" stroke-linecap="round" stroke-linejoin="round"/>
  <path id="dw" d="m210.17 638.89c-0.063 2.132 8e-3 5.164-0.983 7.472-0.867 2.02-3.273 3.833-4.147 5.12-1.449 2.134-1.266 3.906-1.313 5.93-0.026 1.088 0.362 2.145 0.555 3.216 0.176 0.976 0.116 2 0.548 2.926 0.395 0.846 1.069 1.611 1.817 2.292 0.64 0.583 1.606 0.964 2.239 1.492" fill="none" stroke="#000" stroke-linecap="round" stroke-linejoin="round"/>
  <path id="dx" d="m204.12 643.36c-0.042 1.042 0.272 2.161-0.125 3.125-0.517 1.254-1.969 1.891-2.75 3-0.423 0.601-0.727 1.28-1.028 1.95-0.426 0.95-0.731 1.95-1.097 2.925" fill="none" stroke="#000" stroke-linecap="round" stroke-linejoin="round"/>
  <path id="dy" transform="translate(0,512.36)" d="m223.25 76.75c0.187 2.412 1.189 4.713 1.375 7.125 0.263 3.409-0.622 6.84-0.375 10.25 0.217 3 1.325 5.883 1.625 8.875 0.22 2.198 0.542 4.456 0.125 6.625-0.359 1.865-1.786 3.399-2.214 5.25-0.649 2.811-0.47 5.758-0.473 8.643-3e-3 2.998 1.337 6.111 0.473 8.982-1.433 4.759-4.672 4.54-5.75 7.5-0.492 1.35-0.305 2.874-0.193 4.306 0.103 1.315 0.337 2.638 0.789 3.878 0.636 1.744 1.704 3.301 2.663 4.89 0.688 1.141 1.626 2.132 2.215 3.327 0.755 1.532 1.226 3.816 1.651 4.849" fill="none" stroke="#000" stroke-linecap="round" stroke-linejoin="round"/>
  <path id="dz" d="m199.37 546.09c-0.49 2.048-0.435 2.427-0.884 3.567-1.301 3.304-2.763 6.705-5.175 9.311-1.967 2.125-4.654 3.499-7.245 4.792-2.317 1.157-5.643 0.629-7.321 2.602-0.763 0.898-0.14 2.408-0.632 3.478-1.165 2.533-3.457 4.377-5.277 6.489-1.846 2.142-4.571 3.682-5.718 6.267-1.233 2.779-0.967 6.04-0.869 9.08 0.139 4.294 1.661 8.944 2.055 12.723 0.321 3.075-1.158 3.864-1.06 5.84 0.116 2.349 1.918 4.522 1.94 6.784-0.686 2.806-2.029 3.215-2.317 5.04-0.277 1.753-0.159 3.538 0.625 5.288 2.7 6.03 1.482 5.818 0.872 8.924-0.379 1.931-2.661 3.158-3.717 4.922-0.654 1.093-1.565 2.198-1.598 3.471-0.067 2.64 3.479 4.77 2.941 7.356-0.266 1.278-1.489 2.593-2.785 2.755-2.125 0.265-4.379-8e-3 -4.01 3.898" fill="none" stroke="#000" stroke-linecap="round" stroke-linejoin="round"/>
  <path id="ea" transform="translate(0,512.36)" d="m163.5 83.12-2.125 3.875-3.25 2.125-2.875 3.125-2.875 2.75" fill="none" stroke="#000"/>
  <path id="eb" d="m190.75 548.11c-1.351 2.392-2.847 3.656-4.524 5.241-1.597 1.511-3.366 2.851-5.225 4.02-2.08 1.313-4.779 1.666-6.578 3.344-2.272 2.119-2.798 5.611-4.791 7.994-1.222 1.461-3.037 2.335-4.304 3.757-1.696 1.904-3.264 3.99-4.335 6.305-1.262 2.73-1.969 5.728-2.352 8.711-0.242 1.885 0.534 3.865 0.046 5.701-0.797 3-2.874 5.512-4.688 8.05" fill="none" stroke="#000" stroke-linecap="round" stroke-linejoin="round"/>
  <path id="ec" d="m202.31 546.45c0.544 2.917 0.746 3.993 1.625 5.797 0.881 1.808 2.095 3.498 3.573 4.862 2.01 1.854 4.712 2.782 6.979 4.31 1.254 0.845 2.716 1.501 3.659 2.683 2.032 2.549 2.748 5.92 3.883 8.976 0.842 2.267 1.408 4.628 2.163 6.925 0.364 1.106 0.751 2.204 1.139 3.302 0.473 1.338 1.13 2.621 1.449 4 0.776 3.364 0.576 7.191 1.098 10.299 0.429 2.555 1.219 5.05 1.5 7.625 0.195 1.782 0.034 3.585 0.125 5.375 0.108 2.129 0.27 4.256 0.5 6.375 0.163 1.506 0.729 2.989 0.625 4.5-0.155 2.246-1.318 4.309-1.839 6.5-0.699 2.938-1.513 5.881-1.723 8.893-0.208 2.991 1.337 6.111 0.473 8.982-1.433 4.759-4.672 4.54-5.75 7.5-0.492 1.35-0.305 2.874-0.193 4.306 0.103 1.315 0.337 2.638 0.789 3.878 0.636 1.744 1.704 3.301 2.663 4.89 0.688 1.141 1.658 2.117 2.215 3.327 0.847 1.84 1.226 4.816 1.651 5.849" fill="none" stroke="#000" stroke-linecap="round" stroke-linejoin="round"/>
  <path id="ed" d="m205.89 548.04c0.354 1.886 0.466 2.891 1.289 4.04 1.287 1.797 3.436 2.807 5.334 3.94 1.677 1 3.732 1.334 5.3 2.499 1.119 0.831 1.916 2.02 2.801 3.107" fill="none" stroke="#000" stroke-linecap="round" stroke-linejoin="round"/>
  <path id="ee" d="m176.95 583.37c2.304-0.159 4.528-0.787 6.791-1.186 1.741-0.308 3.455-0.855 5.222-0.933 1.649-0.073 3.322 0.075 4.933 0.436 1.173 0.263 2.502 0.431 3.384 1.248 0.708 0.656 0.949 1.703 1.207 2.634 0.025 0.089 0.02 0.184 0.031 0.276" fill="none" stroke="#000" stroke-linecap="round" stroke-linejoin="round"/>
  <path id="ef" d="m196.22 590.8c-0.808-0.958-1.34-2.208-2.354-2.955-1.192-0.879-2.66-1.554-4.14-1.615-1.997-0.082-3.955 0.826-5.747 1.712-1.094 0.54-2.059 1.319-2.962 2.151" fill="none" stroke="#000" stroke-linecap="round" stroke-linejoin="round"/>
  <path id="eg" d="m195.69 592.21c-0.478-1.023-1.855-1.341-2.919-1.717-1.248-0.44-2.606-0.658-3.927-0.581-1.625 0.095-3.182 0.727-4.716 1.27-0.932 0.33-2.436 0.255-2.712 1.205-0.11 0.379 0.386 0.699 0.657 0.986 1.167 1.239 2.448 2.57 4.071 3.08 2 0.629 4.295 0.386 6.298-0.249 1.095-0.347 2.264-0.912 2.894-1.873 0.393-0.599 0.657-1.472 0.354-2.121z" fill="#fff" stroke="#000" stroke-linecap="round" stroke-linejoin="round"/>
  <path id="eh" d="m221.5 583.73c-2.652-0.295-5.334-1.385-7.955-0.884-1.192 0.228-2.4 0.809-3.214 1.707-0.992 1.095-1.401 2.649-1.686 4.099-0.271 1.381-0.072 2.817 9e-3 4.222 0.176 3.05 0.63 6.078 1.033 9.106 0.222 1.674 0.087 3.46 0.763 5.01 0.402 0.919 1.549 1.405 1.877 2.354 0.288 0.833 0.358 1.848-0.021 2.643-0.462 0.968-1.695 1.32-2.485 2.045-0.697 0.639-0.918 2.02-1.984 2.028-2.654 0.016-1.976-1.11-2.99-1.615-0.858-0.427-0.906-1.16-2.615-1.192-0.828-0.016-1.061 0.982-1.735 1.072-0.692 0.093-1.525-0.088-2.01-0.592-0.321-0.335-0.21-0.906-0.337-1.352-0.154-0.539-0.372-1.074-0.516-1.602" fill="none" stroke="#000" stroke-linecap="round" stroke-linejoin="round"/>
  <path id="ei" d="m210.54 588.32c1.485-0.624 2.906-1.516 4.498-1.729 1.349-0.181 2.782-0.052 4.063 0.409 0.941 0.339 1.736 1.017 2.494 1.671 0.363 0.313 0.645 0.709 0.967 1.064" fill="none" stroke="#000" stroke-linecap="round" stroke-linejoin="round"/>
  <path id="ej" d="m208.68 592.3c0.525-1.037 1.846-1.48 2.936-1.885 1.527-0.566 3.21-0.714 4.838-0.679 1.142 0.025 2.329 0.151 3.368 0.624 0.991 0.45 2.49 0.942 2.558 2.028 0.081 1.291-1.621 2.083-2.716 2.772-1.126 0.709-2.45 1.249-3.78 1.284-2.027 0.053-4.17-0.523-5.856-1.651-0.58-0.388-1.046-0.993-1.295-1.645-0.101-0.265-0.181-0.595-0.053-0.848z" fill="#fff" stroke="#000" stroke-linecap="round" stroke-linejoin="round"/>
  <path id="ek" d="m198.37 622.74c0.652-0.617 1.612-0.796 2.454-1.106 0.665-0.244 1.201-0.59 2.041-0.589 0.731 1e-4 1.188 0.568 1.83 0.617 1.084 0.083 2.129-0.647 3.212-0.557 0.59 0.049 1.182 0.264 1.677 0.589 0.705 0.463 1.82 1.019 1.72 1.856-0.079 0.667-1.169 0.676-1.677 1.116-0.679 0.588-0.993 1.61-1.799 2.01-1.334 0.655-3.03 0.77-4.446 0.325-0.804-0.253-1.301-1.073-1.964-1.595-0.6-0.471-1.144-1.034-1.821-1.386-0.504-0.262-1.166-0.118-1.624-0.515-0.55-0.476 0.187-0.565 0.395-0.762z" fill="#f55" stroke="#000" stroke-linecap="round" stroke-linejoin="round"/>
  <path id="el" d="m199.5 623.61c0.995-0.461 2.077-0.752 3.131-0.61 0.735 0.098 1.258 0.891 1.994 0.985 1.508 0.194 2.967-0.674 4.467-0.921 0.55-0.09 1.098-0.15 1.658-0.204" fill="none" stroke="#000" stroke-linecap="round" stroke-linejoin="round"/>
  <path id="em" transform="translate(.53 512.54)" d="m191.63 79.939a3.182 2.2097 0 1 1 -6.364 0 3.182 2.2097 0 1 1 6.364 0z" fill="#5a5" stroke="#000" stroke-linecap="round" stroke-linejoin="round"/>
  <path id="en" transform="translate(-.265 513.16)" d="m219.47 78.966a3.4471 2.2097 0 1 1 -6.8943 0 3.4471 2.2097 0 1 1 6.8943 0z" fill="#5a5" stroke="#000" stroke-linecap="round" stroke-linejoin="round"/>
  <path id="eo" transform="matrix(1.2105 0 0 1 -40.16 512.36)" d="m190.74 79.673a0.83969 0.70711 0 1 1 -1.6794 0 0.83969 0.70711 0 1 1 1.6794 0z" stroke="#000" stroke-linecap="round" stroke-linejoin="round" stroke-width=".909"/>
  <path id="ep" transform="translate(-.619 512.36)" d="m218.05 79.232a1.0165 0.7955 0 1 1 -2.0329 0 1.0165 0.7955 0 1 1 2.0329 0z" stroke="#000" stroke-linecap="round" stroke-linejoin="round"/>
  <path id="eq" d="m199.42 643.13c-1.829-0.239-3.751-0.517-5.592-0.944-1.366-0.317-2.759-0.613-4.03-1.2-0.953-0.439-2.07-1.3-2.642-1.711" fill="none" stroke="#000"/>
  <g transform="matrix(.93201 0 0 .94454 11.11 36.558)" fill="#fff" stroke-width="1.066">
   <use transform="translate(.234 512.48)" width="360" height="540" xlink:href="#a"/>
   <use transform="translate(-12.208,503.89)" width="360" height="540" xlink:href="#a"/>
   <use transform="translate(-8.353,507.05)" width="360" height="540" xlink:href="#a"/>
   <use transform="translate(-4.147,509.62)" width="360" height="540" xlink:href="#a"/>
   <use transform="translate(4.498,514.99)" width="360" height="540" xlink:href="#a"/>
   <use transform="translate(9.638,516.63)" width="360" height="540" xlink:href="#a"/>
   <use transform="translate(14.778,517.68)" width="360" height="540" xlink:href="#a"/>
   <use transform="translate(20.15,518.28)" width="360" height="540" xlink:href="#a"/>
   <use transform="translate(25.06,516.86)" width="360" height="540" xlink:href="#a"/>
   <use transform="translate(29.26,514.06)" width="360" height="540" xlink:href="#a"/>
   <use transform="translate(32.769,510.43)" width="360" height="540" xlink:href="#a"/>
  </g>
  <g transform="matrix(-1 0 0 .89571 356.73 76.52)" fill="#fa5" stroke="#000">
   <use transform="matrix(.98612 .16606 0 1 0 0)" width="360" height="540" stroke-width="1.064" xlink:href="#f"/>
   <path transform="matrix(.97619 0 0 1.1276 3.751 489.5)" d="m165.5 186.92a3.981 1.8009 0 1 1 -7.9621 0 3.981 1.8009 0 1 1 7.9621 0z" fill="#fa5" stroke="#000" stroke-linecap="round" stroke-linejoin="round" stroke-width="1.01"/>
  </g>
  <g transform="matrix(.99857 .0534 -.0534 .99857 35.29 -8.811)" fill="#fff" stroke-width="1.066">
   <use transform="matrix(.93201 0 0 .94454 15.92 536.7)" width="360" height="540" xlink:href="#a"/>
   <use transform="matrix(.93201 0 0 .94454 4.908 527.65)" width="360" height="540" xlink:href="#a"/>
   <use transform="matrix(.93201 0 0 .94454 8.268 530.75)" width="360" height="540" xlink:href="#a"/>
   <use transform="matrix(.93201 0 0 .94454 11.837 533.99)" width="360" height="540" xlink:href="#a"/>
   <use transform="matrix(.93201 0 0 .94454 19.894 539.07)" width="360" height="540" xlink:href="#a"/>
   <use transform="matrix(.93201 0 0 .94454 24.685 540.61)" width="360" height="540" xlink:href="#a"/>
   <use transform="matrix(.93201 0 0 .94454 29.475 541.61)" width="360" height="540" xlink:href="#a"/>
   <use transform="matrix(.93201 0 0 .94454 34.484 542.17)" width="360" height="540" xlink:href="#a"/>
   <use transform="matrix(.93201 0 0 .94454 39.06 540.84)" width="360" height="540" xlink:href="#a"/>
   <use transform="matrix(.93201 0 0 .94454 42.977 538.19)" width="360" height="540" xlink:href="#a"/>
   <use transform="matrix(.93201 0 0 .94454 46.24 534.77)" width="360" height="540" xlink:href="#a"/>
   <use transform="matrix(.93201 0 0 .94454 2.036 523.93)" width="360" height="540" xlink:href="#a"/>
   <use transform="matrix(.93201 0 0 .94454 48.18 530.47)" width="360" height="540" xlink:href="#a"/>
   <use transform="matrix(.93201 0 0 .94454 49.583 525.92)" width="360" height="540" xlink:href="#a"/>
   <use transform="matrix(.93201 0 0 .94454 49.816 521.01)" width="360" height="540" xlink:href="#a"/>
  </g>
  <g transform="matrix(1 0 0 .95828 22.09 32.735)" fill="#fa5" stroke="#000">
   <path id="cy" transform="matrix(.98612 .16606 0 1 0 0)" d="m162.25 666.89h2.98v10.864h-2.98z" fill="#fa5" stroke="#000" stroke-linecap="round" stroke-linejoin="round" stroke-width="1.029"/>
   <use transform="matrix(.97619 0 0 1.1276 3.751 489.44)" width="360" height="540" stroke-width=".974" xlink:href="#b"/>
  </g>
  <g transform="matrix(-1 0 0 .90614 369.2 67.951)" fill="#fa5" stroke="#000">
   <path transform="matrix(.98612 .16606 0 1 0 0)" d="m162.25 666.89h2.884v11.06h-2.884z" fill="#fa5" stroke="#000" stroke-linecap="round" stroke-linejoin="round" stroke-width="1.058"/>
   <use transform="matrix(.97619 0 0 1.1276 3.751 489.39)" width="360" height="540" xlink:href="#b"/>
  </g>
  <g fill="#fff" stroke-width="1.066">
   <use transform="matrix(.93068 .04977 -.05044 .9432 25.02 538.72)" width="360" height="540" xlink:href="#a"/>
   <use transform="matrix(.93068 .04977 -.05044 .9432 13.678 529.43)" width="360" height="540" xlink:href="#a"/>
   <use transform="matrix(.93068 .04977 -.05044 .9432 17.363 532.87)" width="360" height="540" xlink:href="#a"/>
   <use transform="matrix(.93068 .04977 -.05044 .9432 21.08 535.8)" width="360" height="540" xlink:href="#a"/>
   <use transform="matrix(.93068 .04977 -.05044 .9432 28.859 541.3)" width="360" height="540" xlink:href="#a"/>
   <use transform="matrix(.93068 .04977 -.05044 .9432 33.561 543.1)" width="360" height="540" xlink:href="#a"/>
   <use transform="matrix(.93068 .04977 -.05044 .9432 38.29 544.35)" width="360" height="540" xlink:href="#a"/>
   <use transform="matrix(.93068 .04977 -.05044 .9432 43.26 545.18)" width="360" height="540" xlink:href="#a"/>
   <use transform="matrix(.93068 .04977 -.05044 .9432 47.9 544.09)" width="360" height="540" xlink:href="#a"/>
   <use transform="matrix(.93068 .04977 -.05044 .9432 51.956 541.65)" width="360" height="540" xlink:href="#a"/>
   <use transform="matrix(.93068 .04977 -.05044 .9432 10.348 525.56)" width="360" height="540" xlink:href="#a"/>
   <use transform="matrix(.93068 .04977 -.05044 .9432 58.721 534.72)" width="360" height="540" xlink:href="#a"/>
   <use transform="matrix(.93068 .04977 -.05044 .9432 55.4 538.41)" width="360" height="540" xlink:href="#a"/>
   <use transform="matrix(.93068 .04977 -.05044 .9432 61.19 530.25)" width="360" height="540" xlink:href="#a"/>
   <use transform="matrix(.93068 .04977 -.05044 .9432 62.68 525.53)" width="360" height="540" xlink:href="#a"/>
   <use transform="matrix(.93068 .04977 -.05044 .9432 63.77 520.95)" width="360" height="540" xlink:href="#a"/>
   <use transform="matrix(.93068 .04977 -.05044 .9432 64.761 516)" width="360" height="540" xlink:href="#a"/>
   <use transform="matrix(.93068 .04977 -.05044 .9432 7.268 521.61)" width="360" height="540" xlink:href="#a"/>
   <use transform="matrix(.93068 .04977 -.05044 .9432 4.624 517.32)" width="360" height="540" xlink:href="#a"/>
  </g>
  <path id="er" d="m194.25 542.86c-7.601 1.602-14.256 6.06-20.18 10.888-7.753 6.322-14.796 14.06-19.274 23-3.538 7.07-3.488 15.421-5.425 23.08-1.425 5.637-2.94 11.252-4.561 16.836-2.06 7.1-3.367 14.476-6.561 21.19" fill="none" stroke="#000" stroke-linecap="round" stroke-linejoin="round"/>
  <path id="es" d="m138.57 603.79c2.765-5.382 4.157-8.934 6.927-12.427" fill="none" stroke="#000" stroke-linecap="round" stroke-linejoin="round"/>
  <path id="et" d="m140.5 609.86c-1.733 7.78-4.278 15.364-7.74 22.5-4.37 9.01-10.03 17.374-16.26 25.25" fill="none" stroke="#000" stroke-linecap="round" stroke-linejoin="round"/>
  <path id="eu" d="m118.75 644.61c-5.197 8.365-9.846 17.15-15.811 25-0.883 1.163-1.96 2.166-2.939 3.249" fill="none" stroke="#000" stroke-linecap="round" stroke-linejoin="round"/>
  <path id="ev" d="m136.5 656.86c0.162 9.04-8.438 13.678-13.04 20.262-1.254 1.795-3.492 2.978-3.963 5.238" fill="none" stroke="#000" stroke-linecap="round" stroke-linejoin="round"/>
  <path id="ew" d="m63.25 677.36c7.147-4.807 16.727-3.807 24.358-1.014 1.973 0.722 3.087 2.851 4.642 4.264" fill="none" stroke="#000" stroke-linecap="round" stroke-linejoin="round"/>
  <path id="ex" d="m95.75 693.61c-4.169-5.537-10.02-10.271-16.601-12.308-3.266-1.01-6.918-0.387-10.248 0.386-3.181 0.738-6.274 2.109-8.95 3.98-5.594 3.911-10.08 9.304-14.238 14.714-4.01 5.213-7.628 10.838-10.176 16.899-2.578 6.133-3.774 12.783-5.01 19.32-0.141 0.745-0.183 1.506-0.274 2.259" fill="none" stroke="#000" stroke-linecap="round" stroke-linejoin="round"/>
  <path id="ey" d="m72.75 681.11c2.351-0.412 4.876 0.318 6.644 1.922 1.394 1.264 2.291 2.991 2.911 4.768 0.869 2.488 1.244 5.123 1.446 7.75 0.326 4.246 0.209 8.525-0.352 12.746-0.993 7.472-3.363 14.693-6.06 21.73-1.779 4.637-3.708 9.223-6.01 13.625-2.869 5.498-6.298 10.683-9.805 15.797-3.043 4.437-6.158 8.838-9.683 12.903-2.061 2.376-4.28 4.651-6.887 6.411-2.049 1.383-4.323 2.434-6.704 3.097" fill="none" stroke="#000"/>
  <path id="ez" d="m44.25 781.86c2.295-0.766 4.479-1.864 6.463-3.25 5.02-3.508 8.576-8.694 11.948-13.808 3.91-5.929 7.73-11.926 11.127-18.16 2.078-3.815 3.997-7.72 5.653-11.736 2.925-7.092 5.02-14.507 6.574-22.02 1.257-6.081 2.163-12.326 1.417-18.49-0.4-3.305-1.301-6.612-3.146-9.383-0.779-1.171-1.719-2.234-2.785-3.15l6.876 4.189c2.273 2.245 3.902 5.136 4.644 8.244 0.508 2.126 0.606 4.326 0.668 6.511 0.121 4.244 0.117 8.5-0.33 12.722-0.577 5.441-1.888 10.784-3.533 16-2.138 6.781-4.845 13.379-8.03 19.735-2.709 5.403-5.761 10.627-8.942 15.767-2.762 4.463-5.665 8.918-9.528 12.471-1.834 1.686-3.869 3.153-6.05 4.359h-13.02" fill="#fa5" stroke="#000" stroke-linecap="round" stroke-linejoin="round"/>
  <path id="fa" d="m71.5 693.61c0.119 3.252 0.049 6.542-0.5 9.75-0.396 2.313-1.51 4.77-2 6.75 0.905 1.422 3.644-0.251 5 0.75 0.975 0.72 1.361 2.085 1.575 3.278 0.255 1.422 0.175 2.992-0.402 4.317-0.692 1.589-2.287 2.605-3.462 3.88-1.086 1.178-2.376 2.182-3.315 3.48-2.154 2.977-3.751 6.343-5.204 9.719-0.706 1.638-0.875 2.756-1.692 5.076-2.022-3.374-1.845-5.03-2.506-7.616-0.37-1.45 0.646-4.074-0.811-4.417-2.039 3.236-2.867 5.17-3.411 6.383-1.476 3.293-2.771 6.878-3.273 10.515-0.538 3.898-0.325 7.92 0.327 11.8 0.284 1.692 1.594 3.194 1.545 4.909-0.028 0.992-0.373 2.064-1.055 2.786-0.885 0.936-2.287 1.238-3.533 1.567-1.75 0.462-3.597 0.625-5.404 0.533-1.933-0.098-3.901-0.415-5.691-1.153-1.951-0.805-3.856-1.931-5.286-3.482-0.929-1.01-1.655-2.272-1.978-3.603-0.254-1.047-0.431-2.284 0.084-3.231 0.638-1.172 2.224-1.477 3.303-2.262 1.379-1 2.82-1.944 4.053-3.122 2.363-2.258 4.492-4.785 6.332-7.487 1.592-2.337 2.722-4.958 4.02-7.468 0.747-1.441 1.573-2.849 2.17-4.359 0.581-1.47 1.361-4.543 1.361-4.543-2.86 3.18-5.464 5.499-8.581 5.547-1.696 0.026 3.129-5.457 3.818-8.48 0.516-2.264 0.077-4.644 0.176-6.965 0.106-2.501-0.568-5.21 0.448-7.498 0.687-1.548 1.938-3.133 3.558-3.625 0.703-0.213 1.534 0.062 2.158 0.449 1.373 0.853 2.62 4.058 2.62 4.058s1.095-5.764 2.579-9.02c0.508-1.016 1.222-1.93 1.987-2.77 2.112-2.317 4.614-4.26 7.102-6.167 1.079-0.827 2.527-2.776 3.383-2.279 0.716 0.416 0.451 2.657 0.5 4z" fill="#fa5" stroke="#000" stroke-linejoin="round"/>
  <path id="fb" d="m58.12 717.86c0.292-1.828 0.771-3.626 1.427-5.356 0.95-2.505 2.264-4.853 3.566-7.194 1.03-1.851 2.056-3.705 3.147-5.52 0.763-1.269 1.559-2.52 2.434-3.714 0.551-0.751 1.135-1.481 1.808-2.125 0.313-0.3 0.645-0.58 0.992-0.84" fill="none" stroke="#000" stroke-linecap="round" stroke-linejoin="round"/>
  <path id="fc" d="m69 710.24c-0.859 1.747-1.858 3.426-2.984 5.01-0.67 0.945-1.384 1.858-2.141 2.735" fill="none" stroke="#000" stroke-linecap="round" stroke-linejoin="round"/>
  <path id="fd" transform="translate(0,512.36)" d="m230.16 135.53-4.596 6.01 1.061 7.778 3.889 5.303 2.475 10.607 5.657 1.414 3.889 1.768 4.596 2.121 4.596 3.182 5.303 5.834c3.038 3.745 6.07 8.187 8.808 13.25 2.743 5.063 5.201 10.217 7.102 14.327 1.066-1.76 0.065-4.071-0.177-5.127-0.974-4.254-6.187-13.435-6.187-13.435l-6.01-9.192-7.425-8.132-3.889-6.01-4.596-7.07-5.657-12.02-4.596-10.253-3.536-13.789z" fill="#aaf" stroke="#000" stroke-linecap="round" stroke-linejoin="round"/>
  <path id="fe" d="m226.63 653.2c1.911 1.749 4.193 3.15 5.83 5.165 0.975 1.2 1.843 2.55 2.301 4.03 0.461 1.487-0.154 3.194 0.383 4.656 0.593 1.613 1.96 2.826 3.01 4.189 1.161 1.51 2.857 2.673 3.629 4.414 0.701 1.579 0.469 3.424 0.758 5.127" fill="none" stroke="#000" stroke-linecap="round" stroke-linejoin="round"/>
  <g transform="matrix(.98756 .06325 -.15726 .96097 112.05 16.972)" fill="#fa5" stroke="#000">
   <use transform="matrix(.98612 .16606 0 1 0 0)" width="360" height="540" stroke-width="1.028" xlink:href="#f"/>
   <use transform="matrix(.97619 0 0 1.0526 3.751 502.62)" width="360" height="540" stroke-width="1.01" xlink:href="#b"/>
  </g>
  <path id="ff" d="m122.52 690.43c4.445 2.318 8.493 4.977 13 6.92 6.094 2.625 12.457 4.632 18.866 6.348 6.374 1.707 12.862 3.06 19.405 3.907 5.216 0.675 10.491 1 15.75 0.928 6.262-0.09 12.52-0.74 18.717-1.647 8.394-1.227 16.828-2.607 24.93-5.122 4.594-1.426 9.08-3.301 13.297-5.611 1.294-0.708 2.431-1.671 3.646-2.507" fill="none" stroke="#000" stroke-linecap="round" stroke-linejoin="round"/>
  <g fill="#fa5" stroke="#000">
   <g transform="matrix(.97887 .20451 -.19384 .92782 127.63 14.538)">
    <use transform="matrix(.98612 .16606 0 1 0 0)" width="360" height="540" stroke-width="1.034" xlink:href="#f"/>
    <use transform="matrix(.97619 0 0 1.0526 3.751 502.62)" width="360" height="540" stroke-width="1.013" xlink:href="#b"/>
   </g>
   <g transform="matrix(.99346 .11419 -.10823 .94165 87.62 24.532)">
    <use transform="matrix(.98612 .16606 0 1 0 0)" width="360" height="540" stroke-width="1.034" xlink:href="#f"/>
    <use transform="matrix(.97619 0 0 1.0526 3.751 502.62)" width="360" height="540" stroke-width="1.013" xlink:href="#b"/>
   </g>
   <g transform="matrix(-.99552 .09455 .08079 .85058 323.6 89.69)">
    <path id="dc" transform="matrix(.98612 .16606 0 1 0 0)" d="m162.25 666.89h2.866v11.156h-2.866z" fill="#fa5" stroke="#000" stroke-linecap="round" stroke-linejoin="round" stroke-width="1.089"/>
    <use transform="matrix(.97681 .00766 .00603 1.127 2.578 488.17)" width="360" height="540" stroke-width="1.031" xlink:href="#b"/>
   </g>
   <g transform="matrix(-.98976 .14105 .12194 .83574 305.7 89.88)">
    <path id="dd" transform="matrix(.98612 .16606 0 1 0 0)" d="m162.25 666.89h3.141v11.06h-3.141z" fill="#fa5" stroke="#000" stroke-linecap="round" stroke-linejoin="round" stroke-width="1.096"/>
    <use transform="matrix(.97761 .0115 .00905 1.1261 1.887 487.49)" width="360" height="540" stroke-width="1.037" xlink:href="#b"/>
   </g>
   <g transform="matrix(-.95948 .2621 .24075 .76255 227.73 117.74)">
    <path id="de" transform="matrix(.98612 .16606 0 1 0 0)" d="m162.29 666.62h2.85v11.64h-2.85z" fill="#fa5" stroke="#000" stroke-linecap="round" stroke-linejoin="round" stroke-width="1.13"/>
    <use transform="matrix(.98171 .02201 .01733 1.1217 -.342 486.31)" width="360" height="540" stroke-width="1.069" xlink:href="#b"/>
   </g>
   <g transform="matrix(.97887 .20451 -.19384 .92782 117.77 11.656)">
    <path id="df" transform="matrix(.98612 .16606 0 1 0 0)" d="m162.25 666.89h2.915v10.545h-2.915z" fill="#fa5" stroke="#000" stroke-linecap="round" stroke-linejoin="round" stroke-width="1.034"/>
    <use transform="matrix(.97619 0 0 1.0526 3.751 502.62)" width="360" height="540" stroke-width="1.013" xlink:href="#b"/>
   </g>
   <g transform="matrix(.9496 .29446 -.29057 .75914 180.67 110.87)">
    <use transform="matrix(.98612 .16606 0 1 0 0)" width="360" height="540" stroke-width="1.121" xlink:href="#f"/>
    <use transform="matrix(.97619 0 0 1.0526 3.751 502.62)" width="360" height="540" stroke-width="1.099" xlink:href="#b"/>
   </g>
  </g>
  <path id="fg" d="m64.35 781.86h54.978c-1.459-1.34-3.321-2.424-4.27-4.173-0.407-0.751-9e-3 -1.816-0.503-2.513-0.685-0.967-2.132-1.074-3.058-1.813-1.224-0.976-2.277-2.167-3.234-3.405-1.147-1.484-2.147-3.094-2.972-4.778-0.732-1.494-0.996-3.188-1.732-4.68-0.564-1.143-1.074-2.401-2.038-3.235-0.842-0.729-2.341-0.501-3.053-1.357-0.911-1.095-0.294-2.915-0.994-4.155-0.868-1.538-2.765-2.268-3.775-3.717-1.085-1.559-1.632-3.433-2.341-5.195-0.445-1.107-0.788-2.252-1.199-3.373-1.855 4.494-3.652 9.02-5.762 13.394-1.797 3.728-3.692 7.421-5.863 10.944-1.999 3.243-4.201 6.37-6.576 9.349-1.892 2.374-4.143 4.442-6.094 6.768-0.527 0.629-1.127 1.211-1.515 1.94z" fill="#55a" stroke="#000" stroke-linecap="round" stroke-linejoin="round"/>
  <path id="fh" transform="translate(0,512.36)" d="m120.03 179.91s5.41 2.732 8.132 4.066c2.935 1.438 5.853 2.915 8.839 4.243 2.27 1.01 4.537 2.046 6.894 2.828 4.04 1.342 8.228 2.211 12.374 3.182 3.049 0.714 6.11 1.392 9.192 1.945 3.987 0.714 12.02 1.768 12.02 1.768s1.694 15.464 2.828 23.16c0.706 4.792 1.541 9.566 2.475 14.319 0.686 3.493 1.456 6.971 2.298 10.43 0.865 3.555 1.834 7.085 2.828 10.607 1.233 4.368 3.889 13.05 3.889 13.05h-11.667s-3.433-13.174-5.127-19.767c-1.784-6.949-3.699-13.867-5.303-20.86-1.116-4.866-2.035-9.775-3.01-14.672-0.68-3.434-1.975-10.314-1.975-10.314s-8.143-2.211-12.167-3.475c-3.982-1.251-7.949-2.565-11.844-4.066-2.931-1.129-5.782-2.459-8.662-3.712-2.54-1.105-5.102-2.164-7.601-3.359-1.974-0.943-3.844-2.097-5.834-3.01-1.732-0.79-5.303-2.121-5.303-2.121z" fill="#55a" stroke="#000"/>
  <path id="fi" d="m251.13 696.77c-4.05 1.928-7.995 4.094-12.15 5.784-3.39 1.379-6.871 2.545-10.393 3.541-2.786 0.788-5.626 1.382-8.472 1.918-2.214 0.416-6.684 1-6.684 1s1.599 14.934 1.427 22.42c-0.113 4.9-0.73 9.793-1.608 14.614-0.615 3.375-1.656 6.658-2.554 9.969-1.143 4.218-2.433 8.396-3.605 12.606-1.226 4.404-3.587 13.237-3.587 13.237h10.329s3.418-10.76 4.83-16.223c1.579-6.107 2.809-12.3 4.07-18.48 0.96-4.704 2.266-9.37 2.659-14.155 0.54-6.563-0.424-19.751-0.424-19.751 6.361-2.437 7.177-2.248 10.724-3.494 3.355-1.179 6.713-2.363 9.979-3.769 2.789-1.2 5.549-2.975 8.196-3.976z" fill="#55a" stroke="#000"/>
  <g transform="matrix(.99934 -.03637 .03637 .99934 -26.15 8.407)">
   <path id="cz" transform="matrix(.93023 0 0 .98266 13.435 514.77)" d="m212.84 218.62a15.203 18.738 0 1 1 -30.406 0 15.203 18.738 0 1 1 30.406 0z" fill="#fa5" stroke="#000" stroke-linecap="round" stroke-linejoin="round" stroke-width="1.046"/>
   <path id="da" transform="matrix(.81591 0 0 .91625 36.36 530.26)" d="m210.36 217.56a13.435 16.617 0 1 1 -26.87 0 13.435 16.617 0 1 1 26.87 0z" fill="#ff5" stroke="#000" stroke-linecap="round" stroke-linejoin="round" stroke-width="1.157"/>
   <path id="db" d="m196.91 719.23c-0.75-0.019-1.25 0.317-1.75 0.95s-0.75 1.267-0.75 2.217 0.285 1.513 0.75 2.217c0.445 0.673 0.75 0.95 1 1.583s0.5 1.9 0.5 2.533v0.95h-0.5c-0.5 0-1.5-0.633-1.75-0.95l-0.75-0.95c-0.5-0.633-1-0.95-1.75-0.95s-1.25 0.317-1.75 0.95-0.75 1.267-0.75 2.217 0.25 1.583 0.75 2.217c0.5 0.633 1 0.95 1.75 0.95s1.25-0.317 1.75-0.95l0.75-0.95c0.25-0.317 1.25-0.95 1.75-0.95h0.5c-0.012 0.897-0.065 2.463-0.25 3.167-0.25 0.95-0.75 1.9-1.25 2.533s-2 1.9-2 1.9v0.317s2.5-0.633 3-0.633h1.5c0.5 0 3 0.633 3 0.633v-0.317s-1.5-1.267-2-1.9-1-1.583-1.25-2.533c-0.185-0.704-0.238-2.27-0.25-3.167h0.5c0.5 0 1.5 0.633 1.75 0.95l0.75 0.95c0.5 0.633 1 0.95 1.75 0.95s1.25-0.317 1.75-0.95 0.75-1.267 0.75-2.217-0.25-1.583-0.75-2.217c-0.5-0.633-1-0.95-1.75-0.95s-1.25 0.317-1.75 0.95l-0.75 0.95c-0.25 0.317-1.25 0.95-1.75 0.95h-0.5v-0.95c0-0.633 0.25-1.9 0.5-2.533s0.5-0.95 1-1.583c0.498-0.63 0.75-1.267 0.75-2.217s-0.25-1.583-0.75-2.217c-0.5-0.633-1-0.95-1.75-0.95z" stroke="#000" stroke-linecap="round" stroke-linejoin="round" stroke-width=".5"/>
  </g>
  <path id="h" transform="translate(0,512.36)" d="m111.02 183.62s4.259 4.819 5.303 7.778c0.983 2.787-0.282 6.05 0.707 8.839 0.765 2.156 2.795 3.647 3.889 5.657 1.465 2.691 2.601 5.567 3.536 8.485 0.522 1.632 0.287 3.528 1.146 5.01 0.945 1.629 3.01 2.333 4.157 3.828 1.859 2.427 2.356 5.726 4.243 8.132 2.422 3.088 6.287 4.797 8.839 7.778 0.999 1.167 1.297 2.902 2.475 3.889 3.322 2.783 8.639 2.241 12.02 4.95 1.123 0.899 1.478 2.499 2.475 3.536 2.565 2.667 6.05 4.284 8.839 6.718 1.507 1.315 2.573 3.142 4.243 4.243 1.06 0.699 2.363 0.928 3.536 1.414 0.829 0.343 2.475 1.061 2.475 1.061s-2.341-9.432-3.536-14.14c-1.57-6.192-3.331-12.338-4.773-18.562-1.644-7.093-2.8-14.292-4.419-21.39-0.541-2.369-1.768-7.07-1.768-7.07s-9.839-2.643-14.672-4.243c-5.435-1.798-10.802-3.811-16.09-6.01-2.994-1.246-5.936-2.621-8.839-4.066-2.455-1.222-4.713-2.845-7.248-3.889-2.103-0.866-6.541-1.945-6.541-1.945z" fill="#a00" stroke="#000" stroke-linecap="round" stroke-linejoin="round"/>
  <path id="i" d="m225.04 713.3c0.424 6.554 0.992 13.16 0.399 19.702-1.019 11.247-4.155 22.21-6.762 33.2-1.039 4.381-2.374 8.687-3.537 13.04 4.424-2.707 7.103-7.763 11.878-9.933 4.39-1.995 4.597-8.36 9.667-10.761 5.616-2.66 4.854-9.729 10.278-15.551 3.02-3.241 2.804-9.06 5.239-12.214 2.837-3.672 0.184-9.968 3.112-13.568 2.48-3.049 0.055-6.869-0.159-10.263-0.375-1.712-0.749-3.425-1.124-5.137-6.446 3.43-13.301 5.99-20.12 8.562-2.913 1.099-5.913 1.953-8.869 2.928z" fill="#a00" stroke="#000"/>
  <path id="j" transform="matrix(1 0 0 1.1538 -1.75 481.23)" d="m199.75 199.12a2.125 1.625 0 1 1 -4.25 0 2.125 1.625 0 1 1 4.25 0z" fill="#fa5" stroke="#000" stroke-linecap="round" stroke-linejoin="round" stroke-width=".931"/>
  <path id="k" d="m272 717.86c-0.133 2.548-0.437 5.074-0.832 7.588-0.365 2.323-0.171 4.918-1.418 6.912-0.725 1.159-2.665 1.265-3.25 2.5-1.141 2.412 1.091 5.468 0.25 8-0.725 2.182-3.175 3.388-4.298 5.395-2.225 3.976-1.744 9.345-4.655 12.85-0.578 0.696-1.511 1.013-2.339 1.377-1.183 0.519-2.872 0.144-3.708 1.128-1 1.18 0.104 3.231-0.613 4.603-1.179 2.255-4.319 2.971-5.637 5.147-1.519 2.507-1.5 5.75-2.25 8.5 9.833-0.083 19.667 0.083 29.5 0 0.533-2.732 0.772-5.862 1.499-8.72 1.106-4.344 3.182-8.397 4.334-12.729 1.077-4.052 1.408-8.274 2.395-12.35 0.426-1.759 2.01-3.47 1.521-5.213-0.185-0.66-1.021-0.916-1.517-1.389-0.6-0.572-1.317-1.055-1.766-1.752-0.998-1.549-1.4-3.415-1.922-5.182-1.14-3.863-1.205-8.03-2.625-11.794-0.653-1.733-2.051-3.101-2.67-4.87z" fill="#55a" stroke="#000" stroke-linecap="round" stroke-linejoin="round"/>
  <path id="l" d="m272.77 781.86c0.918-4.217 1.673-8.274 2.816-12.434 0.94-2.474 1.873-4.949 2.477-7.531 1.132-3.733 1.513-7.636 2.473-11.413 0.347-2.135 1.402-4.051 2.134-6.067 1.48 0.79 2.989 1.506 4.623 1.916 1.81 0.505 3.53 1.338 5.336 1.812 1.748 0.113 3.496 0.226 5.243 0.338 1.616-0.395 3.557-1.644 5.127-1.061 1.194 0.327 3.127-0.708 3.94-1.822 0.41-0.463 0.852-1.485 1.242-1.609 1.317 2.493 2.77 4.922 3.721 7.588 0.748 1.987 1.825 3.875 2.067 6.01 0.599 3.247 1.35 6.478 1.781 9.749 0.225 4.907 0.486 9.608 0.508 14.521h-43.487z" fill="#a00" stroke="#000"/>
  <path id="m" d="m283.2 744.77c-1.68-2.279-0.813-5.661-0.523-8.477 0.257-2.499-0.077-5.838 1.987-7.27 0.817-0.567 2.031-0.055 2.97 0.271 1.588 0.55 2.656 2.153 4.228 2.748 1.994 0.754 4.198 1.03 6.328 0.937 2.549-0.199 3.517-0.873 5.339-2.351 0.987-0.827 2.31-3.226 3.788-2.735 1.451 0.483 1.226 2.856 1.369 4.379 0.25 2.653-1.074 5.281-0.921 7.942 0.071 1.23 1.248 2.434 0.845 3.598-0.435 1.256-1.914 1.92-3.116 2.487-1.484 0.7-3.207 0.694-4.815 1.018-1.835 0.37-3.645 1.113-5.516 1.056-2.598-0.08-5.075-1.149-7.554-1.932-1.499-0.474-3.478-0.404-4.411-1.669z" fill="#fff" stroke="#000"/>
  <path id="n" d="m270.62 643.86c-0.278 2.475-0.214 5-0.783 7.437 0.075 2.479-0.136 3.272-0.289 5.327 0.281 2.583-0.195 4.077 0.599 6.569 0.444 1.646 1.161 3.341 1.775 4.929 1.066 1.58 2.133 3.159 3.199 4.739 0.875-0.833 1.75-1.667 2.625-2.5-1.125-1.388-2.375-2.713-3.109-4.367-0.815-1.541-1.399-3.213-1.804-4.902-0.205-1.749-0.641-3.519-0.252-5.276 0.301-2.037 0.094-3.585 0.067-5.647-0.043-1.132 1.296-2.996 0.901-3.965l-2.928-2.343z" fill="#5a5" stroke="#000"/>
  <path id="o" d="m270.75 657.94c-1-1.804-2.606-3.174-4.158-4.462-0.877-0.728-1.816-1.43-2.869-1.811-1.519-0.549-3.183-0.437-4.778-0.613-1.695-0.186-3.389-0.427-5.092-0.467-1.177-0.028-2.363 0.328-3.53 0.157-1.911-0.28-3.798-0.948-5.5-1.912-0.56-0.317-1.01-0.823-1.5-1.246-0.707-0.605-1.403-1.224-2.097-1.845-0.316 0.449 0.138 0.932 0.271 1.38 0.371 1.242 0.873 2.444 1.461 3.587 0.74 1.438 1.485 2.929 2.582 4.081 0.993 1.042 2.245 1.792 3.502 2.434 1.093 0.559 2.283 0.885 3.458 1.207 2.598 0.714 5.283 1.015 7.909 1.602 1.599 0.357 3.16 0.919 4.778 1.168 1.91 0.293 3.891-0.055 5.778 0.374 0.306 0.07 1.035 0.842 0.88 0.353-0.365-1.329-0.434-2.793-1.095-3.986z" fill="#5a5" stroke="#000"/>
  <path id="p" d="m270.73 665.18c-0.97 1.288-2.388 2.185-3.755 3.02-0.772 0.474-1.592 0.923-2.475 1.114-1.272 0.275-2.601 0.029-3.901 0.011-1.38-0.02-2.766 2e-3 -4.139-0.131-0.95-0.092-1.871-0.479-2.825-0.46-1.563 0.031-3.142 0.362-4.601 0.938-0.48 0.19-0.885 0.535-1.321 0.812-0.624 0.396-1.241 0.804-1.856 1.214-0.213-0.375 0.196-0.702 0.345-1.033 0.412-0.917 0.927-1.792 1.505-2.612 0.727-1.033 1.463-2.105 2.452-2.883 0.894-0.704 1.971-1.159 3.041-1.531 0.931-0.324 1.918-0.459 2.893-0.594 2.156-0.298 4.343-0.271 6.51-0.468 1.319-0.12 2.627-0.401 3.951-0.436 1.564-0.041 3.126 0.417 4.683 0.269 0.253-0.024 0.91-0.546 0.74-0.186-0.416 0.985-0.605 2.102-1.247 2.954z" fill="#5a5" stroke="#000"/>
  <path id="q" d="m286.38 728.86c-0.24-4.995 0.116-10.03-0.483-14.994-0.231-1.916-0.51-3.861-1.196-5.665-0.542-1.425-1.328-2.77-2.268-3.971-1.506-1.923-4.02-2.976-5.305-5.055-1.856-3.01-1.983-6.794-3.09-10.154-1.125-3.415-2.803-6.64-3.607-10.166-0.949-2.931-2.789-5.492-4.291-8.167-1.396-0.975-2.251-1.694-3.45-2.462-0.271-1.217 0.164-1.998 1.394-2.288 0.933-0.715 1.892-0.799 2.882-0.138 1.945 0.878 4.176 1.313 5.649 2.967 1.334 1.08 2.519 2.454 3.157 4.056 0.696-1.722 2.519-2.478 3.861-3.625 1.315-0.78 5.621-3.351 6.923-4.154-1.032 0.377-4.16 1.45-5.127 0.884-1.058-0.281-2.452 0.457-3.359-0.177-2.103 0.488-4.848 1.514-7 0.611-0.963-0.218-1.069-2.01-0.144-2.439 1.145-1.152 2.326-1.189 3.899-1.708 1.294-1.049 2.335-1.095 3.842-1.128 0.831-0.486 4.28-0.489 4.851 0.26 1.754 0.341 1.467 1.256 2.779 2.106 0.832 1.076-0.543 2.78 0.701 1.78 1.364-0.51 2.862-0.679 4.243-0.123 0.867 0.362 2.102 1.112 1.855 2.214 0.299 0.953-0.773 2.266-0.537 2.815 1.784-0.439 4.02-0.689 5.279 0.958 0.978 0.628 1.198 1.923 1.397 2.952 0.29 0.863-1.965 2.471-0.522 1.946 1.406-0.425 2.806-0.913 4.282-0.522 1.311 1.294 1.797 3.061 2.327 4.767 0.732 3.723 0.981 7.526 1.014 11.312 0.021 2.353-0.105 4.721-0.504 7.04-0.495 2.877-1.961 5.545-2.331 8.441-0.202 1.578-0.078 3.189 0.07 4.773 0.302 3.218 1.557 6.295 1.662 9.554 0.144 2.218 0.424 4.42 0.768 6.616-1.017 1.094-1.685 2.607-2.935 3.423-1.149 0.523-2.244 1.33-3.424 1.684-3.551-0.451-7.333-0.601-10.504-2.403-0.883-0.662-1.834-1.22-2.759-1.819z" fill="#faa" stroke="#000" stroke-linecap="round" stroke-linejoin="round"/>
  <path id="r" d="m263.75 666.64c1.271 1.298 3.715 2.02 3.983 3.841 0.062 0.42-0.454 0.716-0.624 1.109" fill="none" stroke="#000" stroke-linecap="round" stroke-linejoin="round"/>
  <path id="s" d="m271.18 663.63c1.37-0.962 4.676-0.876 5.161 0.795 0.287 0.991-1.676 1.643-2.332 2.033" fill="none" stroke="#000" stroke-linecap="round" stroke-linejoin="round"/>
  <path id="t" d="m275.59 672.47c-0.74 1.371-2.95 2.049-2.877 3.578 0.064 1.34 1.482 2.699 2.811 2.882 2.288 0.315 4-2.306 5.997-3.47 1.543-0.9 3.03-1.903 4.62-2.717 2.024-1.036 4.307-1.535 6.244-2.748" fill="none" stroke="#000" stroke-linecap="round" stroke-linejoin="round"/>
  <path id="u" d="m281.25 675.47c-1.103 1.49-3.911 2.116-3.836 3.95 0.048 1.158 1.502 1.976 2.619 2.288 1.559 0.435 3.243-0.341 4.783-0.84 1.932-0.627 3.593-1.912 5.477-2.671 2.383-0.961 4.797-1.972 7.335-2.373 0.253-0.04 0.513 0 0.77 0" fill="none" stroke="#000" stroke-linecap="round" stroke-linejoin="round"/>
  <path id="v" d="m298.75 676c-2.721 1.925-5.48 3.863-7.825 6.234-0.443 0.448-1.23 0.864-1.161 1.49 0.144 1.303 1.757 2.221 3.039 2.499 1.534 0.333 3.123-0.558 4.549-1.212 1.834-0.841 3.538-2.02 4.997-3.415 0.737-0.704 1.344-1.552 1.838-2.444 0.178-0.322 0.264-0.687 0.397-1.031" fill="none" stroke="#000" stroke-linecap="round" stroke-linejoin="round"/>
  <path id="w" d="m273.91 674.06c1.206-0.473 3.052-1.397 4.347-0.721 0.857-0.038 0.893 0.815 1.149 1.431 0.487 0.663-0.043 1.267-0.334 1.885-0.039 0.078-0.953 1.031-0.992 1.109" fill="none" stroke="#000" stroke-linecap="round" stroke-linejoin="round"/>
  <path id="x" d="m283.71 681.35c0.471-0.648 2.095-1.661 1.789-2.695-0.451-1.527-2.663-2.34-4.381-1.906-0.368 0.032-0.734 0.083-1.099 0.138" fill="none" stroke="#000" stroke-linecap="round" stroke-linejoin="round"/>
  <path id="y" d="m295.04 686.08c0.707-0.884 2.474-1.576 2.121-2.652-0.616-1.879-3.961-2.678-5.73-1.539" fill="none" stroke="#000" stroke-linecap="round" stroke-linejoin="round"/>
  <path id="z" d="m264.61 628.47c-2.258-1.141-4.558-2.381-5.739-3.674-1.096-1.199-1.456-2.773-2.02-4.214-0.306-0.778-0.676-2.339 0.205-2.45 3.13-0.395 6.354 0.32 9.403 1.08 1.367 0.341 2.594 1.298 3.084 2.64 0.234 0.641 2.755 2.358 2.289 1.834-1.966-2.207-2.333-3.852-1.847-5.709 0.425-1.622 2.449-2.502 3.495-3.825 0.471-0.595 0.494-2.039 1.46-0.817 1.253 1.583 3.436 2.117 4.994 3.347 1.471 1.161 1.849 2.769 1.777 4.525-0.024 0.591-1.504 3.561-0.92 2.114 0.83-2.053 4.227-4.737 6.659-4.581 2.042 0.131 3.975 0.488 5.945 1.152 2.188 0.736-0.513 3.529-0.516 4.935-6e-3 2.085-2.519 3.084-6.909 4.28 3.236-0.408 4.648 1.425 4.648 1.425 1.31 0.566 1.352 2.388 1.357 3.713 7e-3 1.575-0.285 3.02-0.781 4.515-0.418 1.261 0.159 3.056-1.919 2.479-1.878-0.522-3.4-2.066-5.341-2.422-1.846-0.338-5.251-6.442-1.468-0.785 1.032 1.543 0.433 3.746-1.291 4.764-2 1.182-3.386 3.125-5.433 4.239-1.333 0.725-2.576-1.861-3.786-2.669-1.548-1.033-2.901-2.445-3.035-4.361-0.071-1.024 1.564-4.395 1.468-4.266-1.22 1.632-3.946 4.458-6.26 4.487-1.835 0.023-3.682 9e-3 -5.457-0.539-1.405-0.434-2.787-0.616-2.101-2.381 0.827-2.128 0.9-4.652 2.496-6.409 1.12-1.233 3.431-2.723 5.546-2.428z" fill="#ff5" stroke="#000" stroke-linecap="round" stroke-linejoin="round"/>
  <path id="aa" transform="matrix(1.107 -.1961 .17094 1.1685 -51.49 546.84)" d="m283.2 117.33a6.0988 3.0052 0 1 1 -12.198 0 6.0988 3.0052 0 1 1 12.198 0z" fill="#f55" stroke="#000" stroke-linecap="round" stroke-linejoin="round" stroke-width=".868"/>
  <path id="ab" d="m272.25 658.11c0.398-2.056 1.549-3.918 2.673-5.684 0.635-0.998 1.341-1.994 2.269-2.727 1.338-1.058 3.042-1.544 4.583-2.278 1.635-0.778 3.252-1.608 4.945-2.252 1.17-0.445 2.478-0.531 3.589-1.107 1.821-0.944 3.488-2.244 4.871-3.759 0.455-0.498 0.732-1.133 1.086-1.708 0.506-0.821 0.997-1.652 1.483-2.485 0.467 0.311 0.174 0.927 0.19 1.397 0.044 1.302-0.057 2.614-0.264 3.9-0.26 1.619-0.507 3.289-1.222 4.764-0.646 1.335-1.65 2.487-2.694 3.54-0.908 0.916-1.992 1.646-3.061 2.368-2.365 1.597-4.953 2.836-7.389 4.323-1.483 0.906-2.859 1.991-4.396 2.8-1.816 0.956-3.918 1.332-5.664 2.408-0.284 0.175-0.756 1.162-0.763 0.646-0.079-1.382-0.5-2.787-0.237-4.146z" fill="#5a5" stroke="#000"/>
  <path id="ac" transform="translate(0,512.36)" d="m282.84 169.65 10.607 12.551 6.01 7.425 8.839 12.728 3.712 5.48 1.591 0.177 1.414-6.01-10.08-12.728-9.369-10.783-9.723-10.43z" fill="#5a5" stroke="#000"/>
  <path id="ad" d="m303.1 700.77c-1.018-2.155-1.349-4.677-1.639-7.093-0.164-1.364-0.273-2.779-0.048-4.114 0.324-1.926 1.288-3.598 1.971-5.375 0.726-1.887 1.404-3.807 2.259-5.613 0.591-1.248 1.514-2.27 1.977-3.595 0.758-2.171 1.173-4.555 1.239-6.929 0.022-0.781-0.178-1.558-0.281-2.335-0.147-1.111-0.312-2.22-0.481-3.328 0.549-0.055 0.724 0.717 1.036 1.132 0.867 1.152 1.631 2.416 2.3 3.734 0.842 1.658 1.726 3.354 2.136 5.21 0.371 1.679 0.358 3.45 0.25 5.159-0.094 1.487-0.437 2.932-0.774 4.359-0.747 3.157-1.891 6.149-2.762 9.257-0.53 1.892-0.865 3.871-1.497 5.715-0.747 2.178-2.079 4.04-2.697 6.274-0.101 0.363 0.178 1.601-0.158 1.137-0.944-1.199-2.159-2.171-2.832-3.596z" fill="#5a5" stroke="#000"/>
  <path id="ae" d="m284.43 691.56c-0.118 1.827-0.613 3.668-0.354 5.48 0.225 1.576 0.96 3.046 1.631 4.489 0.595 1.28 1.252 2.55 2.11 3.671 1.056 1.379 2.456 2.456 3.684 3.684" fill="none" stroke="#000" stroke-linecap="round" stroke-linejoin="round"/>
  <path id="af" d="m265.96 695.01c0.569-2.491 0.8-5.187 2.145-7.359 1.115-1.802 2.896-3.153 4.669-4.313 1.293-0.846 2.722-1.601 4.246-1.861 1.524-0.259 3.102 0.082 4.624 0.351 1.539 0.273 3.125 0.556 4.514 1.274 1.628 0.842 3.043 2.101 4.28 3.454 0.913 0.999 1.634 2.173 2.257 3.375 0.427 0.825 0.665 1.734 0.998 2.602-0.889-0.705-1.66-1.591-2.649-2.154-1-0.572-2.141-0.89-3.256-1.198-1.779-0.492-3.598-0.934-5.441-1.031-1.193-0.063-2.4 0.06-3.57 0.294-1.492 0.299-2.974 0.743-4.343 1.408-1.877 0.911-3.433 2.374-5.199 3.485-0.653 0.41-1.3 0.837-1.993 1.173-0.412 0.2-0.924 0.788-1.28 0.5z" fill="#5a5" stroke="#000" stroke-linecap="round" stroke-linejoin="round"/>
  <path id="ag" d="m269.25 704.36c0.667-2.583 0.616-5.469 2-7.75 1.237-2.038 3.318-3.485 5.319-4.781 1.532-0.992 3.22-1.847 5.01-2.219 1.843-0.384 3.773-0.134 5.648 0.039 1.885 0.174 3.817 0.338 5.591 1 1.994 0.744 3.838 1.92 5.486 3.267 1.16 0.948 2.153 2.107 3.02 3.327 0.576 0.81 0.952 1.745 1.427 2.617-1.138-0.666-2.176-1.534-3.397-2.039-1.287-0.533-2.683-0.77-4.056-1.01-2.211-0.386-4.454-0.713-6.698-0.684-1.45 0.019-2.903 0.226-4.315 0.554-1.771 0.411-3.53 0.96-5.163 1.758-2.161 1.057-3.986 2.697-6.03 3.963-0.763 0.472-1.52 0.959-2.326 1.351-0.489 0.238-1.01 0.404-1.514 0.606z" fill="#5a5" stroke="#000" stroke-linecap="round" stroke-linejoin="round"/>
  <path id="cv" d="m95.89 692.68c1.086 7.442 1.457 18.19 0.219 27.74-1.65 6.305-3.544 12.469-5.813 18.5 0.41 1.121 0.742 2.268 1.188 3.375 0.709 1.762 1.258 3.629 2.344 5.188 1.01 1.449 2.913 2.181 3.781 3.719 0.7 1.24 0.09 3.061 1 4.156 0.712 0.856 2.221 0.646 3.063 1.375 0.964 0.834 1.467 2.076 2.031 3.219 0.736 1.492 0.987 3.194 1.719 4.688 0.825 1.684 1.822 3.297 2.969 4.781 0.957 1.239 2.026 2.43 3.25 3.406 0.927 0.739 2.377 0.845 3.063 1.813 0.494 0.697 0.093 1.749 0.5 2.5 0.949 1.749 2.791 3.378 4.25 4.719 20.915 5e-3 24.872 1e-4 61.08 0l-1.768-5.219c-0.304-0.133-1.453-0.633-2.188-0.938-1.173-0.486-2.503-0.708-3.563-1.406-1.67-1.101-2.712-2.935-4.219-4.25-2.788-2.434-6.279-4.051-8.844-6.719-0.997-1.037-1.346-2.632-2.469-3.531-3.382-2.709-8.71-2.186-12.03-4.969-1.178-0.987-1.47-2.708-2.469-3.875-2.552-2.982-6.422-4.693-8.844-7.781-1.887-2.406-2.391-5.698-4.25-8.125-1.146-1.495-3.211-2.214-4.156-3.844-0.86-1.482-0.634-3.368-1.156-5-0.934-2.918-2.066-5.809-3.531-8.5-1.094-2.01-3.11-3.5-3.875-5.656-0.989-2.785 0.264-6.03-0.719-8.813-1.044-2.959-5.281-7.781-5.281-7.781-5.447-1.984-10.364-3.085-15.281-2.771z" fill="#fff" stroke="#000" stroke-linecap="round" stroke-linejoin="round"/>
  <g transform="matrix(.94499 -.32711 .32711 .94499 -251.26 98.7)">
   <use width="360" height="540" xlink:href="#c"/>
   <path d="m132.05 755.02c0.36 0.934 0.815 1.837 1.097 2.796 0.329 1.118 0.27 2.379 0.848 3.392 0.301 0.527 1.061 0.589 1.591 0.884" fill="none" stroke="#000" stroke-linecap="round" stroke-linejoin="round"/>
   <use width="360" height="540" xlink:href="#d"/>
  </g>
  <g transform="matrix(.83602 -.34006 .33822 .80509 -211.39 208.84)" stroke-width="1.126">
   <use width="360" height="540" xlink:href="#c"/>
   <path d="m132.05 755.02c0.36 0.934 0.815 1.837 1.097 2.796 0.329 1.118 0.27 2.379 0.848 3.392 0.301 0.527 1.061 0.589 1.591 0.884" fill="none" stroke="#000" stroke-linecap="round" stroke-linejoin="round"/>
   <use width="360" height="540" xlink:href="#d"/>
  </g>
  <g transform="matrix(.78197 -.36831 .36102 .76649 -249.47 215.62)" stroke-width="1.169">
   <use width="360" height="540" xlink:href="#c"/>
   <use width="360" height="540" xlink:href="#e"/>
   <use width="360" height="540" xlink:href="#d"/>
  </g>
  <g transform="translate(-28.05,-29.522)">
   <use width="360" height="540" xlink:href="#c"/>
   <use width="360" height="540" xlink:href="#e"/>
   <use width="360" height="540" xlink:href="#d"/>
  </g>
  <g transform="matrix(.83045 0 0 .71633 -4.431 158.81)" stroke-width="1.297">
   <use width="360" height="540" xlink:href="#c"/>
   <use width="360" height="540" xlink:href="#e"/>
   <use width="360" height="540" xlink:href="#d"/>
  </g>
  <path id="cw" d="m235.41 678.92c3.549 1.571 6.34 4.477 9.906 5.938-0.024 0.016-0.039 0.046-0.063 0.063 2.849 3.964 5.088 6.581 6 11.156l0.915 1.695 1.804 3.742c0.062-0.033 0.126-0.061 0.188-0.094l1.125 5.125c0.214 3.395 2.636 7.232 0.156 10.281-2.928 3.6-0.257 9.891-3.094 13.563-2.435 3.151-2.23 8.977-5.25 12.219-5.424 5.822-4.666 12.872-10.281 15.531-5.07 2.401-5.267 8.786-9.656 10.781-4.774 2.17-7.451 7.199-11.875 9.906l-1.281 3.03h29.406c0.725-2.73 0.717-6.428 2.219-8.906 1.319-2.176 4.478-2.87 5.656-5.125 0.717-1.372-0.408-3.445 0.594-4.625 0.836-0.985 2.536-0.606 3.719-1.125 0.828-0.364 1.766-0.679 2.344-1.375 2.911-3.504 2.432-8.868 4.656-12.844 1.123-2.01 3.556-3.224 4.281-5.406 0.841-2.532-1.391-5.588-0.25-8 0.585-1.235 2.525-1.341 3.25-2.5 1.247-1.994 1.073-4.583 1.438-6.906 0.594-1.99 1.188-3.979 1.781-5.969-1.9-4.11-4.382-9.249-7.125-14.313-2.743-5.063-5.774-9.505-8.813-13.25l-5.281-5.844-4.594-3.188-4.594-2.094-3.906-1.781z" fill="#fff" stroke="#000" stroke-linecap="round" stroke-linejoin="round"/>
  <g transform="matrix(-.98851 -.15118 -.15118 .98851 498.52 23.697)">
   <use width="360" height="540" xlink:href="#c"/>
   <use width="360" height="540" xlink:href="#e"/>
   <use width="360" height="540" xlink:href="#d"/>
  </g>
  <g transform="matrix(-.71548 -.23187 -.23022 .76922 502.46 220.81)" stroke-width="1.287">
   <use width="360" height="540" xlink:href="#c"/>
   <use width="360" height="540" xlink:href="#e"/>
   <use width="360" height="540" xlink:href="#d"/>
  </g>
  <g transform="matrix(-.91205 .41008 .41008 .91205 73.47 -28.12)">
   <use width="360" height="540" xlink:href="#c"/>
   <use width="360" height="540" xlink:href="#e"/>
   <use width="360" height="540" xlink:href="#d"/>
  </g>
  <g stroke-width="1.635">
   <use transform="matrix(.5964 .033 -.03232 .62537 172.9 522.72)" width="360" height="540" xlink:href="#a"/>
   <use transform="matrix(.5964 .033 -.03232 .62537 176.55 520.74)" width="360" height="540" xlink:href="#a"/>
   <use transform="matrix(.5964 .033 -.03232 .62537 180.07 520.74)" width="360" height="540" xlink:href="#a"/>
   <use transform="matrix(.5964 .033 -.03232 .62537 184.14 523.88)" width="360" height="540" xlink:href="#a"/>
   <use transform="matrix(.5964 .033 -.03232 .62537 181.92 527.95)" width="360" height="540" xlink:href="#a"/>
   <use transform="matrix(.5964 .033 -.03232 .62537 177.85 529.8)" width="360" height="540" xlink:href="#a"/>
   <use transform="matrix(.5964 .033 -.03232 .62537 173.59 529.99)" width="360" height="540" xlink:href="#a"/>
   <use transform="matrix(.5964 .033 -.03232 .62537 169.15 527.21)" width="360" height="540" xlink:href="#a"/>
  </g>
  <path d="m265.1 613.77c0.987 1.943 1.793 3.989 2.945 5.839 0.816 1.31 1.727 2.575 2.789 3.694 1.059 1.115 2.356 1.978 3.535 2.967" fill="none" stroke="#000" stroke-linecap="round" stroke-linejoin="round"/>
  <use transform="matrix(.5964 .033 -.03232 .62537 166.56 508.76)" width="360" height="540" stroke-width="1.635" xlink:href="#a"/>
  <path id="cx" d="m282.79 611.32c0.082 1.785 0.413 3.577 0.258 5.354-0.145 1.66-0.573 3.277-1.096 4.799-0.515 1.496-1.322 2.785-1.982 4.178" fill="none" stroke="#000" stroke-linecap="round" stroke-linejoin="round"/>
  <use transform="matrix(.5964 .033 -.03232 .62537 184.39 506.71)" width="360" height="540" stroke-width="1.635" xlink:href="#a"/>
  <g transform="matrix(-1 0 0 -1 360.25 1564.7)">
   <use width="360" height="540" xlink:href="#dg"/>
   <use width="360" height="540" xlink:href="#dh"/>
   <use width="360" height="540" xlink:href="#di"/>
   <use width="360" height="540" xlink:href="#dj"/>
   <use width="360" height="540" xlink:href="#dk"/>
   <use transform="matrix(.44149 -.72446 .87244 .53167 61.55 674.43)" width="360" height="540" xlink:href="#g"/>
   <use transform="matrix(.5901 -.60954 .73405 .71064 48.52 642.95)" width="360" height="540" xlink:href="#g"/>
   <use transform="matrix(.64485 -.5513 .66391 .77657 49.637 623.52)" width="360" height="540" xlink:href="#g"/>
   <use transform="matrix(.79867 -.28616 .34461 .96181 40.03 572.48)" width="360" height="540" xlink:href="#g"/>
   <path transform="translate(0,512.36)" d="m136.83 65-17.15-5.303 17.854-3.889-10.96-13.08 19.269 1.591-1.945-13.08 14.1 1.945-0.044-2.475c3.388-0.118 2.887-0.059 6.276-0.177 0 0-7.824 6.18-11.314 9.723-2.261 2.295-4.212 4.88-6.187 7.425-1.605 2.067-3.139 4.191-4.596 6.364-1.43 2.132-3.03 4.191-4.066 6.541-0.616 1.4-1.237 4.419-1.237 4.419z" fill="#fa5" stroke="#000" stroke-linecap="round" stroke-linejoin="round"/>
   <use width="360" height="540" xlink:href="#dl"/>
   <use width="360" height="540" xlink:href="#dm"/>
   <use width="360" height="540" xlink:href="#dn"/>
   <use width="360" height="540" xlink:href="#do"/>
   <use width="360" height="540" xlink:href="#dp"/>
   <use width="360" height="540" xlink:href="#dq"/>
   <use width="360" height="540" xlink:href="#dr"/>
   <use width="360" height="540" xlink:href="#ds"/>
   <use width="360" height="540" xlink:href="#dt"/>
   <use width="360" height="540" xlink:href="#du"/>
   <use width="360" height="540" xlink:href="#dv"/>
   <use width="360" height="540" xlink:href="#dw"/>
   <use width="360" height="540" xlink:href="#dx"/>
   <use width="360" height="540" xlink:href="#dy"/>
   <use width="360" height="540" xlink:href="#dz"/>
   <use width="360" height="540" xlink:href="#ea"/>
   <use width="360" height="540" xlink:href="#eb"/>
   <use width="360" height="540" xlink:href="#ec"/>
   <use width="360" height="540" xlink:href="#ed"/>
   <use width="360" height="540" xlink:href="#ee"/>
   <use width="360" height="540" xlink:href="#ef"/>
   <use width="360" height="540" xlink:href="#eg"/>
   <use width="360" height="540" xlink:href="#eh"/>
   <use width="360" height="540" xlink:href="#ei"/>
   <use width="360" height="540" xlink:href="#ej"/>
   <use width="360" height="540" xlink:href="#ek"/>
   <use width="360" height="540" xlink:href="#el"/>
   <use width="360" height="540" xlink:href="#em"/>
   <use width="360" height="540" xlink:href="#en"/>
   <use width="360" height="540" xlink:href="#eo"/>
   <use width="360" height="540" xlink:href="#ep"/>
   <use width="360" height="540" xlink:href="#eq"/>
   <g transform="matrix(.93201 0 0 .94454 11.11 36.558)" fill="#fff" stroke-width="1.066">
    <use transform="translate(.234 512.48)" width="360" height="540" xlink:href="#a"/>
    <use transform="translate(-12.208,503.89)" width="360" height="540" xlink:href="#a"/>
    <use transform="translate(-8.353,507.05)" width="360" height="540" xlink:href="#a"/>
    <use transform="translate(-4.147,509.62)" width="360" height="540" xlink:href="#a"/>
    <use transform="translate(4.498,514.99)" width="360" height="540" xlink:href="#a"/>
    <use transform="translate(9.638,516.63)" width="360" height="540" xlink:href="#a"/>
    <use transform="translate(14.778,517.68)" width="360" height="540" xlink:href="#a"/>
    <use transform="translate(20.15,518.28)" width="360" height="540" xlink:href="#a"/>
    <use transform="translate(25.06,516.86)" width="360" height="540" xlink:href="#a"/>
    <use transform="translate(29.26,514.06)" width="360" height="540" xlink:href="#a"/>
    <use transform="translate(32.769,510.43)" width="360" height="540" xlink:href="#a"/>
   </g>
   <g transform="matrix(-1 0 0 .89571 356.73 76.52)" fill="#fa5" stroke="#000">
    <use transform="matrix(.98612 .16606 0 1 0 0)" width="360" height="540" stroke-width="1.064" xlink:href="#f"/>
    <use transform="matrix(.97619 0 0 1.1276 3.751 489.5)" width="360" height="540" stroke-width="1.01" xlink:href="#b"/>
   </g>
   <g transform="matrix(.99857 .0534 -.0534 .99857 35.29 -8.811)" fill="#fff" stroke-width="1.066">
    <use transform="matrix(.93201 0 0 .94454 15.92 536.7)" width="360" height="540" xlink:href="#a"/>
    <use transform="matrix(.93201 0 0 .94454 4.908 527.65)" width="360" height="540" xlink:href="#a"/>
    <use transform="matrix(.93201 0 0 .94454 8.268 530.75)" width="360" height="540" xlink:href="#a"/>
    <use transform="matrix(.93201 0 0 .94454 11.837 533.99)" width="360" height="540" xlink:href="#a"/>
    <use transform="matrix(.93201 0 0 .94454 19.894 539.07)" width="360" height="540" xlink:href="#a"/>
    <use transform="matrix(.93201 0 0 .94454 24.685 540.61)" width="360" height="540" xlink:href="#a"/>
    <use transform="matrix(.93201 0 0 .94454 29.475 541.61)" width="360" height="540" xlink:href="#a"/>
    <use transform="matrix(.93201 0 0 .94454 34.484 542.17)" width="360" height="540" xlink:href="#a"/>
    <use transform="matrix(.93201 0 0 .94454 39.06 540.84)" width="360" height="540" xlink:href="#a"/>
    <use transform="matrix(.93201 0 0 .94454 42.977 538.19)" width="360" height="540" xlink:href="#a"/>
    <use transform="matrix(.93201 0 0 .94454 46.24 534.77)" width="360" height="540" xlink:href="#a"/>
    <use transform="matrix(.93201 0 0 .94454 2.036 523.93)" width="360" height="540" xlink:href="#a"/>
    <use transform="matrix(.93201 0 0 .94454 48.18 530.47)" width="360" height="540" xlink:href="#a"/>
    <use transform="matrix(.93201 0 0 .94454 49.583 525.92)" width="360" height="540" xlink:href="#a"/>
    <use transform="matrix(.93201 0 0 .94454 49.816 521.01)" width="360" height="540" xlink:href="#a"/>
   </g>
   <g transform="matrix(1 0 0 .95828 22.09 32.735)" fill="#fa5" stroke="#000">
    <use width="360" height="540" xlink:href="#cy"/>
    <use transform="matrix(.97619 0 0 1.1276 3.751 489.44)" width="360" height="540" stroke-width=".974" xlink:href="#b"/>
   </g>
   <g transform="matrix(-1 0 0 .90614 369.2 67.951)" fill="#fa5" stroke="#000">
    <path transform="matrix(.98612 .16606 0 1 0 0)" d="m162.25 666.89h2.884v11.06h-2.884z" fill="#fa5" stroke="#000" stroke-linecap="round" stroke-linejoin="round" stroke-width="1.058"/>
    <use transform="matrix(.97619 0 0 1.1276 3.751 489.39)" width="360" height="540" xlink:href="#b"/>
   </g>
   <g fill="#fff" stroke-width="1.066">
    <use transform="matrix(.93068 .04977 -.05044 .9432 25.02 538.72)" width="360" height="540" xlink:href="#a"/>
    <use transform="matrix(.93068 .04977 -.05044 .9432 13.678 529.43)" width="360" height="540" xlink:href="#a"/>
    <use transform="matrix(.93068 .04977 -.05044 .9432 17.363 532.87)" width="360" height="540" xlink:href="#a"/>
    <use transform="matrix(.93068 .04977 -.05044 .9432 21.08 535.8)" width="360" height="540" xlink:href="#a"/>
    <use transform="matrix(.93068 .04977 -.05044 .9432 28.859 541.3)" width="360" height="540" xlink:href="#a"/>
    <use transform="matrix(.93068 .04977 -.05044 .9432 33.561 543.1)" width="360" height="540" xlink:href="#a"/>
    <use transform="matrix(.93068 .04977 -.05044 .9432 38.29 544.35)" width="360" height="540" xlink:href="#a"/>
    <use transform="matrix(.93068 .04977 -.05044 .9432 43.26 545.18)" width="360" height="540" xlink:href="#a"/>
    <use transform="matrix(.93068 .04977 -.05044 .9432 47.9 544.09)" width="360" height="540" xlink:href="#a"/>
    <use transform="matrix(.93068 .04977 -.05044 .9432 51.956 541.65)" width="360" height="540" xlink:href="#a"/>
    <use transform="matrix(.93068 .04977 -.05044 .9432 10.348 525.56)" width="360" height="540" xlink:href="#a"/>
    <use transform="matrix(.93068 .04977 -.05044 .9432 58.721 534.72)" width="360" height="540" xlink:href="#a"/>
    <use transform="matrix(.93068 .04977 -.05044 .9432 55.4 538.41)" width="360" height="540" xlink:href="#a"/>
    <use transform="matrix(.93068 .04977 -.05044 .9432 61.19 530.25)" width="360" height="540" xlink:href="#a"/>
    <use transform="matrix(.93068 .04977 -.05044 .9432 62.68 525.53)" width="360" height="540" xlink:href="#a"/>
    <use transform="matrix(.93068 .04977 -.05044 .9432 63.77 520.95)" width="360" height="540" xlink:href="#a"/>
    <use transform="matrix(.93068 .04977 -.05044 .9432 64.761 516)" width="360" height="540" xlink:href="#a"/>
    <use transform="matrix(.93068 .04977 -.05044 .9432 7.268 521.61)" width="360" height="540" xlink:href="#a"/>
    <use transform="matrix(.93068 .04977 -.05044 .9432 4.624 517.32)" width="360" height="540" xlink:href="#a"/>
   </g>
   <use width="360" height="540" xlink:href="#er"/>
   <use width="360" height="540" xlink:href="#es"/>
   <use width="360" height="540" xlink:href="#et"/>
   <use width="360" height="540" xlink:href="#eu"/>
   <use width="360" height="540" xlink:href="#ev"/>
   <use width="360" height="540" xlink:href="#ew"/>
   <use width="360" height="540" xlink:href="#ex"/>
   <use width="360" height="540" xlink:href="#ey"/>
   <use width="360" height="540" xlink:href="#ez"/>
   <use width="360" height="540" xlink:href="#fa"/>
   <use width="360" height="540" xlink:href="#fb"/>
   <use width="360" height="540" xlink:href="#fc"/>
   <use width="360" height="540" xlink:href="#fd"/>
   <use width="360" height="540" xlink:href="#fe"/>
   <g transform="matrix(.98756 .06325 -.15726 .96097 112.05 16.972)" fill="#fa5" stroke="#000">
    <use transform="matrix(.98612 .16606 0 1 0 0)" width="360" height="540" stroke-width="1.028" xlink:href="#f"/>
    <use transform="matrix(.97619 0 0 1.0526 3.751 502.62)" width="360" height="540" stroke-width="1.01" xlink:href="#b"/>
   </g>
   <use width="360" height="540" xlink:href="#ff"/>
   <g fill="#fa5" stroke="#000">
    <g transform="matrix(.97887 .20451 -.19384 .92782 127.63 14.538)">
     <use transform="matrix(.98612 .16606 0 1 0 0)" width="360" height="540" stroke-width="1.034" xlink:href="#f"/>
     <use transform="matrix(.97619 0 0 1.0526 3.751 502.62)" width="360" height="540" stroke-width="1.013" xlink:href="#b"/>
    </g>
    <g transform="matrix(.99346 .11419 -.10823 .94165 87.62 24.532)">
     <use transform="matrix(.98612 .16606 0 1 0 0)" width="360" height="540" stroke-width="1.034" xlink:href="#f"/>
     <use transform="matrix(.97619 0 0 1.0526 3.751 502.62)" width="360" height="540" stroke-width="1.013" xlink:href="#b"/>
    </g>
    <g transform="matrix(-.99552 .09455 .08079 .85058 323.6 89.69)">
     <use width="360" height="540" xlink:href="#dc"/>
     <use transform="matrix(.97681 .00766 .00603 1.127 2.578 488.17)" width="360" height="540" stroke-width="1.031" xlink:href="#b"/>
    </g>
    <g transform="matrix(-.98976 .14105 .12194 .83574 305.7 89.88)">
     <use width="360" height="540" xlink:href="#dd"/>
     <use transform="matrix(.97761 .0115 .00905 1.1261 1.887 487.49)" width="360" height="540" stroke-width="1.037" xlink:href="#b"/>
    </g>
    <g transform="matrix(-.95948 .2621 .24075 .76255 227.73 117.74)">
     <use width="360" height="540" xlink:href="#de"/>
     <use transform="matrix(.98171 .02201 .01733 1.1217 -.342 486.31)" width="360" height="540" stroke-width="1.069" xlink:href="#b"/>
    </g>
    <g transform="matrix(.97887 .20451 -.19384 .92782 117.77 11.656)">
     <use width="360" height="540" xlink:href="#df"/>
     <use transform="matrix(.97619 0 0 1.0526 3.751 502.62)" width="360" height="540" stroke-width="1.013" xlink:href="#b"/>
    </g>
    <g transform="matrix(.9496 .29446 -.29057 .75914 180.67 110.87)">
     <use transform="matrix(.98612 .16606 0 1 0 0)" width="360" height="540" stroke-width="1.121" xlink:href="#f"/>
     <use transform="matrix(.97619 0 0 1.0526 3.751 502.62)" width="360" height="540" stroke-width="1.099" xlink:href="#b"/>
    </g>
   </g>
   <use width="360" height="540" xlink:href="#fg"/>
   <use width="360" height="540" xlink:href="#fh"/>
   <use width="360" height="540" xlink:href="#fi"/>
   <g transform="matrix(.99934 -.03637 .03637 .99934 -26.15 8.407)">
    <use width="360" height="540" xlink:href="#cz"/>
    <use width="360" height="540" xlink:href="#da"/>
    <use width="360" height="540" xlink:href="#db"/>
   </g>
   <use width="360" height="540" xlink:href="#h"/>
   <use width="360" height="540" xlink:href="#i"/>
   <use width="360" height="540" xlink:href="#j"/>
   <use width="360" height="540" xlink:href="#k"/>
   <use width="360" height="540" xlink:href="#l"/>
   <use width="360" height="540" xlink:href="#m"/>
   <use width="360" height="540" xlink:href="#n"/>
   <use width="360" height="540" xlink:href="#o"/>
   <use width="360" height="540" xlink:href="#p"/>
   <use width="360" height="540" xlink:href="#q"/>
   <use width="360" height="540" xlink:href="#r"/>
   <use width="360" height="540" xlink:href="#s"/>
   <use width="360" height="540" xlink:href="#t"/>
   <use width="360" height="540" xlink:href="#u"/>
   <use width="360" height="540" xlink:href="#v"/>
   <use width="360" height="540" xlink:href="#w"/>
   <use width="360" height="540" xlink:href="#x"/>
   <use width="360" height="540" xlink:href="#y"/>
   <use width="360" height="540" xlink:href="#z"/>
   <use width="360" height="540" xlink:href="#aa"/>
   <use width="360" height="540" xlink:href="#ab"/>
   <use width="360" height="540" xlink:href="#ac"/>
   <use width="360" height="540" xlink:href="#ad"/>
   <use width="360" height="540" xlink:href="#ae"/>
   <use width="360" height="540" xlink:href="#af"/>
   <use width="360" height="540" xlink:href="#ag"/>
   <use width="360" height="540" xlink:href="#cv"/>
   <g transform="matrix(.94499 -.32711 .32711 .94499 -251.26 98.7)">
    <use width="360" height="540" xlink:href="#c"/>
    <use width="360" height="540" xlink:href="#e"/>
    <use width="360" height="540" xlink:href="#d"/>
   </g>
   <g transform="matrix(.83602 -.34006 .33822 .80509 -211.39 208.84)" stroke-width="1.126">
    <use width="360" height="540" xlink:href="#c"/>
    <use width="360" height="540" xlink:href="#e"/>
    <use width="360" height="540" xlink:href="#d"/>
   </g>
   <g transform="matrix(.78197 -.36831 .36102 .76649 -249.47 215.62)" stroke-width="1.169">
    <use width="360" height="540" xlink:href="#c"/>
    <use width="360" height="540" xlink:href="#e"/>
    <use width="360" height="540" xlink:href="#d"/>
   </g>
   <g transform="translate(-28.05,-29.522)">
    <use width="360" height="540" xlink:href="#c"/>
    <use width="360" height="540" xlink:href="#e"/>
    <use width="360" height="540" xlink:href="#d"/>
   </g>
   <g transform="matrix(.83045 0 0 .71633 -4.431 158.81)" stroke-width="1.297">
    <use width="360" height="540" xlink:href="#c"/>
    <use width="360" height="540" xlink:href="#e"/>
    <use width="360" height="540" xlink:href="#d"/>
   </g>
   <use width="360" height="540" xlink:href="#cw"/>
   <g transform="matrix(-.98851 -.15118 -.15118 .98851 498.52 23.697)">
    <use width="360" height="540" xlink:href="#c"/>
    <use width="360" height="540" xlink:href="#e"/>
    <use width="360" height="540" xlink:href="#d"/>
   </g>
   <g transform="matrix(-.71548 -.23187 -.23022 .76922 502.46 220.81)" stroke-width="1.287">
    <use width="360" height="540" xlink:href="#c"/>
    <use width="360" height="540" xlink:href="#e"/>
    <use width="360" height="540" xlink:href="#d"/>
   </g>
   <g transform="matrix(-.91205 .41008 .41008 .91205 73.47 -28.12)">
    <use width="360" height="540" xlink:href="#c"/>
    <use width="360" height="540" xlink:href="#e"/>
    <use width="360" height="540" xlink:href="#d"/>
   </g>
   <g stroke-width="1.635">
    <use transform="matrix(.5964 .033 -.03232 .62537 172.9 522.72)" width="360" height="540" xlink:href="#a"/>
    <use transform="matrix(.5964 .033 -.03232 .62537 176.55 520.74)" width="360" height="540" xlink:href="#a"/>
    <use transform="matrix(.5964 .033 -.03232 .62537 180.07 520.74)" width="360" height="540" xlink:href="#a"/>
    <use transform="matrix(.5964 .033 -.03232 .62537 184.14 523.88)" width="360" height="540" xlink:href="#a"/>
    <use transform="matrix(.5964 .033 -.03232 .62537 181.92 527.95)" width="360" height="540" xlink:href="#a"/>
    <use transform="matrix(.5964 .033 -.03232 .62537 177.85 529.8)" width="360" height="540" xlink:href="#a"/>
    <use transform="matrix(.5964 .033 -.03232 .62537 173.59 529.99)" width="360" height="540" xlink:href="#a"/>
    <use transform="matrix(.5964 .033 -.03232 .62537 169.15 527.21)" width="360" height="540" xlink:href="#a"/>
   </g>
   <path d="m265.1 613.77c0.987 1.943 1.793 3.989 2.945 5.839 0.816 1.31 1.727 2.575 2.789 3.694 1.059 1.115 2.356 1.978 3.535 2.967" fill="none" stroke="#000" stroke-linecap="round" stroke-linejoin="round"/>
   <use transform="matrix(.5964 .033 -.03232 .62537 166.56 508.76)" width="360" height="540" stroke-width="1.635" xlink:href="#a"/>
   <use width="360" height="540" xlink:href="#cx"/>
   <use transform="matrix(.5964 .033 -.03232 .62537 184.39 506.71)" width="360" height="540" stroke-width="1.635" xlink:href="#a"/>
  </g>
  <g transform="translate(0,512.36)" fill="none" stroke="#000" stroke-linecap="square" stroke-width="2">
   <path d="m50 30h280v380"/>
   <path d="m310 510h-280v-380"/>
   <path d="m30 270h300"/>
  </g>
 </g>
</svg>
