<?xml version="1.0"?>
<svg width="360" height="540" xmlns="http://www.w3.org/2000/svg" xmlns:svg="http://www.w3.org/2000/svg" version="1.1">
 <g class="layer">
  <title>Layer 1</title>
  <g id="svg_1">
   <rect fill="#fff" height="539" id="svg_2" rx="29.94" stroke="#000" width="359" x="0.5" y="0.5"/>
   <g fill="#f55" id="svg_3">
    <path d="m20,30l0,5l7.6,0l0,45l5,0l0,-45l7.4,0l0,-5l-12.4,0l-7.6,0z" id="svg_4"/>
    <path d="m320,510l0,-5l7.6,0l0,-45l5,0l0,45l7.4,0l0,5l-12.4,0l-7.6,0z" id="svg_5"/>
    <path d="m180,250s1.82,-11.15 5.33,-14.67c3.52,-3.51 9.7,-5.33 14.67,-5.33s11.15,1.82 14.67,5.33c3.51,3.52 5.33,9.7 5.33,14.67s-2.67,12 -5.33,14.67c-2.67,2.66 -5.34,4 -8,6.66s-4,2.67 -6.67,5.34l-6.67,6.66c-2.66,2.67 -6.66,8 -9.33,13.34c-2.67,5.33 -4,13.33 -4,13.33s-1.33,-8 -4,-13.33s-6.67,-10.67 -9.33,-13.34l-6.67,-6.66c-2.67,-2.67 -4,-2.67 -6.67,-5.34c-2.66,-2.66 -5.33,-4 -8,-6.66s-5.33,-9.7 -5.33,-14.67s1.82,-11.15 5.33,-14.67c3.52,-3.51 9.7,-5.33 14.67,-5.33s11.15,1.82 14.67,5.33c3.51,3.52 5.33,14.67 5.33,14.67" id="svg_6"/>
    <path d="m30,97.5s0.68,-4.18 2,-5.5s3.64,-2 5.5,-2s4.18,0.68 5.5,2s2,3.64 2,5.5s-1,4.5 -2,5.5s-2,1.5 -3,2.5s-1.5,1 -2.5,2l-2.5,2.5c-1,1 -2.5,3 -3.5,5s-1.5,5 -1.5,5s-0.5,-3 -1.5,-5s-2.5,-4 -3.5,-5l-2.5,-2.5c-1,-1 -1.5,-1 -2.5,-2s-2,-1.5 -3,-2.5s-2,-3.64 -2,-5.5s0.68,-4.18 2,-5.5s3.64,-2 5.5,-2s4.18,0.68 5.5,2s2,5.5 2,5.5" id="svg_7"/>
    <path d="m330,442.5s0.68,4.18 2,5.5s3.64,2 5.5,2s4.18,-0.68 5.5,-2s2,-3.64 2,-5.5s-1,-4.5 -2,-5.5s-2,-1.5 -3,-2.5s-1.5,-1 -2.5,-2l-2.5,-2.5c-1,-1 -2.5,-3 -3.5,-5s-1.5,-5 -1.5,-5s-0.5,3 -1.5,5s-2.5,4 -3.5,5l-2.5,2.5c-1,1 -1.5,1 -2.5,2s-2,1.5 -3,2.5s-2,3.64 -2,5.5s0.68,4.18 2,5.5s3.64,2 5.5,2s4.18,-0.68 5.5,-2s2,-5.5 2,-5.5" id="svg_8"/>
   </g>
  </g>
  <rect fill="#ffffff" height="0" id="svg_11" stroke="#000000" transform="rotate(90 8.5 19.5)" width="0" x="8.5" y="19.5"/>
  <rect fill="#ffffff" id="svg_12" stroke="#000000" x="99.5" y="56.5"/>
  <rect fill="#ffffff" height="497" id="svg_13" stroke="#000000" stroke-width="0" width="339" x="9.5" y="18.5"/>
  <path d="m334.5,-0.5l-312.5,0.5l-7,5l-9,6c0,0 -3.5,9.5 -3.5,9.5c0,0 -3,10 -2.5,9.5c0.5,-0.5 0.5,484.5 0.5,484.5c0,0 5,13 4.5,12.5c-0.5,-0.5 10.5,8.5 10.5,8.5c0,0 13,3 12.5,2.5c-0.5,-0.5 306.5,0.5 306,0c-0.5,-0.5 13.5,-4.5 13,-5c-0.5,-0.5 10.5,-10.5 10,-11c-0.5,-0.5 2.5,-11.5 2,-12c-0.5,-0.5 -0.5,-485.5 -1,-486c-0.5,-0.5 -5.5,-13.5 -6,-14c-0.5,-0.5 -7.5,-6.5 -8,-7c-0.5,-0.5 -9.5,-3.5 -9.5,-3.5z" fill="#0000ff" id="svg_27" stroke="#000000"/>
  <path d="m53.21,66.09l46.24,0l14.29,-43.93l14.29,43.93l46.24,0l-37.41,27.15l14.29,43.93l-37.41,-27.15l-37.41,27.15l14.29,-43.93l-37.41,-27.15z" fill="#ffff00" id="svg_17" stroke="#000000" transform="matrix(1 0 0 1 0 0)"/>
  <path d="m31.24,242.28l39.22,0l12.12,-37.26l12.12,37.26l39.22,0l-31.73,23.03l12.12,37.26l-31.73,-23.03l-31.73,23.03l12.12,-37.26l-31.73,-23.03z" fill="#ffff00" id="svg_14" stroke="#000000"/>
  <path d="m135.29,187.63l21.31,0l6.58,-20.24l6.58,20.24l21.31,0l-17.24,12.51l6.59,20.24l-17.24,-12.51l-17.24,12.51l6.59,-20.24l-17.24,-12.51z" fill="#ffff00" id="svg_22" stroke="#000000" transform="matrix(1 0 0 1 0 0)"/>
  <path d="m193.42,417.64l48.89,0l15.11,-46.45l15.11,46.45l48.89,0l-39.55,28.71l15.11,46.45l-39.55,-28.71l-39.55,28.71l15.11,-46.45l-39.55,-28.71z" fill="#ffff00" id="svg_16" stroke="#000000" transform="matrix(1 0 0 1 0 0)"/>
  <path d="m188.85,119.15l59.21,0l18.29,-56.24l18.29,56.24l59.21,0l-47.9,34.76l18.3,56.24l-47.9,-34.76l-47.9,34.76l18.3,-56.24l-47.9,-34.76z" fill="#ffff00" id="svg_15" stroke="#000000"/>
  <path d="m33.35,468l21.71,0l6.71,-20.63l6.71,20.63l21.71,0l-17.57,12.75l6.71,20.63l-17.57,-12.75l-17.57,12.75l6.71,-20.63l-17.57,-12.75z" fill="#ffff00" id="svg_21" stroke="#000000" transform="matrix(1 0 0 1 0 0)"/>
  <path d="m273.02,291.93l17.95,0l5.55,-17.05l5.55,17.05l17.95,0l-14.52,10.54l5.55,17.05l-14.52,-10.54l-14.52,10.54l5.55,-17.05l-14.52,-10.54z" fill="#ffff00" id="svg_20" stroke="#000000" transform="matrix(1 0 0 1 0 0)"/>
  <path d="m52.62,374.34l33.61,0l10.39,-31.93l10.39,31.93l33.61,0l-27.19,19.74l10.39,31.93l-27.19,-19.74l-27.19,19.74l10.39,-31.93l-27.19,-19.74z" fill="#ffff00" id="svg_19" stroke="#000000" transform="matrix(1 0 0 1 0 0)"/>
  <path d="m165.71,286.33l26.36,0l8.14,-25.04l8.14,25.04l26.36,0l-21.32,15.47l8.14,25.04l-21.32,-15.47l-21.32,15.47l8.14,-25.04l-21.32,-15.47z" fill="#ffff00" id="svg_18" stroke="#000000"/>
 </g>
</svg>