<?xml version="1.0" encoding="UTF-8"?>
<svg id="Capa_1" data-name="Capa 1" xmlns="http://www.w3.org/2000/svg" version="1.1" xmlns:xlink="http://www.w3.org/1999/xlink" viewBox="0 0 425.2 425.2">
  <defs>
    <style>
      .cls-1 {
        fill: url(#linear-gradient-38);
      }

      .cls-1, .cls-2, .cls-3, .cls-4, .cls-5, .cls-6, .cls-7, .cls-8, .cls-9, .cls-10, .cls-11, .cls-12, .cls-13, .cls-14, .cls-15, .cls-16, .cls-17, .cls-18, .cls-19, .cls-20, .cls-21, .cls-22, .cls-23, .cls-24, .cls-25, .cls-26, .cls-27, .cls-28, .cls-29, .cls-30, .cls-31, .cls-32, .cls-33, .cls-34, .cls-35, .cls-36, .cls-37, .cls-38, .cls-39, .cls-40, .cls-41, .cls-42, .cls-43, .cls-44, .cls-45, .cls-46, .cls-47, .cls-48, .cls-49, .cls-50, .cls-51, .cls-52, .cls-53, .cls-54, .cls-55, .cls-56, .cls-57, .cls-58, .cls-59, .cls-60, .cls-61, .cls-62, .cls-63, .cls-64, .cls-65, .cls-66, .cls-67, .cls-68, .cls-69, .cls-70, .cls-71, .cls-72, .cls-73, .cls-74, .cls-75, .cls-76, .cls-77, .cls-78, .cls-79, .cls-80, .cls-81, .cls-82, .cls-83, .cls-84, .cls-85, .cls-86, .cls-87, .cls-88, .cls-89, .cls-90, .cls-91, .cls-92, .cls-93, .cls-94, .cls-95, .cls-96, .cls-97, .cls-98, .cls-99, .cls-100, .cls-101, .cls-102, .cls-103, .cls-104, .cls-105, .cls-106, .cls-107, .cls-108, .cls-109, .cls-110, .cls-111, .cls-112, .cls-113, .cls-114, .cls-115, .cls-116, .cls-117, .cls-118, .cls-119, .cls-120, .cls-121, .cls-122, .cls-123, .cls-124, .cls-125, .cls-126, .cls-127, .cls-128, .cls-129, .cls-130, .cls-131, .cls-132, .cls-133, .cls-134, .cls-135, .cls-136, .cls-137, .cls-138, .cls-139, .cls-140, .cls-141, .cls-142, .cls-143, .cls-144, .cls-145, .cls-146, .cls-147, .cls-148, .cls-149, .cls-150 {
        stroke-width: 0px;
      }

      .cls-2 {
        fill: url(#linear-gradient-12);
      }

      .cls-3 {
        fill: url(#radial-gradient-30);
      }

      .cls-4 {
        fill: url(#linear-gradient-17);
      }

      .cls-5 {
        fill: url(#radial-gradient-16);
      }

      .cls-6 {
        fill: url(#linear-gradient-88);
      }

      .cls-7 {
        fill: url(#linear-gradient-19);
      }

      .cls-8 {
        fill: url(#linear-gradient-33);
      }

      .cls-9 {
        fill: url(#linear-gradient);
      }

      .cls-10 {
        fill: url(#radial-gradient-40);
      }

      .cls-11 {
        fill: url(#linear-gradient-62);
      }

      .cls-12 {
        fill: url(#linear-gradient-92);
      }

      .cls-13 {
        fill: url(#linear-gradient-98);
      }

      .cls-14 {
        fill: url(#linear-gradient-67);
      }

      .cls-15 {
        fill: url(#linear-gradient-57);
      }

      .cls-16 {
        fill: url(#radial-gradient-39);
      }

      .cls-17 {
        fill: url(#linear-gradient-21);
      }

      .cls-18 {
        fill: url(#linear-gradient-6);
      }

      .cls-19 {
        fill: url(#linear-gradient-76);
      }

      .cls-20 {
        fill: url(#radial-gradient-8);
      }

      .cls-21 {
        fill: url(#linear-gradient-42);
      }

      .cls-22 {
        fill: url(#linear-gradient-104);
      }

      .cls-23 {
        fill: url(#radial-gradient-43);
      }

      .cls-24 {
        fill: url(#linear-gradient-95);
      }

      .cls-25 {
        fill: url(#linear-gradient-15);
      }

      .cls-26 {
        fill: url(#radial-gradient-13);
      }

      .cls-27 {
        fill: url(#radial-gradient-12);
      }

      .cls-28 {
        fill: url(#linear-gradient-11);
      }

      .cls-29 {
        fill: url(#linear-gradient-101);
      }

      .cls-30 {
        fill: url(#linear-gradient-81);
      }

      .cls-31 {
        fill: url(#linear-gradient-73);
      }

      .cls-32 {
        fill: url(#linear-gradient-91);
      }

      .cls-33 {
        fill: url(#linear-gradient-5);
      }

      .cls-34 {
        fill: url(#radial-gradient-35);
      }

      .cls-35 {
        fill: url(#linear-gradient-31);
      }

      .cls-36 {
        fill: url(#linear-gradient-103);
      }

      .cls-37 {
        fill: url(#linear-gradient-71);
      }

      .cls-38 {
        fill: url(#linear-gradient-58);
      }

      .cls-39 {
        fill: url(#radial-gradient-27);
      }

      .cls-40 {
        fill: url(#radial-gradient-29);
      }

      .cls-41 {
        fill: url(#linear-gradient-63);
      }

      .cls-42 {
        fill: url(#linear-gradient-34);
      }

      .cls-43 {
        fill: url(#linear-gradient-96);
      }

      .cls-44 {
        fill: url(#linear-gradient-41);
      }

      .cls-45 {
        fill: url(#linear-gradient-89);
      }

      .cls-46 {
        fill: url(#radial-gradient-38);
      }

      .cls-47 {
        fill: url(#linear-gradient-40);
      }

      .cls-48 {
        fill: url(#linear-gradient-66);
      }

      .cls-49 {
        fill: url(#linear-gradient-13);
      }

      .cls-50 {
        fill: url(#linear-gradient-23);
      }

      .cls-51 {
        fill: url(#radial-gradient-22);
      }

      .cls-52 {
        fill: url(#linear-gradient-25);
      }

      .cls-53 {
        fill: url(#linear-gradient-43);
      }

      .cls-54 {
        fill: url(#linear-gradient-16);
      }

      .cls-55 {
        fill: url(#linear-gradient-22);
      }

      .cls-56 {
        fill: url(#linear-gradient-54);
      }

      .cls-57 {
        fill: url(#radial-gradient-19);
      }

      .cls-58 {
        fill: url(#radial-gradient-20);
      }

      .cls-59 {
        fill: url(#linear-gradient-55);
      }

      .cls-60 {
        fill: url(#linear-gradient-35);
      }

      .cls-61 {
        fill: url(#radial-gradient-25);
      }

      .cls-62 {
        fill: url(#linear-gradient-50);
      }

      .cls-63 {
        fill: url(#linear-gradient-32);
      }

      .cls-64 {
        fill: url(#linear-gradient-60);
      }

      .cls-65 {
        fill: url(#linear-gradient-59);
      }

      .cls-66 {
        fill: url(#linear-gradient-20);
      }

      .cls-67 {
        fill: url(#linear-gradient-14);
      }

      .cls-68 {
        fill: url(#linear-gradient-2);
      }

      .cls-69 {
        fill: url(#radial-gradient-33);
      }

      .cls-70 {
        fill: url(#linear-gradient-52);
      }

      .cls-71 {
        fill: url(#radial-gradient-17);
      }

      .cls-72 {
        fill: url(#radial-gradient-32);
      }

      .cls-73 {
        fill: url(#radial-gradient-21);
      }

      .cls-74 {
        fill: url(#linear-gradient-45);
      }

      .cls-75 {
        fill: url(#linear-gradient-93);
      }

      .cls-76 {
        fill: url(#linear-gradient-7);
      }

      .cls-77 {
        fill: url(#radial-gradient-2);
      }

      .cls-78 {
        fill: url(#linear-gradient-39);
      }

      .cls-79 {
        fill: url(#radial-gradient-41);
      }

      .cls-80 {
        fill: url(#radial-gradient-7);
      }

      .cls-81 {
        fill: url(#linear-gradient-3);
      }

      .cls-82 {
        fill: url(#linear-gradient-77);
      }

      .cls-83 {
        fill: url(#linear-gradient-69);
      }

      .cls-84 {
        fill: url(#radial-gradient-34);
      }

      .cls-85 {
        fill: url(#radial-gradient-26);
      }

      .cls-86 {
        fill: url(#radial-gradient-5);
      }

      .cls-87 {
        fill: url(#linear-gradient-94);
      }

      .cls-88 {
        fill: url(#radial-gradient-24);
      }

      .cls-89 {
        fill: url(#linear-gradient-9);
      }

      .cls-90 {
        fill: url(#linear-gradient-27);
      }

      .cls-91 {
        fill: url(#radial-gradient);
      }

      .cls-92 {
        fill: url(#radial-gradient-37);
      }

      .cls-93 {
        fill: url(#linear-gradient-100);
      }

      .cls-94 {
        fill: url(#radial-gradient-45);
      }

      .cls-95 {
        fill: url(#linear-gradient-82);
      }

      .cls-96 {
        fill: url(#linear-gradient-83);
      }

      .cls-97 {
        fill: url(#linear-gradient-53);
      }

      .cls-98 {
        fill: url(#linear-gradient-90);
      }

      .cls-99 {
        fill: url(#radial-gradient-31);
      }

      .cls-100 {
        fill: url(#linear-gradient-85);
      }

      .cls-101 {
        fill: url(#linear-gradient-65);
      }

      .cls-102 {
        fill: url(#linear-gradient-36);
      }

      .cls-103 {
        fill: url(#linear-gradient-48);
      }

      .cls-104 {
        fill: url(#radial-gradient-14);
      }

      .cls-105 {
        fill: url(#linear-gradient-49);
      }

      .cls-106 {
        fill: url(#linear-gradient-8);
      }

      .cls-107 {
        fill: url(#linear-gradient-47);
      }

      .cls-108 {
        fill: url(#radial-gradient-18);
      }

      .cls-109 {
        fill: url(#radial-gradient-10);
      }

      .cls-110 {
        fill: url(#linear-gradient-24);
      }

      .cls-111 {
        fill: url(#linear-gradient-26);
      }

      .cls-112 {
        fill: url(#linear-gradient-61);
      }

      .cls-113 {
        fill: url(#radial-gradient-42);
      }

      .cls-114 {
        fill: url(#linear-gradient-18);
      }

      .cls-115 {
        fill: url(#linear-gradient-51);
      }

      .cls-116 {
        fill: url(#linear-gradient-30);
      }

      .cls-117 {
        fill: #fff;
      }

      .cls-118 {
        fill: url(#linear-gradient-44);
      }

      .cls-119 {
        fill: url(#linear-gradient-84);
      }

      .cls-120 {
        fill: url(#linear-gradient-97);
      }

      .cls-121 {
        fill: url(#linear-gradient-68);
      }

      .cls-122 {
        fill: url(#linear-gradient-72);
      }

      .cls-123 {
        fill: url(#linear-gradient-29);
      }

      .cls-124 {
        fill: url(#linear-gradient-46);
      }

      .cls-125 {
        fill: url(#radial-gradient-28);
      }

      .cls-126 {
        fill: url(#linear-gradient-64);
      }

      .cls-127 {
        fill: url(#radial-gradient-6);
      }

      .cls-128 {
        fill: url(#linear-gradient-28);
      }

      .cls-129 {
        fill: url(#linear-gradient-56);
      }

      .cls-130 {
        fill: url(#radial-gradient-44);
      }

      .cls-131 {
        fill: url(#linear-gradient-99);
      }

      .cls-132 {
        fill: url(#linear-gradient-10);
      }

      .cls-133 {
        fill: url(#radial-gradient-15);
      }

      .cls-134 {
        fill: url(#linear-gradient-87);
      }

      .cls-135 {
        fill: url(#radial-gradient-9);
      }

      .cls-136 {
        fill: url(#radial-gradient-3);
      }

      .cls-137 {
        fill: url(#linear-gradient-70);
      }

      .cls-138 {
        fill: url(#linear-gradient-78);
      }

      .cls-139 {
        fill: url(#linear-gradient-86);
      }

      .cls-140 {
        fill: url(#linear-gradient-74);
      }

      .cls-141 {
        fill: url(#linear-gradient-102);
      }

      .cls-142 {
        fill: url(#radial-gradient-11);
      }

      .cls-143 {
        fill: url(#linear-gradient-4);
      }

      .cls-144 {
        fill: url(#linear-gradient-37);
      }

      .cls-145 {
        fill: url(#linear-gradient-80);
      }

      .cls-146 {
        fill: url(#radial-gradient-36);
      }

      .cls-147 {
        fill: url(#radial-gradient-4);
      }

      .cls-148 {
        fill: url(#linear-gradient-79);
      }

      .cls-149 {
        fill: url(#radial-gradient-23);
      }

      .cls-150 {
        fill: url(#linear-gradient-75);
      }
    </style>
    <linearGradient id="linear-gradient" x1="58.13" y1="212.6" x2="367.07" y2="212.6" gradientUnits="userSpaceOnUse">
      <stop offset="0" stop-color="#f3911c"/>
      <stop offset=".4" stop-color="#fdc207"/>
      <stop offset=".95" stop-color="#f9b019"/>
    </linearGradient>
    <linearGradient id="linear-gradient-2" x1="41.96" y1="212.6" x2="383.24" y2="212.6" gradientUnits="userSpaceOnUse">
      <stop offset="0" stop-color="#721a0d"/>
      <stop offset=".4" stop-color="#803c20"/>
      <stop offset=".95" stop-color="#b7784b"/>
    </linearGradient>
    <linearGradient id="linear-gradient-3" x1="55.2" y1="212.6" x2="370" y2="212.6" gradientUnits="userSpaceOnUse">
      <stop offset="0" stop-color="#f3911c"/>
      <stop offset=".16" stop-color="#f9b019"/>
      <stop offset=".42" stop-color="#fdd760"/>
      <stop offset=".62" stop-color="#fdc207"/>
      <stop offset=".87" stop-color="#fdcf3e"/>
      <stop offset="1" stop-color="#f9bb3b"/>
    </linearGradient>
    <radialGradient id="radial-gradient" cx="303.35" cy="274.16" fx="303.35" fy="274.16" r="38.4" gradientUnits="userSpaceOnUse">
      <stop offset="0" stop-color="#4d4d4c"/>
      <stop offset=".69" stop-color="#2e2d2c"/>
      <stop offset="1" stop-color="#1d1d1b"/>
    </radialGradient>
    <radialGradient id="radial-gradient-2" cx="132.99" cy="136.79" fx="132.99" fy="136.79" r="38.84" xlink:href="#radial-gradient"/>
    <radialGradient id="radial-gradient-3" cx="316.35" cy="242.61" fx="316.35" fy="242.61" r="35.96" xlink:href="#radial-gradient"/>
    <radialGradient id="radial-gradient-4" cx="114.39" cy="165.15" fx="114.39" fy="165.15" r="37.54" xlink:href="#radial-gradient"/>
    <radialGradient id="radial-gradient-5" cx="318.77" cy="202.24" fx="318.77" fy="202.24" r="33.65" xlink:href="#radial-gradient"/>
    <radialGradient id="radial-gradient-6" cx="312.39" cy="169.07" fx="312.39" fy="169.07" r="37.23" xlink:href="#radial-gradient"/>
    <radialGradient id="radial-gradient-7" cx="236.13" cy="107.64" fx="236.13" fy="107.64" r="35.31" xlink:href="#radial-gradient"/>
    <radialGradient id="radial-gradient-8" cx="160.24" cy="116.65" fx="160.24" fy="116.65" r="37.88" xlink:href="#radial-gradient"/>
    <radialGradient id="radial-gradient-9" cx="295.03" cy="139.9" fx="295.03" fy="139.9" r="38.8" xlink:href="#radial-gradient"/>
    <radialGradient id="radial-gradient-10" cx="193.33" cy="107.09" fx="193.33" fy="107.09" r="34.85" xlink:href="#radial-gradient"/>
    <radialGradient id="radial-gradient-11" cx="106.63" cy="198.8" fx="106.63" fy="198.8" r="34.25" xlink:href="#radial-gradient"/>
    <radialGradient id="radial-gradient-12" cx="268.7" cy="118.61" fx="268.7" fy="118.61" r="38.13" xlink:href="#radial-gradient"/>
    <radialGradient id="radial-gradient-13" cx="211.72" cy="318.93" fx="211.72" fy="318.93" r="33.92" xlink:href="#radial-gradient"/>
    <radialGradient id="radial-gradient-14" cx="143.77" cy="298.21" fx="143.77" fy="298.21" r="38.69" xlink:href="#radial-gradient"/>
    <radialGradient id="radial-gradient-15" cx="173.79" cy="314.02" fx="173.79" fy="314.02" r="36.81" xlink:href="#radial-gradient"/>
    <radialGradient id="radial-gradient-16" cx="250.26" cy="314.37" fx="250.26" fy="314.37" r="36.7" xlink:href="#radial-gradient"/>
    <radialGradient id="radial-gradient-17" cx="121.21" cy="273.14" fx="121.21" fy="273.14" r="38.35" xlink:href="#radial-gradient"/>
    <radialGradient id="radial-gradient-18" cx="280.48" cy="298.95" fx="280.48" fy="298.95" r="38.66" xlink:href="#radial-gradient"/>
    <radialGradient id="radial-gradient-19" cx="108.59" cy="241.42" fx="108.59" fy="241.42" r="35.84" xlink:href="#radial-gradient"/>
    <radialGradient id="radial-gradient-20" cx="233.2" cy="317.95" fx="233.2" fy="317.95" r="34.91" gradientUnits="userSpaceOnUse">
      <stop offset=".6" stop-color="#e51f22"/>
      <stop offset="1" stop-color="#ad151e"/>
    </radialGradient>
    <radialGradient id="radial-gradient-21" cx="190.79" cy="317.79" fx="190.79" fy="317.79" r="35.03" xlink:href="#radial-gradient-20"/>
    <radialGradient id="radial-gradient-22" cx="266" cy="307.93" fx="266" fy="307.93" r="37.76" xlink:href="#radial-gradient-20"/>
    <radialGradient id="radial-gradient-23" cx="158.12" cy="307.38" fx="158.12" fy="307.38" r="37.83" xlink:href="#radial-gradient-20"/>
    <radialGradient id="radial-gradient-24" cx="292.93" cy="287.49" fx="292.93" fy="287.49" r="38.6" xlink:href="#radial-gradient-20"/>
    <radialGradient id="radial-gradient-25" cx="131.46" cy="286.59" fx="131.46" fy="286.59" r="38.59" xlink:href="#radial-gradient-20"/>
    <radialGradient id="radial-gradient-26" cx="311.19" cy="258.94" fx="311.19" fy="258.94" r="37.27" xlink:href="#radial-gradient-20"/>
    <radialGradient id="radial-gradient-27" cx="113.55" cy="257.81" fx="113.55" fy="257.81" r="37.18" xlink:href="#radial-gradient-20"/>
    <radialGradient id="radial-gradient-28" cx="318.63" cy="225.18" fx="318.63" fy="225.18" r="34.04" xlink:href="#radial-gradient-20"/>
    <radialGradient id="radial-gradient-29" cx="106.51" cy="223.42" fx="106.51" fy="223.42" r="34" xlink:href="#radial-gradient-20"/>
    <radialGradient id="radial-gradient-30" cx="317" cy="185.84" fx="317" fy="185.84" r="35.55" xlink:href="#radial-gradient-20"/>
    <radialGradient id="radial-gradient-31" cx="109.07" cy="181.66" fx="109.07" fy="181.66" r="35.96" xlink:href="#radial-gradient-20"/>
    <radialGradient id="radial-gradient-32" cx="304.93" cy="153.77" fx="304.93" fy="153.77" r="38.1" xlink:href="#radial-gradient-20"/>
    <radialGradient id="radial-gradient-33" cx="122.5" cy="150.2" fx="122.5" fy="150.2" r="38.27" xlink:href="#radial-gradient-20"/>
    <radialGradient id="radial-gradient-34" cx="282.74" cy="128.17" fx="282.74" fy="128.17" r="38.54" xlink:href="#radial-gradient-20"/>
    <radialGradient id="radial-gradient-35" cx="145.79" cy="125.59" fx="145.79" fy="125.59" r="38.44" xlink:href="#radial-gradient-20"/>
    <radialGradient id="radial-gradient-36" cx="252.88" cy="111.73" fx="252.88" fy="111.73" r="36.8" xlink:href="#radial-gradient-20"/>
    <radialGradient id="radial-gradient-37" cx="176.38" cy="110.46" fx="176.38" fy="110.46" r="36.45" xlink:href="#radial-gradient-20"/>
    <radialGradient id="radial-gradient-38" cx="215.22" cy="93.49" fx="215.22" fy="93.49" r="33.87" gradientUnits="userSpaceOnUse">
      <stop offset=".11" stop-color="#a8c821"/>
      <stop offset=".85" stop-color="#2d8335"/>
      <stop offset=".9" stop-color="#2d7f34"/>
      <stop offset=".93" stop-color="#2e7532"/>
      <stop offset=".97" stop-color="#30652e"/>
      <stop offset="1" stop-color="#334f2a"/>
    </radialGradient>
    <linearGradient id="linear-gradient-4" x1="98.78" y1="212.6" x2="326.42" y2="212.6" gradientTransform="translate(3.46 -3.4) rotate(.92)" xlink:href="#linear-gradient"/>
    <radialGradient id="radial-gradient-39" cx="212.6" cy="212.6" fx="212.6" fy="212.6" r="111.35" gradientUnits="userSpaceOnUse">
      <stop offset=".65" stop-color="#a8c821"/>
      <stop offset=".91" stop-color="#2d8335"/>
      <stop offset=".94" stop-color="#2d7f34"/>
      <stop offset=".96" stop-color="#2e7532"/>
      <stop offset=".98" stop-color="#30652e"/>
      <stop offset="1" stop-color="#334f2a"/>
    </radialGradient>
    <linearGradient id="linear-gradient-5" x1="92.86" y1="159.58" x2="201.13" y2="159.58" xlink:href="#linear-gradient-3"/>
    <linearGradient id="linear-gradient-6" x1="130.44" y1="133.43" x2="206.35" y2="133.43" xlink:href="#linear-gradient-3"/>
    <linearGradient id="linear-gradient-7" x1="177.22" y1="113.56" x2="211.91" y2="113.56" xlink:href="#linear-gradient-3"/>
    <linearGradient id="linear-gradient-8" x1="59.57" y1="196.99" x2="191.09" y2="196.99" xlink:href="#linear-gradient-3"/>
    <linearGradient id="linear-gradient-9" x1="220.85" y1="134.83" x2="299.98" y2="134.83" xlink:href="#linear-gradient-3"/>
    <linearGradient id="linear-gradient-10" x1="225.05" y1="309.5" x2="274.12" y2="309.5" xlink:href="#linear-gradient-3"/>
    <linearGradient id="linear-gradient-11" x1="77" y1="275.07" x2="184.43" y2="275.07" xlink:href="#linear-gradient-3"/>
    <linearGradient id="linear-gradient-12" x1="198.43" y1="297.63" x2="225.01" y2="297.63" xlink:href="#linear-gradient-3"/>
    <linearGradient id="linear-gradient-13" x1="216.3" y1="297.63" x2="249.62" y2="297.63" xlink:href="#linear-gradient-3"/>
    <linearGradient id="linear-gradient-14" x1="225.05" y1="295.44" x2="274.12" y2="295.44" xlink:href="#linear-gradient-3"/>
    <linearGradient id="linear-gradient-15" x1="216.3" y1="295.44" x2="249.62" y2="295.44" xlink:href="#linear-gradient-3"/>
    <linearGradient id="linear-gradient-16" x1="198.43" y1="297.55" x2="225.01" y2="297.55" xlink:href="#linear-gradient-3"/>
    <linearGradient id="linear-gradient-17" x1="173.86" y1="297.55" x2="208.44" y2="297.55" xlink:href="#linear-gradient-3"/>
    <linearGradient id="linear-gradient-18" x1="149.43" y1="295.2" x2="200.83" y2="295.2" xlink:href="#linear-gradient-3"/>
    <linearGradient id="linear-gradient-19" x1="173.85" y1="295.2" x2="208.44" y2="295.2" xlink:href="#linear-gradient-3"/>
    <linearGradient id="linear-gradient-20" x1="225.05" y1="290.84" x2="274.13" y2="290.84" xlink:href="#linear-gradient-3"/>
    <linearGradient id="linear-gradient-21" x1="233.82" y1="290.84" x2="296.06" y2="290.84" xlink:href="#linear-gradient-3"/>
    <linearGradient id="linear-gradient-22" x1="241.45" y1="284.3" x2="316.38" y2="284.3" xlink:href="#linear-gradient-3"/>
    <linearGradient id="linear-gradient-23" x1="233.82" y1="284.3" x2="296.06" y2="284.3" xlink:href="#linear-gradient-3"/>
    <linearGradient id="linear-gradient-24" x1="127.64" y1="283.68" x2="194.28" y2="283.68" xlink:href="#linear-gradient-3"/>
    <linearGradient id="linear-gradient-25" x1="107.5" y1="283.74" x2="189.45" y2="283.74" xlink:href="#linear-gradient-3"/>
    <linearGradient id="linear-gradient-26" x1="127.64" y1="283.74" x2="194.28" y2="283.74" xlink:href="#linear-gradient-3"/>
    <linearGradient id="linear-gradient-27" x1="149.44" y1="290.45" x2="200.83" y2="290.45" xlink:href="#linear-gradient-3"/>
    <linearGradient id="linear-gradient-28" x1="127.64" y1="290.45" x2="194.28" y2="290.45" xlink:href="#linear-gradient-3"/>
    <linearGradient id="linear-gradient-29" x1="247.97" y1="276.79" x2="333.23" y2="276.79" xlink:href="#linear-gradient-3"/>
    <linearGradient id="linear-gradient-30" x1="252.51" y1="265.34" x2="347.36" y2="265.34" xlink:href="#linear-gradient-3"/>
    <linearGradient id="linear-gradient-31" x1="247.96" y1="265.34" x2="333.23" y2="265.34" xlink:href="#linear-gradient-3"/>
    <linearGradient id="linear-gradient-32" x1="241.45" y1="275.52" x2="316.38" y2="275.52" xlink:href="#linear-gradient-3"/>
    <linearGradient id="linear-gradient-33" x1="247.97" y1="275.52" x2="333.23" y2="275.52" xlink:href="#linear-gradient-3"/>
    <linearGradient id="linear-gradient-34" x1="90.87" y1="275.33" x2="186.11" y2="275.33" xlink:href="#linear-gradient-3"/>
    <linearGradient id="linear-gradient-35" x1="107.5" y1="274.83" x2="189.45" y2="274.83" xlink:href="#linear-gradient-3"/>
    <linearGradient id="linear-gradient-36" x1="90.87" y1="274.83" x2="186.11" y2="274.83" xlink:href="#linear-gradient-3"/>
    <linearGradient id="linear-gradient-37" x1="77" y1="264.55" x2="184.43" y2="264.55" xlink:href="#linear-gradient-3"/>
    <linearGradient id="linear-gradient-38" x1="90.88" y1="264.55" x2="186.11" y2="264.55" xlink:href="#linear-gradient-3"/>
    <linearGradient id="linear-gradient-39" x1="255.16" y1="253.87" x2="357.39" y2="253.87" xlink:href="#linear-gradient-3"/>
    <linearGradient id="linear-gradient-40" x1="252.51" y1="253.34" x2="347.36" y2="253.34" xlink:href="#linear-gradient-3"/>
    <linearGradient id="linear-gradient-41" x1="255.16" y1="253.34" x2="357.39" y2="253.34" xlink:href="#linear-gradient-3"/>
    <linearGradient id="linear-gradient-42" x1="254.23" y1="240.63" x2="363.67" y2="240.63" xlink:href="#linear-gradient-3"/>
    <linearGradient id="linear-gradient-43" x1="255.16" y1="240.63" x2="357.39" y2="240.63" xlink:href="#linear-gradient-3"/>
    <linearGradient id="linear-gradient-44" x1="77.01" y1="252.46" x2="184.43" y2="252.46" xlink:href="#linear-gradient-3"/>
    <linearGradient id="linear-gradient-45" x1="67.24" y1="252.46" x2="184.97" y2="252.46" xlink:href="#linear-gradient-3"/>
    <linearGradient id="linear-gradient-46" x1="61.24" y1="239.69" x2="186.59" y2="239.69" xlink:href="#linear-gradient-3"/>
    <linearGradient id="linear-gradient-47" x1="67.24" y1="239.69" x2="184.98" y2="239.69" xlink:href="#linear-gradient-3"/>
    <linearGradient id="linear-gradient-48" x1="254.24" y1="226.68" x2="363.67" y2="226.68" xlink:href="#linear-gradient-3"/>
    <linearGradient id="linear-gradient-49" x1="251.32" y1="226.68" x2="365.64" y2="226.68" xlink:href="#linear-gradient-3"/>
    <linearGradient id="linear-gradient-50" x1="247.95" y1="212.83" x2="365.64" y2="212.83" xlink:href="#linear-gradient-3"/>
    <linearGradient id="linear-gradient-51" x1="251.32" y1="212.83" x2="365.63" y2="212.83" xlink:href="#linear-gradient-3"/>
    <linearGradient id="linear-gradient-52" x1="59.58" y1="211.84" x2="191.09" y2="211.84" xlink:href="#linear-gradient-3"/>
    <linearGradient id="linear-gradient-53" x1="59.58" y1="211.84" x2="188.68" y2="211.84" xlink:href="#linear-gradient-3"/>
    <linearGradient id="linear-gradient-54" x1="61.25" y1="225.7" x2="186.59" y2="225.7" xlink:href="#linear-gradient-3"/>
    <linearGradient id="linear-gradient-55" x1="59.56" y1="225.7" x2="188.67" y2="225.7" xlink:href="#linear-gradient-3"/>
    <linearGradient id="linear-gradient-56" x1="243.49" y1="186.83" x2="364.26" y2="186.83" gradientTransform="translate(69.07 -79.2) rotate(17.34)" xlink:href="#linear-gradient-3"/>
    <linearGradient id="linear-gradient-57" x1="247.95" y1="200.94" x2="365.64" y2="200.94" xlink:href="#linear-gradient-3"/>
    <linearGradient id="linear-gradient-58" x1="243.49" y1="200.94" x2="364.27" y2="200.94" xlink:href="#linear-gradient-3"/>
    <linearGradient id="linear-gradient-59" x1="238.6" y1="187.36" x2="358.92" y2="187.36" xlink:href="#linear-gradient-3"/>
    <linearGradient id="linear-gradient-60" x1="243.5" y1="187.36" x2="364.26" y2="187.36" xlink:href="#linear-gradient-3"/>
    <linearGradient id="linear-gradient-61" x1="61.89" y1="183.51" x2="193.46" y2="183.51" xlink:href="#linear-gradient-3"/>
    <linearGradient id="linear-gradient-62" x1="68.26" y1="184.04" x2="195.98" y2="184.04" xlink:href="#linear-gradient-3"/>
    <linearGradient id="linear-gradient-63" x1="61.89" y1="184.04" x2="193.46" y2="184.04" xlink:href="#linear-gradient-3"/>
    <linearGradient id="linear-gradient-64" x1="59.58" y1="197.5" x2="191.09" y2="197.5" xlink:href="#linear-gradient-3"/>
    <linearGradient id="linear-gradient-65" x1="61.89" y1="197.5" x2="193.46" y2="197.5" xlink:href="#linear-gradient-3"/>
    <linearGradient id="linear-gradient-66" x1="238.6" y1="173.99" x2="358.92" y2="173.99" xlink:href="#linear-gradient-3"/>
    <linearGradient id="linear-gradient-67" x1="233.85" y1="173.99" x2="349.21" y2="173.99" xlink:href="#linear-gradient-3"/>
    <linearGradient id="linear-gradient-68" x1="229.09" y1="162.14" x2="336.15" y2="162.14" xlink:href="#linear-gradient-3"/>
    <linearGradient id="linear-gradient-69" x1="233.85" y1="162.14" x2="349.21" y2="162.14" xlink:href="#linear-gradient-3"/>
    <linearGradient id="linear-gradient-70" x1="92.86" y1="159.36" x2="201.13" y2="159.36" xlink:href="#linear-gradient-3"/>
    <linearGradient id="linear-gradient-71" x1="78.94" y1="159.36" x2="198.47" y2="159.36" xlink:href="#linear-gradient-3"/>
    <linearGradient id="linear-gradient-72" x1="68.26" y1="170.91" x2="195.97" y2="170.91" xlink:href="#linear-gradient-3"/>
    <linearGradient id="linear-gradient-73" x1="78.95" y1="170.91" x2="198.48" y2="170.91" xlink:href="#linear-gradient-3"/>
    <linearGradient id="linear-gradient-74" x1="229.09" y1="151.28" x2="336.15" y2="151.28" xlink:href="#linear-gradient-3"/>
    <linearGradient id="linear-gradient-75" x1="224.83" y1="151.28" x2="319.22" y2="151.28" xlink:href="#linear-gradient-3"/>
    <linearGradient id="linear-gradient-76" x1="220.84" y1="142.44" x2="299.99" y2="142.44" xlink:href="#linear-gradient-3"/>
    <linearGradient id="linear-gradient-77" x1="224.82" y1="142.44" x2="319.22" y2="142.44" xlink:href="#linear-gradient-3"/>
    <linearGradient id="linear-gradient-78" x1="92.85" y1="148.89" x2="201.13" y2="148.89" xlink:href="#linear-gradient-3"/>
    <linearGradient id="linear-gradient-79" x1="110.57" y1="148.89" x2="203.7" y2="148.89" xlink:href="#linear-gradient-3"/>
    <linearGradient id="linear-gradient-80" x1="130.43" y1="140.5" x2="206.36" y2="140.5" xlink:href="#linear-gradient-3"/>
    <linearGradient id="linear-gradient-81" x1="110.57" y1="140.5" x2="203.7" y2="140.5" xlink:href="#linear-gradient-3"/>
    <linearGradient id="linear-gradient-82" x1="214.09" y1="130.42" x2="254.06" y2="130.42" xlink:href="#linear-gradient-3"/>
    <linearGradient id="linear-gradient-83" x1="217.4" y1="130.42" x2="277.56" y2="130.42" xlink:href="#linear-gradient-3"/>
    <linearGradient id="linear-gradient-84" x1="220.84" y1="135.25" x2="299.99" y2="135.25" xlink:href="#linear-gradient-3"/>
    <linearGradient id="linear-gradient-85" x1="217.4" y1="135.25" x2="277.56" y2="135.25" xlink:href="#linear-gradient-3"/>
    <linearGradient id="linear-gradient-86" x1="153.38" y1="125.03" x2="208.98" y2="125.03" xlink:href="#linear-gradient-3"/>
    <linearGradient id="linear-gradient-87" x1="130.43" y1="133.84" x2="206.35" y2="133.84" xlink:href="#linear-gradient-3"/>
    <linearGradient id="linear-gradient-88" x1="153.38" y1="133.84" x2="208.98" y2="133.84" xlink:href="#linear-gradient-3"/>
    <linearGradient id="linear-gradient-89" x1="177.22" y1="129.55" x2="211.91" y2="129.55" xlink:href="#linear-gradient-3"/>
    <linearGradient id="linear-gradient-90" x1="153.38" y1="129.55" x2="208.98" y2="129.55" xlink:href="#linear-gradient-3"/>
    <linearGradient id="linear-gradient-91" x1="202.82" y1="127.55" x2="228.6" y2="127.55" xlink:href="#linear-gradient-3"/>
    <linearGradient id="linear-gradient-92" x1="202.82" y1="134.33" x2="228.6" y2="134.33" xlink:href="#linear-gradient-3"/>
    <linearGradient id="linear-gradient-93" x1="214.09" y1="127.75" x2="254.05" y2="127.75" xlink:href="#linear-gradient-3"/>
    <linearGradient id="linear-gradient-94" x1="202.82" y1="127.75" x2="228.6" y2="127.75" xlink:href="#linear-gradient-3"/>
    <linearGradient id="linear-gradient-95" x1="177.21" y1="127.47" x2="211.91" y2="127.47" xlink:href="#linear-gradient-3"/>
    <linearGradient id="linear-gradient-96" x1="202.82" y1="127.47" x2="228.6" y2="127.47" xlink:href="#linear-gradient-3"/>
    <linearGradient id="linear-gradient-97" x1="129.14" y1="212.6" x2="296.06" y2="212.6" gradientUnits="userSpaceOnUse">
      <stop offset="0" stop-color="#9d9d9c"/>
      <stop offset=".16" stop-color="#dadada"/>
      <stop offset=".42" stop-color="#ededed"/>
      <stop offset=".62" stop-color="#d1d0d0"/>
      <stop offset=".87" stop-color="#e9e9e9"/>
      <stop offset="1" stop-color="#c3c3c3"/>
    </linearGradient>
    <linearGradient id="linear-gradient-98" x1="134.74" y1="212.6" x2="290.46" y2="212.6" xlink:href="#linear-gradient-3"/>
    <linearGradient id="linear-gradient-99" x1="159.33" y1="212.6" x2="265.88" y2="212.6" xlink:href="#linear-gradient-2"/>
    <linearGradient id="linear-gradient-100" x1="245.92" y1="245.91" x2="179.28" y2="179.28" xlink:href="#linear-gradient-2"/>
    <radialGradient id="radial-gradient-40" cx="-637.14" cy="1960.34" fx="-637.14" fy="1960.34" r="22.53" gradientTransform="translate(32.94 -1840.23) rotate(-22.95)" gradientUnits="userSpaceOnUse">
      <stop offset=".06" stop-color="#fdd75e"/>
      <stop offset=".71" stop-color="#f9b019"/>
      <stop offset="1" stop-color="#f3911c"/>
    </radialGradient>
    <linearGradient id="linear-gradient-101" x1="-340.67" y1="1542.21" x2="-340.67" y2="1529.7" gradientTransform="translate(-215.43 -1481.94) rotate(-22.95) scale(.91 1.12)" gradientUnits="userSpaceOnUse">
      <stop offset="0" stop-color="#f3911c"/>
      <stop offset=".15" stop-color="#f7a41a"/>
      <stop offset=".53" stop-color="#fdd75e"/>
      <stop offset=".57" stop-color="#fcce4e"/>
      <stop offset=".67" stop-color="#fabd31"/>
      <stop offset=".75" stop-color="#f9b31f"/>
      <stop offset=".81" stop-color="#f9b019"/>
      <stop offset="1" stop-color="#f3911c"/>
    </linearGradient>
    <radialGradient id="radial-gradient-41" cx="-709.34" cy="1960.86" fx="-709.34" fy="1960.86" r="7.01" xlink:href="#radial-gradient-40"/>
    <radialGradient id="radial-gradient-42" cx="-635.25" cy="2034.67" fx="-635.25" fy="2034.67" r="7.01" xlink:href="#radial-gradient-40"/>
    <linearGradient id="linear-gradient-102" x1="-7445.96" y1="1541.95" x2="-7445.96" y2="1529.44" gradientTransform="translate(-6635.25 1236.64) rotate(157.05) scale(.91 -1.12)" xlink:href="#linear-gradient-101"/>
    <radialGradient id="radial-gradient-43" cx="-7147.49" cy="1960.74" fx="-7147.49" fy="1960.74" r="7.01" gradientTransform="translate(-7065.67 1165.39) rotate(157.05) scale(1 -1)" xlink:href="#radial-gradient-40"/>
    <linearGradient id="linear-gradient-103" x1="-8141.61" y1="997.57" x2="-8141.61" y2="985.07" gradientTransform="translate(-3674.39 -6106.78) rotate(-112.95) scale(.91 1.12)" xlink:href="#linear-gradient-101"/>
    <linearGradient id="linear-gradient-104" x1="354.97" y1="997.32" x2="354.97" y2="984.81" gradientTransform="translate(-955.81 313.03) rotate(67.05) scale(.91 -1.12)" xlink:href="#linear-gradient-101"/>
    <radialGradient id="radial-gradient-44" cx="-79.22" cy="1348.26" fx="-79.22" fy="1348.26" r="7.01" gradientTransform="translate(-1027.06 743.46) rotate(67.05) scale(1 -1)" xlink:href="#radial-gradient-40"/>
    <radialGradient id="radial-gradient-45" cx="-637.14" cy="1960.34" fx="-637.14" fy="1960.34" r="12.5" xlink:href="#radial-gradient-40"/>
  </defs>
  <path class="cls-9" d="M367.07,212.6c0,85.31-69.16,154.47-154.47,154.47S58.13,297.91,58.13,212.6,127.29,58.13,212.6,58.13s154.47,69.16,154.47,154.47Z"/>
  <path class="cls-68" d="M383.24,212.6c0,94.24-76.4,170.64-170.64,170.64S41.96,306.84,41.96,212.6,118.36,41.96,212.6,41.96s170.64,76.4,170.64,170.64Z"/>
  <path class="cls-81" d="M370,212.6c0,86.93-70.47,157.4-157.4,157.4S55.2,299.53,55.2,212.6,125.67,55.2,212.6,55.2s157.4,70.47,157.4,157.39Z"/>
  <g>
    <path class="cls-91" d="M260,249.94l72.57,56.93c5.29-6.73,10.04-13.91,14.15-21.49l-81.11-43.93c-1.63,2.99-3.51,5.83-5.61,8.49Z"/>
    <path class="cls-77" d="M172.45,167.56l-61.22-68.97c-6.41,5.7-12.34,11.94-17.71,18.64l71.89,57.76c2.13-2.67,4.49-5.16,7.04-7.44Z"/>
    <path class="cls-136" d="M269.58,232.49l87.21,30.08c2.79-8.06,4.93-16.43,6.34-25.04l-91.03-14.88c-.57,3.38-1.41,6.67-2.52,9.84Z"/>
    <path class="cls-147" d="M159.91,183.18l-80.32-45.34c-4.21,7.47-7.8,15.33-10.72,23.52l86.84,31.1c1.14-3.23,2.55-6.33,4.2-9.28Z"/>
    <path class="cls-86" d="M363.73,191.65l-91.35,12.74c.37,2.68.56,5.42.56,8.21,0,.08,0,.16,0,.23h92.23c0-.08,0-.15,0-.23,0-7.11-.5-14.1-1.44-20.95Z"/>
    <path class="cls-127" d="M270.27,194.8l88.06-27.5c-2.58-8.31-5.85-16.31-9.75-23.94l-82.13,42.01c1.53,3.01,2.81,6.16,3.82,9.44Z"/>
    <path class="cls-80" d="M228.83,154.47l24.64-88.89c-8.21-2.28-16.69-3.89-25.39-4.77l-9.28,91.76c3.44.35,6.79.99,10.04,1.9Z"/>
    <path class="cls-20" d="M189.39,156.89l-35.39-85.19c-8,3.33-15.66,7.33-22.91,11.92l49.25,77.98c2.86-1.81,5.89-3.4,9.05-4.71Z"/>
    <path class="cls-135" d="M261.29,176.96l74.2-54.78c-5.1-6.92-10.77-13.39-16.94-19.35l-63.98,66.42c2.45,2.37,4.7,4.95,6.72,7.71Z"/>
    <path class="cls-109" d="M208.88,152.38l-5.56-92.05c-8.73.52-17.26,1.77-25.53,3.71l20.98,89.83c3.28-.77,6.66-1.27,10.12-1.48Z"/>
    <path class="cls-142" d="M153.2,201.95l-90.76-16.47c-1.49,8.32-2.3,16.87-2.38,25.59l92.21,1.05c.03-3.46.34-6.86.93-10.16Z"/>
    <path class="cls-27" d="M246.93,162.98l52.4-75.9c-7.06-4.88-14.54-9.19-22.39-12.85l-38.86,83.65c3.11,1.45,6.07,3.16,8.86,5.09Z"/>
    <path class="cls-26" d="M212.6,272.94c-1.84,0-3.65-.09-5.45-.25l-8.21,91.86c4.5.4,9.05.62,13.66.62,4,0,7.97-.16,11.9-.46l-7.15-91.95c-1.57.12-3.15.19-4.75.19Z"/>
    <path class="cls-104" d="M171.38,256.65l-63.2,67.16c6.24,5.86,12.97,11.2,20.13,15.95l51.06-76.8c-2.84-1.88-5.51-3.99-7.99-6.31Z"/>
    <path class="cls-133" d="M187.95,267.69l-37.88,84.12c7.8,3.51,15.94,6.38,24.37,8.55l23.07-89.32c-3.3-.85-6.5-1.98-9.56-3.35Z"/>
    <path class="cls-5" d="M227.02,271.2l22.03,89.57c8.45-2.07,16.62-4.84,24.46-8.26l-36.89-84.55c-3.08,1.33-6.28,2.42-9.59,3.23Z"/>
    <path class="cls-71" d="M159.26,240.83l-81.62,42.96c4.03,7.62,8.68,14.86,13.9,21.65l73.23-56.07c-2.06-2.68-3.91-5.54-5.5-8.55Z"/>
    <path class="cls-108" d="M245.24,263.35l50.16,77.4c7.21-4.67,14-9.93,20.31-15.71l-62.41-67.9c-2.5,2.29-5.2,4.37-8.06,6.21Z"/>
    <path class="cls-57" d="M152.99,221.96l-91.2,13.81c1.31,8.63,3.36,17.02,6.05,25.11l87.55-29.05c-1.07-3.18-1.88-6.48-2.41-9.87Z"/>
    <path class="cls-58" d="M217.35,272.75l7.15,91.95c8.39-.65,16.59-1.98,24.54-3.93l-22.03-89.57c-3.13.77-6.36,1.29-9.67,1.55Z"/>
    <path class="cls-73" d="M197.51,271.03l-23.07,89.32c7.94,2.04,16.13,3.46,24.51,4.2l8.21-91.86c-3.3-.3-6.52-.85-9.65-1.66Z"/>
    <path class="cls-51" d="M236.61,267.97l36.89,84.55c7.65-3.34,14.97-7.27,21.9-11.76l-50.16-77.4c-2.73,1.76-5.62,3.31-8.63,4.62Z"/>
    <path class="cls-149" d="M179.36,262.96l-51.06,76.8c6.88,4.58,14.16,8.61,21.77,12.04l37.88-84.12c-3-1.34-5.87-2.93-8.58-4.72Z"/>
    <path class="cls-88" d="M253.3,257.14l62.41,67.9c6.09-5.59,11.74-11.67,16.86-18.17l-72.57-56.93c-2.03,2.58-4.28,4.99-6.7,7.2Z"/>
    <path class="cls-61" d="M164.77,249.38l-73.23,56.07c5.04,6.56,10.6,12.71,16.63,18.37l63.2-67.16c-2.4-2.24-4.6-4.67-6.61-7.28Z"/>
    <path class="cls-85" d="M265.6,241.45l81.11,43.93c3.95-7.26,7.32-14.9,10.07-22.81l-87.21-30.08c-1.09,3.11-2.42,6.11-3.98,8.96Z"/>
    <path class="cls-39" d="M155.39,231.83l-87.55,29.05c2.65,7.95,5.94,15.61,9.81,22.92l81.62-42.96c-1.52-2.87-2.82-5.88-3.87-9Z"/>
    <path class="cls-125" d="M272.1,222.65l91.03,14.88c1.32-8.04,2.02-16.29,2.04-24.7h-92.23c-.01,3.35-.3,6.63-.84,9.82Z"/>
    <path class="cls-40" d="M152.26,212.6c0-.16,0-.32,0-.48l-92.21-1.05c0,.51-.02,1.02-.02,1.53,0,7.88.6,15.61,1.75,23.17l91.2-13.81c-.48-3.05-.73-6.18-.73-9.36Z"/>
    <path class="cls-3" d="M272.38,204.39l91.35-12.74c-1.15-8.35-2.96-16.49-5.4-24.35l-88.06,27.5c.96,3.1,1.66,6.3,2.11,9.59Z"/>
    <path class="cls-99" d="M155.71,192.46l-86.84-31.1c-2.77,7.77-4.94,15.83-6.43,24.12l90.76,16.47c.58-3.26,1.43-6.43,2.51-9.5Z"/>
    <path class="cls-72" d="M266.45,185.36l82.13-42.01c-3.79-7.43-8.18-14.5-13.09-21.17l-74.2,54.78c1.94,2.64,3.67,5.45,5.16,8.4Z"/>
    <path class="cls-69" d="M165.42,174.99l-71.89-57.76c-5.18,6.46-9.85,13.35-13.94,20.61l80.32,45.34c1.62-2.88,3.46-5.62,5.51-8.19Z"/>
    <path class="cls-84" d="M254.57,169.25l63.98-66.42c-5.96-5.76-12.39-11.03-19.22-15.75l-52.4,75.9c2.71,1.88,5.27,3.98,7.64,6.27Z"/>
    <path class="cls-34" d="M180.34,161.6l-49.25-77.98c-7.03,4.45-13.66,9.46-19.85,14.96l61.22,68.97c2.46-2.19,5.09-4.18,7.89-5.95Z"/>
    <path class="cls-146" d="M238.07,157.89l38.86-83.65c-7.51-3.5-15.35-6.4-23.46-8.65l-24.64,88.89c3.19.89,6.28,2.04,9.24,3.42Z"/>
    <path class="cls-92" d="M198.76,153.86l-20.98-89.83c-8.2,1.91-16.15,4.49-23.79,7.67l35.39,85.19c3.01-1.25,6.14-2.27,9.37-3.03Z"/>
    <path class="cls-46" d="M212.6,152.26c2.09,0,4.16.11,6.19.31l9.28-91.76c-5.09-.51-10.25-.78-15.48-.78-3.12,0-6.21.11-9.28.29l5.56,92.05c1.23-.08,2.47-.12,3.72-.12Z"/>
  </g>
  <circle class="cls-143" cx="212.6" cy="212.6" r="113.82" transform="translate(-3.4 3.46) rotate(-.92)"/>
  <path class="cls-16" d="M323.95,212.6c0,61.5-49.85,111.35-111.35,111.35s-111.35-49.86-111.35-111.35,49.85-111.35,111.35-111.35,111.35,49.85,111.35,111.35Z"/>
  <path class="cls-117" d="M219.69,84.81c-.02,1.24-.48,2.28-1.37,3.13-.89.85-1.95,1.26-3.17,1.23-1.24-.02-2.29-.48-3.14-1.37-.85-.89-1.26-1.94-1.24-3.18l.21-10.18c.03-1.24.48-2.29,1.37-3.14.89-.85,1.95-1.26,3.18-1.24,1.24.02,2.28.48,3.13,1.37.85.89,1.26,1.95,1.23,3.18l-.21,10.18ZM216.98,74.51c0-.45-.14-.83-.45-1.16-.31-.32-.69-.49-1.14-.5-.45,0-.83.14-1.15.45-.32.31-.48.69-.49,1.14l-.21,10.2c0,.45.14.83.45,1.16.31.32.68.49,1.13.5.45,0,.83-.14,1.16-.45.32-.31.49-.69.5-1.14l.21-10.2Z"/>
  <g>
    <path class="cls-117" d="M184.55,78.08c-.25-1.77-.03-3.17.64-4.22.58-.92,1.44-1.46,2.57-1.62,1.04-.15,1.99.19,2.86,1.01.87.82,1.38,1.84,1.56,3.07.18,1.27.11,2.53-.2,3.78-.17.69-.62,1.9-1.35,3.63-.2.47-.49,1.21-.87,2.2l-.32.82c-.21.54-.36.96-.46,1.26-.05.16-.07.25-.06.28l4.67-.66.39,2.75-7.57,1.06-.36-2.58c0-.06.12-.43.37-1.1.12-.31.26-.65.41-1.03l.47-1.14c.28-.64.71-1.65,1.31-3.05.56-1.31.95-2.49,1.18-3.52.18-.84.22-1.61.13-2.31-.08-.57-.28-1.03-.61-1.39-.35-.38-.76-.53-1.22-.47-.66.09-1.07.61-1.22,1.55-.05.31-.05.67.01,1.09l.1.71-2.34.33-.07-.49Z"/>
    <path class="cls-117" d="M198.84,75.42l-.07-.46c-.06-.46-.22-.83-.47-1.11-.25-.28-.56-.4-.94-.35-.38.05-.65.25-.81.59-.16.34-.21.74-.15,1.2l.52,3.72c.46-.65,1.02-1.02,1.68-1.12,1.05-.15,1.89.17,2.54.96.57.69.95,1.7,1.13,3.04l.45,3.2h-.01c.12,1.2-.11,2.25-.67,3.15-.56.9-1.33,1.42-2.32,1.55-1.05.15-1.98-.17-2.78-.96-.78-.76-1.26-1.76-1.43-2.99l-1.43-10.18c-.13-.91-.06-1.76.21-2.55.27-.79.73-1.41,1.36-1.86.4-.3.86-.49,1.39-.56,1.04-.15,1.97.18,2.78.97.78.76,1.26,1.76,1.43,2.99l.06.4-2.48.35ZM197.84,85.49c.06.46.21.82.45,1.09.26.3.58.42.96.37.38-.05.65-.26.82-.62.16-.33.21-.72.14-1.17l-.49-3.45c-.08-.54-.31-.96-.69-1.27-.18-.15-.42-.2-.71-.16-.41.06-.7.29-.86.71-.12.34-.16.7-.1,1.09l.48,3.41Z"/>
  </g>
  <g>
    <path class="cls-117" d="M231.14,87.32c1.08.21,1.74-.28,1.97-1.47l.21-1.09c.37-1.9-.29-3.01-1.97-3.34l.47-2.39c.91.18,1.64,0,2.18-.51.51-.46.85-1.18,1.04-2.15l.08-.43c.24-1.21-.09-1.9-.99-2.08-.5-.1-.91.06-1.23.46-.24.31-.42.74-.52,1.28l-.09.48-2.31-.45.08-.43c.26-1.32.75-2.33,1.48-3.05.82-.82,1.82-1.11,2.98-.89,1.11.22,1.91.83,2.4,1.85.44.91.55,1.96.32,3.15l-.15.78c-.22,1.15-.71,2.09-1.45,2.81-.32.31-.67.55-1.05.73.61.6,1.01,1.41,1.21,2.43.1.52.09,1.12-.04,1.81l-.29,1.46c-.27,1.37-.88,2.41-1.84,3.13-.92.7-1.92.94-2.98.73-1.04-.2-1.84-.81-2.39-1.81-.56-1.01-.71-2.11-.48-3.32l.09-.46,2.29.23-.08.66c-.06.47,0,.87.2,1.22.19.34.48.55.87.63Z"/>
    <path class="cls-117" d="M238.86,77.8c.34-1.75,1-3.01,1.98-3.78.85-.68,1.84-.91,2.96-.69,1.03.2,1.82.83,2.37,1.89.55,1.06.71,2.2.47,3.41-.25,1.26-.72,2.43-1.42,3.5-.38.6-1.21,1.6-2.46,2.99-.34.38-.86.98-1.54,1.8l-.57.67c-.37.44-.65.79-.85,1.04-.1.13-.15.21-.15.25l4.63.9-.53,2.73-7.5-1.46.5-2.56c.01-.06.25-.37.71-.92.21-.25.45-.53.72-.84l.82-.93c.47-.51,1.22-1.33,2.23-2.46.96-1.06,1.71-2.04,2.26-2.94.45-.74.74-1.45.87-2.14.11-.56.07-1.06-.12-1.51-.21-.47-.55-.75-1-.84-.66-.13-1.21.23-1.66,1.07-.15.28-.26.62-.34,1.04l-.14.71-2.32-.45.09-.49Z"/>
  </g>
  <path class="cls-117" d="M173.51,92.31c1.23-.41,1.65-1.18,1.27-2.32l-.35-1.04c-.6-1.82-1.85-2.41-3.76-1.78l-.76-2.29c1.03-.34,1.69-.88,1.99-1.61.28-.67.27-1.47-.04-2.4l-.14-.41c-.38-1.16-1.08-1.57-2.1-1.23-.57.19-.91.54-1.03,1.06-.09.39-.05.85.13,1.38l.15.46-2.62.87-.14-.41c-.42-1.26-.44-2.4-.06-3.4.43-1.14,1.3-1.94,2.62-2.37,1.25-.41,2.4-.32,3.43.28.93.54,1.58,1.38,1.96,2.52l.25.75c.36,1.1.35,2.16-.04,3.18-.17.43-.41.83-.71,1.19.94.18,1.77.65,2.51,1.41.38.39.68.91.9,1.57l.46,1.4c.43,1.31.34,2.53-.28,3.67-.59,1.09-1.49,1.84-2.69,2.24-1.18.39-2.31.31-3.41-.25-1.09-.56-1.83-1.42-2.22-2.58l-.15-.44,2.48-1.04.26.6c.18.43.46.74.83.93.37.19.78.21,1.22.07Z"/>
  <path class="cls-117" d="M95.69,130.61l2.36,1.6,11.34,11.76-1.32,1.95-11.34-11.76-2.73,4.03-2.36-1.6,4.05-5.98Z"/>
  <path class="cls-117" d="M120.95,296.16l-11.19,9.22,1.3,1.58-1.53,1.26c-.43-.39-.98-.65-1.64-.78-.67-.12-1.31-.08-1.94.14l-1.07-1.29,14.54-11.99,1.53,1.85Z"/>
  <path class="cls-117" d="M70.36,223.51c-.07-1.05.33-1.95,1.18-2.7.82-.72,1.85-1.12,3.08-1.2l10.26-.65c1.25-.08,2.33.2,3.25.83.91.63,1.4,1.47,1.47,2.5.07,1.06-.32,1.96-1.17,2.7-.82.72-1.85,1.12-3.09,1.2l-.41.03-.16-2.49.46-.03c.46-.03.84-.16,1.13-.38.3-.23.43-.53.41-.91-.02-.38-.2-.67-.52-.85-.32-.19-.71-.27-1.17-.24l-3.76.24c.63.52.96,1.11,1,1.76.07,1.05-.32,1.86-1.15,2.44-.73.51-1.78.81-3.13.9l-3.22.2h0c-.87,0-1.67-.15-2.39-.49-.72-.34-1.27-.83-1.65-1.47-.25-.42-.39-.88-.42-1.39ZM74.81,221.97c-.46.03-.84.16-1.14.38-.3.23-.44.53-.42.91.02.38.2.66.53.85.33.19.72.27,1.18.24l3.48-.22c.55-.04.99-.23,1.33-.59.16-.16.23-.39.21-.69-.04-.61-.44-.97-1.21-1.07-.23-.03-.41-.04-.53-.03l-3.43.22Z"/>
  <path class="cls-117" d="M189.89,350.49l.67-3.99c-.3.36-.68.61-1.15.75-.24.07-.52.08-.82.03-1.04-.18-1.73-.73-2.08-1.68-.3-.81-.34-1.9-.11-3.25l.67-4c.23-1.37.79-2.44,1.67-3.19.85-.73,1.8-1.01,2.87-.83,1.04.18,1.82.76,2.36,1.77.52.96.67,2.05.47,3.28l-.08.44-2.31-.18.06-.65c.07-.75-.11-1.29-.51-1.61-.12-.1-.26-.16-.41-.19-.97-.16-1.56.35-1.76,1.55l-.77,4.55c-.09.54,0,1.02.28,1.43.13.2.34.32.63.36.42.07.76-.07,1.03-.42.22-.31.37-.65.43-1.02l.09-.5,2.37.4-1.71,10.15-6.94-1.17.48-2.82,4.57.77Z"/>
  <path class="cls-117" d="M250.33,335.27c-.41-1.18-.4-2.31.02-3.38.42-1.07,1.13-1.77,2.12-2.11l.18-.06c1-.35,2-.22,2.98.37.98.59,1.68,1.47,2.08,2.64l.56,1.62c.38,1.09.39,2.15.06,3.17-.14.44-.35.84-.63,1.19.74.16,1.42.61,2.06,1.36.32.39.6.92.83,1.59l.33.97c.4,1.16.44,2.21.12,3.17-.35,1.07-1.05,1.79-2.11,2.16l-.18.06c-1.07.37-2.07.23-3-.4-.84-.57-1.46-1.43-1.85-2.57l-.33-.97c-.38-1.11-.42-2.12-.11-3.05.14-.41.33-.76.57-1.05-.83-.21-1.58-.71-2.26-1.49-.35-.4-.64-.93-.87-1.59l-.56-1.62ZM253.04,335.75c.37,1.06.81,1.7,1.35,1.92.25.1.55.1.89-.02.6-.21.91-.65.91-1.33,0-.41-.1-.93-.32-1.54l-.29-.85c-.2-.59-.52-1.01-.95-1.26-.36-.21-.74-.27-1.13-.15-.6.25-.91.76-.91,1.52,0,.26.04.55.15.87l.29.85ZM255.67,343.61c.44,1.21,1.02,1.87,1.76,1.96.17.02.36,0,.56-.07.39-.13.67-.37.83-.71.13-.28.18-.59.15-.95-.03-.36-.13-.78-.32-1.26-.29-.77-.59-1.29-.89-1.56-.4-.37-.87-.46-1.41-.27-.54.19-.86.56-.94,1.13-.07.48.02,1.06.26,1.73Z"/>
  <g>
    <path class="cls-117" d="M107.09,124.76c-1.3-1.22-2.02-2.45-2.15-3.68-.13-1.08.2-2.04.98-2.88.72-.77,1.67-1.11,2.86-1.01,1.19.09,2.23.57,3.14,1.41.94.88,1.68,1.9,2.22,3.07.3.64.71,1.87,1.23,3.68.14.49.38,1.25.7,2.26l.26.84c.18.55.32.97.43,1.28.06.15.11.24.13.26l3.22-3.45,2.03,1.9-5.22,5.58-1.9-1.78s-.18-.41-.4-1.09c-.1-.32-.21-.67-.33-1.06l-.35-1.18c-.18-.67-.48-1.73-.9-3.19-.39-1.37-.82-2.53-1.29-3.48-.39-.77-.84-1.4-1.35-1.88-.42-.39-.86-.62-1.34-.7-.51-.07-.92.06-1.24.41-.46.49-.45,1.15.03,1.97.16.27.39.55.69.84l.53.49-1.62,1.73-.36-.34Z"/>
    <path class="cls-117" d="M125.61,118.46c.92.86,1.44,1.85,1.56,2.99.13,1.14-.17,2.09-.89,2.86l-.13.14c-.72.77-1.66,1.13-2.81,1.07-1.15-.06-2.17-.52-3.07-1.36l-1.25-1.17c-.84-.79-1.35-1.71-1.54-2.78-.08-.46-.08-.9,0-1.34-.73.2-1.54.12-2.45-.24-.47-.19-.96-.53-1.48-1.02l-.75-.7c-.89-.84-1.42-1.75-1.59-2.74-.2-1.11.09-2.08.85-2.89l.13-.14c.77-.82,1.72-1.17,2.84-1.05,1.01.11,1.96.58,2.84,1.41l.75.7c.86.8,1.36,1.68,1.52,2.64.07.42.07.82,0,1.2.83-.2,1.73-.11,2.7.26.5.19,1,.52,1.51,1l1.25,1.17ZM117,113.58c-.95-.87-1.78-1.17-2.48-.91-.16.06-.32.16-.46.32-.28.3-.42.64-.4,1.02.02.3.12.61.31.91.19.3.48.62.87.96.61.54,1.12.86,1.52.97.52.14.98,0,1.38-.42.39-.42.49-.9.3-1.44-.16-.45-.51-.92-1.04-1.41ZM123,119.3c-.82-.77-1.52-1.12-2.09-1.07-.27.03-.53.17-.78.44-.43.46-.5,1-.18,1.6.19.37.53.77,1,1.22l.66.62c.45.42.93.65,1.43.67.42.02.78-.11,1.07-.39.42-.5.45-1.1.1-1.77-.11-.23-.29-.46-.54-.7l-.66-.62Z"/>
  </g>
  <g>
    <path class="cls-117" d="M74.12,207.85c-1.77-.19-3.09-.74-3.94-1.64-.75-.79-1.07-1.75-.95-2.89.11-1.04.67-1.89,1.67-2.53,1-.64,2.13-.89,3.36-.76,1.28.13,2.48.5,3.62,1.11.63.33,1.7,1.06,3.2,2.19.41.31,1.05.77,1.92,1.38l.72.51c.47.33.84.58,1.11.76.14.08.23.13.26.13l.5-4.69,2.76.29-.8,7.6-2.59-.27c-.06,0-.39-.22-.98-.63-.27-.19-.57-.41-.9-.65l-.99-.73c-.55-.42-1.43-1.09-2.64-2.01-1.14-.86-2.18-1.53-3.13-2-.78-.38-1.51-.61-2.21-.68-.57-.06-1.07.02-1.49.25-.45.25-.7.61-.75,1.07-.07.67.33,1.19,1.21,1.56.29.12.64.21,1.06.25l.72.08-.25,2.35-.49-.05Z"/>
    <path class="cls-117" d="M75.12,198.42c-1.77-.19-3.09-.74-3.94-1.64-.75-.79-1.07-1.75-.95-2.89.11-1.04.67-1.89,1.67-2.53,1-.64,2.13-.89,3.36-.76,1.28.14,2.48.51,3.62,1.11.63.33,1.7,1.06,3.2,2.19.41.31,1.05.77,1.92,1.38l.72.51c.47.33.84.58,1.11.76.14.08.23.13.26.13l.5-4.69,2.76.29-.8,7.6-2.59-.27c-.06,0-.39-.22-.98-.63-.27-.19-.57-.41-.9-.65l-.99-.73c-.55-.42-1.43-1.09-2.64-2.01-1.14-.86-2.18-1.53-3.13-2-.78-.38-1.51-.61-2.21-.68-.57-.06-1.07.02-1.49.25-.45.25-.7.61-.75,1.07-.07.67.33,1.19,1.21,1.56.29.12.64.21,1.06.25l.72.08-.25,2.35-.49-.05Z"/>
  </g>
  <g>
    <path class="cls-117" d="M242.41,346.62c.27,1.76.07,3.17-.59,4.22-.57.93-1.42,1.48-2.55,1.65-1.04.16-2-.17-2.87-.98-.87-.81-1.4-1.83-1.59-3.06-.19-1.27-.14-2.53.16-3.78.16-.69.6-1.91,1.31-3.65.19-.47.48-1.21.85-2.21l.31-.82c.2-.54.35-.96.45-1.27.04-.16.06-.25.06-.28l-4.67.71-.42-2.75,7.56-1.15.39,2.58c0,.06-.11.43-.36,1.11-.12.31-.25.65-.4,1.03l-.46,1.15c-.27.64-.7,1.66-1.27,3.06-.55,1.32-.93,2.5-1.14,3.53-.17.85-.21,1.62-.1,2.31.09.56.29,1.02.62,1.38.36.37.77.52,1.23.45.66-.1,1.06-.62,1.2-1.57.05-.31.04-.67-.02-1.09l-.11-.71,2.34-.35.07.49Z"/>
    <path class="cls-117" d="M227.74,337.9c-1.09.16-1.54.85-1.36,2.04l.17,1.1c.29,1.91,1.28,2.73,2.98,2.48l.36,2.4c-.91.14-1.54.54-1.89,1.21-.32.6-.41,1.4-.26,2.38l.07.43c.18,1.22.73,1.76,1.63,1.62.5-.08.84-.36,1-.85.12-.37.14-.83.06-1.38l-.07-.49,2.33-.35.07.43c.2,1.33.08,2.45-.36,3.37-.5,1.05-1.34,1.66-2.51,1.84-1.12.17-2.08-.14-2.88-.93-.73-.71-1.18-1.67-1.36-2.86l-.12-.79c-.18-1.16-.03-2.2.42-3.13.2-.39.44-.74.74-1.04-.78-.36-1.43-.98-1.96-1.88-.27-.46-.46-1.03-.57-1.72l-.22-1.47c-.21-1.38.02-2.57.68-3.57.63-.97,1.49-1.53,2.56-1.7,1.05-.16,2,.14,2.86.9s1.38,1.75,1.57,2.97l.07.46-2.23.55-.15-.65c-.1-.46-.3-.82-.6-1.08-.29-.26-.63-.36-1.03-.3Z"/>
  </g>
  <g>
    <path class="cls-117" d="M133.38,117.08l-8.73-11.58-1.63,1.23-1.19-1.59c.41-.41.7-.95.85-1.61.15-.66.14-1.31-.06-1.94l1.34-1.01,11.34,15.04-1.92,1.45Z"/>
    <path class="cls-117" d="M128.76,103.63c-1.07-1.42-1.57-2.76-1.49-4,.06-1.09.55-1.98,1.46-2.66.84-.63,1.84-.8,2.99-.5,1.15.3,2.1.94,2.85,1.93.77,1.02,1.32,2.16,1.66,3.4.19.69.38,1.96.58,3.83.06.51.16,1.29.31,2.35l.12.87c.08.57.15,1.01.21,1.33.04.16.06.25.08.28l3.77-2.84,1.67,2.22-6.1,4.6-1.57-2.08s-.1-.43-.21-1.15c-.05-.33-.09-.69-.14-1.1l-.14-1.23c-.06-.69-.18-1.79-.34-3.3-.15-1.42-.37-2.64-.68-3.65-.25-.83-.59-1.52-1.01-2.08-.34-.46-.74-.76-1.2-.92-.49-.16-.92-.1-1.29.18-.54.4-.64,1.05-.31,1.95.11.3.29.61.54.95l.43.58-1.89,1.42-.3-.4Z"/>
  </g>
  <g>
    <path class="cls-117" d="M100.88,266.13l-13.26,5.86.83,1.87-1.81.8c-.31-.5-.77-.89-1.37-1.19-.61-.3-1.24-.43-1.91-.39l-.68-1.54,17.23-7.62.97,2.2Z"/>
    <path class="cls-117" d="M92.8,264.98l-12.63.94-.97-2.2,10.91-4.82-.62-1.41,2.61-1.15.62,1.41,3.71-1.64.97,2.2-3.71,1.64,1.72,3.89-2.61,1.15ZM91.08,261.09l-5.38,2.38,6.18-.56-.8-1.81Z"/>
  </g>
  <g>
    <path class="cls-117" d="M89.72,185.74l-14.01-3.74-.53,1.98-1.92-.51c.07-.58-.04-1.18-.32-1.79-.29-.62-.7-1.12-1.24-1.5l.43-1.62,18.21,4.86-.62,2.32Z"/>
    <path class="cls-117" d="M88.74,172.74c1.21.32,2.14.96,2.79,1.9.65.95.84,1.93.57,2.94l-.05.18c-.27,1.02-.93,1.78-1.97,2.26-1.04.49-2.16.57-3.35.25l-1.66-.44c-1.11-.3-2-.87-2.67-1.73-.29-.37-.5-.76-.63-1.18-.54.52-1.3.84-2.27.95-.5.05-1.1-.02-1.78-.2l-.99-.26c-1.18-.31-2.08-.87-2.7-1.67-.7-.89-.9-1.87-.61-2.95l.05-.18c.29-1.09.96-1.85,2-2.27.94-.38,2-.41,3.17-.1l.99.26c1.13.3,1.99.84,2.59,1.61.26.34.45.69.56,1.06.64-.57,1.47-.91,2.5-1.04.53-.07,1.13-.02,1.81.17l1.66.44ZM78.84,172.51c-1.25-.32-2.12-.19-2.61.37-.12.13-.2.29-.26.5-.11.4-.06.76.13,1.09.16.26.39.48.7.65.31.17.72.32,1.22.44.8.19,1.4.23,1.79.14.53-.12.87-.46,1.02-1.02.15-.56.01-1.03-.41-1.41-.36-.32-.89-.57-1.58-.75ZM86.83,174.72c-1.08-.29-1.87-.27-2.35.05-.23.15-.39.4-.48.75-.16.61.03,1.11.6,1.5.34.23.83.43,1.46.6l.87.23c.6.16,1.13.13,1.58-.08.38-.18.63-.46.76-.85.13-.64-.12-1.18-.75-1.61-.21-.15-.48-.27-.81-.36l-.87-.23Z"/>
  </g>
  <g>
    <path class="cls-117" d="M217.53,336.79l-.03,14.5h2.05s0,1.99,0,1.99c-.58.08-1.13.33-1.65.77-.52.44-.9.96-1.13,1.58h-1.68s.04-18.85.04-18.85h2.4Z"/>
    <path class="cls-117" d="M205.39,341.06c0-1.25.38-2.31,1.13-3.18.75-.87,1.64-1.3,2.69-1.3,1.06,0,1.96.44,2.7,1.32.74.88,1.11,1.94,1.11,3.18l-.02,10.28c0,1.25-.38,2.32-1.13,3.19-.75.88-1.65,1.31-2.7,1.31-1.06,0-1.96-.45-2.69-1.33-.74-.88-1.1-1.95-1.1-3.19l.02-10.28ZM207.86,351.4c0,.45.13.84.4,1.16.27.32.6.48.98.48.38,0,.71-.16.97-.48.27-.32.4-.71.4-1.16l.02-10.29c0-.45-.13-.84-.4-1.16-.27-.32-.59-.48-.97-.48-.38,0-.71.16-.98.48-.27.32-.41.71-.41,1.16l-.02,10.29Z"/>
  </g>
  <g>
    <path class="cls-117" d="M157.17,322.98l-6.64,12.89,1.82.94-.91,1.76c-.55-.19-1.16-.22-1.82-.07-.66.15-1.24.45-1.73.89l-1.49-.77,8.63-16.75,2.14,1.1Z"/>
    <path class="cls-117" d="M142.44,331.33l-.21.41c-.21.41-.3.8-.26,1.18.04.38.23.65.57.83.34.17.67.17,1-.02.33-.19.6-.48.81-.89l1.72-3.34c-.76.26-1.43.24-2.02-.06-.94-.48-1.45-1.24-1.51-2.25-.07-.89.21-1.94.83-3.14l1.48-2.87h.01c.6-1.04,1.38-1.77,2.36-2.18.98-.41,1.91-.39,2.79.07.94.49,1.51,1.28,1.72,2.39.2,1.07.02,2.16-.55,3.27l-4.71,9.14c-.42.82-.97,1.47-1.64,1.96-.68.49-1.4.73-2.19.73-.5.01-.99-.1-1.45-.34-.93-.48-1.5-1.28-1.71-2.4-.2-1.07-.02-2.16.55-3.26l.19-.36,2.23,1.15ZM149.06,323.69c.21-.41.3-.79.26-1.15-.04-.39-.23-.67-.57-.85-.34-.18-.68-.17-1.02.03-.32.17-.59.47-.8.88l-1.6,3.1c-.25.48-.3.96-.16,1.44.07.23.23.4.49.54.37.19.74.16,1.11-.09.3-.21.54-.48.72-.83l1.58-3.06Z"/>
  </g>
  <g>
    <path class="cls-117" d="M149.78,102.36c.98-.5,1.19-1.29.64-2.37l-.51-.99c-.88-1.72-2.09-2.18-3.61-1.4l-1.11-2.16c.82-.42,1.29-1.01,1.4-1.75.11-.67-.06-1.45-.51-2.34l-.2-.39c-.56-1.09-1.25-1.43-2.07-1.01-.45.23-.68.61-.68,1.12,0,.39.13.83.38,1.33l.23.44-2.09,1.08-.2-.39c-.61-1.19-.86-2.3-.73-3.31.14-1.15.74-2,1.79-2.55,1-.52,2.01-.53,3.03-.04.91.44,1.65,1.2,2.2,2.28l.36.71c.54,1.04.73,2.08.6,3.11-.06.44-.19.84-.37,1.22.85.09,1.67.48,2.45,1.16.41.34.77.83,1.09,1.45l.68,1.32c.64,1.24.8,2.44.49,3.6-.29,1.12-.92,1.93-1.89,2.42-.94.48-1.94.5-3,.06-1.06-.45-1.87-1.22-2.43-2.31l-.21-.41,1.94-1.23.35.56c.25.4.55.68.91.84.36.15.72.14,1.07-.04Z"/>
    <path class="cls-117" d="M151.42,86.56l1.85,3.59c.03-.47.18-.89.47-1.29.15-.2.37-.38.64-.51.94-.48,1.83-.45,2.67.09.73.47,1.41,1.32,2.04,2.54l1.85,3.61c.64,1.24.83,2.42.57,3.56-.24,1.09-.84,1.88-1.81,2.38-.94.48-1.92.48-2.95,0-.99-.46-1.77-1.24-2.34-2.35l-.21-.4,1.95-1.24.34.55c.4.64.86.97,1.38.98.16,0,.3-.02.44-.09.87-.45,1.03-1.21.48-2.29l-2.11-4.1c-.25-.49-.61-.82-1.08-.98-.22-.08-.46-.05-.72.08-.38.2-.57.51-.57.95,0,.38.09.74.27,1.08l.23.45-2.14,1.1-4.71-9.15,6.25-3.22,1.31,2.54-4.12,2.12Z"/>
  </g>
  <g>
    <path class="cls-117" d="M137.84,315.35c-.85-.7-1.66-.59-2.43.35l-.71.86c-1.23,1.49-1.18,2.78.13,3.87l-1.55,1.88c-.71-.59-1.43-.79-2.16-.6-.66.16-1.31.63-1.94,1.39l-.28.33c-.78.95-.82,1.71-.12,2.3.39.32.83.38,1.3.18.36-.16.72-.45,1.07-.88l.31-.38,1.81,1.5-.28.34c-.86,1.04-1.77,1.69-2.75,1.97-1.12.33-2.13.11-3.05-.65-.87-.72-1.28-1.64-1.23-2.77.05-1.01.46-1.99,1.23-2.92l.51-.61c.75-.9,1.62-1.49,2.62-1.77.43-.12.85-.16,1.27-.14-.25-.82-.22-1.72.09-2.71.16-.51.46-1.03.9-1.57l.95-1.15c.89-1.07,1.92-1.7,3.11-1.87,1.14-.17,2.13.09,2.97.78.82.67,1.23,1.59,1.24,2.74,0,1.15-.38,2.2-1.17,3.15l-.3.36-1.9-1.3.38-.54c.27-.38.41-.77.41-1.16s-.16-.71-.46-.97Z"/>
    <path class="cls-117" d="M130.55,309.33c-.85-.7-1.66-.59-2.43.35l-.71.86c-1.23,1.49-1.19,2.78.14,3.87l-1.55,1.88c-.71-.59-1.43-.79-2.16-.6-.67.16-1.31.63-1.94,1.39l-.28.33c-.78.95-.82,1.71-.12,2.3.39.32.83.38,1.3.18.36-.16.72-.45,1.07-.88l.31-.38,1.81,1.5-.28.34c-.86,1.03-1.77,1.69-2.75,1.97-1.12.33-2.13.11-3.05-.65-.87-.72-1.28-1.64-1.23-2.77.05-1.01.46-1.99,1.23-2.92l.51-.61c.75-.9,1.62-1.5,2.62-1.77.43-.12.85-.16,1.27-.14-.25-.82-.22-1.72.09-2.71.16-.51.46-1.03.9-1.57l.95-1.15c.89-1.07,1.92-1.7,3.11-1.87,1.14-.17,2.13.09,2.97.78.82.67,1.23,1.59,1.24,2.74,0,1.15-.38,2.2-1.17,3.15l-.3.36-1.9-1.3.38-.54c.27-.38.41-.77.41-1.16,0-.39-.16-.71-.46-.97Z"/>
  </g>
  <g>
    <path class="cls-117" d="M84.14,164.05c-1.49-.66-2.44-1.56-2.87-2.71-.39-1-.33-2.06.17-3.19.46-1.04,1.23-1.75,2.33-2.13,1.1-.39,2.17-.35,3.2.1,1.07.47,1.99,1.16,2.78,2.08.44.5,1.12,1.52,2.04,3.07.25.42.65,1.06,1.21,1.91l.45.71c.3.46.53.81.71,1.06.1.12.15.19.18.2l2.05-4.64,2.32,1.02-3.32,7.52-2.17-.96s-.26-.32-.64-.9c-.17-.27-.36-.56-.56-.89l-.61-1.01c-.33-.58-.87-1.49-1.62-2.74-.7-1.18-1.38-2.13-2.05-2.85-.55-.59-1.11-1.02-1.69-1.27-.48-.21-.94-.25-1.39-.13-.48.14-.82.44-1.02.89-.29.66-.12,1.29.52,1.9.21.2.49.38.84.54l.6.27-1.03,2.33-.41-.18Z"/>
    <path class="cls-117" d="M85.31,148.88c.46-1.03,1.21-1.73,2.27-2.08,1.01-.34,2.03-.29,3.06.17l8.56,3.78c1.04.46,1.78,1.19,2.2,2.19.43,1,.41,2.01-.04,3.03-.46,1.04-1.21,1.74-2.25,2.09-1.01.34-2.03.29-3.07-.17l-.34-.15,1.08-2.45.39.17c.38.17.75.21,1.1.12.35-.09.61-.32.77-.7.17-.38.17-.72,0-1.04-.17-.32-.44-.56-.83-.73l-3.14-1.39c.25.77.23,1.47-.05,2.12-.46,1.04-1.16,1.65-2.12,1.85-.84.18-1.82.02-2.96-.48l-2.69-1.19h0c-.71-.37-1.27-.86-1.69-1.5-.41-.64-.62-1.34-.61-2.12,0-.51.12-1.01.34-1.51ZM89.64,149.31c-.38-.17-.75-.21-1.11-.12-.35.09-.61.32-.78.7-.17.38-.16.72,0,1.04.17.32.45.57.84.73l2.9,1.28c.46.2.91.2,1.36,0,.21-.09.38-.28.51-.57.26-.6.11-1.12-.45-1.55-.17-.13-.31-.21-.41-.26l-2.87-1.27Z"/>
  </g>
  <g>
    <path class="cls-117" d="M175.42,344.01c-.58,1.52-1.43,2.52-2.55,3.01-.98.44-2.04.44-3.19,0-1.06-.4-1.81-1.14-2.25-2.22-.45-1.08-.47-2.14-.06-3.2.42-1.09,1.06-2.05,1.93-2.88.48-.46,1.46-1.19,2.96-2.2.41-.28,1.02-.71,1.84-1.3l.68-.49c.44-.32.79-.57,1.02-.77.12-.1.18-.16.19-.19l-4.74-1.8.9-2.37,7.68,2.92-.84,2.22c-.02.05-.31.28-.86.68-.26.18-.55.39-.86.61l-.97.67c-.56.36-1.44.95-2.65,1.76-1.14.76-2.05,1.49-2.74,2.19-.56.58-.95,1.16-1.18,1.76-.19.49-.21.95-.06,1.4.16.47.48.8.95.97.67.26,1.3.05,1.88-.62.19-.22.35-.51.49-.87l.23-.61,2.38.9-.16.42Z"/>
    <path class="cls-117" d="M169.6,335.37l-8.13,8.53-2.42-.92,3.86-10.15-1.55-.59.92-2.43,1.55.59,1.31-3.45,2.42.92-1.31,3.45,4.27,1.62-.92,2.43ZM165.33,333.75l-1.9,5.01,3.9-4.25-2-.76Z"/>
  </g>
  <g>
    <path class="cls-117" d="M102.72,293.42c-1.36.88-2.64,1.18-3.84.91-1.05-.23-1.9-.86-2.57-1.89-.61-.95-.78-1.99-.5-3.12.28-1.13.9-2,1.85-2.62.98-.63,2.07-1.02,3.26-1.17.66-.09,1.89-.09,3.69-.01.49.02,1.24.03,2.26.04h.84c.55.02.97.02,1.28,0,.15-.01.24-.03.27-.04l-2.75-4.27,2.13-1.37,4.45,6.91-1.99,1.28s-.41.04-1.1.04c-.32,0-.67-.01-1.05-.02l-1.18-.04c-.66-.04-1.72-.09-3.17-.15-1.37-.07-2.53-.02-3.51.14-.79.13-1.46.37-2,.72-.44.28-.73.64-.88,1.09-.15.48-.09.92.18,1.35.39.61,1.02.81,1.88.61.28-.06.59-.2.91-.41l.55-.36,1.38,2.14-.38.25Z"/>
    <path class="cls-117" d="M99.64,273.14c.96-.62,1.99-.8,3.09-.56,1.1.24,1.96.84,2.56,1.78.62.96.81,1.99.57,3.09-.24,1.1-.83,1.96-1.78,2.57l-7.87,5.07c-.96.62-1.99.81-3.1.56-1.11-.24-1.96-.84-2.58-1.79-.62-.96-.8-1.99-.56-3.09.25-1.1.84-1.96,1.79-2.57l7.87-5.07ZM93.18,280.49c-.34.22-.56.54-.65.94-.09.4-.02.78.2,1.12.22.34.53.56.93.64.4.08.77.01,1.12-.21l7.88-5.08c.35-.22.56-.53.65-.93.09-.4.02-.77-.2-1.12-.22-.35-.54-.56-.94-.65-.4-.09-.78-.02-1.12.2l-7.88,5.08Z"/>
  </g>
  <g>
    <path class="cls-117" d="M90.45,245.19c-.3-1.15-.98-1.58-2.05-1.3l-.98.26c-1.7.44-2.32,1.56-1.85,3.34l-2.14.56c-.25-.96-.71-1.6-1.36-1.92-.6-.3-1.33-.33-2.2-.1l-.38.1c-1.08.28-1.5.9-1.25,1.85.14.53.44.87.91,1.01.36.1.78.09,1.27-.04l.43-.11.64,2.45-.38.1c-1.18.31-2.22.26-3.12-.15-1.03-.46-1.7-1.31-2.02-2.54-.31-1.17-.15-2.22.46-3.13.55-.82,1.36-1.37,2.42-1.65l.7-.18c1.03-.27,2-.19,2.92.23.39.18.74.42,1.05.72.22-.85.7-1.59,1.44-2.22.38-.32.87-.57,1.49-.73l1.31-.34c1.23-.32,2.34-.17,3.35.47.97.61,1.6,1.47,1.9,2.6.29,1.1.14,2.14-.43,3.11-.58.97-1.41,1.6-2.49,1.88l-.41.11-.81-2.33.57-.21c.41-.14.71-.38.9-.71.2-.33.24-.7.13-1.12Z"/>
    <path class="cls-117" d="M90.72,236.49l-12.77,3.34.56,2.13-1.75.46c-.23-.58-.6-1.09-1.13-1.54-.53-.44-1.09-.71-1.7-.81l-.46-1.75,16.6-4.34.65,2.5Z"/>
  </g>
  <g>
    <path class="cls-117" d="M308.93,295.09c-.77.79-.72,1.61.15,2.45l.8.77c1.39,1.34,2.68,1.4,3.87.17l1.75,1.69c-.64.66-.9,1.37-.77,2.11.11.67.52,1.36,1.23,2.05l.31.3c.88.86,1.64.96,2.28.3.35-.37.45-.79.29-1.28-.13-.37-.39-.75-.79-1.14l-.35-.34,1.64-1.69.31.3c.96.93,1.55,1.9,1.75,2.9.24,1.14-.06,2.13-.88,2.99-.79.81-1.74,1.14-2.86,1-1.01-.13-1.95-.61-2.82-1.46l-.57-.55c-.84-.82-1.36-1.73-1.56-2.75-.08-.43-.09-.86-.04-1.28-.83.18-1.73.08-2.69-.31-.49-.2-.99-.54-1.5-1.03l-1.07-1.04c-1-.97-1.54-2.05-1.62-3.25-.08-1.15.26-2.12,1.01-2.9.74-.76,1.68-1.1,2.83-1.02,1.15.08,2.16.55,3.05,1.41l.33.32-1.44,1.79-.51-.42c-.36-.3-.74-.47-1.13-.5-.39-.03-.72.1-1,.38Z"/>
    <path class="cls-117" d="M309.6,310.87l.33.32c.33.32.68.52,1.05.59.37.07.69-.03.96-.31.27-.27.36-.59.28-.96-.08-.37-.29-.71-.62-1.03l-2.7-2.61c.03.8-.18,1.44-.64,1.91-.74.76-1.6,1.03-2.59.8-.87-.2-1.79-.76-2.76-1.7l-2.32-2.25h0c-.83-.88-1.29-1.85-1.4-2.9-.11-1.05.18-1.94.87-2.65.74-.76,1.67-1.08,2.78-.95,1.09.12,2.07.61,2.97,1.48l7.38,7.15c.66.64,1.13,1.36,1.4,2.14.27.79.29,1.55.07,2.3-.13.48-.38.91-.75,1.29-.73.75-1.66,1.07-2.79.94-1.08-.12-2.07-.61-2.96-1.48l-.29-.28,1.74-1.8ZM304.21,302.31c-.33-.32-.67-.52-1.02-.58-.39-.08-.71.02-.98.3-.27.28-.36.6-.27.99.07.36.28.7.61,1.02l2.5,2.43c.39.38.83.57,1.33.57.24,0,.45-.1.66-.31.29-.3.37-.66.24-1.09-.11-.35-.31-.65-.59-.93l-2.47-2.4Z"/>
  </g>
  <g>
    <path class="cls-117" d="M338.13,199.59c.06,1.02.65,1.5,1.77,1.44l1.03-.06c1.79-.1,2.64-.95,2.55-2.54l2.25-.13c.05.86.37,1.47.96,1.85.53.35,1.26.5,2.18.44l.4-.02c1.14-.07,1.69-.52,1.64-1.37-.03-.47-.26-.81-.7-1-.33-.15-.76-.21-1.27-.18l-.46.03-.12-2.18.4-.02c1.24-.07,2.27.14,3.08.63.93.55,1.42,1.38,1.48,2.48.06,1.04-.31,1.91-1.11,2.58-.72.61-1.64.95-2.77,1.01l-.74.04c-1.09.06-2.04-.16-2.86-.66-.35-.22-.65-.48-.9-.78-.4.68-1.03,1.23-1.9,1.65-.44.21-.99.34-1.64.38l-1.38.08c-1.29.07-2.37-.24-3.24-.94-.84-.67-1.29-1.51-1.35-2.51-.06-.98.3-1.84,1.08-2.57.78-.73,1.74-1.13,2.88-1.2l.43-.02.32,2.11-.61.08c-.44.06-.78.21-1.05.46-.27.25-.39.56-.37.93Z"/>
    <path class="cls-117" d="M342.35,204.66l11.29,3.3.13,2.23-11.06.63.08,1.43-2.65.15-.08-1.43-3.76.22-.13-2.23,3.76-.22-.23-3.94,2.65-.15ZM342.58,208.6l5.46-.31-5.56-1.53.11,1.84Z"/>
  </g>
  <g>
    <path class="cls-117" d="M339.55,218.96c-.11,1.02.4,1.59,1.52,1.7l1.03.11c1.78.19,2.76-.51,2.92-2.09l2.25.23c-.09.85.13,1.51.65,1.98.47.43,1.16.69,2.08.79l.4.04c1.14.12,1.75-.24,1.84-1.09.05-.47-.13-.84-.53-1.1-.3-.2-.71-.32-1.23-.38l-.46-.05.23-2.17.4.04c1.24.13,2.22.5,2.94,1.12.82.7,1.18,1.59,1.07,2.69-.11,1.04-.61,1.83-1.51,2.37-.81.49-1.77.67-2.89.55l-.74-.08c-1.08-.11-1.99-.48-2.72-1.12-.31-.27-.56-.57-.76-.91-.5.61-1.22,1.05-2.14,1.32-.47.14-1.03.18-1.68.11l-1.37-.14c-1.29-.13-2.3-.62-3.05-1.45-.72-.8-1.03-1.69-.92-2.7.1-.98.6-1.77,1.48-2.36.89-.6,1.9-.83,3.03-.72l.43.04-.03,2.13-.62-.02c-.44-.01-.81.08-1.11.28-.3.2-.47.49-.51.85Z"/>
    <path class="cls-117" d="M353.22,232.47l-2.64-.28-14.44-4.66.23-2.18,14.44,4.66.47-4.49,2.64.28-.7,6.67Z"/>
  </g>
  <path class="cls-117" d="M327.19,138.86c1.51-.94,2.89-1.32,4.12-1.12,1.08.16,1.92.72,2.52,1.7.55.89.63,1.9.23,3.02-.4,1.12-1.13,2.01-2.18,2.67-1.09.68-2.27,1.12-3.54,1.34-.7.13-1.99.2-3.87.23-.51,0-1.3.04-2.37.09l-.88.04c-.57.03-1.02.06-1.34.09-.16.02-.26.04-.28.06l2.49,4.01-2.36,1.47-4.03-6.49,2.21-1.38c.05-.03.44-.07,1.16-.1.33-.02.7-.03,1.1-.04l1.23-.03c.69,0,1.8-.02,3.32-.04,1.43-.02,2.66-.13,3.69-.35.85-.17,1.57-.45,2.16-.82.48-.3.83-.67,1.02-1.12.2-.47.18-.91-.07-1.3-.35-.57-.99-.73-1.91-.49-.3.08-.64.23-.99.45l-.61.38-1.25-2.01.42-.26Z"/>
  <g>
    <path class="cls-117" d="M336.31,154.17c1.66-.65,3.08-.77,4.25-.36,1.03.35,1.76,1.06,2.18,2.12.38.98.28,1.98-.32,3.01-.59,1.03-1.47,1.78-2.63,2.23-1.19.47-2.43.7-3.72.68-.71,0-1.99-.16-3.85-.47-.51-.08-1.29-.19-2.34-.33l-.87-.12c-.57-.08-1.01-.13-1.34-.16-.16,0-.26,0-.29,0l1.73,4.39-2.59,1.02-2.8-7.11,2.42-.95c.06-.02.44.01,1.16.11.33.04.69.1,1.09.16l1.22.19c.68.12,1.77.31,3.27.56,1.41.24,2.64.35,3.7.32.86-.02,1.62-.16,2.27-.42.53-.21.93-.51,1.21-.91.28-.43.34-.86.17-1.3-.25-.62-.84-.9-1.79-.83-.31.02-.67.11-1.06.27l-.67.26-.87-2.2.46-.18Z"/>
    <path class="cls-117" d="M343.05,164.51l-3.76,1.48c.46.08.87.28,1.24.6.19.17.34.4.45.69.39.98.27,1.86-.36,2.65-.54.68-1.45,1.27-2.73,1.77l-3.78,1.49c-1.3.51-2.5.58-3.6.21-1.06-.35-1.79-1.03-2.19-2.04-.39-.98-.29-1.96.3-2.93.56-.94,1.41-1.63,2.57-2.09l.42-.17,1.04,2.06-.58.28c-.68.33-1.05.75-1.11,1.27-.02.16,0,.3.05.45.36.92,1.1,1.15,2.23.71l4.29-1.69c.51-.2.87-.53,1.08-.98.1-.21.1-.45-.01-.72-.16-.4-.45-.62-.89-.67-.38-.03-.75.02-1.1.16l-.48.19-.88-2.24,9.58-3.77,2.58,6.54-2.66,1.05-1.7-4.31Z"/>
  </g>
  <g>
    <path class="cls-117" d="M277.3,321.66c-.98.51-1.19,1.3-.64,2.37l.51.99c.89,1.72,2.09,2.18,3.61,1.4l1.11,2.16c-.82.42-1.29,1.01-1.4,1.75-.11.67.06,1.45.52,2.33l.2.39c.56,1.09,1.25,1.43,2.07,1.01.45-.23.68-.61.68-1.12,0-.39-.13-.84-.39-1.33l-.23-.44,2.09-1.08.2.39c.62,1.19.86,2.3.73,3.31-.14,1.15-.74,2-1.79,2.55-1,.52-2.01.53-3.03.04-.92-.44-1.65-1.2-2.21-2.28l-.37-.71c-.54-1.04-.74-2.08-.6-3.11.06-.44.18-.84.37-1.22-.85-.09-1.67-.47-2.45-1.15-.41-.34-.77-.83-1.09-1.45l-.68-1.32c-.64-1.24-.8-2.44-.5-3.6.29-1.12.92-1.93,1.88-2.43.94-.49,1.94-.51,3-.06,1.06.45,1.87,1.22,2.44,2.31l.21.41-1.94,1.24-.35-.56c-.25-.4-.55-.68-.91-.83-.36-.15-.72-.14-1.07.05Z"/>
    <path class="cls-117" d="M265.83,329.37c-.57-1.11-.73-2.23-.47-3.34.26-1.12.86-1.91,1.79-2.39.94-.49,1.94-.51,3-.07,1.06.44,1.88,1.21,2.45,2.31l4.71,9.13c.57,1.11.73,2.23.47,3.35-.26,1.12-.86,1.92-1.79,2.41-.94.49-1.94.51-3,.06-1.06-.44-1.87-1.22-2.44-2.32l-4.71-9.13ZM272.79,337.42c.21.4.5.68.89.84.39.16.75.15,1.09-.02.34-.17.55-.47.64-.87.09-.41.03-.81-.17-1.21l-4.72-9.15c-.21-.4-.5-.68-.89-.84s-.75-.16-1.08.02c-.34.17-.56.47-.65.88-.09.41-.04.81.17,1.21l4.72,9.15Z"/>
  </g>
  <g>
    <path class="cls-117" d="M331.27,180.64l14.07-3.51-.5-1.99,1.92-.48c.22.54.6,1.01,1.15,1.41.55.4,1.15.64,1.81.71l.41,1.63-18.28,4.56-.58-2.33Z"/>
    <path class="cls-117" d="M352.3,187.03l-2.77.69-16.33.6-.57-2.29,16.33-.6-1.18-4.72,2.77-.69,1.75,7.01Z"/>
  </g>
  <g>
    <path class="cls-117" d="M341.26,260.98c1.64.7,2.73,1.61,3.28,2.73.49.97.5,1.99.05,3.04-.41.97-1.2,1.61-2.34,1.92-1.15.31-2.29.23-3.44-.26-1.18-.5-2.22-1.21-3.12-2.13-.5-.5-1.31-1.52-2.41-3.04-.3-.42-.78-1.04-1.43-1.89l-.53-.7c-.35-.45-.63-.81-.84-1.05-.11-.12-.18-.19-.21-.2l-1.86,4.34-2.55-1.1,3.01-7.02,2.39,1.03c.05.02.3.32.75.89.2.26.42.56.67.88l.73,1c.4.57,1.04,1.47,1.93,2.7.83,1.16,1.63,2.1,2.4,2.83.63.59,1.26,1.03,1.91,1.3.52.23,1.02.29,1.5.2.5-.11.85-.38,1.03-.8.26-.62.03-1.23-.7-1.85-.24-.2-.55-.39-.94-.55l-.66-.28.93-2.17.45.2Z"/>
    <path class="cls-117" d="M339.59,278.4l-2.62-1.13-13.36-9.4.93-2.17,13.36,9.4,1.92-4.47,2.62,1.13-2.85,6.64Z"/>
  </g>
  <g>
    <path class="cls-117" d="M318.24,277.78l12.04,8.08,1.14-1.7,1.65,1.11c-.25.52-.35,1.12-.28,1.8.07.68.3,1.28.69,1.82l-.94,1.39-15.64-10.5,1.34-2Z"/>
    <path class="cls-117" d="M316,285.97c-.61.91-.42,1.71.59,2.38l.92.62c1.6,1.08,2.88.9,3.84-.52l2.02,1.36c-.52.77-.64,1.5-.38,2.21.23.64.76,1.24,1.58,1.8l.36.24c1.02.69,1.79.65,2.3-.11.28-.42.3-.86.05-1.31-.19-.34-.52-.67-.98-.98l-.41-.27,1.31-1.95.36.24c1.11.75,1.86,1.6,2.24,2.54.43,1.08.32,2.11-.34,3.1-.63.94-1.51,1.44-2.63,1.5-1.01.05-2.03-.26-3.03-.93l-.66-.44c-.97-.65-1.65-1.46-2.02-2.43-.16-.41-.25-.83-.27-1.25-.79.33-1.69.39-2.71.18-.52-.1-1.07-.35-1.65-.74l-1.24-.83c-1.16-.78-1.88-1.75-2.17-2.91-.28-1.12-.12-2.13.48-3.03.59-.88,1.46-1.38,2.6-1.5,1.14-.12,2.23.16,3.25.85l.39.26-1.1,2.02-.58-.33c-.41-.23-.81-.33-1.2-.29-.39.04-.69.23-.92.56Z"/>
  </g>
  <path class="cls-117" d="M345.11,247.81l.41.11c.41.11.78.09,1.11-.05.33-.14.56-.41.66-.81.1-.4.05-.74-.17-1.03-.22-.29-.53-.49-.94-.59l-3.31-.88c.36.71.45,1.41.27,2.09-.29,1.1-.89,1.83-1.81,2.17-.8.31-1.79.3-2.98-.01l-2.84-.75h0c-1.04-.35-1.83-.96-2.35-1.86-.53-.9-.65-1.86-.38-2.9.29-1.1.92-1.91,1.9-2.41.94-.5,1.96-.6,3.05-.31l9.05,2.39c.81.21,1.49.6,2.04,1.17.55.56.89,1.25,1.01,2.06.09.51.06,1.04-.08,1.59-.29,1.09-.93,1.9-1.91,2.41-.94.5-1.96.6-3.05.31l-.36-.09.69-2.61ZM337.12,243.04c-.41-.11-.77-.09-1.09.04-.35.14-.58.42-.68.81-.11.4-.04.75.19,1.05.21.28.52.48.92.58l3.07.81c.48.13.92.05,1.33-.22.19-.13.33-.34.41-.64.11-.43.03-.81-.26-1.12-.24-.25-.52-.42-.87-.51l-3.03-.8Z"/>
  <path class="cls-117" d="M291.59,109.3l10.93-6.4,1.84,1.55-7.67,9.14,1.18.99-1.84,2.19-1.18-.99-2.61,3.11-1.84-1.55,2.61-3.11-3.25-2.73,1.84-2.19ZM294.84,112.03l3.79-4.51-5.3,3.23,1.52,1.28Z"/>
  <g>
    <path class="cls-117" d="M251.28,96.62l5.05-13.59-1.92-.71.69-1.86c.57.12,1.17.07,1.81-.15.64-.23,1.18-.59,1.61-1.09l1.57.58-6.56,17.66-2.25-.84Z"/>
    <path class="cls-117" d="M263.49,84.09l-1.41,3.79c.36-.29.79-.47,1.27-.52.25-.02.52.02.81.12.99.37,1.57,1.05,1.73,2.04.14.86-.02,1.93-.5,3.21l-1.41,3.8c-.48,1.31-1.23,2.25-2.24,2.82-.97.56-1.96.65-2.98.27-.99-.37-1.65-1.09-1.98-2.18-.33-1.04-.27-2.14.16-3.31l.16-.42,2.23.61-.18.62c-.21.73-.14,1.28.2,1.68.1.12.22.21.36.26.92.34,1.59-.05,2.02-1.19l1.61-4.32c.19-.52.19-1,0-1.46-.09-.22-.27-.38-.55-.48-.4-.15-.76-.07-1.09.22-.28.26-.48.57-.62.92l-.18.48-2.25-.84,3.59-9.65,6.59,2.45-1,2.68-4.34-1.61Z"/>
  </g>
  <g>
    <path class="cls-117" d="M269.98,104.74l7.04-12.68-1.79-.99.96-1.73c.54.21,1.15.25,1.81.12.67-.13,1.25-.41,1.75-.84l1.47.81-9.14,16.48-2.1-1.17Z"/>
    <path class="cls-117" d="M286.31,91.97c.92.51,1.46,1.33,1.63,2.45.17,1.08-.05,2.16-.65,3.25l-4.99,8.99c-.61,1.09-1.42,1.86-2.45,2.28-1.03.43-1.99.39-2.9-.11-.93-.51-1.47-1.33-1.64-2.44-.17-1.08.05-2.16.65-3.25l.2-.35,2.18,1.21-.23.41c-.22.4-.32.79-.29,1.16.03.37.21.65.55.84.33.19.67.19,1,.02.33-.17.61-.46.83-.86l1.83-3.3c-.78.25-1.45.21-2.02-.11-.92-.51-1.4-1.27-1.43-2.29-.04-.89.27-1.93.93-3.12l1.57-2.83h.01c.45-.74,1.02-1.32,1.69-1.74.67-.42,1.38-.62,2.13-.6.48.02.95.15,1.4.4ZM285.21,96.55c.22-.4.32-.79.29-1.17-.03-.38-.21-.66-.54-.84-.33-.18-.67-.19-1-.01-.33.17-.61.46-.84.87l-1.69,3.05c-.27.48-.34.96-.22,1.44.05.22.21.41.47.55.53.3,1.05.15,1.55-.44.15-.18.25-.32.31-.43l1.67-3.01Z"/>
  </g>
  <g>
    <path class="cls-117" d="M311.35,120.15c1.27-1.02,2.51-1.45,3.72-1.31,1.06.12,1.98.65,2.75,1.61.71.88.98,1.9.82,3.05-.16,1.15-.68,2.08-1.56,2.79-.91.73-1.95,1.23-3.12,1.51-.65.16-1.87.29-3.66.4-.49.03-1.24.1-2.25.19l-.84.07c-.54.05-.97.1-1.27.14-.15.03-.24.05-.26.07l3.18,3.96-1.97,1.59-5.15-6.41,1.85-1.49s.41-.09,1.09-.15c.32-.03.67-.06,1.05-.09l1.18-.08c.67-.03,1.72-.09,3.17-.18,1.36-.08,2.52-.25,3.47-.5.78-.21,1.41-.52,1.91-.92.4-.33.66-.72.76-1.17.1-.49,0-.93-.32-1.32-.45-.56-1.09-.7-1.93-.41-.28.09-.56.26-.86.5l-.51.41-1.59-1.98.35-.28Z"/>
    <path class="cls-117" d="M309.51,137.51l10.29-8.27-1.38-1.72,1.41-1.13c.45.44,1,.75,1.66.94.66.19,1.29.2,1.88.04l1.13,1.41-13.37,10.75-1.62-2.02Z"/>
  </g>
  <g>
    <path class="cls-117" d="M291.46,308.84l8.23,10.33,1.72-1.37,1.12,1.41c-.44.44-.76,1-.95,1.66-.19.66-.21,1.29-.05,1.88l-1.41,1.12-10.69-13.42,2.02-1.61Z"/>
    <path class="cls-117" d="M286.06,313.14l8.23,10.33,1.72-1.37,1.12,1.41c-.44.44-.75,1-.95,1.66-.19.66-.21,1.29-.05,1.88l-1.41,1.12-10.69-13.42,2.02-1.61Z"/>
  </g>
  <g>
    <polygon class="cls-33" points="165.6 175.75 125.35 143.41 165.6 175.75 165.6 175.75"/>
    <polygon class="cls-18" points="170.26 109.59 170.26 109.59 190.07 157.28 170.26 109.59"/>
    <polygon class="cls-76" points="187.62 104.06 187.62 104.06 192.06 123.06 187.62 104.06"/>
    <polygon class="cls-106" points="103.09 192.38 103.09 192.38 153.89 201.59 103.09 192.38"/>
    <polygon class="cls-89" points="237.38 158.25 259.13 111.42 237.38 158.25 237.38 158.25"/>
    <polygon class="cls-132" points="239.66 320.63 239.66 320.63 234.19 298.36 239.66 320.63"/>
    <polygon class="cls-28" points="123.98 280.01 123.98 280.01 136.89 270.12 123.98 280.01"/>
    <path class="cls-2" d="M217.26,271.66c-.16.01-.32.02-.47.03l.04.49.3,3.84,3.7,47.64c.32-.02.63-.05.95-.08l-4.04-51.95c-.16.01-.32.04-.47.04Z"/>
    <path class="cls-49" d="M217.26,271.66c-.16.01-.32.02-.47.03l.04.49.3,3.84,3.7,47.64c.32-.02.63-.05.95-.08l-4.04-51.95c-.16.01-.32.04-.47.04Z"/>
    <path class="cls-67" d="M227.33,270.48l-.12-.47c-.15.04-.3.09-.46.13-.15.04-.31.07-.46.1l.11.47,3.73,15.17,8.6,34.98c.31-.07.62-.15.92-.22l-5.48-22.27-6.85-27.88Z"/>
    <path class="cls-25" d="M227.33,270.48l-.12-.47c-.15.04-.3.09-.46.13-.15.04-.31.07-.46.1l.11.47,3.73,15.17,8.6,34.98c.31-.07.62-.15.92-.22l-5.48-22.27-6.85-27.88Z"/>
    <path class="cls-54" d="M206.78,271.55l-4.64,51.91c.32.03.63.06.95.09l1.01-11.35,3.58-40.08.04-.48c-.16-.01-.32-.03-.47-.04-.16-.01-.32-.04-.47-.05Z"/>
    <path class="cls-4" d="M206.78,271.55l-4.64,51.91c.32.03.63.06.95.09l1.01-11.35,3.58-40.08.04-.48c-.16-.01-.32-.03-.47-.04-.16-.01-.32-.04-.47-.05Z"/>
    <path class="cls-114" d="M197.32,269.85l-.12.47-12.92,50c.31.08.62.16.92.24l13.04-50.46c-.15-.04-.31-.07-.46-.11-.15-.04-.31-.09-.46-.13Z"/>
    <path class="cls-7" d="M197.32,269.85l-.12.47-12.92,50c.31.08.62.16.92.24l13.04-50.46c-.15-.04-.31-.07-.46-.11-.15-.04-.31-.09-.46-.13Z"/>
    <path class="cls-66" d="M236.8,267.21l-.19-.44c-.15.06-.29.13-.43.2-.15.07-.29.12-.44.18l.19.44,20.65,47.33c.29-.12.58-.25.87-.38l-9.85-22.58-10.8-24.76Z"/>
    <path class="cls-17" d="M236.8,267.21l-.19-.44c-.15.06-.29.13-.43.2-.15.07-.29.12-.44.18l.19.44,20.65,47.33c.29-.12.58-.25.87-.38l-9.85-22.58-10.8-24.76Z"/>
    <path class="cls-55" d="M245.04,262.17c-.13.09-.26.18-.39.27-.13.09-.27.17-.4.25l27.72,42.79.62.96c.27-.17.53-.35.8-.52l-28.08-43.33-.26-.4Z"/>
    <path class="cls-50" d="M245.04,262.17c-.13.09-.26.18-.39.27-.13.09-.27.17-.4.25l27.72,42.79.62.96c.27-.17.53-.35.8-.52l-28.08-43.33-.26-.4Z"/>
    <polygon class="cls-110" points="150.72 305.18 150.72 305.18 179.31 262.19 150.72 305.18"/>
    <path class="cls-52" d="M180.37,262.31c-.13-.09-.27-.17-.4-.25-.13-.09-.26-.18-.39-.27l-.27.4-28.59,43c.26.18.53.35.8.53l28.59-43,.27-.4Z"/>
    <path class="cls-111" d="M180.37,262.31c-.13-.09-.27-.17-.4-.25-.13-.09-.26-.18-.39-.27l-.27.4-28.59,43c.26.18.53.35.8.53l28.59-43,.27-.4Z"/>
    <path class="cls-90" d="M188.64,267.32l.2-.44c-.15-.07-.29-.12-.44-.19-.14-.07-.28-.14-.43-.2l-21.41,47.53c.29.13.58.26.87.39l17.75-39.41,3.46-7.68Z"/>
    <path class="cls-128" d="M188.64,267.32l.2-.44c-.15-.07-.29-.12-.44-.19-.14-.07-.28-.14-.43-.2l-21.41,47.53c.29.13.58.26.87.39l17.75-39.41,3.46-7.68Z"/>
    <polygon class="cls-123" points="287.47 295.02 287.47 295.02 253.95 258.55 287.47 295.02"/>
    <path class="cls-116" d="M259.42,248.89c-.1.13-.19.26-.29.38-.1.13-.2.24-.3.37l.38.3,30.66,24.06,9.96,7.81c.2-.25.39-.5.59-.75l-9.64-7.56-31.36-24.6Z"/>
    <path class="cls-35" d="M259.42,248.89c-.1.13-.19.26-.29.38-.1.13-.2.24-.3.37l.38.3,30.66,24.06,9.96,7.81c.2-.25.39-.5.59-.75l-9.64-7.56-31.36-24.6Z"/>
    <path class="cls-63" d="M252.91,256.01c-.12.11-.23.22-.35.33-.12.11-.24.21-.36.31l1.75,1.9,33.52,36.47c.23-.21.46-.43.7-.65l-34.93-38.01-.33-.36Z"/>
    <path class="cls-8" d="M252.91,256.01c-.12.11-.23.22-.35.33-.12.11-.24.21-.36.31l1.75,1.9,33.52,36.47c.23-.21.46-.43.7-.65l-34.93-38.01-.33-.36Z"/>
    <polygon class="cls-42" points="136.76 294.13 136.76 294.13 172.15 256.53 136.76 294.13"/>
    <path class="cls-60" d="M172.48,256.18c-.11-.11-.24-.2-.35-.32-.12-.11-.23-.22-.34-.33l-.33.35-35.39,37.6c.23.22.46.43.69.65l35.38-37.59.33-.36Z"/>
    <path class="cls-102" d="M172.48,256.18c-.11-.11-.24-.2-.35-.32-.12-.11-.23-.22-.34-.33l-.33.35-35.39,37.6c.23.22.46.43.69.65l35.38-37.59.33-.36Z"/>
    <path class="cls-144" d="M165.93,249.08c-.1-.12-.2-.24-.3-.37-.1-.13-.19-.25-.29-.38l-.38.29-28.08,21.5-12.92,9.89c.19.25.38.5.58.76l41.37-31.68h0Z"/>
    <path class="cls-1" d="M165.93,249.08c-.1-.12-.2-.24-.3-.37-.1-.13-.19-.25-.29-.38l-.38.29-28.08,21.5-12.92,9.89c.19.25.38.5.58.76l41.37-31.68h0Z"/>
    <polygon class="cls-78" points="310.24 266.17 310.24 266.17 264.83 241.58 310.24 266.17"/>
    <path class="cls-47" d="M264.64,240.93c-.08.14-.16.27-.24.41l.42.23,45.41,24.59c.15-.28.31-.55.46-.83l-45.83-24.82c-.07.14-.14.28-.22.42Z"/>
    <path class="cls-44" d="M264.64,240.93c-.08.14-.16.27-.24.41l.42.23,45.41,24.59c.15-.28.31-.55.46-.83l-45.83-24.82c-.07.14-.14.28-.22.42Z"/>
    <path class="cls-21" d="M268.55,232.14c-.05.15-.11.29-.17.44l17.29,5.96,31.99,11.03c.1-.3.21-.6.32-.9l-49.28-16.99c-.05.15-.09.3-.15.45Z"/>
    <path class="cls-53" d="M268.55,232.14c-.05.15-.11.29-.17.44l17.29,5.96,31.99,11.03c.1-.3.21-.6.32-.9l-49.28-16.99c-.05.15-.09.3-.15.45Z"/>
    <path class="cls-118" d="M160.46,240.74c-.07-.14-.16-.28-.23-.42-.07-.14-.14-.28-.21-.42l-46.12,24.28c.15.28.3.56.44.84l45.69-24.05.43-.23Z"/>
    <path class="cls-74" d="M160.46,240.74c-.07-.14-.16-.28-.23-.42-.07-.14-.14-.28-.21-.42l-46.12,24.28c.15.28.3.56.44.84l45.69-24.05.43-.23Z"/>
    <path class="cls-124" d="M156.58,231.93h.01c-.05-.15-.11-.3-.16-.45-.05-.15-.09-.31-.14-.45l-.46.15-49.01,16.26c.1.3.19.6.29.9l12.4-4.11,37.07-12.3Z"/>
    <path class="cls-107" d="M156.58,231.93h.01c-.05-.15-.11-.3-.16-.45-.05-.15-.09-.31-.14-.45l-.46.15-49.01,16.26c.1.3.19.6.29.9l12.4-4.11,37.07-12.3Z"/>
    <path class="cls-103" d="M271.02,222.48c-.03.16-.06.31-.09.47l51.44,8.41c.05-.31.11-.63.16-.94l-51.43-8.41c-.03.15-.05.31-.07.47Z"/>
    <path class="cls-105" d="M271.02,222.48c-.03.16-.06.31-.09.47l51.44,8.41c.05-.31.11-.63.16-.94l-51.43-8.41c-.03.15-.05.31-.07.47Z"/>
    <path class="cls-62" d="M323.95,212.36h-52.1c0,.08,0,.16,0,.24s0,.16,0,.23c0,.16,0,.32,0,.48h52.11c0-.24,0-.47,0-.71,0-.08,0-.16,0-.24Z"/>
    <path class="cls-115" d="M323.95,212.36h-52.1c0,.08,0,.16,0,.24s0,.16,0,.23c0,.16,0,.32,0,.48h52.11c0-.24,0-.47,0-.71,0-.08,0-.16,0-.24Z"/>
    <path class="cls-70" d="M153.35,212.6c0-.15,0-.31,0-.47,0-.16.01-.32.01-.48h-.48s-39.54-.45-39.54-.45l-12.08-.14c0,.32-.01.63-.01.95l52.09.59h0Z"/>
    <path class="cls-97" d="M153.35,212.6c0-.15,0-.31,0-.47,0-.16.01-.32.01-.48h-.48s-39.54-.45-39.54-.45l-12.08-.14c0,.32-.01.63-.01.95l52.09.59h0Z"/>
    <path class="cls-56" d="M154.06,221.8c-.02-.16-.04-.32-.06-.47l-.48.07-22.49,3.4-28.56,4.32c.05.31.1.63.14.94l51.53-7.8c-.02-.16-.06-.31-.08-.47Z"/>
    <path class="cls-59" d="M154.06,221.8c-.02-.16-.04-.32-.06-.47l-.48.07-22.49,3.4-28.56,4.32c.05.31.1.63.14.94l51.53-7.8c-.02-.16-.06-.31-.08-.47Z"/>
    <rect class="cls-129" x="268.36" y="186.83" width="51.64" height="0" transform="translate(-42.32 96.19) rotate(-17.34)"/>
    <path class="cls-15" d="M271.3,204.54c.02.16.04.32.06.47l51.62-7.2c-.04-.31-.09-.63-.13-.94l-51.62,7.2c.02.16.05.31.07.47Z"/>
    <path class="cls-38" d="M271.3,204.54c.02.16.04.32.06.47l51.62-7.2c-.04-.31-.09-.63-.13-.94l-51.62,7.2c.02.16.05.31.07.47Z"/>
    <path class="cls-65" d="M269.54,194.53l-.46.14c.04.15.1.3.15.45.05.15.09.31.13.46l.46-.15,49.29-15.39c-.09-.3-.18-.61-.28-.91l-49.29,15.39h0Z"/>
    <path class="cls-64" d="M269.54,194.53l-.46.14c.04.15.1.3.15.45.05.15.09.31.13.46l.46-.15,49.29-15.39c-.09-.3-.18-.61-.28-.91l-49.29,15.39h0Z"/>
    <polygon class="cls-112" points="107.83 174.81 107.83 174.81 156.45 192.22 107.83 174.81"/>
    <path class="cls-11" d="M156.74,192.83c.06-.15.12-.29.17-.44l-.46-.16-48.62-17.41c-.11.29-.21.6-.32.89l49.07,17.57c.05-.15.1-.3.15-.45Z"/>
    <path class="cls-41" d="M156.74,192.83c.06-.15.12-.29.17-.44l-.46-.16-48.62-17.41c-.11.29-.21.6-.32.89l49.07,17.57c.05-.15.1-.3.15-.45Z"/>
    <path class="cls-126" d="M154.2,202.62c.03-.15.05-.31.07-.47.03-.16.06-.31.09-.46l-.47-.09-50.8-9.22c-.06.31-.11.62-.17.94l50.8,9.22.48.09Z"/>
    <path class="cls-101" d="M154.2,202.62c.03-.15.05-.31.07-.47.03-.16.06-.31.09-.46l-.47-.09-50.8-9.22c-.06.31-.11.62-.17.94l50.8,9.22.48.09Z"/>
    <path class="cls-48" d="M265.48,185.86c.07.14.13.29.2.43l.43-.22,45.97-23.52c-.14-.28-.28-.57-.43-.85l-46.41,23.74c.07.14.15.28.23.42Z"/>
    <path class="cls-14" d="M265.48,185.86c.07.14.13.29.2.43l.43-.22,45.97-23.52c-.14-.28-.28-.57-.43-.85l-46.41,23.74c.07.14.15.28.23.42Z"/>
    <path class="cls-121" d="M260.13,177.23h0c.1.13.19.26.29.38.09.13.18.26.27.39l34.68-25.61,7.24-5.35c-.19-.25-.37-.51-.56-.77l-41.54,30.66-.38.28Z"/>
    <path class="cls-83" d="M260.13,177.23h0c.1.13.19.26.29.38.09.13.18.26.27.39l34.68-25.61,7.24-5.35c-.19-.25-.37-.51-.56-.77l-41.54,30.66-.38.28Z"/>
    <path class="cls-137" d="M165.6,175.75l.38.3c.1-.12.19-.25.29-.38.1-.12.21-.24.3-.37l-.38-.3-40.24-32.34c-.2.25-.4.49-.6.74l40.25,32.34h0Z"/>
    <path class="cls-37" d="M165.6,175.75l.38.3c.1-.12.19-.25.29-.38.1-.12.21-.24.3-.37l-.38-.3-40.24-32.34c-.2.25-.4.49-.6.74l40.25,32.34h0Z"/>
    <path class="cls-122" d="M160.64,184.13c.07-.14.14-.28.22-.42.08-.14.16-.27.24-.41l-.42-.24-44.97-25.38c-.16.28-.31.55-.46.83l45.38,25.62h.01Z"/>
    <path class="cls-31" d="M160.64,184.13c.07-.14.14-.28.22-.42.08-.14.16-.27.24-.41l-.42-.24-44.97-25.38c-.16.28-.31.55-.46.83l45.38,25.62h.01Z"/>
    <path class="cls-140" d="M253.8,169.36l-.34.35c.12.11.23.21.35.32.11.11.22.23.34.34l36.15-37.53c-.23-.22-.45-.45-.68-.67l-32.66,33.91-3.16,3.28Z"/>
    <path class="cls-150" d="M253.8,169.36l-.34.35c.12.11.23.21.35.32.11.11.22.23.34.34l36.15-37.53c-.23-.22-.45-.45-.68-.67l-32.66,33.91-3.16,3.28Z"/>
    <path class="cls-19" d="M246.19,163.22l-.28.4c.13.09.27.17.4.26.13.09.26.19.38.28l29.61-42.89c-.26-.18-.52-.36-.78-.54l-20.4,29.55-8.93,12.94Z"/>
    <path class="cls-82" d="M246.19,163.22l-.28.4c.13.09.27.17.4.26.13.09.26.19.38.28l29.61-42.89c-.26-.18-.52-.36-.78-.54l-20.4,29.55-8.93,12.94Z"/>
    <path class="cls-138" d="M172.83,168.7c.12-.11.23-.22.35-.33.12-.1.24-.2.36-.31l-.32-.36-34.27-38.61c-.24.21-.48.42-.71.63l34.58,38.97h0Z"/>
    <path class="cls-148" d="M172.83,168.7c.12-.11.23-.22.35-.33.12-.1.24-.2.36-.31l-.32-.36-34.27-38.61c-.24.21-.48.42-.71.63l34.58,38.97h0Z"/>
    <path class="cls-145" d="M180.92,162.53c.13-.08.27-.16.41-.25l-.26-.41-27.57-43.65c-.27.17-.54.33-.81.5l27.83,44.07c.13-.09.26-.18.4-.26Z"/>
    <path class="cls-30" d="M180.92,162.53c.13-.08.27-.16.41-.25l-.26-.41-27.57-43.65c-.27.17-.54.33-.81.5l27.83,44.07c.13-.09.26-.18.4-.26Z"/>
    <path class="cls-95" d="M228.99,155.66l13.93-50.23c-.31-.09-.61-.17-.92-.25l-6.8,24.53-7,25.23-.13.47c.15.04.31.08.46.12.15.04.3.09.46.14Z"/>
    <path class="cls-96" d="M228.99,155.66l13.93-50.23c-.31-.09-.61-.17-.92-.25l-6.8,24.53-7,25.23-.13.47c.15.04.31.08.46.12.15.04.3.09.46.14Z"/>
    <path class="cls-119" d="M237.38,158.25l-.21.44c.15.07.29.13.44.19.14.07.28.14.42.21l21.96-47.27c-.29-.13-.58-.27-.86-.4l-21.75,46.83h0Z"/>
    <path class="cls-100" d="M237.38,158.25l-.21.44c.15.07.29.13.44.19.14.07.28.14.42.21l21.96-47.27c-.29-.13-.58-.27-.86-.4l-21.75,46.83h0Z"/>
    <polygon class="cls-139" points="169.37 109.95 169.37 109.95 181.91 140.12 169.37 109.95"/>
    <path class="cls-134" d="M189.37,158.09c.15-.06.29-.13.44-.19.15-.06.3-.11.44-.17l-.19-.45-19.81-47.69c-.29.12-.59.24-.88.36l12.53,30.16,7.47,17.97Z"/>
    <path class="cls-6" d="M189.37,158.09c.15-.06.29-.13.44-.19.15-.06.3-.11.44-.17l-.19-.45-19.81-47.69c-.29.12-.59.24-.88.36l12.53,30.16,7.47,17.97Z"/>
    <path class="cls-45" d="M192.06,123.06l-4.44-19c-.31.07-.62.15-.93.22l11.85,50.75c.15-.04.31-.08.46-.12.15-.04.31-.07.46-.1l-.11-.47-7.31-31.29Z"/>
    <path class="cls-98" d="M192.06,123.06l-4.44-19c-.31.07-.62.15-.93.22l11.85,50.75c.15-.04.31-.08.46-.12.15-.04.31-.07.46-.1l-.11-.47-7.31-31.29Z"/>
    <polygon class="cls-32" points="219.2 153.24 224.4 101.87 224.4 101.87 219.2 153.24"/>
    <polygon class="cls-12" points="206.18 115.64 208.44 153.02 208.44 153.02 206.18 115.64"/>
    <path class="cls-75" d="M223.45,101.78l-5.2,51.37-.05.47c.16.02.32.03.47.04.16.02.31.04.47.06l.05-.48,5.2-51.37c-.32-.03-.63-.06-.95-.09Z"/>
    <path class="cls-87" d="M223.45,101.78l-5.2,51.37-.05.47c.16.02.32.03.47.04.16.02.31.04.47.06l.05-.48,5.2-51.37c-.32-.03-.63-.06-.95-.09Z"/>
    <path class="cls-24" d="M206.28,101.43c-.32.02-.63.04-.95.06l.85,14.15,2.26,37.39h0l.03.48c.16-.01.31-.03.47-.04.16,0,.32-.02.48-.02l-.03-.48-3.11-51.54Z"/>
    <path class="cls-43" d="M206.28,101.43c-.32.02-.63.04-.95.06l.85,14.15,2.26,37.39h0l.03.48c.16-.01.31-.03.47-.04.16,0,.32-.02.48-.02l-.03-.48-3.11-51.54Z"/>
  </g>
  <path class="cls-120" d="M296.06,212.6c0,46.1-37.37,83.47-83.46,83.47s-83.46-37.37-83.46-83.47,37.37-83.46,83.46-83.46,83.46,37.37,83.46,83.46Z"/>
  <path class="cls-13" d="M290.46,212.6c0,43-34.86,77.86-77.86,77.86s-77.86-34.85-77.86-77.86,34.86-77.86,77.86-77.86,77.86,34.86,77.86,77.86Z"/>
  <path class="cls-131" d="M265.88,212.6c0,29.43-23.85,53.28-53.28,53.28s-53.27-23.85-53.27-53.28,23.85-53.27,53.27-53.27,53.28,23.85,53.28,53.27Z"/>
  <path class="cls-93" d="M258.66,212.42c-.69-.1-1.7-.27-2.99-.43-2.58-.34-6.26-.77-10.68-1.14-2.21-.19-4.6-.36-7.13-.52-2.53-.15-5.2-.3-7.96-.4-1.38-.07-2.78-.1-4.21-.15-1.42-.05-2.86-.08-4.31-.1-.55-.01-1.11-.02-1.67-.02.39-.4.78-.8,1.16-1.2,1.01-1.04,2-2.08,2.97-3.12.98-1.04,1.94-2.06,2.87-3.08,1.88-2.03,3.67-4.02,5.34-5.91,1.68-1.9,3.24-3.72,4.67-5.41,2.86-3.39,5.16-6.29,6.74-8.35.79-1.03,1.39-1.86,1.81-2.42.41-.57.62-.87.62-.87,0,0-.3.22-.87.63-.56.42-1.39,1.01-2.42,1.81-2.06,1.58-4.96,3.88-8.35,6.74-1.69,1.43-3.51,3-5.41,4.68-1.9,1.68-3.89,3.46-5.91,5.34-1.02.93-2.04,1.89-3.08,2.87-1.04.97-2.08,1.96-3.12,2.97-.4.39-.81.77-1.21,1.16-.01-.55-.01-1.12-.03-1.67-.02-1.45-.06-2.89-.11-4.31-.04-1.42-.08-2.82-.15-4.2-.22-5.52-.55-10.67-.93-15.09-.37-4.42-.79-8.1-1.13-10.68-.17-1.29-.33-2.3-.43-2.99-.11-.69-.17-1.06-.17-1.06,0,0-.06.37-.17,1.06-.1.69-.27,1.7-.43,2.99-.34,2.58-.76,6.26-1.14,10.68-.38,4.42-.71,9.57-.93,15.09-.07,1.38-.11,2.78-.15,4.2-.04,1.42-.09,2.86-.1,4.31-.01.56-.02,1.12-.03,1.68-.4-.39-.81-.78-1.21-1.16-1.04-1.01-2.08-2-3.12-2.97-1.03-.97-2.06-1.94-3.08-2.87-4.06-3.75-7.94-7.16-11.33-10.02-3.39-2.86-6.29-5.17-8.35-6.74-1.03-.79-1.86-1.39-2.42-1.81-.57-.41-.87-.63-.87-.63,0,0,.22.3.63.87.42.55,1.02,1.39,1.81,2.42,1.58,2.06,3.89,4.96,6.74,8.35,2.86,3.39,6.27,7.27,10.02,11.33.93,1.02,1.89,2.04,2.87,3.08.97,1.04,1.96,2.08,2.97,3.12.38.4.78.81,1.17,1.21-.56,0-1.12.01-1.68.02-1.45.02-2.89.06-4.31.11-1.42.04-2.82.08-4.21.15-5.52.22-10.68.55-15.09.92-4.42.38-8.1.79-10.68,1.14-1.29.16-2.3.33-2.99.43-.69.11-1.06.17-1.06.17,0,0,.37.06,1.06.17.69.1,1.7.27,2.99.43,2.58.34,6.26.76,10.68,1.14,4.41.37,9.57.71,15.09.92,1.38.07,2.79.11,4.21.15,1.42.05,2.86.09,4.31.11.55.01,1.12.02,1.68.03-.39.4-.78.81-1.17,1.21-1.01,1.04-2,2.08-2.97,3.12-.98,1.04-1.94,2.06-2.87,3.08-3.75,4.06-7.16,7.93-10.02,11.33-2.86,3.39-5.16,6.29-6.74,8.35-.8,1.03-1.39,1.86-1.81,2.42-.41.57-.63.87-.63.87,0,0,.3-.21.87-.62.55-.42,1.39-1.02,2.42-1.81,2.06-1.58,4.96-3.89,8.35-6.75,3.39-2.86,7.27-6.27,11.33-10.02,1.02-.93,2.04-1.89,3.08-2.87,1.04-.97,2.08-1.96,3.12-2.97.4-.38.81-.77,1.21-1.16,0,.56.01,1.12.02,1.68.02,1.45.06,2.89.11,4.31.05,1.42.08,2.82.15,4.21.11,2.76.25,5.43.4,7.96.16,2.53.34,4.92.52,7.13.37,4.42.79,8.1,1.14,10.68.17,1.29.34,2.3.43,2.99.11.69.17,1.06.17,1.06,0,0,.06-.37.17-1.06.1-.69.27-1.7.43-2.99.34-2.58.77-6.26,1.14-10.68.19-2.21.36-4.6.52-7.13.15-2.53.3-5.2.4-7.96.06-1.38.1-2.79.14-4.21.05-1.42.09-2.86.11-4.31.01-.55.02-1.11.03-1.67.4.39.8.78,1.2,1.16,1.04,1.01,2.08,2,3.12,2.97,1.04.98,2.05,1.94,3.08,2.87,2.03,1.88,4.02,3.66,5.91,5.34,1.9,1.68,3.72,3.25,5.41,4.68,3.39,2.86,6.29,5.16,8.35,6.74,1.03.8,1.87,1.39,2.42,1.81.57.41.87.62.87.62,0,0-.22-.3-.62-.87-.42-.56-1.01-1.39-1.81-2.42-1.58-2.06-3.88-4.96-6.74-8.35-1.43-1.69-3-3.51-4.67-5.41-1.68-1.9-3.47-3.89-5.34-5.91-.93-1.02-1.89-2.04-2.87-3.08-.97-1.04-1.96-2.08-2.97-3.12-.38-.4-.77-.8-1.16-1.2.55-.01,1.11-.01,1.67-.03,1.45-.02,2.89-.06,4.31-.11,1.42-.04,2.83-.08,4.21-.14,2.76-.11,5.43-.25,7.96-.41,2.53-.16,4.92-.34,7.13-.52,4.42-.37,8.1-.8,10.68-1.14,1.29-.16,2.3-.33,2.99-.43.69-.11,1.06-.17,1.06-.17,0,0-.37-.06-1.06-.17Z"/>
  <g>
    <path class="cls-10" d="M231.29,204.69c4.85,11.46-.5,24.68-11.97,29.54-11.46,4.85-24.68-.51-29.54-11.97-4.85-11.46.5-24.68,11.97-29.54,11.46-4.85,24.69.51,29.54,11.97Z"/>
    <polygon class="cls-29" points="206.45 223.4 146.15 246.59 142.35 237.61 200.97 210.45 206.45 223.4"/>
    <path class="cls-79" d="M150.71,239.37c1.51,3.57-.16,7.68-3.72,9.19-3.57,1.51-7.68-.16-9.19-3.72-1.51-3.57.16-7.68,3.72-9.19,3.57-1.51,7.68.16,9.19,3.72Z"/>
    <path class="cls-113" d="M247.72,278.44c1.51,3.57-.16,7.68-3.72,9.2-3.57,1.51-7.68-.16-9.19-3.73-1.51-3.57.16-7.68,3.72-9.19,3.57-1.51,7.68.16,9.19,3.72Z"/>
    <polygon class="cls-141" points="224.23 215.88 282.85 188.71 279.05 179.74 218.75 202.92 224.23 215.88"/>
    <path class="cls-23" d="M274.49,186.96c1.51,3.57,5.62,5.23,9.19,3.72,3.57-1.51,5.23-5.63,3.72-9.19-1.51-3.57-5.63-5.23-9.19-3.72-3.57,1.51-5.23,5.63-3.72,9.19Z"/>
    <polygon class="cls-36" points="222.84 219.31 246.03 279.61 237.05 283.42 209.88 224.79 222.84 219.31"/>
    <polygon class="cls-22" points="215.31 201.53 188.15 142.91 179.17 146.71 202.36 207.01 215.31 201.53"/>
    <path class="cls-130" d="M186.4,151.27c3.57-1.51,5.24-5.63,3.72-9.19-1.51-3.57-5.62-5.23-9.19-3.72-3.57,1.51-5.23,5.62-3.72,9.19,1.51,3.57,5.62,5.24,9.19,3.72Z"/>
    <path class="cls-94" d="M222.05,208.6c2.69,6.36-.28,13.69-6.64,16.38-6.36,2.69-13.69-.28-16.38-6.63-2.69-6.36.28-13.69,6.64-16.39,6.36-2.69,13.69.28,16.38,6.64Z"/>
  </g>
</svg>