<?xml version="1.0" encoding="UTF-8"?>
<svg version="1.1" viewBox="0 0 360 540" xmlns="http://www.w3.org/2000/svg">
 <g transform="translate(0,-512.36)">
  <rect x=".5" y="512.86" width="359" height="539" rx="29.944" fill="#fff" stroke="#000"/>
  <path d="m30 542.36-10 35v5h12v10h5v-10h3v-5h-3v-15h-5v15h-6.8l10-35z"/>
  <path d="m330 1022.4 10-35v-5h-12v-10h-5v10h-3v5h3v15h5v-15h6.8l-10 35z"/>
  <path d="m100 562.37c-3.999-0.082-6.667 1.333-9.333 4-2.667 2.667-4 5.333-4 9.333s1.518 6.372 4 9.333c2.375 2.833 4 4 5.333 6.666 1.333 2.667 2.667 8 2.667 10.666v4h-2.667c-2.667 0-8-2.667-9.333-4l-4-4c-2.667-2.667-5.333-4-9.333-4s-6.667 1.333-9.333 4c-2.667 2.667-4 5.333-4 9.333s1.333 6.666 4 9.333 5.333 4 9.333 4 6.667-1.333 9.333-4l4-4c1.333-1.333 6.667-4 9.333-4h2.667c-0.066 3.776-0.346 10.37-1.333 13.333-1.333 4-4 8-6.667 10.666-2.667 2.667-10.667 8-10.667 8v1.333s13.333-2.667 16-2.667h8c2.667 0 16 2.667 16 2.667v-1.333s-8-5.333-10.667-8-5.333-6.666-6.667-10.666c-0.988-2.963-1.267-9.557-1.333-13.333h2.67c2.667 0 8 2.667 9.333 4l4 4c2.667 2.667 5.333 4 9.333 4s6.667-1.333 9.333-4c2.667-2.667 4-5.333 4-9.333s-1.333-6.666-4-9.333-5.333-4-9.333-4-6.667 1.333-9.333 4l-4 4c-1.333 1.333-6.667 4-9.333 4h-2.667v-4c0-2.667 1.333-8 2.667-10.666 1.333-2.667 2.667-4 5.333-6.666 2.653-2.653 4-5.333 4-9.333s-1.333-6.666-4-9.333-5.333-4-9.333-4"/>
  <path d="m260 562.37c-3.999-0.082-6.667 1.333-9.333 4-2.667 2.667-4 5.333-4 9.333s1.518 6.372 4 9.333c2.375 2.833 4 4 5.333 6.666 1.333 2.667 2.667 8 2.667 10.666v4h-2.67c-2.667 0-8-2.667-9.333-4l-4-4c-2.667-2.667-5.333-4-9.333-4s-6.667 1.333-9.333 4c-2.667 2.667-4 5.333-4 9.333s1.333 6.666 4 9.333 5.333 4 9.333 4 6.667-1.333 9.333-4l4-4c1.333-1.333 6.667-4 9.333-4h2.667c-0.066 3.776-0.346 10.37-1.333 13.333-1.333 4-4 8-6.667 10.666-2.667 2.667-10.667 8-10.667 8v1.333s13.333-2.667 16-2.667h8c2.667 0 16 2.667 16 2.667v-1.333s-8-5.333-10.667-8-5.333-6.666-6.667-10.666c-0.988-2.963-1.267-9.557-1.333-13.333h2.67c2.667 0 8 2.667 9.333 4l4 4c2.667 2.667 5.333 4 9.333 4s6.667-1.333 9.333-4c2.667-2.667 4-5.333 4-9.333s-1.333-6.666-4-9.333-5.333-4-9.333-4-6.667 1.333-9.333 4l-4 4c-1.333 1.333-6.667 4-9.333 4h-2.667v-4c0-2.667 1.333-8 2.667-10.666 1.333-2.667 2.667-4 5.333-6.666 2.653-2.653 4-5.333 4-9.333s-1.333-6.666-4-9.333-5.333-4-9.333-4"/>
  <path d="m260 1002.4c3.999 0.081 6.667-1.333 9.333-4 2.667-2.667 4-5.333 4-9.333s-1.518-6.372-4-9.333c-2.375-2.833-4-4-5.333-6.666-1.333-2.667-2.667-8-2.667-10.666v-4h2.67c2.667 0 8 2.667 9.333 4l4 4c2.667 2.667 5.333 4 9.333 4s6.667-1.333 9.333-4c2.667-2.667 4-5.333 4-9.333s-1.333-6.666-4-9.333-5.333-4-9.333-4-6.667 1.333-9.333 4l-4 4c-1.333 1.333-6.667 4-9.333 4h-2.667c0.066-3.776 0.346-10.37 1.333-13.333 1.333-4 4-8 6.667-10.666 2.667-2.667 10.667-8 10.667-8v-1.333s-13.333 2.667-16 2.667h-8c-2.667 0-16-2.667-16-2.667v1.333s8 5.333 10.667 8 5.333 6.666 6.667 10.666c0.988 2.963 1.267 9.557 1.333 13.333h-2.67c-2.667 0-8-2.667-9.333-4l-4-4c-2.667-2.667-5.333-4-9.333-4s-6.667 1.333-9.333 4c-2.667 2.667-4 5.333-4 9.333s1.333 6.666 4 9.333 5.333 4 9.333 4 6.667-1.333 9.333-4l4-4c1.333-1.333 6.667-4 9.333-4h2.667v4c0 2.667-1.333 8-2.667 10.666-1.333 2.667-2.667 4-5.333 6.666-2.653 2.653-4 5.333-4 9.333s1.333 6.666 4 9.333 5.333 4 9.333 4"/>
  <path d="m100 1002.4c3.999 0.081 6.667-1.333 9.333-4 2.667-2.667 4-5.333 4-9.333s-1.518-6.372-4-9.333c-2.375-2.833-4-4-5.333-6.666-1.333-2.667-2.667-8-2.667-10.666v-4h2.67c2.667 0 8 2.667 9.333 4l4 4c2.667 2.667 5.333 4 9.333 4s6.667-1.333 9.333-4c2.667-2.667 4-5.333 4-9.333s-1.333-6.666-4-9.333-5.333-4-9.333-4-6.667 1.333-9.333 4l-4 4c-1.333 1.333-6.667 4-9.333 4h-2.667c0.066-3.776 0.346-10.37 1.333-13.333 1.333-4 4-8 6.667-10.666 2.667-2.667 10.667-8 10.667-8v-1.333s-13.333 2.667-16 2.667h-8c-2.667 0-16-2.667-16-2.667v1.333s8 5.333 10.667 8 5.333 6.666 6.667 10.666c0.988 2.963 1.267 9.557 1.333 13.333h-2.667c-2.667 0-8-2.667-9.333-4l-4-4c-2.667-2.667-5.333-4-9.333-4s-6.667 1.333-9.333 4c-2.667 2.667-4 5.333-4 9.333s1.333 6.666 4 9.333 5.333 4 9.333 4 6.667-1.333 9.333-4l4-4c1.333-1.333 6.667-4 9.333-4h2.667v4c0 2.667-1.333 8-2.667 10.666-1.333 2.667-2.667 4-5.333 6.666-2.653 2.653-4 5.333-4 9.333s1.333 6.666 4 9.333 5.333 4 9.333 4"/>
  <path d="m30 602.36c-1.5-0.031-2.5 0.5-3.5 1.5s-1.5 2-1.5 3.5 0.569 2.39 1.5 3.5c0.891 1.063 1.5 1.5 2 2.5s1 3 1 4v1.5h-1c-1 0-3-1-3.5-1.5l-1.5-1.5c-1-1-2-1.5-3.5-1.5s-2.5 0.5-3.5 1.5-1.5 2-1.5 3.5 0.5 2.5 1.5 3.5 2 1.5 3.5 1.5 2.5-0.5 3.5-1.5l1.5-1.5c0.5-0.5 2.5-1.5 3.5-1.5h1c-0.025 1.416-0.13 3.889-0.5 5-0.5 1.5-1.5 3-2.5 4s-4 3-4 3v0.5s5-1 6-1h3c1 0 6 1 6 1v-0.5s-3-2-4-3-2-2.5-2.5-4c-0.37-1.111-0.475-3.584-0.5-5h1c1 0 3 1 3.5 1.5l1.5 1.5c1 1 2 1.5 3.5 1.5s2.5-0.5 3.5-1.5 1.5-2 1.5-3.5-0.5-2.5-1.5-3.5-2-1.5-3.5-1.5-2.5 0.5-3.5 1.5l-1.5 1.5c-0.5 0.5-2.5 1.5-3.5 1.5h-1v-1.5c0-1 0.5-3 1-4s1-1.5 2-2.5c0.995-0.995 1.5-2 1.5-3.5s-0.5-2.5-1.5-3.5-2-1.5-3.5-1.5"/>
  <path d="m330 962.36c1.5 0.028 2.5-0.445 3.5-1.333 1-0.889 1.5-1.778 1.5-3.111s-0.569-2.124-1.5-3.111c-0.891-0.944-1.5-1.333-2-2.222s-1-2.667-1-3.556v-1.333h1c1 0 3 0.889 3.5 1.333l1.5 1.333c1 0.889 2 1.333 3.5 1.333s2.5-0.445 3.5-1.333c1-0.889 1.5-1.778 1.5-3.111s-0.5-2.222-1.5-3.111-2-1.333-3.5-1.333-2.5 0.444-3.5 1.333l-1.5 1.333c-0.5 0.444-2.5 1.333-3.5 1.333h-1c0.025-1.259 0.13-3.457 0.5-4.445 0.5-1.333 1.5-2.667 2.5-3.556s4-2.667 4-2.667v-0.444s-5 0.889-6 0.889h-3c-1 0-6-0.889-6-0.889v0.444s3 1.778 4 2.667 2 2.222 2.5 3.556c0.37 0.988 0.475 3.186 0.5 4.445h-1c-1 0-3-0.889-3.5-1.333l-1.5-1.333c-1-0.889-2-1.333-3.5-1.333s-2.5 0.444-3.5 1.333-1.5 1.778-1.5 3.111 0.5 2.222 1.5 3.111 2 1.333 3.5 1.333 2.5-0.445 3.5-1.333l1.5-1.333c0.5-0.444 2.5-1.333 3.5-1.333h1v1.333c0 0.889-0.5 2.667-1 3.556s-1 1.333-2 2.222c-0.995 0.885-1.5 1.778-1.5 3.111s0.5 2.222 1.5 3.111 2 1.333 3.5 1.333"/>
 </g>
</svg>
