<?xml version="1.0" encoding="UTF-8"?>
<svg version="1.1" viewBox="0 0 360 540" xmlns="http://www.w3.org/2000/svg" xmlns:xlink="http://www.w3.org/1999/xlink">
 <g transform="translate(0,-512.36)">
  <rect x=".5" y="512.86" width="359" height="539" rx="29.944" fill="#fff" stroke="#000"/>
  <g transform="translate(5,22.362)">
   <path id="c" transform="translate(0,440)" d="m10 80-5 7v7l5-7v43h5v-50h-5"/>
   <path id="d" d="m30 520c-5.54 0-10 4.46-10 10v30c0 5.54 4.46 10 10 10s10-4.46 10-10v-30c0-5.54-4.46-10-10-10m0 5c2.77 0 5 2.23 5 5v30c0 2.77-2.23 5-5 5s-5-2.23-5-5v-30c0-2.77 2.23-5 5-5"/>
  </g>
  <g transform="matrix(-1 0 0 -1 355 1542.4)">
   <use width="360" height="540" xlink:href="#c"/>
   <use width="360" height="540" xlink:href="#d"/>
  </g>
  <path d="m100 562.37c-3.999-0.082-6.667 1.333-9.333 4-2.667 2.667-4 5.333-4 9.333s1.518 6.372 4 9.333c2.375 2.833 4 4 5.333 6.666 1.333 2.667 2.667 8 2.667 10.666v4h-2.667c-2.667 0-8-2.667-9.333-4l-4-4c-2.667-2.667-5.333-4-9.333-4s-6.667 1.333-9.333 4c-2.667 2.667-4 5.333-4 9.333s1.333 6.666 4 9.333 5.333 4 9.333 4 6.667-1.333 9.333-4l4-4c1.333-1.333 6.667-4 9.333-4h2.667c-0.066 3.776-0.346 10.37-1.333 13.333-1.333 4-4 8-6.667 10.666-2.667 2.667-10.667 8-10.667 8v1.333s13.333-2.667 16-2.667h8c2.667 0 16 2.667 16 2.667v-1.333s-8-5.333-10.667-8-5.333-6.666-6.667-10.666c-0.988-2.963-1.267-9.557-1.333-13.333h2.67c2.667 0 8 2.667 9.333 4l4 4c2.667 2.667 5.333 4 9.333 4s6.667-1.333 9.333-4c2.667-2.667 4-5.333 4-9.333s-1.333-6.666-4-9.333-5.333-4-9.333-4-6.667 1.333-9.333 4l-4 4c-1.333 1.333-6.667 4-9.333 4h-2.667v-4c0-2.667 1.333-8 2.667-10.666 1.333-2.667 2.667-4 5.333-6.666 2.653-2.653 4-5.333 4-9.333s-1.333-6.666-4-9.333-5.333-4-9.333-4"/>
  <path d="m260 562.37c-3.999-0.082-6.667 1.333-9.333 4-2.667 2.667-4 5.333-4 9.333s1.518 6.372 4 9.333c2.375 2.833 4 4 5.333 6.666 1.333 2.667 2.667 8 2.667 10.666v4h-2.67c-2.667 0-8-2.667-9.333-4l-4-4c-2.667-2.667-5.333-4-9.333-4s-6.667 1.333-9.333 4c-2.667 2.667-4 5.333-4 9.333s1.333 6.666 4 9.333 5.333 4 9.333 4 6.667-1.333 9.333-4l4-4c1.333-1.333 6.667-4 9.333-4h2.667c-0.066 3.776-0.346 10.37-1.333 13.333-1.333 4-4 8-6.667 10.666-2.667 2.667-10.667 8-10.667 8v1.333s13.333-2.667 16-2.667h8c2.667 0 16 2.667 16 2.667v-1.333s-8-5.333-10.667-8-5.333-6.666-6.667-10.666c-0.988-2.963-1.267-9.557-1.333-13.333h2.67c2.667 0 8 2.667 9.333 4l4 4c2.667 2.667 5.333 4 9.333 4s6.667-1.333 9.333-4c2.667-2.667 4-5.333 4-9.333s-1.333-6.666-4-9.333-5.333-4-9.333-4-6.667 1.333-9.333 4l-4 4c-1.333 1.333-6.667 4-9.333 4h-2.667v-4c0-2.667 1.333-8 2.667-10.666 1.333-2.667 2.667-4 5.333-6.666 2.653-2.653 4-5.333 4-9.333s-1.333-6.666-4-9.333-5.333-4-9.333-4"/>
  <path d="m180 622.37c-3.999-0.082-6.667 1.333-9.333 4-2.667 2.667-4 5.333-4 9.333s1.518 6.372 4 9.333c2.375 2.833 4 4 5.333 6.666 1.333 2.667 2.667 8 2.667 10.666v4h-2.67c-2.667 0-8-2.667-9.333-4l-4-4c-2.667-2.667-5.333-4-9.333-4s-6.667 1.333-9.333 4c-2.667 2.667-4 5.333-4 9.333s1.333 6.666 4 9.333 5.333 4 9.333 4 6.667-1.333 9.333-4l4-4c1.333-1.333 6.667-4 9.333-4h2.667c-0.066 3.776-0.346 10.37-1.333 13.333-1.333 4-4 8-6.667 10.666-2.667 2.667-10.667 8-10.667 8v1.333s13.333-2.667 16-2.667h8c2.667 0 16 2.667 16 2.667v-1.333s-8-5.333-10.667-8-5.333-6.666-6.667-10.666c-0.988-2.963-1.267-9.557-1.333-13.333h2.67c2.667 0 8 2.667 9.333 4l4 4c2.667 2.667 5.333 4 9.333 4s6.667-1.333 9.333-4c2.667-2.667 4-5.333 4-9.333s-1.333-6.666-4-9.333-5.333-4-9.333-4-6.667 1.333-9.333 4l-4 4c-1.333 1.333-6.667 4-9.333 4h-2.667v-4c0-2.667 1.333-8 2.667-10.666 1.333-2.667 2.667-4 5.333-6.666 2.653-2.653 4-5.333 4-9.333s-1.333-6.666-4-9.333-5.333-4-9.333-4"/>
  <path d="m100 682.37c-3.999-0.082-6.667 1.333-9.333 4-2.667 2.667-4 5.333-4 9.333s1.518 6.372 4 9.333c2.375 2.833 4 4 5.333 6.666 1.333 2.667 2.667 8 2.667 10.666v4h-2.667c-2.667 0-8-2.667-9.333-4l-4-4c-2.667-2.667-5.333-4-9.333-4s-6.667 1.333-9.333 4c-2.667 2.667-4 5.333-4 9.333s1.333 6.666 4 9.333 5.333 4 9.333 4 6.667-1.333 9.333-4l4-4c1.333-1.333 6.667-4 9.333-4h2.667c-0.066 3.776-0.346 10.37-1.333 13.333-1.333 4-4 8-6.667 10.666-2.667 2.667-10.667 8-10.667 8v1.333s13.333-2.667 16-2.667h8c2.667 0 16 2.667 16 2.667v-1.333s-8-5.333-10.667-8-5.333-6.666-6.667-10.666c-0.988-2.963-1.267-9.557-1.333-13.333h2.67c2.667 0 8 2.667 9.333 4l4 4c2.667 2.667 5.333 4 9.333 4s6.667-1.333 9.333-4c2.667-2.667 4-5.333 4-9.333s-1.333-6.666-4-9.333-5.333-4-9.333-4-6.667 1.333-9.333 4l-4 4c-1.333 1.333-6.667 4-9.333 4h-2.667v-4c0-2.667 1.333-8 2.667-10.666 1.333-2.667 2.667-4 5.333-6.666 2.653-2.653 4-5.333 4-9.333s-1.333-6.666-4-9.333-5.333-4-9.333-4"/>
  <path d="m260 682.37c-3.999-0.082-6.667 1.333-9.333 4-2.667 2.667-4 5.333-4 9.333s1.518 6.372 4 9.333c2.375 2.833 4 4 5.333 6.666 1.333 2.667 2.667 8 2.667 10.666v4h-2.67c-2.667 0-8-2.667-9.333-4l-4-4c-2.667-2.667-5.333-4-9.333-4s-6.667 1.333-9.333 4c-2.667 2.667-4 5.333-4 9.333s1.333 6.666 4 9.333 5.333 4 9.333 4 6.667-1.333 9.333-4l4-4c1.333-1.333 6.667-4 9.333-4h2.667c-0.066 3.776-0.346 10.37-1.333 13.333-1.333 4-4 8-6.667 10.666-2.667 2.667-10.667 8-10.667 8v1.333s13.333-2.667 16-2.667h8c2.667 0 16 2.667 16 2.667v-1.333s-8-5.333-10.667-8-5.333-6.666-6.667-10.666c-0.988-2.963-1.267-9.557-1.333-13.333h2.67c2.667 0 8 2.667 9.333 4l4 4c2.667 2.667 5.333 4 9.333 4s6.667-1.333 9.333-4c2.667-2.667 4-5.333 4-9.333s-1.333-6.666-4-9.333-5.333-4-9.333-4-6.667 1.333-9.333 4l-4 4c-1.333 1.333-6.667 4-9.333 4h-2.667v-4c0-2.667 1.333-8 2.667-10.666 1.333-2.667 2.667-4 5.333-6.666 2.653-2.653 4-5.333 4-9.333s-1.333-6.666-4-9.333-5.333-4-9.333-4"/>
  <path d="m180 942.36c-3.999 0.082-6.667-1.333-9.333-4-2.667-2.667-4-5.333-4-9.333s1.518-6.372 4-9.333c2.375-2.833 4-4 5.333-6.666 1.333-2.667 2.667-8 2.667-10.666v-4h-2.67c-2.667 0-8 2.667-9.333 4l-4 4c-2.667 2.667-5.333 4-9.333 4s-6.667-1.333-9.333-4c-2.667-2.667-4-5.333-4-9.333s1.333-6.666 4-9.333 5.333-4 9.333-4 6.667 1.333 9.333 4l4 4c1.333 1.333 6.667 4 9.333 4h2.667c-0.066-3.776-0.346-10.37-1.333-13.333-1.333-4-4-8-6.667-10.666-2.667-2.667-10.667-8-10.667-8v-1.333s13.333 2.667 16 2.667h8c2.667 0 16-2.667 16-2.667v1.333s-8 5.333-10.667 8-5.333 6.666-6.667 10.666c-0.988 2.963-1.267 9.557-1.333 13.333h2.67c2.667 0 8-2.667 9.333-4l4-4c2.667-2.667 5.333-4 9.333-4s6.667 1.333 9.333 4c2.667 2.667 4 5.333 4 9.333s-1.333 6.666-4 9.333-5.333 4-9.333 4-6.667-1.333-9.333-4l-4-4c-1.333-1.333-6.667-4-9.333-4h-2.667v4c0 2.667 1.333 8 2.667 10.666 1.333 2.667 2.667 4 5.333 6.666 2.653 2.653 4 5.333 4 9.333s-1.333 6.666-4 9.333-5.333 4-9.333 4"/>
  <path d="m260 1002.4c-3.999 0.082-6.667-1.333-9.333-4-2.667-2.667-4-5.333-4-9.333s1.518-6.372 4-9.333c2.375-2.833 4-4 5.333-6.666 1.333-2.667 2.667-8 2.667-10.666v-4h-2.67c-2.667 0-8 2.667-9.333 4l-4 4c-2.667 2.667-5.333 4-9.333 4s-6.667-1.333-9.333-4c-2.667-2.667-4-5.333-4-9.333s1.333-6.666 4-9.333 5.333-4 9.333-4 6.667 1.333 9.333 4l4 4c1.333 1.333 6.667 4 9.333 4h2.667c-0.066-3.776-0.346-10.37-1.333-13.333-1.333-4-4-8-6.667-10.666-2.667-2.667-10.667-8-10.667-8v-1.333s13.333 2.667 16 2.667h8c2.667 0 16-2.667 16-2.667v1.333s-8 5.333-10.667 8-5.333 6.666-6.667 10.666c-0.988 2.963-1.267 9.557-1.333 13.333h2.67c2.667 0 8-2.667 9.333-4l4-4c2.667-2.667 5.333-4 9.333-4s6.667 1.333 9.333 4c2.667 2.667 4 5.333 4 9.333s-1.333 6.666-4 9.333-5.333 4-9.333 4-6.667-1.333-9.333-4l-4-4c-1.333-1.333-6.667-4-9.333-4h-2.667v4c0 2.667 1.333 8 2.667 10.666 1.333 2.667 2.667 4 5.333 6.666 2.653 2.653 4 5.333 4 9.333s-1.333 6.666-4 9.333-5.333 4-9.333 4"/>
  <path d="m100 882.36c-3.999 0.082-6.667-1.333-9.333-4-2.667-2.667-4-5.333-4-9.333s1.518-6.372 4-9.333c2.375-2.833 4-4 5.333-6.666 1.333-2.667 2.667-8 2.667-10.666v-4h-2.667c-2.667 0-8 2.667-9.333 4l-4 4c-2.667 2.667-5.333 4-9.333 4s-6.667-1.333-9.333-4c-2.667-2.667-4-5.333-4-9.333s1.333-6.666 4-9.333 5.333-4 9.333-4 6.667 1.333 9.333 4l4 4c1.333 1.333 6.667 4 9.333 4h2.667c-0.066-3.776-0.346-10.37-1.333-13.333-1.333-4-4-8-6.667-10.666-2.667-2.66-10.667-7.99-10.667-7.99v-1.333s13.333 2.667 16 2.667h8c2.667 0 16-2.667 16-2.667v1.333s-8 5.333-10.667 8-5.333 6.666-6.667 10.666c-0.988 2.963-1.267 9.557-1.333 13.333h2.67c2.667 0 8-2.667 9.333-4l4-4c2.667-2.667 5.333-4 9.333-4s6.667 1.333 9.333 4c2.667 2.667 4 5.333 4 9.333s-1.333 6.666-4 9.333-5.333 4-9.333 4-6.667-1.333-9.333-4l-4-4c-1.333-1.333-6.667-4-9.333-4h-2.667v4c0 2.667 1.333 8 2.667 10.666 1.333 2.667 2.667 4 5.333 6.666 2.653 2.653 4 5.333 4 9.333s-1.333 6.666-4 9.333-5.333 4-9.333 4"/>
  <path d="m260 882.36c-3.999 0.082-6.667-1.333-9.333-4-2.667-2.667-4-5.333-4-9.333s1.518-6.372 4-9.333c2.375-2.833 4-4 5.333-6.666 1.333-2.667 2.667-8 2.667-10.666v-4h-2.67c-2.667 0-8 2.667-9.333 4l-4 4c-2.667 2.667-5.333 4-9.333 4s-6.667-1.333-9.333-4c-2.667-2.667-4-5.333-4-9.333s1.333-6.666 4-9.333 5.333-4 9.333-4 6.667 1.333 9.333 4l4 4c1.333 1.333 6.667 4 9.333 4h2.667c-0.066-3.776-0.346-10.37-1.333-13.333-1.333-4-4-8-6.667-10.666-2.667-2.667-10.667-8-10.667-8v-1.333s13.333 2.667 16 2.667h8c2.667 0 16-2.667 16-2.667v1.333s-8 5.333-10.667 8-5.333 6.666-6.667 10.666c-0.988 2.963-1.267 9.557-1.333 13.333h2.67c2.667 0 8-2.667 9.333-4l4-4c2.667-2.667 5.333-4 9.333-4s6.667 1.333 9.333 4c2.667 2.667 4 5.333 4 9.333s-1.333 6.666-4 9.333-5.333 4-9.333 4-6.667-1.333-9.333-4l-4-4c-1.333-1.333-6.667-4-9.333-4h-2.667v4c0 2.667 1.333 8 2.667 10.666 1.333 2.667 2.667 4 5.333 6.666 2.653 2.653 4 5.333 4 9.333s-1.333 6.666-4 9.333-5.333 4-9.333 4"/>
  <path d="m100 1002.4c-3.999 0.082-6.667-1.333-9.333-4-2.667-2.667-4-5.333-4-9.333s1.518-6.372 4-9.333c2.375-2.833 4-4 5.333-6.666 1.333-2.667 2.667-8 2.667-10.666v-4h-2.667c-2.667 0-8 2.667-9.333 4l-4 4c-2.667 2.667-5.333 4-9.333 4s-6.667-1.333-9.333-4c-2.667-2.667-4-5.333-4-9.333s1.333-6.666 4-9.333 5.333-4 9.333-4 6.667 1.333 9.333 4l4 4c1.333 1.333 6.667 4 9.333 4h2.667c-0.066-3.776-0.346-10.37-1.333-13.333-1.333-4-4-8-6.667-10.666-2.667-2.7-10.667-8.03-10.667-8.03v-1.333s13.333 2.667 16 2.667h8c2.667 0 16-2.667 16-2.667v1.333s-8 5.333-10.667 8-5.333 6.666-6.667 10.666c-0.988 2.963-1.267 9.557-1.333 13.333h2.67c2.667 0 8-2.667 9.333-4l4-4c2.667-2.667 5.333-4 9.333-4s6.667 1.333 9.333 4c2.667 2.667 4 5.333 4 9.333s-1.333 6.666-4 9.333-5.333 4-9.333 4-6.667-1.333-9.333-4l-4-4c-1.333-1.333-6.667-4-9.333-4h-2.667v4c0 2.667 1.333 8 2.667 10.666 1.333 2.667 2.667 4 5.333 6.666 2.653 2.653 4 5.333 4 9.333s-1.333 6.666-4 9.333-5.333 4-9.333 4"/>
  <path d="m30 602.36c-1.5-0.031-2.5 0.5-3.5 1.5s-1.5 2-1.5 3.5 0.569 2.39 1.5 3.5c0.891 1.063 1.5 1.5 2 2.5s1 3 1 4v1.5h-1c-1 0-3-1-3.5-1.5l-1.5-1.5c-1-1-2-1.5-3.5-1.5s-2.5 0.5-3.5 1.5-1.5 2-1.5 3.5 0.5 2.5 1.5 3.5 2 1.5 3.5 1.5 2.5-0.5 3.5-1.5l1.5-1.5c0.5-0.5 2.5-1.5 3.5-1.5h1c-0.025 1.416-0.13 3.889-0.5 5-0.5 1.5-1.5 3-2.5 4s-4 3-4 3v0.5s5-1 6-1h3c1 0 6 1 6 1v-0.5s-3-2-4-3-2-2.5-2.5-4c-0.37-1.111-0.475-3.584-0.5-5h1c1 0 3 1 3.5 1.5l1.5 1.5c1 1 2 1.5 3.5 1.5s2.5-0.5 3.5-1.5 1.5-2 1.5-3.5-0.5-2.5-1.5-3.5-2-1.5-3.5-1.5-2.5 0.5-3.5 1.5l-1.5 1.5c-0.5 0.5-2.5 1.5-3.5 1.5h-1v-1.5c0-1 0.5-3 1-4s1-1.5 2-2.5c0.995-0.995 1.5-2 1.5-3.5s-0.5-2.5-1.5-3.5-2-1.5-3.5-1.5"/>
  <path d="m330 962.36c-1.5 0.031-2.5-0.5-3.5-1.5s-1.5-2-1.5-3.5 0.569-2.39 1.5-3.5c0.891-1.063 1.5-1.5 2-2.5s1-3 1-4v-1.5h-1c-1 0-3 1-3.5 1.5l-1.5 1.5c-1 1-2 1.5-3.5 1.5s-2.5-0.5-3.5-1.5-1.5-2-1.5-3.5 0.5-2.5 1.5-3.5 2-1.5 3.5-1.5 2.5 0.5 3.5 1.5l1.5 1.5c0.5 0.5 2.5 1.5 3.5 1.5h1c-0.025-1.416-0.13-3.889-0.5-5-0.5-1.5-1.5-3-2.5-4s-4-3-4-3v-0.5s5 1 6 1h3c1 0 6-1 6-1v0.5s-3 2-4 3-2 2.5-2.5 4c-0.37 1.111-0.475 3.584-0.5 5h1c1 0 3-1 3.5-1.5l1.5-1.5c1-1 2-1.5 3.5-1.5s2.5 0.5 3.5 1.5 1.5 2 1.5 3.5-0.5 2.5-1.5 3.5-2 1.5-3.5 1.5-2.5-0.5-3.5-1.5l-1.5-1.5c-0.5-0.5-2.5-1.5-3.5-1.5h-1v1.5c0 1 0.5 3 1 4s1 1.5 2 2.5c0.995 0.995 1.5 2 1.5 3.5s-0.5 2.5-1.5 3.5-2 1.5-3.5 1.5"/>
 </g>
</svg>
