<?xml version="1.0" encoding="UTF-8"?>
<svg version="1.1" viewBox="0 0 360 540" xmlns="http://www.w3.org/2000/svg">
 <g transform="translate(0,-512.36)">
  <rect x=".5" y="512.86" width="359" height="539" rx="29.944" fill="#fff" stroke="#000"/>
  <g fill="#f55">
   <path d="m180 562.36s8 13.333 17.333 22.667c9.333 9.333 22.667 17.333 22.667 17.333s-13.333 8-22.667 17.333c-9.33 9.34-17.33 22.67-17.33 22.67s-8-13.333-17.333-22.667c-9.34-9.33-22.67-17.33-22.67-17.33s13.333-8 22.667-17.333c9.33-9.34 17.33-22.67 17.33-22.67"/>
   <path d="m180 922.36s8 13.333 17.333 22.667c9.333 9.333 22.667 17.333 22.667 17.333s-13.333 8-22.667 17.333c-9.33 9.34-17.33 22.71-17.33 22.71s-8-13.333-17.333-22.667c-9.34-9.37-22.67-17.37-22.67-17.37s13.333-8 22.667-17.333c9.33-9.34 17.33-22.67 17.33-22.67"/>
   <path d="m330 932.36s3 5 6.5 8.5 8.5 6.5 8.5 6.5-5 3-8.5 6.5-6.5 8.5-6.5 8.5-3-5-6.5-8.5-8.5-6.5-8.5-6.5 5-3 8.5-6.5 6.5-8.5 6.5-8.5"/>
   <path d="m30 602.36s3 5 6.5 8.5 8.5 6.5 8.5 6.5-5 3-8.5 6.5-6.5 8.5-6.5 8.5-3-5-6.5-8.5-8.5-6.5-8.5-6.5 5-3 8.5-6.5 6.5-8.5 6.5-8.5"/>
   <path d="m30 542.36c-5.54 0-10 4.46-10 10v5h5v-5c0-2.77 2.23-5 5-5s5 2.23 5 5v5c0 1.128-0.375 3.065-1 3.9-4.463 9.104-9.278 17.13-14 26.1v5h20v-10h-5v5h-9.5c4.489-7.915 8.218-15.572 12.5-23.6 1.25-1.669 2-4.145 2-6.4v-5c0-5.54-4.46-10-10-10"/>
   <path d="m330 1022.4c5.54 0 10-4.46 10-10v-5h-5v5c0 2.77-2.23 5-5 5s-5-2.23-5-5v-5c0-1.128 0.375-3.065 1-3.9 4.463-9.104 9.278-17.13 14-26.1v-5h-20v10h5v-5h9.5c-4.489 7.915-8.218 15.572-12.5 23.6-1.25 1.669-2 4.145-2 6.4v5c0 5.54 4.46 10 10 10"/>
  </g>
 </g>
</svg>
