<?xml version="1.0" encoding="UTF-8"?>
<svg viewBox="0 0 360 540" xmlns="http://www.w3.org/2000/svg">
 <g transform="translate(0-512.36)">
  <rect x=".5" y="512.86" width="359" height="539" rx="29.944" fill="#fff" stroke="#000"/>
  <g fill="#f55">
   <path d="m100 562.36s8 13.333 17.333 22.667c9.333 9.333 22.667 17.333 22.667 17.333s-13.333 8-22.667 17.333c-9.333 9.333-17.333 22.667-17.333 22.667s-8-13.333-17.333-22.667c-9.333-9.333-22.667-17.333-22.667-17.333s13.333-8 22.667-17.333c9.333-9.333 17.333-22.667 17.333-22.667"/>
   <path d="m260 562.36s8 13.333 17.333 22.667c9.333 9.333 22.667 17.333 22.667 17.333s-13.333 8-22.667 17.333c-9.333 9.333-17.333 22.667-17.333 22.667s-8-13.333-17.333-22.667c-9.333-9.333-22.667-17.333-22.667-17.333s13.333-8 22.667-17.333c9.333-9.333 17.333-22.667 17.333-22.667"/>
   <path d="m180 652.36s8 13.333 17.333 22.667c9.333 9.333 22.667 17.333 22.667 17.333s-13.333 8-22.667 17.333c-9.333 9.333-17.333 22.667-17.333 22.667s-8-13.333-17.333-22.667c-9.333-9.333-22.667-17.333-22.667-17.333s13.333-8 22.667-17.333c9.333-9.333 17.333-22.667 17.333-22.667"/>
   <path d="m100 742.36s8 13.333 17.333 22.667c9.333 9.333 22.667 17.333 22.667 17.333s-13.333 8-22.667 17.333c-9.333 9.333-17.333 22.667-17.333 22.667s-8-13.333-17.333-22.667c-9.333-9.333-22.667-17.333-22.667-17.333s13.333-8 22.667-17.333c9.333-9.333 17.333-22.667 17.333-22.667"/>
   <path d="m260 742.36s8 13.333 17.333 22.667c9.333 9.333 22.667 17.333 22.667 17.333s-13.333 8-22.667 17.333c-9.333 9.333-17.333 22.667-17.333 22.667s-8-13.333-17.333-22.667c-9.333-9.333-22.667-17.333-22.667-17.333s13.333-8 22.667-17.333c9.333-9.333 17.333-22.667 17.333-22.667"/>
   <path d="m100 922.36s8 13.333 17.333 22.667c9.333 9.333 22.667 17.333 22.667 17.333s-13.333 8-22.667 17.333c-9.333 9.333-17.333 22.667-17.333 22.667s-8-13.333-17.333-22.667c-9.333-9.333-22.667-17.333-22.667-17.333s13.333-8 22.667-17.333c9.333-9.333 17.333-22.667 17.333-22.667"/>
   <path d="m260 922.36s8 13.333 17.333 22.667c9.333 9.333 22.667 17.333 22.667 17.333s-13.333 8-22.667 17.333c-9.333 9.333-17.333 22.667-17.333 22.667s-8-13.333-17.333-22.667c-9.333-9.333-22.667-17.333-22.667-17.333s13.333-8 22.667-17.333c9.333-9.333 17.333-22.667 17.333-22.667"/>
   <path d="m330 932.36s3 5 6.5 8.5 8.5 6.5 8.5 6.5-5 3-8.5 6.5-6.5 8.5-6.5 8.5-3-5-6.5-8.5-8.5-6.5-8.5-6.5 5-3 8.5-6.5 6.5-8.5 6.5-8.5"/>
   <path d="m30 602.36s3 5 6.5 8.5 8.5 6.5 8.5 6.5-5 3-8.5 6.5-6.5 8.5-6.5 8.5-3-5-6.5-8.5-8.5-6.5-8.5-6.5 5-3 8.5-6.5 6.5-8.5 6.5-8.5"/>
   <path d="m20 542.36v10h5v-5h10l-10 45h5l10-45v-5h-20"/>
   <path d="m340 1022.4v-10h-5v5h-10l10-45h-5l-10 45v5h20"/>
  </g>
 </g>
</svg>
