<?xml version="1.0" encoding="UTF-8"?>
<svg viewBox="0 0 360 540" xmlns="http://www.w3.org/2000/svg">
 <g transform="translate(0-512.36)">
  <rect x=".5" y="512.86" width="359" height="539" rx="29.944" fill="#fff" stroke="#000"/>
  <g fill="#f55">
   <path d="m100 562.36s8 13.333 17.333 22.667c9.333 9.333 22.667 17.333 22.667 17.333s-13.333 8-22.667 17.333c-9.333 9.333-17.333 22.667-17.333 22.667s-8-13.333-17.333-22.667c-9.333-9.333-22.667-17.333-22.667-17.333s13.333-8 22.667-17.333c9.333-9.333 17.333-22.667 17.333-22.667"/>
   <path d="m260 562.36s8 13.333 17.333 22.667c9.333 9.333 22.667 17.333 22.667 17.333s-13.333 8-22.667 17.333c-9.333 9.333-17.333 22.667-17.333 22.667s-8-13.333-17.333-22.667c-9.333-9.333-22.667-17.333-22.667-17.333s13.333-8 22.667-17.333c9.333-9.333 17.333-22.667 17.333-22.667"/>
   <path d="m100 922.36s8 13.333 17.333 22.667c9.333 9.333 22.667 17.333 22.667 17.333s-13.333 8-22.667 17.333c-9.333 9.333-17.333 22.667-17.333 22.667s-8-13.333-17.333-22.667c-9.333-9.333-22.667-17.333-22.667-17.333s13.333-8 22.667-17.333c9.333-9.333 17.333-22.667 17.333-22.667"/>
   <path d="m260 922.36s8 13.333 17.333 22.667c9.333 9.333 22.667 17.333 22.667 17.333s-13.333 8-22.667 17.333c-9.333 9.333-17.333 22.667-17.333 22.667s-8-13.333-17.333-22.667c-9.333-9.333-22.667-17.333-22.667-17.333s13.333-8 22.667-17.333c9.333-9.333 17.333-22.667 17.333-22.667"/>
   <path d="m330 932.36s3 5 6.5 8.5 8.5 6.5 8.5 6.5-5 3-8.5 6.5-6.5 8.5-6.5 8.5-3-5-6.5-8.5-8.5-6.5-8.5-6.5 5-3 8.5-6.5 6.5-8.5 6.5-8.5"/>
   <path d="m30 602.36s3 5 6.5 8.5 8.5 6.5 8.5 6.5-5 3-8.5 6.5-6.5 8.5-6.5 8.5-3-5-6.5-8.5-8.5-6.5-8.5-6.5 5-3 8.5-6.5 6.5-8.5 6.5-8.5"/>
   <path d="m30 542.36l-10 35v5h12v10h5v-10h3v-5h-3v-15h-5v15h-6.8l10-35z"/>
   <path d="m330 1022.4l10-35v-5h-12v-10h-5v10h-3v5h3v15h5v-15h6.8l-10 35z"/>
  </g>
 </g>
</svg>
