<?xml version="1.0" encoding="UTF-8"?>
<svg version="1.1" viewBox="0 0 360 540" xmlns="http://www.w3.org/2000/svg" xmlns:xlink="http://www.w3.org/1999/xlink">
 <g transform="translate(0,-512.36)">
  <rect x=".5" y="512.86" width="359" height="539" rx="29.944" fill="#fff" stroke="#000"/>
  <g fill="#f55">
   <path d="m20 542.36v50h10c5.54 0 10-4.46 10-10v-10c0-3-1.323-5.67-3.406-7.5 2.083-1.83 3.406-4.496 3.406-7.5v-5c0-5.54-4.46-10-10-10h-5zm5 5h5c2.77 0 5 2.23 5 5v5c0 2.77-2.23 5-5 5h-5zm0 20h5c2.77 0 5 2.23 5 5v10c0 2.77-2.23 5-5 5h-5z"/>
   <path d="m340 1022.4v-50h-10c-5.54 0-10 4.46-10 10v10c0 3 1.323 5.67 3.406 7.5-2.083 1.83-3.406 4.496-3.406 7.5v5c0 5.54 4.46 10 10 10h5zm-5-5h-5c-2.77 0-5-2.23-5-5v-5c0-2.77 2.23-5 5-5h5zm0-20h-5c-2.77 0-5-2.23-5-5v-10c0-2.77 2.23-5 5-5h5z"/>
  </g>
  <g transform="translate(0,512.36)" fill="none" stroke="#000" stroke-linecap="square" stroke-width="2">
   <path d="m50 30h280v380"/>
   <path d="m310 510h-280v-380"/>
   <path d="m30 270h300"/>
  </g>
  <g fill="#f55">
   <path d="m80 552.36s8 13.333 17.333 22.667c9.333 9.333 22.667 17.333 22.667 17.333s-13.333 8-22.667 17.333c-9.333 9.34-17.333 22.67-17.333 22.67s-8-13.333-17.333-22.667c-9.333-9.33-22.667-17.33-22.667-17.33s13.333-8 22.667-17.333c9.333-9.34 17.333-22.67 17.333-22.67"/>
   <path d="m30 602.36s3 5 6.5 8.5 8.5 6.5 8.5 6.5-5 3-8.5 6.5-6.5 8.5-6.5 8.5-3-5-6.5-8.5-8.5-6.5-8.5-6.5 5-3 8.5-6.5 6.5-8.5 6.5-8.5"/>
   <path d="m280 1012.4s-8-13.223-17.333-22.479-22.667-17.19-22.667-17.19 13.333-7.934 22.667-17.19c9.33-9.3 17.33-22.52 17.33-22.52s8 13.223 17.333 22.479 22.667 17.19 22.667 17.19-13.333 7.934-22.667 17.19c-9.33 9.26-17.33 22.52-17.33 22.52"/>
   <path d="m330 962.36s-3-5-6.5-8.5-8.5-6.5-8.5-6.5 5-3 8.5-6.5 6.5-8.5 6.5-8.5 3 5 6.5 8.5 8.5 6.5 8.5 6.5-5 3-8.5 6.5-6.5 8.5-6.5 8.5"/>
  </g>
  <g transform="matrix(.99307 0 0 1 -.325 0)">
   <path id="ii" d="m171.12 689.26c0.847 5.504 3.44 10.594 5.02 15.933 1.163 3.921 2.109 7.904 3.285 11.821 5.058-0.565 10.132-0.945 15.21-1.25 4.317-0.259 8.641-0.447 12.966-0.493 2.952-0.031 5.904 0.053 8.854 0.151 2.293 0.077 4.597-9e-3 6.875 0.341 0.306-0.489 0.243-1.465 0.317-2.203 0.291-2.898 0.422-5.812 0.501-8.723 0.096-3.523 0.392-7.07-0.029-10.572-0.205-1.704-0.806-3.338-1.208-5.01-2.777-0.387-5.527-1.028-8.326-1.228-4-0.285-8.02 0.027-12.03 0.051-4.856 0.03-9.714-3e-3 -14.569 0.116-2.59 0.064-5.179 0.162-7.765 0.321-3.039 0.186-6.066 0.535-9.105 0.74z" fill="#fa5" stroke="#000" stroke-linecap="round" stroke-linejoin="round"/>
   <path id="ij" d="m173.06 695.63c4.849-0.619 9.712-1.167 14.594-1.365 6.345-0.257 12.699 0.169 19.05 0.234 4.777 0.049 9.561-0.167 14.33 0.117 0.925 0.055 1.841 0.205 2.762 0.307" fill="none" stroke="#000" stroke-linecap="round" stroke-linejoin="round"/>
   <path id="ik" transform="translate(0,512.36)" d="m226.63 188.39a3.0936 3.3588 0 1 1 -6.1872 0 3.0936 3.3588 0 1 1 6.1872 0z" fill="#a00" stroke="#000" stroke-linecap="round" stroke-linejoin="round"/>
   <path id="il" d="m176.78 707.47c6.202-1.538 12.136-1.24 18.228-1.438 4.01-0.13 8.03 0.011 12.04 0.167 5.709 0.222 11.435 0.296 17.11 1.094" fill="none" stroke="#000" stroke-linecap="round" stroke-linejoin="round"/>
   <path id="in" d="m179.07 714.19c9.36-0.998 18.761-1.686 28.17-1.911 5.341-0.128 10.684 0.221 16.02 0.32" fill="none" stroke="#000" stroke-linecap="round" stroke-linejoin="round"/>
   <path id="io" transform="translate(0,512.36)" d="m178.19 197.41s1.052-1.685 1.768-1.612c0.701-0.165 2.546 4.286 3.255 4.307 0.833 0.023 2.592-4.839 3.109-4.639 0.951-0.188 3.6 4.682 4.243 4.087 0.657 0.402 3.819-4.531 4.534-4.4 0.476-0.085 2.89 4.133 3.682 3.984 1 0.046 2.941-4.154 3.628-4.202 0.837-0.106 3.742 3.752 4.389 3.734 0.971 0.244 3.866-3.577 4.273-3.557 0.767 0.014 3.356 3.788 4.066 3.712 0.674 0.045 3.09-3.436 3.889-3.182 0.857-0.248 4.243 3.01 4.243 3.01" fill="none" stroke="#000" stroke-linecap="round" stroke-linejoin="round"/>
   <path id="ip" transform="translate(0,512.36)" d="m181.02 189.54a3.7123 3.8007 0 1 1 -7.4246 0 3.7123 3.8007 0 1 1 7.4246 0z" fill="#a00" stroke="#000" stroke-linecap="round" stroke-linejoin="round"/>
   <path id="iq" transform="translate(-.25 511.36)" d="m193.57 189.01a3.2704 3.2704 0 1 1 -6.5407 0 3.2704 3.2704 0 1 1 6.5407 0z" fill="#005" stroke="#000" stroke-linecap="round" stroke-linejoin="round"/>
   <path id="ir" transform="translate(-1,511.86)" d="m207.01 188.21a3.6239 3.5355 0 1 1 -7.2478 0 3.6239 3.5355 0 1 1 7.2478 0z" fill="#a00" stroke="#000" stroke-linecap="round" stroke-linejoin="round"/>
   <path id="is" transform="translate(-.25 511.86)" d="m217.26 188.74a3.182 3.182 0 1 1 -6.364 0 3.182 3.182 0 1 1 6.364 0z" fill="#005" stroke="#000" stroke-linecap="round" stroke-linejoin="round"/>
   <path id="a" transform="translate(0,512.36)" d="m221.68 68.54c0.43 0.714 0.294 1.644 0.354 2.475 0.054 0.764-0.076 1.536 0 2.298 0.03 0.299 0.074 0.601 0.177 0.884 0.252 0.694 0.856 1.235 1.061 1.945 0.262 0.908 0.219 1.885 0.177 2.828-0.035 0.774-0.09 1.569-0.354 2.298-0.233 0.646-0.759 1.15-1.061 1.768-0.36 0.738-0.734 1.491-0.884 2.298-0.161 0.869-0.216 1.795 0 2.652 0.213 0.844 0.892 1.499 1.237 2.298 0.591 1.368 1.04 2.8 1.414 4.243 0.241 0.929 0.282 1.902 0.53 2.828 0.275 1.026 0.716 2 1.061 3.01 0.302 0.881 0.735 1.732 0.884 2.652 0.123 0.756 0.15 1.547 0 2.298s-0.391 1.535-0.884 2.121c-0.495 0.588-1.222 0.977-1.945 1.237-0.447 0.161-0.941 0.224-1.414 0.177-0.927-0.092-2.652-0.884-2.652-0.884s0.705 1.977 0.884 3.01c0.172 0.989 0.416 2.031 0.177 3.01-0.164 0.667-0.548 1.31-1.061 1.768-0.531 0.474-1.254 0.708-1.945 0.884-0.802 0.204-2.475 0.177-2.475 0.177s1.39 0.761 1.768 1.414c0.388 0.671 0.364 1.523 0.354 2.298-9e-3 0.659 0.057 1.429-0.354 1.945-0.28 0.351-0.791 0.489-1.237 0.53-0.541 0.05-1.136-0.65-1.591-0.354-0.504 0.328-0.422 1.171-0.354 1.768 0.081 0.707 0.733 1.249 0.884 1.945 0.125 0.576 0.02 1.179 0 1.768-0.03 0.885-0.025 1.779-0.177 2.652-0.147 0.845-0.347 1.696-0.707 2.475-0.357 0.771-0.765 1.574-1.414 2.121-0.887 0.748-2.106 0.98-3.182 1.414-0.64 0.258-1.265 0.587-1.945 0.707-0.348 0.061-0.782-0.218-1.061 0-1.149 0.897-0.645 2.845-1.061 4.243-0.462 1.554-0.863 3.148-1.591 4.596-0.705 1.402-1.731 2.619-2.652 3.889-0.617 0.85-1.128 1.81-1.923 2.496-0.722 0.622-2.496 1.393-2.496 1.393s-3.249-0.33-5.48-2.121c-1.619-1.299-3.367-2.434-5.127-3.536-1.32-0.826-2.772-1.432-4.066-2.298-0.872-0.584-1.703-1.234-2.475-1.945-0.828-0.763-1.631-1.568-2.298-2.475-0.563-0.766-0.78-1.767-1.414-2.475-0.535-0.597-1.512-0.739-1.945-1.414-0.162-0.253-0.177-0.884-0.177-0.884s0.897-1.233 0.884-1.945c-1e-3 -0.527-0.447-0.956-0.707-1.414-0.379-0.669-0.89-1.259-1.237-1.945-0.514-1.015-0.918-2.09-1.237-3.182-0.253-0.865-0.442-1.755-0.53-2.652-0.064-0.645-0.157-1.316 0-1.945 0.243-0.972 0.656-1.997 1.414-2.652 0.663-0.572 1.635-0.635 2.475-0.884 1.22-0.362 2.644-0.194 3.712-0.884 1.376-0.889 2.162-2.484 3.01-3.889 0.665-1.108 1.242-2.291 1.591-3.536 0.257-0.915 0.295-1.88 0.354-2.828 0.084-1.353 0.064-2.712 0-4.066-0.059-1.242-0.011-2.517-0.354-3.712-0.218-0.76-0.927-1.342-1.061-2.121-0.241-1.405-0.166-2.999 0.53-4.243 0.553-0.988 1.859-1.313 2.652-2.121 0.677-0.69 1.01-1.697 1.768-2.298 0.558-0.443 1.432-0.39 1.945-0.884 0.949-0.914 1.402-2.27 1.768-3.536 0.329-1.138 0.265-2.354 0.354-3.536 0.088-1.177 0.147-2.356 0.177-3.536 0.024-0.943 0-1.886 0-2.828 0-1.179 0.083-2.36 0-3.536-0.059-0.831-0.267-1.646-0.354-2.475-0.092-0.881-0.177-2.652-0.177-2.652s4.265-0.851 6.364-1.414c1.134-0.304 2.218-0.783 3.359-1.061 1.337-0.326 2.702-0.53 4.066-0.707 1.349-0.176 2.712-0.22 4.066-0.354 1.062-0.105 2.115-0.365 3.182-0.354 0.892 1e-3 1.781 0.161 2.652 0.354 0.964 0.213 1.943 0.446 2.828 0.884 1.099 0.543 2.01 1.407 3.01 2.121 0.651 0.467 1.531 0.728 1.945 1.414z" fill="#faa" stroke="#000" stroke-linecap="round" stroke-linejoin="round"/>
   <path id="b" d="m219.87 590.49c0.689 0.519 0.245 1.518 0.186 2.23-0.182 1.105-1.075 1.341-2.138 1.625-1.696 0.557-3.376-0.04-4.909-0.797-1.473-0.566-2.893-1.261-4.579-1.045-0.991 0.187-1.95 0.595-2.978 0.535-1.384 0.012-2.534 0.931-3.872 1.164-0.96 0.028-1.253 1.495-2.21 1.287-0.22-0.657 0.311-1.409 0.664-1.973 0.77-1.106 1.913-2.02 3.29-2.171 1.273-0.176 1.827-0.465 3.045-0.923 0.986-0.248 2.742-0.405 3.775-0.277 1.724 0.348 3.239 1.292 4.833 1.984 1.013 0.352 2.209 0.272 3.062-0.423 0.622-0.353 1.151-0.878 1.749-1.236l0.081 0.02z" fill="#fa5" stroke="#000" stroke-linecap="round" stroke-linejoin="round"/>
   <path id="im" d="m198 601.24c0.735-0.648 1.937 0.388 2.917 0.368 0.814-0.016 1.628-0.176 2.41-0.403 1.503-0.436 2.82-1.4 4.326-1.827 0.549-0.156 1.123-0.204 1.691-0.261 0.873-0.088 1.752-0.11 2.629-0.128 0.855-0.018 1.734-0.181 2.565 0.019 0.439 0.105 0.762 0.574 1.212 0.606 0.263 0.019 0.58-0.451 0.75-0.25 0.457 0.541-0.649 1.26-1 1.875-0.368 0.644-0.643 1.367-1.16 1.899-0.857 0.882-1.986 1.476-3.094 2.01-0.543 0.261-1.137 0.406-1.717 0.571-0.352 0.1-0.704 0.289-1.068 0.254-0.816-0.078-1.549-0.574-2.243-1.01-0.662-0.416-1.139-1.083-1.793-1.51-0.689-0.451-1.425-0.865-2.216-1.093-1.154-0.332-2.523 0.195-3.583-0.37-0.287-0.153-0.514-0.444-0.625-0.75z" fill="#fff" stroke="#000" stroke-linecap="round" stroke-linejoin="round"/>
   <path id="kx" transform="translate(0,512.36)" d="m213.12 89.812a2.6875 3.0625 0 1 1 -5.375 0 2.6875 3.0625 0 1 1 5.375 0z" fill="#aaa" stroke="#000"/>
   <path id="lu" transform="translate(0,512.36)" d="m211.62 89.312a0.6875 0.9375 0 1 1 -1.375 0 0.6875 0.9375 0 1 1 1.375 0z" stroke="#000" stroke-linecap="round" stroke-linejoin="round"/>
   <path id="lv" d="m213.62 615.74c-0.605 0.69-1.309 1.428-1.364 2.397-0.079 1.052 0.56 2.118 1.544 2.516 0.824 0.389 1.742 0.555 2.647 0.58 0.523 5e-3 0.754-0.48 0.94-0.88 0.302-0.452 0.904-0.39 1.37-0.311 0.211 0.043 0.417 0.11 0.613 0.198" fill="none" stroke="#000" stroke-linecap="round" stroke-linejoin="round"/>
   <path id="lw" d="m216.91 621.38c-0.335 0.429-1.065 0.228-1.583 0.394-0.587 0.189-1.122 0.527-1.719 0.682-0.852 0.22-1.879-0.138-2.62 0.338-1 0.644-1.121 2.12-1.886 3.03-0.334 0.398-0.694 0.81-1.159 1.042-0.374 0.187-0.812 0.227-1.23 0.241-0.434 0.015-0.913 0.048-1.294-0.162-0.367-0.202-0.377-0.987-0.795-0.972-0.305 1e-3 -0.455 0.452-0.53 0.748-0.097 0.382-7e-3 0.808 0.138 1.174 0.083 0.208 0.22 0.406 0.4 0.54 0.637 0.475 1.46 0.669 2.242 0.811 0.956 0.173 1.947 0.124 2.913 0.033 0.35-0.033 0.702-0.096 1.035-0.209 0.533-0.181 1.063-0.408 1.517-0.741 0.61-0.447 0.914 0.854 1.565-1.644 0.123-0.472 0.943-0.252 1.415-0.373 0.437-0.111 0.866-0.264 1.313-0.323 0.61-0.08 1.231-5e-3 1.845-0.037 0.509-0.026 1.124 0.19 1.525-0.125 0.361-0.284 0.416-0.85 0.434-1.309 0.04-1.017-0.398-2-0.728-2.964-0.145-0.424-0.247-0.896-0.548-1.229-0.138-0.153-0.331-0.289-0.537-0.306-0.303-0.024-0.606 0.143-0.854 0.319-0.366 0.26-0.708 0.615-0.861 1.037z" fill="#fa5" stroke="#000" stroke-linecap="round" stroke-linejoin="round"/>
   <path id="lx" d="m220.25 625.99c-0.483-0.225-0.949-0.506-1.442-0.697-0.55-0.071-1.104-0.184-1.653-0.23-0.702 0.239-1.428 0.44-2.116 0.702-0.576 0.584-1.129 1.198-1.72 1.764-0.713 0.47-1.407 0.977-2.132 1.423-0.479 0.18-0.958 0.359-1.436 0.539-0.281-0.052-0.566-0.157-0.844-0.176-0.126 0.101-0.575 0.085-0.401 0.294 0.094 0.202 0.197 0.391 0.45 0.368 0.244 0.034 0.488 0.07 0.671 0.251 0.487 0.364 1.025 0.658 1.51 1.02 0.431 0.413 0.906 0.786 1.234 1.292 0.332 0.438 0.692 0.859 0.919 1.365 0.077 0.228 0.252 0.37 0.453 0.49 0.398 0.282 0.796 0.564 1.195 0.846h1.375l0.938-0.938c1e-4 -0.71 0.023-1.421-0.09-2.124-1e-3 -0.453-0.296-0.832-0.446-1.248-0.15-0.358-0.295-0.72-0.567-1.01-0.708-0.338-1.672-0.297-1.897-0.56 0.7 0.066 2.663-0.127 3.354-0.288 0.302-0.065 0.635-0.076 0.918-0.175 0.524-0.605 1.054-1.204 1.603-1.787 0.042-0.375 0.083-0.75 0.125-1.125z" fill="#f55" stroke="#000" stroke-linecap="round" stroke-linejoin="round"/>
   <path id="ly" transform="translate(0,512.36)" d="m200.06 89 1.438-0.438 1.5-0.625 1.875-1.625 1.563-0.938 2.313-0.688 1.5-0.25 1.375 0.188 1.188 0.438 1.313 1.25 1.188 0.375 1 0.313" fill="none" stroke="#000"/>
   <path id="lz" d="m221.69 597.74c0.089-0.492 1.01 0.089 1.5 0 0.353-0.064 0.661-0.289 1.01-0.376 0.303-0.076 0.77-0.393 0.928-0.124 0.105 0.18-0.2 0.387-0.375 0.5-0.334 0.215-0.772 0.186-1.163 0.255-0.298 0.052-0.599 0.154-0.899 0.12-0.354-0.04-1.064-0.025-1-0.375z" fill="none" stroke="#000" stroke-linecap="round" stroke-linejoin="round"/>
   <path id="ma" transform="translate(0,512.36)" d="m219.2 69.774 0.884 1.591 1.061 1.061 0.988 1.768" fill="none" stroke="#000" stroke-linecap="round" stroke-linejoin="round"/>
   <path id="mb" d="m189.01 644.8c0.628 1.121 1.766 1.817 2.871 2.39 1.896 0.983 4.104 1.198 6.189 1.662 1.541 0.343 3.091 0.681 4.663 0.827 1.123 0.105 2.804 0.1 3.384 0.036" fill="none" stroke="#000" stroke-linecap="round" stroke-linejoin="round"/>
   <path id="mc" d="m191.75 649.61c2.184 1.167 4.627 1.71 7.05 2.111 1.025 0.17 2.078 0.037 3.114 0.116 0.989 0.076 1.963 0.351 2.955 0.342 0.172-2e-3 0.341-0.043 0.511-0.069" fill="none" stroke="#000" stroke-linecap="round" stroke-linejoin="round"/>
   <path id="md" d="m193.37 652.49c1.717 0.605 3.574 0.694 5.38 0.897 1.989 0.224 4.02-0.023 5.995 0.353" fill="none" stroke="#000" stroke-linecap="round" stroke-linejoin="round"/>
   <path id="me" d="m193.87 655.11c1.823 0.608 3.769 0.69 5.671 0.914 1.479 0.175 3.038-0.274 4.454 0.336" fill="none" stroke="#000" stroke-linecap="round" stroke-linejoin="round"/>
   <path id="mf" d="m195.75 657.74c2.615 0.357 5.246 0.239 7.875 0.25" fill="none" stroke="#000" stroke-linecap="round" stroke-linejoin="round"/>
   <path id="mg" d="m196.97 659.67c1.294 0.322 2.314 0.388 3.483 0.459 0.557 0.034 1.454-1e-3 1.673-0.017" fill="none" stroke="#000" stroke-linecap="round" stroke-linejoin="round"/>
   <path id="mh" d="m198.25 661.99c0.875 0.083 1.75 0.167 2.625 0.25" fill="none" stroke="#000" stroke-linecap="round" stroke-linejoin="round"/>
   <path id="mi" transform="translate(0,512.36)" d="m145.66 94.5c-1.031 0.991-1.184 2.741-2.32 3.609-1.36 1.04-3.286 0.971-4.898 1.547-0.872 0.311-1.826 0.492-2.578 1.031-0.644 0.461-1.031 1.203-1.547 1.805s-0.877 1.381-1.547 1.805c-0.828 0.524-1.958 0.338-2.836 0.773-1.262 0.627-2.422 1.518-3.352 2.578-1.244 1.419-2.471 3.047-2.836 4.898-0.369 1.872 0.457 3.79 0.773 5.672 0.145 0.864 0.208 1.757 0.516 2.578 0.243 0.649 1.379 1.205 1.031 1.805-0.431 0.743-1.723-0.085-2.578 0-1.308 0.13-2.653 0.27-3.867 0.773-0.859 0.356-1.523 1.068-2.32 1.547-1.088 0.653-2.187 1.301-3.352 1.805-0.249 0.108-0.508 0.199-0.773 0.258-1.436 0.32-2.921 0.348-4.383 0.516-0.773 0.088-1.647-0.133-2.32 0.258-1.01 0.587-1.664 1.737-2.063 2.836-0.44 1.215-0.269 2.575-0.258 3.867 9e-3 1.035-0.178 2.155 0.258 3.094 0.511 1.103 1.544 1.939 2.578 2.578 0.925 0.571 2.106 0.577 3.094 1.031 0.911 0.419 1.634 1.212 2.578 1.547 0.573 0.203 1.197 0.258 1.805 0.258s1.221-0.09 1.805-0.258c0.813-0.234 1.665-0.496 2.32-1.031 0.573-0.467 0.632-1.466 1.289-1.805 0.458-0.236 1.064-0.181 1.547 0 0.855 0.321 1.365 1.215 2.063 1.805 0.932 0.789 1.673 1.948 2.836 2.32 1.231 0.394 2.6-9e-3 3.867-0.258 0.8-0.157 1.704-0.239 2.32-0.773 0.581-0.504 0.435-1.577 1.031-2.063 1.034-0.843 2.809-1.844 3.867-1.031 0.681 0.524 0 1.719 0 2.578 0 1.031-0.237 2.09 0 3.094 0.353 1.496 0.951 3.063 2.063 4.125 0.612 0.585 1.531 0.725 2.32 1.031 0.76 0.295 1.693 0.253 2.32 0.773 0.681 0.565 1.067 1.464 1.289 2.32 0.216 0.832-0.221 1.748 0 2.578 0.178 0.67 0.528 1.329 1.031 1.805 0.977 0.924 2.549 0.977 3.609 1.805 0.625 0.488 1.2 1.092 1.547 1.805 0.575 1.182 0.192 2.688 0.773 3.867 0.404 0.819 1.036 1.568 1.805 2.063 0.755 0.485 1.69 0.643 2.578 0.773 0.765 0.112 1.563 0.156 2.32 0 0.641-0.132 1.263-0.407 1.805-0.773 0.704-0.477 1.424-1.044 1.805-1.805 0.544-1.087 0.354-2.405 0.516-3.609 0.092-0.687-0.262-1.604 0.258-2.063 0.451-0.398 1.237 0.199 1.805 0 1.038-0.364 1.992-1.131 2.578-2.063 0.61-0.971 0.87-2.209 0.773-3.352-0.094-1.113-1.469-1.991-1.289-3.094 0.147-0.902 1.14-1.435 1.805-2.063 0.713-0.673 1.85-0.945 2.32-1.805 0.455-0.833 0.215-1.888 0.258-2.836 0.039-0.858-0.153-1.733 0-2.578 0.131-0.722 0.773-1.328 0.773-2.063 0-0.734-1.015-1.369-0.773-2.063 0.165-0.473 0.943-0.411 1.289-0.773 0.438-0.459 0.78-1.053 0.902-1.676 0.159-0.805 0.029-1.68-0.258-2.449-0.42-1.128-1.591-1.857-2.063-2.965-0.429-1.01-0.463-2.142-0.645-3.223-0.158-0.941-0.475-1.886-0.387-2.836 0.076-0.812 0.221-1.72 0.773-2.32 0.443-0.482 1.202-0.518 1.805-0.773 0.815-0.346 1.625-0.708 2.449-1.031 0.936-0.367 2.028-0.432 2.836-1.031 0.863-0.64 1.34-1.683 1.934-2.578 0.66-0.995 1.3-2.01 1.805-3.094 0.483-1.035 0.978-2.096 1.16-3.223 0.267-1.655-0.2-3.353-0.129-5.03 0.033-0.777 0.323-1.545 0.258-2.32-0.079-0.935-0.456-1.824-0.773-2.707-0.254-0.706-0.822-1.316-0.902-2.063-0.071-0.654 0.173-1.312 0.387-1.934 0.281-0.818 0.569-1.689 1.16-2.32 0.408-0.435 1.074-0.538 1.547-0.902 0.529-0.408 0.918-0.974 1.418-1.418 0.777-0.691 1.762-1.153 2.449-1.934 0.662-0.752 1.205-1.636 1.547-2.578 0.282-0.777 0.322-1.625 0.387-2.449 0.168-2.142-0.069-4.298 0-6.445 0.043-1.334 0.278-2.661 0.258-3.996-0.014-0.906-0.183-1.804-0.258-2.707-0.05-0.601-0.07-1.204-0.129-1.805-0.068-0.69-0.258-2.063-0.258-2.063s-2.956 0.661-4.383 1.16c-1.108 0.388-2.101 1.071-3.223 1.418-1.337 0.413-2.782 0.383-4.125 0.773-1.555 0.452-3.067 1.072-4.512 1.805-1.446 0.734-2.769 1.69-4.125 2.578-1.525 0.999-3.042 2.01-4.512 3.094-0.617 0.453-1.185 0.969-1.805 1.418-0.878 0.636-1.822 1.178-2.707 1.805-0.702 0.496-1.348 1.07-2.063 1.547-0.913 0.61-1.931 1.054-2.836 1.676-1.084 0.744-2.15 1.533-3.094 2.449-0.766 0.743-1.382 1.627-2.063 2.449-0.565 0.683-1.083 1.405-1.676 2.063-0.407 0.451-0.808 0.917-1.289 1.289-0.67 0.519-1.58 0.702-2.191 1.289z" fill="#fa5" stroke="#000"/>
   <path id="it" d="m187.04 581.34c1.158 4.152 0.949 8.565 0.146 12.734-0.375 1.947-1.342 3.746-2.273 5.497-1.559 2.932-4.525 5.131-5.501 8.305-0.998 3.247 0.352 6.826-0.117 10.19-0.341 2.444-0.48 5.156-1.943 7.143-1.064 1.445-3.01 1.953-4.541 2.89-1.165 0.714-2.601 1.081-3.53 2.083-1.485 1.601-2.777 3.695-2.896 5.875-0.115 2.112 1.925 3.863 2.169 5.964 0.218 1.875-0.398 3.754-0.666 5.623-0.322 2.245 1.046 4.986-1.131 6.71-4.566 3.618-3.375 3.383-5.959 4.162-3.03 0.913-6.489 0.517-9.263 2.034-1.594 0.872-2.982 2.259-3.856 3.851-0.924 1.684-1.308 3.744-1.245 5.628" fill="none" stroke="#000" stroke-linecap="round" stroke-linejoin="round"/>
   <path id="iu" d="m171.45 654.26c-1.572 2.098-3.376 4.19-5.666 5.478-2.381 1.34-5.301 1.327-7.927 2.079-1.778 0.509-3.783 0.587-5.298 1.648-1.364 0.956-2.658 2.354-3.02 3.979-0.367 1.63-0.067 3.361 1.031 4.906" fill="none" stroke="#000" stroke-linecap="round" stroke-linejoin="round"/>
   <path id="iv" d="m167.08 663.97c-3.398 1.419-7.28 0.99-10.703 2.242-1.316 0.481-3.136 0.713-3.699 1.995-1.09 2.481 1.331 5.467 2 7.88 0.402 1.451 3.08 1.858 4.381 1.099 1.875-1.095 0.365-4.59 1.727-6.281 1.108-1.376 5.131-0.753 4.692-2.464-0.781-3.044-6.34-0.596-9.427 0.177-1.33 0.333-0.178 3.858 1.19 3.937 0.985 0.057 0.799-2.375 1.18-2.714" fill="none" stroke="#000" stroke-linecap="round" stroke-linejoin="round"/>
   <path id="iw" d="m144.38 663.51c0.744-2.354 2.731-3.941 4.74-5.104 2.629-1.523 6.04-0.963 8.879-2.057 1.608-0.621 3.406-1.203 4.514-2.523 1.381-1.644 2.041-3.935 2.123-6.081 0.063-1.652-0.983-3.167-1.273-4.794-0.318-1.787 0.226-3.761-0.507-5.422-0.655-1.484-2.523-2.161-3.272-3.6-0.509-0.977-0.94-2.142-0.729-3.223 0.31-1.593 1.795-2.707 2.778-3.999 0.741-0.973 1.425-2.02 2.346-2.822 2.294-2.01 6.01-2.352 7.747-4.857 1.229-1.774 1.128-4.193 1.293-6.345 0.215-2.805-1.269-5.754-0.402-8.43 1-3.096 4.487-4.798 6.096-7.627 0.672-1.182 1.251-2.47 1.435-3.817 0.4-2.911-0.69-5.832-0.765-8.783" fill="none" stroke="#000" stroke-linecap="round" stroke-linejoin="round"/>
   <path id="ix" d="m183.76 582.75c-0.455 2.44-0.018 4.931-0.399 7.357-0.382 2.43-0.904 4.878-1.88 7.136-1.307 3.02-4.288 5.228-5.237 8.383-1.194 3.97 0.807 8.445-0.325 12.433-0.66 2.324-1.862 4.637-3.648 6.265-2.154 1.964-6.134 1.39-7.931 3.686-1.099 1.404-1.388 3.505-1.024 5.251 0.331 1.585 1.835 2.671 2.761 3.998" fill="none" stroke="#000" stroke-linecap="round" stroke-linejoin="round"/>
   <path id="iy" d="m175.19 586.04c0.11 2.707 0.731 5.62-0.177 8.198-0.96 2.725-3.295 4.775-5.284 6.871-1.946 2.052-4.825 3.199-6.444 5.518-1.082 1.55-1.094 3.644-1.977 5.316-1.431 2.71-2.969 5.528-5.31 7.506-1.846 1.561-4.637 1.647-6.536 3.143-1.48 1.166-3.24 2.524-3.574 4.378-0.542 3.01 1.699 5.909 2.967 8.697 0.873 1.919 2.373 3.521 3.169 5.474 0.657 1.611 1.934 3.443 1.288 5.058-1.145 2.865-4.874 4.068-7.839 4.922-2.219 0.639-5.092-1.402-6.927 0-0.551 0.421-0.365 1.337-0.547 2.01" fill="none" stroke="#000" stroke-linecap="round" stroke-linejoin="round"/>
   <path id="iz" d="m172.09 605c-1.956 1.12-3.561 2.66-4.953 4.364-1.377 1.686-1.913 3.946-3.251 5.662-3.01 3.859-6.894 6.956-10.565 10.191-0.845 0.744-2.259 1.054-2.633 2.117-0.91 2.587 0.948 5.419 1.773 8.04 0.791 2.509 2.608 4.692 3.03 7.289 0.337 2.084 0.335 4.362-0.462 6.318-0.573 1.407-1.65 2.681-2.94 3.483-3.152 1.959-8.188 0.044-10.807 2.672-1.633 1.639-1.251 4.444-1.641 6.745" fill="none" stroke="#000" stroke-linecap="round" stroke-linejoin="round"/>
   <path id="ja" d="m172.82 611.38c-1.451 0.794-2.639 1.865-3.829 2.952-2.346 2.143-4.217 4.76-6.479 6.992-1.506 1.486-3.257 2.718-4.714 4.253-1.106 1.164-2.619 2.187-3.038 3.736-0.453 1.675 0.267 3.493 0.801 5.145 0.982 3.035 3.764 5.391 4.343 8.528 0.368 1.997 0.048 4.15-0.647 6.06-0.591 1.621-1.5 3.272-2.89 4.295-1.166 0.859-2.772 0.839-4.162 1.246-2.118 0.62-4.543 0.578-6.365 1.823-1.212 0.829-2.01 2.193-2.668 3.506-0.531 1.061-0.652 2.281-0.978 3.422" fill="none" stroke="#000" stroke-linecap="round" stroke-linejoin="round"/>
   <path id="jb" d="m171.36 588.04c-0.528 2.284-0.771 4.688-1.906 6.722-1.69 3.03-5.771 4.445-7.03 7.68-0.656 1.689 0 3.977 0 5.436" fill="none" stroke="#000" stroke-linecap="round" stroke-linejoin="round"/>
   <path id="jc" d="m163.89 592.23c-0.936 2.838-4.275 6.405-5.183 9.249-0.908 2.843 0.617 4.963-0.489 7.734-0.792 1.984-1.278 4.223-2.714 5.805-2.088 2.299-5.626 2.763-8.02 4.74-2.656 2.191-6.536 4.304-6.849 7.733-0.188 2.059 2.517 3.361 3.206 5.31 0.505 1.428 0.969 3.03 0.617 4.501-0.326 1.365-1.226 2.686-2.395 3.462-2.105 1.398-4.995 0.843-7.419 1.555-2.097 0.616-4.091 1.541-6.126 2.341-2.475 0.974-5.786 0.876-7.396 2.994-0.777 1.021-0.031 2.264-0.438 3.824" fill="none" stroke="#000" stroke-linecap="round" stroke-linejoin="round"/>
   <path id="jd" d="m155.87 597.55c-1.596 4.307-1.179 10.17-4.01 14.186-2.156 3.057-6.233 4.157-9.147 6.502-2.486 2-5.597 3.616-7.086 6.44-0.819 1.552-0.936 3.473-0.721 5.215 0.279 2.261 2.337 4.071 2.552 6.339 0.179 1.888-0.445 3.709-1.094 5.584" fill="none" stroke="#000" stroke-linecap="round" stroke-linejoin="round"/>
   <path id="je" d="m150.76 602.84c-0.51 1.517-0.426 3.964-1.477 5.574-3.171 4.855-9.186 7.088-13.607 10.841-1.575 1.338-3.687 2.303-4.599 4.158-1.509 3.067-1.849 6.967-0.805 10.222 0.42 1.31 2.263 1.84 2.655 3.158 0.365 1.227 0.082 2.654-0.462 3.813-0.724 1.541-3.046 3.122-3.509 3.71" fill="none" stroke="#000" stroke-linecap="round" stroke-linejoin="round"/>
   <path id="jf" d="m126.15 634.89c1.647 0.615 1.978 2.357 1.641 3.646-0.702 2.684-4.304 3.538-6.693 4.948-1.508 0.89-3.626 0.868-4.776 2.189-0.753 0.864-1.196 2.165-0.99 3.292 0.328 1.789 2.341 3.062 3.322 4.327" fill="none" stroke="#000" stroke-linecap="round" stroke-linejoin="round"/>
   <path id="jg" d="m127.77 637.8c-1.384 0.361-3.571-0.028-5.211 0.575-1.386 0.51-2.349 1.822-3.67 2.483-2.234 1.117-5.307 0.691-7.084 2.447-1.186 1.171-1.783 3.041-1.691 4.705 0.101 1.81 1.201 3.52 2.396 4.884 0.811 0.926 2.049 1.366 3.073 2.049" fill="none" stroke="#000" stroke-linecap="round" stroke-linejoin="round"/>
   <path id="jh" d="m144.42 635.11c1.072 1.49 2.554 4.46 1.657 6.513-0.786 1.8-3.328 2.154-5.178 2.815-2.609 0.932-5.649 0.395-8.166 1.554-2.129 0.981-5.101 2.085-5.489 4.398-0.226 1.347 1.12 2.612 2.188 3.464 0.856 0.683 2.066 0.729 3.099 1.094" fill="none" stroke="#000" stroke-linecap="round" stroke-linejoin="round"/>
   <path id="ji" d="m135.27 652.21c-1.046-1.784 0.74-1.909 1.493-2.539 1.564-1.309 3.843-1.369 5.738-2.124 2.106-0.839 4.559-1.167 6.254-2.671 1-0.891 1.816-2.161 2.01-3.49 0.185-1.267-0.884-2.728-0.884-3.739" fill="none" stroke="#000" stroke-linecap="round" stroke-linejoin="round"/>
   <path id="jj" d="m161.22 593.8c2.421-1.715 4.723-3.62 7.22-5.212 2.687-1.349 5.301-2.871 8.03-4.111 5.856-1.872 11.666-3.898 17.628-5.417 2.543-0.748 5.102-1.422 7.736-1.753 2.505-0.382 4.989-1.02 7.541-0.832 1.995 0.067 4.04-0.25 5.954 0.447 1.206 0.354 2.59 0.374 3.403 1.467 0.862 0.776 1.725 1.552 2.587 2.329 0.912-1.531 2.269-2.859 2.532-4.686 0.328-1.252 0.854-2.486 0.522-3.796-0.166-0.798 0.013-1.893-0.363-2.512-4.245-1.027-8.481-2.189-12.731-3.131-3.242 0.43-6.524 0.639-9.74 1.211-3.966 1.01-7.97 1.87-11.948 2.811-3.095 0.93-6.118 2.06-9.107 3.281-2.374 0.568-4.672 1.359-6.902 2.351-1.339 0.591-2.778 1.039-4.057 1.716-1.512 1.582-2.941 3.229-4.091 5.098-1.633 2.122-2.359 4.75-3.555 7.118-0.534 1.113-0.994 2.257-1.383 3.429 0.24 0.064 0.48 0.128 0.72 0.191z" fill="#55a" stroke="#000" stroke-linecap="round" stroke-linejoin="round"/>
   <path id="jk" d="m175.75 579.61c-1.208 0.667-2.543 1.144-3.625 2-1.411 1.116-2.936 2.338-3.625 4-0.32 0.771-0.083 1.667-0.125 2.5" fill="none" stroke="#000" stroke-linecap="round" stroke-linejoin="round"/>
   <path id="jl" d="m167.94 542.18c-4.239 1.372-8.212 3.344-12.11 5.487-3.877 2.184-8.16 3.756-11.424 6.871-1.416 1.149-3.059 2.124-3.485 4.03-1.452 3.03-2.801 6.091-3.39 9.418-1.838 3.355-4.155 6.362-6.718 9.192-1.573 2.547-3.571 4.9-4.062 7.941-0.905 2.494-1.278 5.253-1.111 7.84 1.245 2.063 2.163 4.417 4.423 5.577 1.37 0.885 2.629 1.854 2.936 3.553 0.572 2.165 2.446 3.746 4.65 4.045 1.984 0.458 4.04 1.395 6.04 1.3 1.577-0.504 3.379-0.655 4.241-2.275 2.257-2.616 4.463-5.288 7.395-7.181 1.169-1.243 3.046-1.576 4.238-2.651 1.891-3.615 3.08-7.551 4.651-11.279 1.685-1.828 2.979-4.153 4.902-5.678 3.695-1.844 7.439-3.566 11.451-4.603 4.801-1.453 9.291-3.951 14.345-4.45 4.232-0.615 8.347-1.978 12.529-2.71 4.812 0.71 9.737 1.184 14.45 2.237 1.288 1.102 2.603 2.061 4.28 1.113 1.746-0.118 2.987-1.092 3.999-2.456 1.716-1.826 3.645-3.515 4.286-6.04 0.41-1.535 1.743-3.01 1.577-4.583-1.04-3.419-1.864-7.03-3.242-10.269-2.089-1.736-4.295-3.64-7.03-4.083-19.272-0.117-38.544-0.234-57.817-0.35z" fill="#a00" stroke="#000" stroke-linecap="round" stroke-linejoin="round"/>
   <path id="jm" d="m149.62 557.24c-3.294 2.716-6.763 5.324-9.5 8.625" fill="none" stroke="#000" stroke-linecap="round" stroke-linejoin="round"/>
   <path id="jn" d="m155.87 556.99c-5.563 2.512-10.207 6.517-14.871 10.355-1.21 0.996-2.253 2.18-3.379 3.27" fill="none" stroke="#000" stroke-linecap="round" stroke-linejoin="round"/>
   <path id="jo" d="m149.37 563.86c-3.689 3.151-8 5.505-11.593 8.757-0.922 0.835-1.688 1.828-2.532 2.743" fill="none" stroke="#000" stroke-linecap="round" stroke-linejoin="round"/>
   <path id="jp" d="m146.37 569.61c-5.226 2.928-10.14 6.487-14.218 10.829-0.733 0.78-1.183 1.786-1.782 2.671" fill="none" stroke="#000" stroke-linecap="round" stroke-linejoin="round"/>
   <path id="jq" d="m146.12 572.86c-4 2.656-8.726 4.701-11.25 9" fill="none" stroke="#000" stroke-linecap="round" stroke-linejoin="round"/>
   <path id="jr" d="m143.87 577.99c-2.615 1.841-5.622 3.459-7.494 6.074-0.424 0.592-0.504 1.367-0.756 2.051" fill="none" stroke="#000" stroke-linecap="round" stroke-linejoin="round"/>
   <path id="js" d="m152.5 579.74c-1.877 1.543-3.424 3.355-4.657 5.382-0.745 1.224-1.056 2.665-1.593 3.993" fill="none" stroke="#000" stroke-linecap="round" stroke-linejoin="round"/>
   <path id="jt" d="m171.12 563.24c-2.655 3.142-5.698 5.887-8.5 8.875-1.896 2.02-3.448 4.353-5.625 6.125" fill="none" stroke="#000" stroke-linecap="round" stroke-linejoin="round"/>
   <path id="ju" d="m170.37 567.49c-2.145 3.557-5.142 6.428-7.577 9.745-3.091 4.21-5.61 8.843-8.923 12.88-1.103 1.344-2.417 2.5-3.625 3.75" fill="none" stroke="#000" stroke-linecap="round" stroke-linejoin="round"/>
   <path id="jv" d="m180.12 563.99c-3.385 4.01-8.331 6.837-10.83 11.461-0.373 0.69-0.363 1.526-0.545 2.289" fill="none" stroke="#000" stroke-linecap="round" stroke-linejoin="round"/>
   <path id="jw" d="m185.5 564.11c-2.657 3.455-5.583 6.683-8.25 10.125" fill="none" stroke="#000" stroke-linecap="round" stroke-linejoin="round"/>
   <path id="jx" d="m190 562.11c-3.332 3.345-6.506 6.803-8.75 11" fill="none" stroke="#000" stroke-linecap="round" stroke-linejoin="round"/>
   <path id="jy" d="m196.62 558.36c-3.199 3.736-7.01 7.04-9.684 11.19-0.46 0.713-0.711 1.54-1.066 2.31" fill="none" stroke="#000" stroke-linecap="round" stroke-linejoin="round"/>
   <path id="jz" d="m200.75 557.24c-3.854 3.938-7.847 7.815-10.625 12.625" fill="none" stroke="#000" stroke-linecap="round" stroke-linejoin="round"/>
   <path id="ka" d="m204.5 557.61c-3.183 3.165-6.867 5.985-9.445 9.685-0.357 0.512-0.537 1.127-0.805 1.69" fill="none" stroke="#000" stroke-linecap="round" stroke-linejoin="round"/>
   <path id="kb" d="m210.87 555.36c-3.351 3.493-7.413 6.362-10.333 10.23-0.434 0.575-0.695 1.263-1.042 1.895" fill="none" stroke="#000" stroke-linecap="round" stroke-linejoin="round"/>
   <path id="kc" d="m215.37 553.74c-3.632 3.667-7.309 7.299-10.38 11.429-0.481 0.646-0.833 1.379-1.245 2.071" fill="none" stroke="#000" stroke-linecap="round" stroke-linejoin="round"/>
   <path id="kd" d="m218.75 554.36c-3.03 3.457-6.688 6.384-9.454 10.06-0.509 0.677-0.864 1.458-1.296 2.187" fill="none" stroke="#000" stroke-linecap="round" stroke-linejoin="round"/>
   <path id="ke" d="m222.75 553.61c-3.241 3.664-6.169 7.576-9.213 11.396-0.391 0.49-0.774 0.986-1.162 1.479" fill="none" stroke="#000" stroke-linecap="round" stroke-linejoin="round"/>
   <path id="kf" d="m226 554.61c-3.73 3.872-8.216 7.281-9.875 12.625" fill="none" stroke="#000" stroke-linecap="round" stroke-linejoin="round"/>
   <path id="kg" d="m226.5 558.99c-2.615 2.505-5.77 5.207-6.25 9" fill="none" stroke="#000" stroke-linecap="round" stroke-linejoin="round"/>
   <path id="kh" d="m231.62 560.11c-2.039 3.464-4.127 7.233-7.75 9.25" fill="none" stroke="#000" stroke-linecap="round" stroke-linejoin="round"/>
   <path id="ki" d="m156.75 550.11c2.988-0.607 5.532-2.241 8.262-3.445 3.108-1.371 6.12-2.927 9.238-4.305" fill="none" stroke="#000" stroke-linecap="round" stroke-linejoin="round"/>
   <path id="kj" d="m168.5 547.11c4.316-0.713 8.352-2.301 12.25-4.25" fill="none" stroke="#000" stroke-linecap="round" stroke-linejoin="round"/>
   <path id="kk" d="m184.5 546.36c3.255-1.918 7.05-2.233 10.25-4.25" fill="none" stroke="#000" stroke-linecap="round" stroke-linejoin="round"/>
   <path id="mj" transform="translate(0,512.36)" d="m56.21 269.5s0.858-9.652 1.414-14.464c0.409-3.543 0.814-7.091 1.414-10.607 0.486-2.848 1.153-5.662 1.768-8.485 0.566-2.598 1.135-5.196 1.768-7.778 0.551-2.249 1.015-4.528 1.768-6.718 0.292-0.849 0.839-1.605 1.061-2.475 0.615-2.409 0.395-4.958 0.707-7.425 0.284-2.249 0.433-4.539 1.061-6.718 0.746-2.587 2.152-4.937 3.182-7.425 1.214-2.932 2.257-5.934 3.536-8.839 1.423-3.232 2.9-6.448 4.596-9.546 2.262-4.131 4.881-8.06 7.425-12.02 1.148-1.788 2.53-3.432 3.536-5.303 1.15-2.14 1.206-4.909 2.828-6.718 1.62-1.807 4.328-2.215 6.364-3.536 1.978-1.282 3.529-3.23 5.657-4.243 2.194-1.044 4.918-0.642 7.07-1.768 1.11-0.581 1.734-1.865 2.828-2.475 1.4-0.781 3.192-0.641 4.596-1.414 0.952-0.524 2.475-2.121 2.475-2.121s1.252 1.615 1.981 2.326c1.612 1.572 3.84 2.495 5.25 4.25 1.284 1.598 1.616 3.792 2.75 5.5 1.275 1.92 3.216 3.336 4.5 5.25 2.139 3.188 3.654 6.759 5.25 10.25 1.756 3.842 3.223 7.811 4.75 11.75 1.125 2.901 2.13 5.847 3.25 8.75 1.13 2.931 2.487 5.777 3.5 8.75 1.108 3.251 1.867 6.611 2.811 9.914 1.056 3.697 2.173 7.377 3.189 11.09 0.823 3 1.634 6.01 2.354 9.04 0.738 3.107 1.361 6.24 2.01 9.366 0.561 2.694 1.16 5.381 1.634 8.091 0.392 2.241 0.656 4.502 1 6.75 0.242 1.585 0.541 3.161 0.75 4.75 0.208 1.578 0.237 3.18 0.5 4.75 0.184 1.097 0.75 3.25 0.75 3.25s-8.322 0.877-12.5 1c-3.999 0.118-8-0.333-12-0.25-2.671 0.056-5.329 0.417-8 0.5-2.082 0.065-4.173-0.159-6.25 0-1.093 0.084-3.25 0.5-3.25 0.5s-0.58-2.616-1.25-3.75c-0.75-1.269-2.061-2.113-3-3.25-1.252-1.517-2.473-3.073-3.5-4.75-0.389-0.636-0.608-1.366-1-2-0.219-0.354-0.334-0.984-0.75-1-0.885-0.033-1.31 1.231-1.75 2-0.393 0.686-0.623 1.47-0.75 2.25-0.174 1.069 0.218 2.189 0 3.25-0.255 1.243-0.902 2.38-1.5 3.5-0.937 1.753-2.408 3.199-3.25 5-0.48 1.027-1 3.25-1 3.25z" fill="#a00" stroke="#000" stroke-linecap="round" stroke-linejoin="round"/>
   <path id="mk" d="m98 673.86c2.764 1.985 5.524 3.947 7.982 6.331 2.793 2.708 5.172 5.788 7.405 8.951 2.623 3.715 4.934 7.734 6.613 11.969 1.613 4.069 2.474 8.412 2.93 12.795 0.489 4.704 1.03 9.42 1.037 14.14 5e-3 3.465-0.39 6.89-0.874 10.333-0.401 2.858-1.428 5.531-2.843 7.978-0.567 0.981-2.601 0.876-2.75 2-0.467 3.531 0.97 7.16 0.434 10.676-0.205 1.346-0.956 2.549-1.434 3.824" fill="none" stroke="#000" stroke-linecap="round" stroke-linejoin="round"/>
   <path id="ml" d="m103 678.11c-1.426 3.02-2.388 6.215-3.75 9.25-1.81 4.03-4.151 7.82-5.871 11.893-1.73 4.094-2.966 8.379-4.458 12.565-1.432 4.02-3.064 7.971-4.313 12.05-1.252 4.09-2.2 8.267-3.181 12.43-0.985 4.177-1.841 8.384-2.715 12.586-0.685 3.292-1.516 6.561-1.982 9.892-0.554 3.965-0.753 7.973-0.961 11.971-0.193 3.7-0.133 7.578-0.269 11.11h15c0.308-8.02 0.347-16.389 1.224-24.528 0.346-3.213 0.922-6.401 1.59-9.562 1.638-7.757 3.673-15.432 5.921-23.03 1.27-4.296 2.704-8.545 4.269-12.743 2.598-6.967 6.644-13.425 8.494-20.627 0.295-1.147 1.966-2.551 0.398-3.531-2.639-2.987-5.247-6-8.158-8.719-0.389-0.363-0.825-0.67-1.238-1.01z" fill="#55a" stroke="#000" stroke-linecap="round" stroke-linejoin="round"/>
   <path id="mm" d="m126.87 656.61c2.439 0.088 5.426-0.127 6.625-2.624 0.313-1.642 2.226-2.511 3.691-1.798 1.269 0.648 0.028 3.042 0.346 4.371 0.114 2.278 1.567 4.528 3.351 5.894 1.338 0.659 3.479 0.81 4.134 2.195 0.764 1.505 0.335 3.377 1.077 4.772 1.484 1.802 4.387 2.144 5.409 4.485 1.266 1.616 0.749 3.97 2.277 5.484 1.808 1.987 4.83 1.102 7.216 0.97 1.556-1.504 2.306-3.461 2.373-5.608-3e-3 -2.612 1.361 1.578 2.022 2.269 2.77 5.104 4.703 10.627 6.934 15.981 3.924 13.448 8.15 26.85 10.569 40.673 1.078 5.72 2.568 11.611 2.766 17.446 0.458 6.821 0.825 6.225 1.48 13.02-0.57 1.276-0.02 9-0.345 11.04-5.975 0.016-13.38-0.068-19.299 0.927-1.165-7.89-2.72-16.18-4.232-24.24-0.788-4.203-1.452-6.929-2.523-12.578-2.084-7.283-3.766-13.429-5.532-21.566-4.362-13.63-9.154-27.13-14.893-40.25-1.14-2.96-2.431-5.834-4.536-8.245-3.055-4.078-5.539-8.541-8.797-12.476z" fill="#55a" stroke="#000" stroke-linecap="round" stroke-linejoin="round"/>
   <path id="mn" d="m75.5 713.36c-1.183 1.962-2.4 3.906-3.562 5.88-1.31 2.76-1.673 2.745-2.88 5.552-0.412 0.892-1.492 3.078-2.068 3.884-0.913 1.061-1.577 3.623-2.24 4.684" fill="none" stroke="#000" stroke-linecap="round" stroke-linejoin="round"/>
   <path id="mo" d="m114.75 716.61c0.38 2.177 1.092 4.318 1.222 6.528 0.211 3.572-0.62 7.133-0.722 10.709-0.088 3.067-0.293 6.161 0.092 9.205 0.191 1.509 0.568 3 1.094 4.431 0.21 0.569 0.543 1.085 0.814 1.628" fill="none" stroke="#000" stroke-linecap="round" stroke-linejoin="round"/>
   <path id="mp" d="m105.25 742.36c0.829 2.233 1.357 4.592 2.394 6.738 0.856 1.772 2.114 3.321 3.131 5.01 0.718 1.189 1.612 2.299 2.098 3.6 0.623 1.667 0.778 3.479 0.993 5.245 0.097 0.799 0.089 1.608 0.134 2.411" fill="none" stroke="#000" stroke-linecap="round" stroke-linejoin="round"/>
   <path id="mq" d="m104.5 747.36c0.798 3.413 1.827 6.797 2.25 10.279 0.201 1.653-0.136 3.35 0.132 4.993 0.434 2.659 1.699 5.113 2.368 7.728" fill="none" stroke="#000" stroke-linecap="round" stroke-linejoin="round"/>
   <path id="mr" d="m98 756.61c0.709 2.029 1.078 4.209 2.085 6.11 1.127 2.127 3.112 3.7 4.345 5.767 0.966 1.621 1.89 3.32 2.357 5.149 0.541 2.118 0.386 4.357 0.463 6.542 8e-3 0.227 0 0.455 0 0.682" fill="none" stroke="#000" stroke-linecap="round" stroke-linejoin="round"/>
   <path id="ms" d="m95.75 768.11c0.529 1.558 0.74 3.249 1.482 4.723 1.024 2.034 3.02 3.479 4.02 5.527 0.532 1.091 0.667 2.417 1 3.5" fill="none" stroke="#000" stroke-linecap="round" stroke-linejoin="round"/>
   <path id="mt" d="m171.83 706.94c-0.345 1.441-0.343 3.01-0.972 4.353-0.799 1.708-2.365 2.938-3.447 4.485" fill="none" stroke="#000" stroke-linecap="round" stroke-linejoin="round"/>
   <path id="mu" d="m173.59 711.01c-1.719 2.954-2.842 6.324-5.06 8.927-0.459 0.538-1.105 0.884-1.657 1.326" fill="none" stroke="#000" stroke-linecap="round" stroke-linejoin="round"/>
   <path id="mv" d="m175.19 715.78c-1.769 2.87-3.773 5.582-5.571 8.43-1.37 2.171-2.716 4.345-3.975 6.596" fill="none" stroke="#000" stroke-linecap="round" stroke-linejoin="round"/>
   <path id="mw" d="m175.89 719.67c-2.633 4.594-5.408 9.103-8.217 13.589-1.122 1.793-2.3 3.551-3.451 5.326" fill="none" stroke="#000" stroke-linecap="round" stroke-linejoin="round"/>
   <path id="mx" d="m177.31 723.91c-1.261 2-2.403 4.083-3.733 6.04-1.487 2.188-3.254 4.178-4.741 6.366-1.201 1.766-2.192 3.669-3.37 5.448" fill="none" stroke="#000" stroke-linecap="round" stroke-linejoin="round"/>
   <path id="my" d="m177.31 728.15c-1.769 2.29-2.411 5.067-3.472 7.662-0.348 0.851-0.551 1.756-0.947 2.591" fill="none" stroke="#000" stroke-linecap="round" stroke-linejoin="round"/>
   <path id="mz" d="m178.19 732.57c-2.208 3.849-3.304 8.186-5.234 12.151-1.277 2.625-2.966 5.04-4.191 7.689-0.391 0.846-0.669 1.741-1 2.611" fill="none" stroke="#000" stroke-linecap="round" stroke-linejoin="round"/>
   <path id="na" d="m178.72 738.05c-1.603 4.252-2.997 8.593-4.898 12.719-0.923 2-2.15 3.852-3.148 5.818-0.572 1.127-1.176 2.244-1.627 3.424-0.17 0.446-0.269 0.915-0.404 1.373" fill="none" stroke="#000" stroke-linecap="round" stroke-linejoin="round"/>
   <path id="nb" d="m180.49 743.71c-2.179 5.03-3.935 10.265-6.445 15.14-1.023 1.987-2.429 3.758-3.495 5.722-0.311 0.573-0.562 1.175-0.843 1.763" fill="none" stroke="#000" stroke-linecap="round" stroke-linejoin="round"/>
   <path id="nc" d="m181.55 748.13c-1.072 3.211-1.999 6.484-3.412 9.558-1.672 3.634-4.413 6.728-5.957 10.418-0.59 1.411-0.825 2.946-1.237 4.419" fill="none" stroke="#000" stroke-linecap="round" stroke-linejoin="round"/>
   <path id="nd" d="m181.9 755.38c-1.728 3.761-3.237 7.625-5.075 11.334-1.218 2.459-2.456 4.918-3.94 7.228" fill="none" stroke="#000" stroke-linecap="round" stroke-linejoin="round"/>
   <path id="ne" d="m182.61 761.74c-1.334 2.096-2.124 4.45-3.07 6.725-0.748 1.8-1.479 3.609-2.057 5.472" fill="none" stroke="#000" stroke-linecap="round" stroke-linejoin="round"/>
   <path id="nf" d="m183.32 766.34c-0.913 1.513-1.469 3.226-1.768 4.954-0.08 0.463 0 0.94 0 1.41" fill="none" stroke="#000" stroke-linecap="round" stroke-linejoin="round"/>
   <path id="ng" d="m130.11 727.98c-0.487 2.647-0.499 5.415-1.355 7.971-0.934 2.789-2.085 5.655-4.06 7.835-0.914 1.01-2.283 1.484-3.424 2.226" fill="none" stroke="#000" stroke-linecap="round" stroke-linejoin="round"/>
   <path id="nh" d="m136.65 734.34c-1.449 2.291-2.599 4.765-4.04 7.06-1.203 1.91-2.428 3.816-3.844 5.573-0.94 1.166-1.664 2.768-3.072 3.277-1.709 0.618-3.744 0.054-5.408-0.674-0.099-0.043-0.249-0.21-0.249-0.21" fill="none" stroke="#000" stroke-linecap="round" stroke-linejoin="round"/>
   <path id="ni" d="m136.83 739.82c-1.473 1.702-2.794 3.515-4.166 5.293-1.041 1.349-1.759 3-3.082 4.076-0.86 0.698-2 0.943-3.01 1.414" fill="none" stroke="#000" stroke-linecap="round" stroke-linejoin="round"/>
   <path id="nj" d="m150.61 742.3c-1.921 0.748-3.741 1.819-5.744 2.322-1.214 0.305-2.59-0.105-3.734 0.405-1.196 0.533-2.068 1.63-2.925 2.619-0.128 0.147-0.216 0.325-0.325 0.487" fill="none" stroke="#000" stroke-linecap="round" stroke-linejoin="round"/>
   <path id="nk" d="m134 747.42c-1.288 1.18-2.315 2.718-3.836 3.585-1.279 0.729-2.798 0.935-4.238 1.239-0.31 0.066-0.628 0.084-0.942 0.126" fill="none" stroke="#000" stroke-linecap="round" stroke-linejoin="round"/>
   <path id="nl" d="m122.68 754.67c2.247 0.561 4.422 1.539 6.718 1.945 1.808 0.319 3.686 0.683 5.496 0.374 1.527-0.261 2.782-1.401 4.268-1.837 3.01-0.884 6.247-0.791 9.299-1.537 1.846-0.452 3.543-1.473 5.42-1.772 1.135-0.181 2.298 0 3.447 0" fill="none" stroke="#000" stroke-linecap="round" stroke-linejoin="round"/>
   <path id="nm" d="m124.8 759.62c3.284 2.979 6.517 6.05 10.127 8.622 2.199 1.568 4.405 3.294 6.976 4.12 1.674 0.538 3.5 0.577 5.255 0.465 1.839-0.118 3.662-0.572 5.399-1.187 0.993-0.351 1.884-0.942 2.826-1.413" fill="none" stroke="#000" stroke-linecap="round" stroke-linejoin="round"/>
   <path id="nn" d="m121.09 757.32c1.735 2.16 3.205 4.559 5.16 6.526 2.984 3 6.447 5.506 9.914 7.934 1.536 1.076 3.066 2.228 4.806 2.926 1.402 0.562 2.917 0.891 4.425 0.971 2.838 0.151 5.697-0.334 8.475-0.936 1.927-0.417 3.857-0.961 5.621-1.84 1.399-0.697 2.565-1.785 3.848-2.677" fill="none" stroke="#000" stroke-linecap="round" stroke-linejoin="round"/>
   <path id="no" d="m130.99 760.68c2.475 0.707 4.851 2.14 7.425 2.121 3.246-0.023 6.086-2.577 9.323-2.807 1.842-0.131 3.633 0.925 5.478 0.829 1.597-0.083 3.096-0.803 4.645-1.204" fill="none" stroke="#000" stroke-linecap="round" stroke-linejoin="round"/>
   <path id="np" d="m135.76 764.75c2.593 1.414 4.895 3.603 7.778 4.243 1.564 0.347 3.231 0.035 4.797-0.303 2.864-0.618 5.521-1.972 8.219-3.114 0.981-0.415 1.929-0.904 2.894-1.356" fill="none" stroke="#000" stroke-linecap="round" stroke-linejoin="round"/>
   <path id="nq" d="m141.95 764.22c2.478 0.034 4.963 0.011 7.406-0.365 2.053-0.316 4.02-1.051 6.03-1.58" fill="none" stroke="#000" stroke-linecap="round" stroke-linejoin="round"/>
   <path id="nr" d="m120.74 760.5c1.906 2.415 3.807 4.837 5.927 7.06 1.566 1.643 3.256 3.171 4.999 4.625 0.746 0.622 1.555 1.166 2.332 1.749" fill="none" stroke="#000" stroke-linecap="round" stroke-linejoin="round"/>
   <path id="ns" d="m119.32 761.74c1.408 2.175 2.798 4.363 4.405 6.39 1.165 1.47 2.3 3.02 3.782 4.168 1.721 1.336 3.812 2.111 5.778 3.054" fill="none" stroke="#000" stroke-linecap="round" stroke-linejoin="round"/>
   <path id="nt" transform="translate(0,512.36)" d="m120.03 240.01 1.237 2.298 1.768 3.01 2.121 1.945" fill="none" stroke="#000" stroke-linecap="round" stroke-linejoin="round"/>
   <path id="nu" d="m266 573.86c-3.077 1.999-6.557 3.466-9.327 5.882-3.471 3.03-6.453 6.665-8.893 10.57-3.02 4.837-5.02 10.271-6.94 15.642-1.068 2.985-2.026 6.04-2.534 9.166-0.708 4.362-0.87 8.824-0.69 13.239 0.144 3.513 0.452 7.07 1.407 10.454 1.305 4.622 3.426 9.02 5.829 13.176 2.09 3.619 4.579 7.04 7.398 10.121 2.47 2.702 5.5 4.833 8.25 7.25 4.25-5.417 8.5-10.833 12.75-16.25-1.309-2.383-2.832-4.769-3.154-7.444-0.253-2.105 0.316-4.279 1.021-6.278 0.588-1.667 1.266-3.475 2.62-4.612 1.833-1.54 4.4-2.795 6.763-2.415 1.995 0.32 2.968 2.837 4.784 3.724 1.305 0.637 2.791 0.831 4.224 1.065 1.977 0.323 4.344 1.6 5.991 0.461 1.194-0.826 0.142-3.207 1.219-4.18 1.458-1.317 3.859-1.394 5.797-1.07 1.504 0.252 2.923 1.155 3.984 2.25 1.442 1.488 3.151 3.215 2.885 5.504 0.046 1.323 0.226 4.03 1.943 2.281 2.451-0.771 3.724-3.092 4.711-5.218 1-2.158 1.049-4.696 0.962-7.07-0.069-1.881-0.385-3.813-1.17-5.523-0.983-2.139-2.448-4.142-4.289-5.61-1.503-1.198-3.541-1.508-5.247-2.394-1.153-0.599-2.481-1.017-3.364-1.971-0.867-0.936 0.551-3.842-1.676-3.44-1.916-0.446-3.669-1.341-5.579-1.713-1.458-0.284-2.955-0.396-4.44-0.388-1.976 0.011-4.105-0.114-5.899 0.583-1.67 0.959-3.151 2.652-5.089 2.936-1.832 0.269-3.812-0.334-5.406-1.278-2.233-1.322-4.235-3.379-5.213-5.782-0.645-1.586-0.645-3.479-0.2-5.131 0.443-1.643 1.62-3.03 2.737-4.309 1.172-1.348 2.706-2.333 4.083-3.471-3.417-6.25-6.833-12.5-10.25-18.75z" fill="#aaf" stroke="#000"/>
   <path id="nv" d="m289.21 543.25c-0.318 4.852-0.36 9.738-0.853 14.569-1.726 9.371-3.475 18.738-5.609 28.03-1.162 5.801-2.941 11.452-4.498 17.16 1.646-0.36 3.263-0.793 4.696-1.682 1.346-0.285 2.658-0.847 4.057-0.702-0.512 2.82-0.929 5.648-0.75 8.523-0.633 5.734-0.791 11.505-0.784 17.271-0.108 3.352-0.42 6.76-0.09 10.08 0.023 1.675 1.803 1.075 2.95 1.295 2.239 0.195 4.486 0.113 6.674-0.422-0.314-7.896-0.229-15.8-0.275-23.697-0.343-2.986 0.022-4.089-0.139-7.848 0.096-1.443-0.183-4.01-0.086-5.455 1.208 0.633 2.095 0.599 3.02 1.344 1.306 1.28 3.369 1.153 5 1.862 1.802 0.985 0.272-1.301 0.192-2.165-1.405-4.401-2.762-8.838-3.835-13.326-2.241-13.723-3.984-27.541-4.662-41.44-0.201-1.106 0.098-2.758-0.415-3.524-1.532 0.043-3.063 0.085-4.595 0.128z" fill="#aaf" stroke="#000" stroke-linecap="round" stroke-linejoin="round"/>
   <path id="nw" d="m286.75 601.11c0.558-2.464 1.172-4.919 1.311-7.451 0.34-3.476 0.763-6.943 1.505-10.359 0.521-2.702 1.097-5.396 1.21-8.154 0.504-5 0.708-10.02 0.975-15.04 0.154 5.375 0.291 10.752 0.265 16.13 0.392 3.362 0.18 7.741 0.969 11.04 0.339 3.373 0.714 4.669 1.016 7.218 0 0.788 0.75 4.95 0.75 5.738" fill="none" stroke="#000"/>
   <path id="nx" d="m257.75 612.61s2 3.333 4.333 5.667c2.333 2.333 5.667 4.333 5.667 4.333s-3.333 2-5.667 4.333c-2.333 2.333-4.333 5.667-4.333 5.667s-2-3.333-4.333-5.667c-2.333-2.333-5.667-4.333-5.667-4.333s3.333-2 5.667-4.333c2.333-2.333 4.333-5.667 4.333-5.667" fill="#f55" stroke="#000" stroke-linecap="round" stroke-linejoin="round"/>
   <path id="kl" d="m285.75 637.61c-0.75 0.167-1.5 0.333-2.25 0.5-0.205 0.706-0.25 1.479-0.077 2.097-0.774 1.072-1.742 1.972-2.673 2.903-0.182 1.239-0.545 2.479-0.151 3.716-0.075 0.85 0.555 1.308 1.151 1.784-0.119 1.133-0.165 2.262 0.125 3.375-0.82 0.68-1.939 1.082-2.56 1.946-0.918 1.581-1.919 3.123-2.392 4.909-0.428 1.09-0.832 2.185-0.732 3.377-0.167 5.587-0.241 11.179-0.066 16.767 0.03 2.407 0.031 4.812-0.318 7.2-0.332 0.909 1.016 0.815 1.543 1.21 1.095-0.027-0.012 1.518 0.886 1.55 0.769 0.122 1.509 0.299 1.963 0.991 0.427 0.79 1.297 0.509 2.034 0.551 0.701 0.104 1.014 1.056 1.562 1.494 0.459 0.865 1.129-0.485 1.69-0.688 0.582-0.722 1.176 0.526 1.764 0.745 0.622 0.893 1.202 0.262 1.783-0.311 0.572-0.927 1.184-0.328 1.795 0.214 0.59 0.849 1.263-0.164 1.903-0.441 0.147-0.723 0.136-1.616 1.13-1.176 0.754-0.029 1.199 1.086 1.946 0.372 0.561-0.481 0.876-1.251 1.79-1.14 0.915 0.066 1.251-0.466 1.278-1.318 0.591-0.232 1.817 0.094 1.999-0.497-0.038-10.626-0.48-16.627-0.499-27.25 0.46-3.495-2.052-7.529-3.331-8.887-0.38-0.525-0.096-1.43-0.102-2.101-0.073-1.189 1.344-1.892 1.109-3.125 0.195-1.226-0.139-2.462-0.55-3.6-0.451-0.896-1.154-1.747-1.475-2.657-0.011-0.654 0.82-1.756-0.225-1.859-1.658-0.653-3.514-0.339-5.262-0.498-1.597-0.049-3.193-0.098-4.79-0.147z" fill="#a00" stroke="#000" stroke-linecap="round" stroke-linejoin="round"/>
   <path id="km" d="m283.75 640.61c1.997 0.178 3.995 0.278 5.995 0.242 2.174-0.038 4.337-0.323 6.505-0.492" fill="none" stroke="#000" stroke-linecap="round" stroke-linejoin="round"/>
   <path id="kn" d="m281.75 648.61c3.3-0.04 6.596 0.104 9.894 0.125 1.827 0.011 3.654 0 5.481 0" fill="none" stroke="#000" stroke-linecap="round" stroke-linejoin="round"/>
   <path id="ko" d="m282.37 651.74c3.372 0.091 6.743 0.173 10.114 0.096 1.339-0.03 2.675-0.131 4.01-0.221" fill="none" stroke="#000" stroke-linecap="round" stroke-linejoin="round"/>
   <path id="kp" d="m286.75 641.24c-0.504 1.763-1.513 2.176-2.783 2.749-1.365 0.617-2.551 2.737-2.967 3.376" fill="none" stroke="#000" stroke-linecap="round" stroke-linejoin="round"/>
   <path id="kq" d="m291.75 640.74c-0.684 1.544-1.491 2.9-3.908 4.158-1.5 0.781-2.228 2.728-2.842 3.342" fill="none" stroke="#000" stroke-linecap="round" stroke-linejoin="round"/>
   <path id="kr" d="m294.62 641.36c-0.411 0.955-0.52 2.082-1.153 2.913-0.556 0.731-1.213 0.893-2.197 1.662-1.13 0.883-1.85 1.825-2.025 2.175" fill="none" stroke="#000" stroke-linecap="round" stroke-linejoin="round"/>
   <path id="ks" d="m297.12 643.11c-0.332 0.912-0.639 1.685-1.154 2.412-0.707 0.997-2.231 1.184-2.596 2.588" fill="none" stroke="#000" stroke-linecap="round" stroke-linejoin="round"/>
   <path id="kt" d="m281.87 652.11c-0.703 1.497-1.574 3.326-2.042 5.095-0.543 2.051-0.722 4.189-0.865 6.306-0.281 4.186 0.157 8.393 0.027 12.586-0.1 3.225-0.301 6.448-0.62 9.658-0.062 0.621-0.167 1.237-0.251 1.855" fill="none" stroke="#000" stroke-linecap="round" stroke-linejoin="round"/>
   <path id="ku" d="m280.25 689.74c0.606-2.483 1.251-4.966 1.536-7.503 0.282-2.503 0.168-5.04 0.168-7.554 0-3.065-0.183-6.128-0.204-9.193-0.019-2.818-0.474-5.688 0.072-8.453 0.327-1.653 1.238-3.135 1.883-4.692 0.014-0.034 0.031-0.068 0.044-0.103 0-1e-4 1e-4 -3e-3 1e-4 -3e-3" fill="none" stroke="#000" stroke-linecap="round" stroke-linejoin="round"/>
   <path id="kv" d="m282.75 690.49c0.436-2.076 1.158-4.11 1.368-6.224 0.597-5.989-0.362-12.03-0.322-18.05 0.023-3.535-0.37-7.135 0.329-10.6 0.23-1.138 0.875-2.75 1.25-3.25" fill="none" stroke="#000" stroke-linecap="round" stroke-linejoin="round"/>
   <path id="kw" d="m286.12 690.86c0.176-4.985 0.324-9.972 0.25-14.959-0.049-3.336-0.555-6.664-0.463-10 0.061-2.223 0.739-4.414 0.675-6.637-0.041-1.439-0.753-2.825-0.684-4.263 0.046-0.952 0.481-1.845 0.722-2.767" fill="none" stroke="#000" stroke-linecap="round" stroke-linejoin="round"/>
   <path id="ky" d="m289.25 690.74c0.116-6 0.276-12.01 0.187-18.01-0.046-3.083-0.163-6.166-0.37-9.242-0.194-2.88-1.125-5.752-0.817-8.622 0.103-0.956 0.75-2.167 0.875-2.75" fill="none" stroke="#000" stroke-linecap="round" stroke-linejoin="round"/>
   <path id="kz" d="m292.87 689.61c0.033-6.591 0.182-13.184 0.056-19.775-0.051-2.655-0.031-5.321-0.327-7.96-0.222-1.975-0.992-3.878-1.083-5.863-0.06-1.305 0.236-2.602 0.355-3.902" fill="none" stroke="#000" stroke-linecap="round" stroke-linejoin="round"/>
   <path id="la" d="m296.87 689.11c-0.22-1.983-0.645-3.952-0.731-5.947-0.13-2.999 0.388-5.998 0.322-8.999-0.116-5.273-0.711-10.527-1.261-15.773-0.156-1.49-0.483-2.963-0.579-4.458-0.039-0.606 0-1.215 0-1.823" fill="none" stroke="#000" stroke-linecap="round" stroke-linejoin="round"/>
   <path id="lb" d="m298.87 687.61c-0.196-3.863-0.378-7.725-0.459-11.591-0.12-5.718 0.852-11.509-0.041-17.16-0.382-2.421-1.46-4.679-2.25-7" fill="none" stroke="#000" stroke-linecap="round" stroke-linejoin="round"/>
   <path id="ny" d="m282.25 690.99c0.042 3.417 0.083 6.833 0.125 10.25 1.374 0.343 2.738 0.729 4.118 1.046 1.274 0.246 2.555 0.464 3.824 0.728 0.561 0.2 1.122 0.401 1.684 0.601-0.167-3.917-0.333-7.833-0.5-11.75-0.625-0.417-1.25-0.833-1.875-1.25-0.292 0.708-0.583 1.417-0.875 2.125h-1.25c-0.333-0.292-0.667-0.583-1-0.875l0.375-0.75c-0.292-0.083-0.583-0.167-0.875-0.25-0.292 0.5-0.583 1-0.875 1.5h-0.875l-0.75-1.5c-0.417 0.042-0.833 0.083-1.25 0.125z" fill="#fa5" stroke="#000" stroke-linecap="round" stroke-linejoin="round"/>
   <path id="nz" d="m282.15 737.85s-1.646-0.524-2.221-1.121c-1.887-1.961-2.475-4.863-3.397-7.423-0.665-1.847-0.799-3.864-1.525-5.688-0.69-1.733-1.633-3.367-2.662-4.922-0.634-0.958-1.452-1.781-2.149-2.694-0.888-1.161-2.133-2.15-2.59-3.539-0.413-1.255-0.569-2.766-0.014-3.965 0.523-1.13 1.632-2.183 2.857-2.406 0.798-0.145 1.569 0.446 2.292 0.812 1.325 0.671 2.628 1.463 3.685 2.506 0.543 0.536 1.835 4.04 1.313 1.875-0.06-1.319-0.311-3.457-0.034-5.152 0.193-1.183 0.196-2.697 1.166-3.4 2.772-2.01 6.906-0.776 10.272-0.148 3.293 0.615 6.63 1.763 9.32 3.76 1.898 1.409 3.374 3.42 4.442 5.529 1.732 3.419 2.445 7.312 2.966 11.11 0.313 2.283 0.181 4.61 0.083 6.913-0.146 3.436-0.587 6.855-0.997 10.27-0.243 2.026-0.675 4.03-0.866 6.06-0.208 2.21-0.048 4.448-0.305 6.653-0.106 0.914-0.235 1.581-0.51 2.714-0.766 0.938-1.702 1.665-2.715 2.27-1.843 1.102-3.877 1.963-5.98 2.395-1.334 0.274-2.723 0.319-4.085 0.1l0.375-19.875c-2.524-0.408-4.915-1.367-7.351-2.12-0.388-0.286-0.749-0.174-1.369-0.512z" fill="#faa" stroke="#000" stroke-linecap="round" stroke-linejoin="round"/>
   <path id="c" d="m277.62 708.11c0.737 1.39 1.905 2 3.164 2.421 3.467 1.161 7.362-0.671 10.97-0.075 0.78 0.129 2.431 1e-3 2.241 0.778-0.2 0.809-1.643-0.289-2.472-0.375-2.217-0.231-4.447-0.412-6.675-0.38-1.709 0.024-3.528-0.216-5.107 0.437-1.106 0.457-2.128 1.287-2.749 2.311-0.357 0.589-0.385 1.331-0.449 2.02-0.044 0.47-0.072 0.959 0.047 1.416 0.326 1.252 0.718 2.712 1.781 3.45 1.572 1.092 3.79 0.59 5.701 0.687 3.01 0.153 6.04-0.454 9.03-0.164 0.556 0.054 1.707-0.203 1.639 0.351-0.126 1.023-2.061-0.058-3.091-0.102-1.66-0.072-3.317-0.331-4.977-0.264-2.792 0.113-5.889-0.283-8.307 1.116-0.592 0.342-1.144 0.95-1.25 1.625-0.331 2.116 0.692 4.501 2.176 6.05 0.714 0.743 1.854 0.957 2.863 1.161 2.663 0.539 5.438 0.285 8.149 0.113 1.165-0.074 3.093-0.824 3.467-0.49 0.243 0.217-2.249 0.403-3.385 0.519-1.523 0.157-3.058 0.31-4.588 0.242-0.802-0.036-1.581-0.364-2.384-0.341-0.836 0.023-1.767 0.026-2.461 0.494-0.803 0.542-1.414 1.478-1.595 2.429-0.181 0.948 0.122 1.988 0.587 2.834 0.278 0.507 1.154 1.026 1.245 1.208" fill="none" stroke="#000" stroke-linecap="round" stroke-linejoin="round"/>
   <path id="d" d="m291.25 740.49c1.27 0.144 1.969 0.145 2.948 0.063 0.778-0.065 1.858-0.154 2.302-0.438" fill="none" stroke="#000" stroke-linecap="round" stroke-linejoin="round"/>
   <path id="e" d="m291.09 744.3c0.96 0.233 2.262 0.411 3.406 0.429 0.891 0.014 1.8-0.026 2.662-0.253 1.153-0.303 2.202-0.919 3.267-1.454 0.323-0.162 0.63-0.354 0.945-0.532" fill="none" stroke="#000" stroke-linecap="round" stroke-linejoin="round"/>
   <path id="f" d="m291.25 746.74c1.111 0.148 2.804 0.46 4.218 0.451 0.905-5e-3 1.819-0.101 2.696-0.321 0.692-0.174 1.347-0.476 1.992-0.781 0.68-0.321 1.105-0.357 1.969-1.099" fill="none" stroke="#000" stroke-linecap="round" stroke-linejoin="round"/>
   <path id="g" d="m290.87 749.11c1 0.072 2.774 0.731 4.191 0.711 1.563-0.021 3.127-0.387 4.601-0.909 0.874-0.31 1.659-0.977 2.459-1.302" fill="none" stroke="#000" stroke-linecap="round" stroke-linejoin="round"/>
   <path id="h" d="m291 751.86c0.958 0.333 1.895 0.603 2.875 0.625 1.862 0.042 3.37-0.331 5.507-0.939 0.862-0.245 2.368-1.248 2.368-1.248" fill="none" stroke="#000" stroke-linecap="round" stroke-linejoin="round"/>
   <path id="i" d="m291.12 754.74c1.345-0.094 3.039 0.322 4.537 0.108 1.578-0.225 3.108-0.781 4.557-1.445 0.456-0.209 0.854-0.526 1.281-0.789" fill="none" stroke="#000" stroke-linecap="round" stroke-linejoin="round"/>
   <path id="j" d="m291 757.49c1.719 0.029 3.266 0.309 4.848-0.019 1.851-0.383 3.851-1.529 5.214-2.232" fill="none" stroke="#000" stroke-linecap="round" stroke-linejoin="round"/>
   <path id="k" d="m208 649.11c2.518 4.353 5.62 8.409 7.664 13.01 2.383 5.361 3.99 11.07 5.269 16.794 1.65 7.387 2.77 14.936 3.067 22.499 0.173 4.414-0.31 8.836-0.755 13.231-0.864 8.542-1.973 17.08-3.71 25.49-1.423 6.886-3.042 13.774-5.482 20.368-1.489 4.02-3.274 7.977-5.553 11.611-0.444 2.025 0.25 3.047 2.382 2.798 5.266 0.484 10.582 0.254 15.868 0.452 2.583-5.02 5.164-10.05 7.323-15.264 2.066-4.99 4.05-10.05 5.372-15.285 1.973-7.815 2.887-15.874 3.772-23.886 0.742-6.723 1.469-13.49 1.283-20.251-0.119-4.31-0.699-8.613-1.526-12.845-1.073-5.489-2.317-11.01-4.44-16.179-1.698-4.139-3.998-8.04-6.559-11.708-1.608-2.302-3.452-4.568-5.483-6.396-4.293-1.257-8.618-2.462-12.952-3.599-1.457-0.382-2.66-1.876-4.387-1.083-0.384 0.082-0.768 0.165-1.152 0.247z" fill="#55a" stroke="#000" stroke-linecap="round" stroke-linejoin="round"/>
   <path id="l" d="m226.93 653.88c3.742 3.156 9.09 6.427 12.822 9.554 2.466 4.466 5.306 7.641 8.099 11.925 1.878 3.929 5.628 6.798 6.209 11.362 1.731 5.05 0.22 11.09 3.988 15.373 2.305 4.86 8.584 7.842 8.03 13.653-0.25 4.853 3.743 8.281 5.938 12.206 3.297 3.02 7.146 5.304 8.865 9.683 2.506 1.337 1.268 4.01 1.35 6.223 0.188 2.623-0.371 4.742-2.883 6.06-3.88 4.5-0.068 10.374 3.14 13.506-0.162 5.979-0.323 12.458-0.485 18.437-8.917 0.083-17.833-0.083-26.75 0-1.043-3.904-3.18-7.199-7.287-7.815-2.658-1.81-4.637-6.568-4.74-8.359-3.465 2.995-5.742 9.323-8.991 10.834-2.596-1.928-9.705 0.931-5.854-3.877 4.469-10.04 10.05-19.776 11.836-30.765 2.272-14.675 4.973-29.462 4.489-44.37-1.485-9.561-2.798-19.359-6.685-28.3-2.76-5.541-7.07-10.61-11.09-15.334z" fill="#a00" stroke="#000" stroke-linecap="round" stroke-linejoin="round"/>
   <path id="m" transform="translate(0,512.36)" d="m245.84 167.08 2.681 11.26 2.413 9.651 1.072 13.14-0.536 11.796-0.536 13.14-2.145 13.941-2.413 8.04-3.217 5.63" fill="none" stroke="#000" stroke-linecap="round" stroke-linejoin="round"/>
   <path id="n" d="m211.8 773.27c8.842-3.301 15.317-10.229 21.984-16.622" fill="none" stroke="#000" stroke-linecap="round" stroke-linejoin="round"/>
   <path id="o" d="m217.69 774.08c4.608-2.228 8.811-4.844 12.601-8.311" fill="none" stroke="#000" stroke-linecap="round" stroke-linejoin="round"/>
   <path id="p" d="m223.06 773.81c1.43-0.804 2.86-1.609 4.29-2.413" fill="none" stroke="#000" stroke-linecap="round" stroke-linejoin="round"/>
   <path id="q" d="m211.26 770.32c11.236-3.812 17.581-13.402 24.933-21.984" fill="none" stroke="#000" stroke-linecap="round" stroke-linejoin="round"/>
   <path id="r" d="m213.94 764.96c10.447-5.361 16.882-15.683 24.933-23.861" fill="none" stroke="#000" stroke-linecap="round" stroke-linejoin="round"/>
   <path id="s" d="m216.62 759.6c9.03-5.124 15.03-15.02 22.52-22.252" fill="none" stroke="#000" stroke-linecap="round" stroke-linejoin="round"/>
   <path id="t" d="m217.69 754.51c10.124-4.327 16.234-14.15 21.984-23.06" fill="none" stroke="#000" stroke-linecap="round" stroke-linejoin="round"/>
   <path id="u" d="m219.57 749.41c10.346-4.656 16.287-15.779 21.18-25.469" fill="none" stroke="#000" stroke-linecap="round" stroke-linejoin="round"/>
   <path id="v" d="m220.64 744.86c11-5.429 15.827-18.506 21.448-28.686" fill="none" stroke="#000" stroke-linecap="round" stroke-linejoin="round"/>
   <path id="w" d="m221.72 740.3c11.172-7.101 15.355-21.449 21.18-32.708" fill="none" stroke="#000" stroke-linecap="round" stroke-linejoin="round"/>
   <path id="x" d="m222.52 734.94c10.435-7.05 14.43-20.532 19.288-31.71 0.363-1.047 0.725-2.095 1.088-3.142" fill="none" stroke="#000" stroke-linecap="round" stroke-linejoin="round"/>
   <path id="y" d="m223.32 729.31c11.673-7.912 14.6-24.13 19.03-36.729" fill="none" stroke="#000" stroke-linecap="round" stroke-linejoin="round"/>
   <path id="z" d="m224.93 723.41c9.754-9.205 13.234-23.67 15.818-36.461" fill="none" stroke="#000" stroke-linecap="round" stroke-linejoin="round"/>
   <path id="ha" d="m239.14 681.85c-1.083 12.303-4.14 24.608-12.601 34.05" fill="none" stroke="#000" stroke-linecap="round" stroke-linejoin="round"/>
   <path id="hb" d="m226.27 707.32c9.61-9.174 9.783-22.568 11.26-34.853" fill="none" stroke="#000" stroke-linecap="round" stroke-linejoin="round"/>
   <path id="hc" d="m234.58 668.98c0.324 6.614-0.624 13.145-2.145 19.571" fill="none" stroke="#000" stroke-linecap="round" stroke-linejoin="round"/>
   <path id="hd" d="m231.64 664.69c0.013 4.389 0.369 8.707-1.34 12.869" fill="none" stroke="#000" stroke-linecap="round" stroke-linejoin="round"/>
   <path id="he" d="m229.22 659.06c0.299 2.497 0.371 4.843-0.536 7.239" fill="none" stroke="#000" stroke-linecap="round" stroke-linejoin="round"/>
   <g transform="matrix(1.0201 0 0 1 -5.675 0)">
    <path id="lc" d="m281.5 747.8c-4.405-1.564-9.31 2.963-8.432 7.496 0.686 5.726 3.751 11.371 8.7 14.488" fill="none" stroke="#000" stroke-linecap="round" stroke-linejoin="round" stroke-width=".994"/>
    <path id="ld" d="m282.02 779.96c-4.764-3.686-9.233-9.29-10.05-16.369l-0.117-0.51" fill="none" stroke="#000" stroke-linecap="round" stroke-linejoin="round" stroke-width=".994"/>
    <path id="le" d="m273.73 751.56c-7.246 6.177-8.06 18.01-2.238 25.398 1.25 1.635 2.555 3.563 4.114 4.906" fill="none" stroke="#000" stroke-linecap="round" stroke-linejoin="round" stroke-width=".994"/>
    <path id="lf" d="m267.65 762.48c-2.864 3.494-5.02 9.65-4.381 14.593 0.026 0.789 1.174 2.829 1.128 3.617" fill="none" stroke="#000" stroke-linecap="round" stroke-linejoin="round" stroke-width=".994"/>
    <path id="lg" d="m261.66 768.45c-2.207 2.763-3.989 8.181-2.556 12.545" fill="none" stroke="#000" stroke-linecap="round" stroke-linejoin="round" stroke-width=".994"/>
    <path id="lh" d="m276.94 734.4c0.6 5.499-1.366 11.174-5.353 15.03-2.793 3.098-5.401 6.432-8.709 8.964-4.824 3.692-7.557 6.6-7.293 15.06" fill="none" stroke="#000" stroke-linecap="round" stroke-linejoin="round" stroke-width=".994"/>
    <path id="li" d="m252.78 774.52c-0.661-3.773-1.033-9.249 0.802-13.29 1.745-3.843 5.746-6.222 9.02-8.891 4.355-3.555 10.04-5.773 11.513-11.456 0.576-3.203-9e-3 -6.47 0.153-9.702" fill="none" stroke="#000" stroke-linecap="round" stroke-linejoin="round" stroke-width=".994"/>
    <path id="lj" d="m271.58 729.04c-0.028 3.975 1.977 8.343-0.497 11.978-2.753 3.523-6.715 5.854-10.699 7.749-4.126 2.77-8.193 6.183-10.283 10.81-1.12 2.626-3.771 7.501-1.202 12.09" fill="none" stroke="#000" stroke-linecap="round" stroke-linejoin="round" stroke-width=".994"/>
    <path id="lk" d="m269.17 727.43c-0.176 4.384 1.623 9.22-0.873 13.233-0.779 1.019-1.969 1.618-3.148 2.048" fill="none" stroke="#000" stroke-linecap="round" stroke-linejoin="round" stroke-width=".994"/>
    <path id="ll" d="m266.49 725.28c-0.442 4.462 0.56 9.582-2.662 13.265-2.404 2.822-5.389 5.108-7.526 8.171-1.48 1.862-3.317 3.771-3.754 6.177" fill="none" stroke="#000" stroke-linecap="round" stroke-linejoin="round" stroke-width=".994"/>
    <path id="lm" d="m265.42 721.26c-0.227 5.606-2.437 11-5.409 15.695-1.998 2.796-5.393 4.746-6.387 8.166" fill="none" stroke="#000" stroke-linecap="round" stroke-linejoin="round" stroke-width=".994"/>
    <path id="ln" d="m264.08 714.83c-1.264 5.824-0.989 12.384-5.06 17.2-2.01 2.471-3.844 5.073-5.128 8" fill="none" stroke="#000" stroke-linecap="round" stroke-linejoin="round" stroke-width=".994"/>
    <path id="lo" d="m262.2 712.95c-1.427 6.868-5.259 12.885-7.548 19.463-0.286 0.739-0.553 1.487-0.763 2.252" fill="none" stroke="#000" stroke-linecap="round" stroke-linejoin="round" stroke-width=".994"/>
    <path id="lp" d="m258.45 708.66c0.196 4.059-1.025 8.07-2.283 11.876-0.801 1.85-1.957 3.718-1.739 5.818" fill="none" stroke="#000" stroke-linecap="round" stroke-linejoin="round" stroke-width=".994"/>
   </g>
   <path id="hf" d="m230.03 775.15c3.048-2.258 6.164-4.428 9.383-6.434" fill="none" stroke="#000" stroke-linecap="round" stroke-linejoin="round"/>
   <path id="hg" d="m230.03 771.93c4.856-3.313 10.1-6.44 13.649-11.238 0.502-0.785 2.174-2.741 2.614-3.56" fill="none" stroke="#000" stroke-linecap="round" stroke-linejoin="round"/>
   <path id="hh" d="m232.8 766.48c3.786-2.122 8.453-6.187 10.917-9.786 1.063-1.34 2.71-3.891 4.095-4.921" fill="none" stroke="#000" stroke-linecap="round" stroke-linejoin="round"/>
   <path id="hi" d="m235.77 760.1c2.512-2.619 4.487-4.421 7.332-6.747 0.971-0.902 4.497-4.624 5.606-5.352" fill="none" stroke="#000" stroke-linecap="round" stroke-linejoin="round"/>
   <path id="hj" d="m237.91 753.92c3.231-2.347 7.152-6.487 10.615-8.525" fill="none" stroke="#000" stroke-linecap="round" stroke-linejoin="round"/>
   <path id="hk" d="m239.89 749.07c2.716-2.327 6.531-6.803 10.347-8.666" fill="none" stroke="#000" stroke-linecap="round" stroke-linejoin="round"/>
   <path id="hl" d="m241.29 744.05c2.732-2.725 5.381-5.58 8.579-7.775" fill="none" stroke="#000" stroke-linecap="round" stroke-linejoin="round"/>
   <path id="hm" d="m242.36 739.76c2.244-1.774 5.219-6.03 7.702-7.487" fill="none" stroke="#000" stroke-linecap="round" stroke-linejoin="round"/>
   <path id="hn" d="m242.43 736.26c2.113-2.54 4.674-5.864 7.702-7.489" fill="none" stroke="#000" stroke-linecap="round" stroke-linejoin="round"/>
   <path id="ho" d="m243.16 731.18c1.938-2.524 2.822-4.255 5.237-6.344l2.197-1.662" fill="none" stroke="#000" stroke-linecap="round" stroke-linejoin="round"/>
   <path id="hp" d="m243.77 725.19c1.575-2.371 4.632-5.704 6.898-7.416" fill="none" stroke="#000" stroke-linecap="round" stroke-linejoin="round"/>
   <path id="hq" d="m244.68 720.44c1.928-2.264 3.685-4.807 5.469-7.08" fill="none" stroke="#000" stroke-linecap="round" stroke-linejoin="round"/>
   <path id="hr" d="m245.33 715.27c1.237-2.195 3.422-4.689 5.076-6.344" fill="none" stroke="#000" stroke-linecap="round" stroke-linejoin="round"/>
   <path id="lq" d="m290.62 763.69c0.928-0.03 1.874 0.059 2.79-0.044 2.061-0.65 4.131-1.276 6.125-2.117 1.412-0.52 2.656-1.396 3.989-2.082 1.418-1.29 2.951-2.463 4.186-3.94 0.798-0.726 1.269-1.695 1.825-2.601-0.097 1.712-0.314 3.423-0.333 5.136 0.286 5.265 0.238 9.647 0.504 14.912-0.234 2.686-1.174 6.225-1.408 8.911-6.305-0.059-11.549 0.059-17.854 0 0.059-6.01 0.118-12.166 0.177-18.18z" fill="#a00" stroke="#000" stroke-linecap="round" stroke-linejoin="round"/>
   <path id="lr" d="m290.8 772.35c2.828-0.766 6.658-0.61 9.546-2.121 2.644-1.384 4.783-3.689 6.575-6.075 0.856-1.14 1.392-2.844 1.91-3.825" fill="none" stroke="#000" stroke-linecap="round" stroke-linejoin="round"/>
   <path id="ls" d="m290.44 779.77c2.067-0.569 5.02-1.038 7.449-1.854 2.058-0.692 4.306-1.191 5.986-2.566 2.328-1.904 3.594-5.657 5.127-7.425" fill="none" stroke="#000" stroke-linecap="round" stroke-linejoin="round"/>
   <path id="lt" d="m299.11 781.86c1.84-0.672 4.407-1.616 6.242-3.02 1.406-1.078 2.439-3.091 3.481-4.02" fill="none" stroke="#000" stroke-linecap="round" stroke-linejoin="round"/>
   <path id="hs" d="m304.41 746.18c0.899 0.566 2.184 0.386 3.01 1.061 0.781 0.642 1.1 1.701 1.544 2.609 0.302 0.619 0.643 1.243 0.754 1.923 0.066 0.402 0.063 0.832-0.06 1.22-0.329 1.042-1.041 1.94-1.75 2.77-1.327 1.555-2.93 2.878-4.606 4.049-1.379 0.963-2.917 1.681-4.433 2.412-1.173 0.566-2.348 1.155-3.596 1.522-1.182 0.348-2.41 0.605-3.642 0.635-0.456 0.011-1.057 0.172-1.359-0.17-0.382-1.686 0-2.593 0-3.889 1.254-0.014 2.534 0.225 3.765-0.02 1.811-0.36 3.445-1.335 5.129-2.094 0.805-0.363 1.632-0.695 2.375-1.173 0.602-0.387 1.223-0.794 1.663-1.359 0.628-0.807 1.145-1.768 1.3-2.779 0.152-0.998-0.289-1.998-0.406-3-0.068-0.585-0.215-1.171-0.172-1.758 0.05-0.671-0.159-1.778 0.49-1.958z" fill="#fff" stroke="#000"/>
   <path id="ht" d="m282.14 746.89c0.118 5.451 0.236 10.901 0.354 16.352-0.598-0.643-1.276-1.218-1.806-1.919-0.589-0.779-1.073-1.638-1.505-2.514-0.48-0.974-0.955-1.97-1.2-3.03-0.17-0.737-0.288-1.514-0.174-2.262 0.201-1.317 0.752-2.596 1.479-3.713 0.741-1.14 1.895-1.625 2.852-2.917z" fill="#fff" stroke="#000" stroke-linecap="round" stroke-linejoin="round"/>
   <path id="hu" transform="translate(0,512.36)" d="m282.12 225.75-0.125 43.75h8.375l0.625-41.25-3.5-1-3.375-1z" fill="#fa5" stroke="#000"/>
   <path id="hv" d="m173 649.99c-1.707 0.428-0.869 2.117-1.146 3.223-0.634 2.524 0.134 5.469-1.172 7.72-0.791 1.364-3.273 1.423-3.707 2.939-0.339 1.183 1.204 2.247 1.24 3.477 0.044 1.491-0.212 3.224-1.249 4.296-0.723 0.747-2.442 0.071-2.966 0.969-0.628 1.076 0.339 2.483 0.737 3.663 1.568 4.647 5.128 8.579 6.429 13.236 2.01-0.688 4.092-0.574 6.15-0.748 3.534-0.3 7.082-0.434 10.628-0.515 6.27-0.142 12.545-0.077 18.815 0.056 4.967 0.105 9.968-0.132 14.892 0.586 2.066 0.938 0.629-1.705 0.624-2.595-0.033-6.331-2.538-12.446-4.636-18.42-1.337-3.807-3.165-7.433-5.03-11.01-1.435-2.747-3.03-5.411-4.732-8-1.418 0.399-1.662 1.644-2.239 2.644-1.864 3.228-1.618 7.487-3.779 10.525-1.485 2.089-3.428 4.614-5.982 4.831-3.712 0.314-6.545-3.564-9.752-5.46-2.234-1.32-4.636-2.43-6.607-4.117-1.645-1.408-2.79-3.315-4.246-4.919-0.737-0.812-1.423-1.639-2.271-2.379z" fill="#fff" stroke="#000" stroke-linecap="round" stroke-linejoin="round"/>
   <path id="hw" d="m169.12 668.74c3.861 2.572 7.515 4.823 10.443 9.209 0.539 0.807 1.797 1.213 2.284 0.595 1.24-1.571 2.43-3.547 4.02-4.956 2.904-2.565 5.684-4.927 9.873-6.347 1.554-0.527 3.119 1.129 4.474 2.055 3.132 2.141 5.154 5.627 8.183 7.912 1 0.757 2.049 2.215 3.261 1.886 1.136-0.307 1.556-1.397 3.381-5.695 1.042-2.453 1.152-5.205 1.826-7.784" fill="none" stroke="#000" stroke-linecap="round" stroke-linejoin="round"/>
   <path id="hx" transform="translate(0,512.36)" d="m187.03 262.81 11.314-0.354 9.723 0.177 2.121-4.773 5.303-12.905 4.419-16.794 2.298-12.02 1.061-10.607v-2.298l-10.253-0.707-12.374 0.53-11.49 0.884-6.187 0.265-3.712 0.265 2.828 11.844 2.121 11.844 1.503 11.844 0.442 8.309z" fill="#fff" stroke="#000" stroke-linecap="round" stroke-linejoin="round"/>
   <path id="hy" transform="translate(0,512.36)" d="m186.85 245.84s7.07 0.363 10.607 0.53c2.651 0.125 5.301 0.32 7.955 0.354 3.064 0.039 9.192-0.177 9.192-0.177" fill="none" stroke="#000" stroke-linecap="round" stroke-linejoin="round"/>
   <path id="hz" transform="translate(0,512.36)" d="m186.38 250.37s7.503-0.026 11.253 0.073c2.536 0.067 5.071 0.171 7.601 0.354 2.421 0.174 7.248 0.707 7.248 0.707" fill="none" stroke="#000" stroke-linecap="round" stroke-linejoin="round"/>
   <path id="ia" transform="translate(0,512.36)" d="m186.86 255.04s7.17-0.568 10.762-0.53c3.312 0.035 6.629 0.256 9.912 0.698 0.893 0.12 2.652 0.53 2.652 0.53" fill="none" stroke="#000" stroke-linecap="round" stroke-linejoin="round"/>
   <path id="ib" transform="translate(0,512.36)" d="m186.94 259.81s6.395-0.426 9.598-0.427c1.902-1e-4 3.803 0.109 5.7 0.25 2.245 0.167 6.718 0.707 6.718 0.707" fill="none" stroke="#000" stroke-linecap="round" stroke-linejoin="round"/>
   <path id="ic" transform="translate(0,512.36)" d="m197.64 203.42-9.369 4.773s0.56 5.415 0.707 8.132c0.147 2.707 0.173 5.421 0.177 8.132 4e-3 3.124-0.177 9.369-0.177 9.369s3.79 2.208 5.657 3.359c1.489 0.918 3.057 1.732 4.419 2.828 1.169 0.94 3.182 3.182 3.182 3.182l1.237 0.177s2.279-2.124 3.484-3.109c1.555-1.271 3.271-2.337 4.825-3.609 1.162-0.952 3.359-3.01 3.359-3.01s0.203-6.248 0.354-9.369c0.145-3.01 0.329-6.01 0.53-9.02 0.158-2.358 0.53-7.07 0.53-7.07s-4.112-1.683-6.187-2.475c-1.289-0.492-2.622-0.869-3.889-1.414-0.968-0.417-2.828-1.414-2.828-1.414z" fill="#fa5" stroke="#000" stroke-linecap="round" stroke-linejoin="round"/>
   <path id="id" transform="translate(0,512.36)" d="m201.26 206.25s-2.728 1.668-4.154 2.386c-1.378 0.695-4.243 1.856-4.243 1.856s0.422 2.881 0.53 4.331c0.16 2.146 0.147 4.301 0.177 6.452 0.023 1.65 0 3.3 0 4.95 0 1.179 0.083 2.36 0 3.536-0.059 0.831-0.354 2.475-0.354 2.475s1.748 1.209 2.652 1.768c0.808 0.5 1.659 0.927 2.475 1.414 0.954 0.571 1.929 1.114 2.828 1.768 0.778 0.566 2.21 1.856 2.21 1.856s1.854-1.501 2.74-2.298c0.852-0.766 1.669-1.571 2.475-2.386 0.967-0.979 2.828-3.01 2.828-3.01s-0.042-5.775 0-8.662c0.03-2 0.117-4.01 0.177-6.01 0.058-1.945 0.177-5.834 0.177-5.834s-2.606-1.271-3.889-1.945c-1.191-0.625-2.345-1.32-3.536-1.945-0.583-0.306-1.768-0.884-1.768-0.884z" fill="none" stroke="#000" stroke-linecap="round" stroke-linejoin="round"/>
   <path id="ie" d="m202.56 726.69s1.5 2.5 3.25 4.25 4.25 3.25 4.25 3.25-2.5 1.5-4.25 3.25-3.25 4.25-3.25 4.25-1.5-2.5-3.25-4.25-4.25-3.25-4.25-3.25 2.5-1.5 4.25-3.25 3.25-4.25 3.25-4.25" fill="#f55" stroke="#000" stroke-linecap="round" stroke-linejoin="round"/>
   <path id="if" d="m247.05 680.85 2.681 11.26 2.413 9.651 1.072 13.14-0.536 11.796-0.536 13.14-2.145 13.941-2.413 8.04-3.217 5.63" fill="none" stroke="#000" stroke-linecap="round" stroke-linejoin="round"/>
   <path id="ig" transform="translate(0,512.36)" d="m121.27 269.5s1.021-2.332 1.945-3.15c0.631-0.56 1.488-0.825 2.298-1.061 2.569-0.746 5.286-0.884 7.955-1.061 3.645-0.242 7.308 0.101 10.96 0 4.248-0.118 8.481-0.558 12.728-0.707 3.946-0.139 7.898-0.053 11.844-0.177 6.132-0.193 12.251-0.737 18.385-0.884 7.01-0.168 14.03-0.122 21.04 0 5.07 0.088 10.14 0.252 15.203 0.53 2.36 0.13 4.744 0.115 7.07 0.53 1.689 0.301 3.676 0.264 4.95 1.414 0.471 0.425 0.567 1.149 0.707 1.768 0.206 0.911 0.177 2.797 0.177 2.797z" fill="#fa5" stroke="#000"/>
   <path id="ih" transform="translate(0,512.36)" d="m122.51 267.59s5.16-1.039 7.778-1.237c8.638-0.653 17.324 0.269 25.986 0.177 10.492-0.112 20.974-0.795 31.466-0.884 5.303-0.045 10.607 0.105 15.91 0.177 3.712 0.05 7.424 0.147 11.137 0.177 3.83 0.03 7.665-0.185 11.49 0 1.833 0.089 3.661 0.291 5.48 0.53 1.421 0.187 4.243 0.707 4.243 0.707" fill="none" stroke="#000" stroke-linecap="round" stroke-linejoin="round"/>
  </g>
  <g transform="matrix(-.99307 0 0 -1 360.33 1564)">
   <use width="360" height="540" xlink:href="#ii"/>
   <use width="360" height="540" xlink:href="#ij"/>
   <use width="360" height="540" xlink:href="#ik"/>
   <use width="360" height="540" xlink:href="#il"/>
   <use width="360" height="540" xlink:href="#in"/>
   <use width="360" height="540" xlink:href="#io"/>
   <use width="360" height="540" xlink:href="#ip"/>
   <use width="360" height="540" xlink:href="#iq"/>
   <use width="360" height="540" xlink:href="#ir"/>
   <use width="360" height="540" xlink:href="#is"/>
   <use width="360" height="540" xlink:href="#a"/>
   <use width="360" height="540" xlink:href="#b"/>
   <use width="360" height="540" xlink:href="#im"/>
   <use width="360" height="540" xlink:href="#kx"/>
   <use width="360" height="540" xlink:href="#lu"/>
   <use width="360" height="540" xlink:href="#lv"/>
   <use width="360" height="540" xlink:href="#lw"/>
   <use width="360" height="540" xlink:href="#lx"/>
   <use width="360" height="540" xlink:href="#ly"/>
   <use width="360" height="540" xlink:href="#lz"/>
   <use width="360" height="540" xlink:href="#ma"/>
   <use width="360" height="540" xlink:href="#mb"/>
   <use width="360" height="540" xlink:href="#mc"/>
   <use width="360" height="540" xlink:href="#md"/>
   <use width="360" height="540" xlink:href="#me"/>
   <use width="360" height="540" xlink:href="#mf"/>
   <use width="360" height="540" xlink:href="#mg"/>
   <use width="360" height="540" xlink:href="#mh"/>
   <use width="360" height="540" xlink:href="#mi"/>
   <use width="360" height="540" xlink:href="#it"/>
   <use width="360" height="540" xlink:href="#iu"/>
   <use width="360" height="540" xlink:href="#iv"/>
   <use width="360" height="540" xlink:href="#iw"/>
   <use width="360" height="540" xlink:href="#ix"/>
   <use width="360" height="540" xlink:href="#iy"/>
   <use width="360" height="540" xlink:href="#iz"/>
   <use width="360" height="540" xlink:href="#ja"/>
   <use width="360" height="540" xlink:href="#jb"/>
   <use width="360" height="540" xlink:href="#jc"/>
   <use width="360" height="540" xlink:href="#jd"/>
   <use width="360" height="540" xlink:href="#je"/>
   <use width="360" height="540" xlink:href="#jf"/>
   <use width="360" height="540" xlink:href="#jg"/>
   <use width="360" height="540" xlink:href="#jh"/>
   <use width="360" height="540" xlink:href="#ji"/>
   <use width="360" height="540" xlink:href="#jj"/>
   <use width="360" height="540" xlink:href="#jk"/>
   <use width="360" height="540" xlink:href="#jl"/>
   <use width="360" height="540" xlink:href="#jm"/>
   <use width="360" height="540" xlink:href="#jn"/>
   <use width="360" height="540" xlink:href="#jo"/>
   <use width="360" height="540" xlink:href="#jp"/>
   <use width="360" height="540" xlink:href="#jq"/>
   <use width="360" height="540" xlink:href="#jr"/>
   <use width="360" height="540" xlink:href="#js"/>
   <use width="360" height="540" xlink:href="#jt"/>
   <use width="360" height="540" xlink:href="#ju"/>
   <use width="360" height="540" xlink:href="#jv"/>
   <use width="360" height="540" xlink:href="#jw"/>
   <use width="360" height="540" xlink:href="#jx"/>
   <use width="360" height="540" xlink:href="#jy"/>
   <use width="360" height="540" xlink:href="#jz"/>
   <use width="360" height="540" xlink:href="#ka"/>
   <use width="360" height="540" xlink:href="#kb"/>
   <use width="360" height="540" xlink:href="#kc"/>
   <use width="360" height="540" xlink:href="#kd"/>
   <use width="360" height="540" xlink:href="#ke"/>
   <use width="360" height="540" xlink:href="#kf"/>
   <use width="360" height="540" xlink:href="#kg"/>
   <use width="360" height="540" xlink:href="#kh"/>
   <use width="360" height="540" xlink:href="#ki"/>
   <use width="360" height="540" xlink:href="#kj"/>
   <use width="360" height="540" xlink:href="#kk"/>
   <use width="360" height="540" xlink:href="#mj"/>
   <use width="360" height="540" xlink:href="#mk"/>
   <use width="360" height="540" xlink:href="#ml"/>
   <use width="360" height="540" xlink:href="#mm"/>
   <use width="360" height="540" xlink:href="#mn"/>
   <use width="360" height="540" xlink:href="#mo"/>
   <use width="360" height="540" xlink:href="#mp"/>
   <use width="360" height="540" xlink:href="#mq"/>
   <use width="360" height="540" xlink:href="#mr"/>
   <use width="360" height="540" xlink:href="#ms"/>
   <use width="360" height="540" xlink:href="#mt"/>
   <use width="360" height="540" xlink:href="#mu"/>
   <use width="360" height="540" xlink:href="#mv"/>
   <use width="360" height="540" xlink:href="#mw"/>
   <use width="360" height="540" xlink:href="#mx"/>
   <use width="360" height="540" xlink:href="#my"/>
   <use width="360" height="540" xlink:href="#mz"/>
   <use width="360" height="540" xlink:href="#na"/>
   <use width="360" height="540" xlink:href="#nb"/>
   <use width="360" height="540" xlink:href="#nc"/>
   <use width="360" height="540" xlink:href="#nd"/>
   <use width="360" height="540" xlink:href="#ne"/>
   <use width="360" height="540" xlink:href="#nf"/>
   <use width="360" height="540" xlink:href="#ng"/>
   <use width="360" height="540" xlink:href="#nh"/>
   <use width="360" height="540" xlink:href="#ni"/>
   <use width="360" height="540" xlink:href="#nj"/>
   <use width="360" height="540" xlink:href="#nk"/>
   <use width="360" height="540" xlink:href="#nl"/>
   <use width="360" height="540" xlink:href="#nm"/>
   <use width="360" height="540" xlink:href="#nn"/>
   <use width="360" height="540" xlink:href="#no"/>
   <use width="360" height="540" xlink:href="#np"/>
   <use width="360" height="540" xlink:href="#nq"/>
   <use width="360" height="540" xlink:href="#nr"/>
   <use width="360" height="540" xlink:href="#ns"/>
   <use width="360" height="540" xlink:href="#nt"/>
   <use width="360" height="540" xlink:href="#nu"/>
   <use width="360" height="540" xlink:href="#nv"/>
   <use width="360" height="540" xlink:href="#nw"/>
   <use width="360" height="540" xlink:href="#nx"/>
   <use width="360" height="540" xlink:href="#kl"/>
   <use width="360" height="540" xlink:href="#km"/>
   <use width="360" height="540" xlink:href="#kn"/>
   <use width="360" height="540" xlink:href="#ko"/>
   <use width="360" height="540" xlink:href="#kp"/>
   <use width="360" height="540" xlink:href="#kq"/>
   <use width="360" height="540" xlink:href="#kr"/>
   <use width="360" height="540" xlink:href="#ks"/>
   <use width="360" height="540" xlink:href="#kt"/>
   <use width="360" height="540" xlink:href="#ku"/>
   <use width="360" height="540" xlink:href="#kv"/>
   <use width="360" height="540" xlink:href="#kw"/>
   <use width="360" height="540" xlink:href="#ky"/>
   <use width="360" height="540" xlink:href="#kz"/>
   <use width="360" height="540" xlink:href="#la"/>
   <use width="360" height="540" xlink:href="#lb"/>
   <use width="360" height="540" xlink:href="#ny"/>
   <use width="360" height="540" xlink:href="#nz"/>
   <use width="360" height="540" xlink:href="#c"/>
   <use width="360" height="540" xlink:href="#d"/>
   <use width="360" height="540" xlink:href="#e"/>
   <use width="360" height="540" xlink:href="#f"/>
   <use width="360" height="540" xlink:href="#g"/>
   <use width="360" height="540" xlink:href="#h"/>
   <use width="360" height="540" xlink:href="#i"/>
   <use width="360" height="540" xlink:href="#j"/>
   <use width="360" height="540" xlink:href="#k"/>
   <use width="360" height="540" xlink:href="#l"/>
   <use width="360" height="540" xlink:href="#m"/>
   <use width="360" height="540" xlink:href="#n"/>
   <use width="360" height="540" xlink:href="#o"/>
   <use width="360" height="540" xlink:href="#p"/>
   <use width="360" height="540" xlink:href="#q"/>
   <use width="360" height="540" xlink:href="#r"/>
   <use width="360" height="540" xlink:href="#s"/>
   <use width="360" height="540" xlink:href="#t"/>
   <use width="360" height="540" xlink:href="#u"/>
   <use width="360" height="540" xlink:href="#v"/>
   <use width="360" height="540" xlink:href="#w"/>
   <use width="360" height="540" xlink:href="#x"/>
   <use width="360" height="540" xlink:href="#y"/>
   <use width="360" height="540" xlink:href="#z"/>
   <use width="360" height="540" xlink:href="#ha"/>
   <use width="360" height="540" xlink:href="#hb"/>
   <use width="360" height="540" xlink:href="#hc"/>
   <use width="360" height="540" xlink:href="#hd"/>
   <use width="360" height="540" xlink:href="#he"/>
   <g transform="matrix(1.0201 0 0 1 -5.675 0)">
    <use width="360" height="540" xlink:href="#lc"/>
    <use width="360" height="540" xlink:href="#ld"/>
    <use width="360" height="540" xlink:href="#le"/>
    <use width="360" height="540" xlink:href="#lf"/>
    <use width="360" height="540" xlink:href="#lg"/>
    <use width="360" height="540" xlink:href="#lh"/>
    <use width="360" height="540" xlink:href="#li"/>
    <use width="360" height="540" xlink:href="#lj"/>
    <use width="360" height="540" xlink:href="#lk"/>
    <use width="360" height="540" xlink:href="#ll"/>
    <use width="360" height="540" xlink:href="#lm"/>
    <use width="360" height="540" xlink:href="#ln"/>
    <use width="360" height="540" xlink:href="#lo"/>
    <use width="360" height="540" xlink:href="#lp"/>
   </g>
   <use width="360" height="540" xlink:href="#hf"/>
   <use width="360" height="540" xlink:href="#hg"/>
   <use width="360" height="540" xlink:href="#hh"/>
   <use width="360" height="540" xlink:href="#hi"/>
   <use width="360" height="540" xlink:href="#hj"/>
   <use width="360" height="540" xlink:href="#hk"/>
   <use width="360" height="540" xlink:href="#hl"/>
   <use width="360" height="540" xlink:href="#hm"/>
   <use width="360" height="540" xlink:href="#hn"/>
   <use width="360" height="540" xlink:href="#ho"/>
   <use width="360" height="540" xlink:href="#hp"/>
   <use width="360" height="540" xlink:href="#hq"/>
   <use width="360" height="540" xlink:href="#hr"/>
   <use width="360" height="540" xlink:href="#lq"/>
   <use width="360" height="540" xlink:href="#lr"/>
   <use width="360" height="540" xlink:href="#ls"/>
   <use width="360" height="540" xlink:href="#lt"/>
   <use width="360" height="540" xlink:href="#hs"/>
   <use width="360" height="540" xlink:href="#ht"/>
   <use width="360" height="540" xlink:href="#hu"/>
   <use width="360" height="540" xlink:href="#hv"/>
   <use width="360" height="540" xlink:href="#hw"/>
   <use width="360" height="540" xlink:href="#hx"/>
   <use width="360" height="540" xlink:href="#hy"/>
   <use width="360" height="540" xlink:href="#hz"/>
   <use width="360" height="540" xlink:href="#ia"/>
   <use width="360" height="540" xlink:href="#ib"/>
   <use width="360" height="540" xlink:href="#ic"/>
   <use width="360" height="540" xlink:href="#id"/>
   <use width="360" height="540" xlink:href="#ie"/>
   <use width="360" height="540" xlink:href="#if"/>
   <use width="360" height="540" xlink:href="#ig"/>
   <use width="360" height="540" xlink:href="#ih"/>
  </g>
 </g>
</svg>
