<?xml version="1.0" encoding="UTF-8"?>
<svg version="1.1" viewBox="0 0 360 540" xmlns="http://www.w3.org/2000/svg">
 <g transform="translate(0,-512.37)">
  <rect x=".5" y="512.86" width="359" height="539" rx="29.944" fill="#fff" stroke="#000"/>
  <g fill="#f55">
   <path d="m30 609.86s0.682-4.182 2-5.5 3.637-2 5.5-2 4.182 0.682 5.5 2 2 3.637 2 5.5-1 4.5-2 5.5-2 1.5-3 2.5-1.5 1-2.5 2l-2.5 2.5c-1 1-2.5 3-3.5 5s-1.5 5-1.5 5-0.5-3-1.5-5-2.5-4-3.5-5l-2.5-2.5c-1-1-1.5-1-2.5-2s-2-1.5-3-2.5-2-3.637-2-5.5 0.682-4.182 2-5.5 3.637-2 5.5-2 4.182 0.682 5.5 2 2 5.5 2 5.5"/>
   <path d="m330 954.86s0.682 4.182 2 5.5 3.637 2 5.5 2 4.182-0.682 5.5-2 2-3.637 2-5.5-1-4.5-2-5.5-2-1.5-3-2.5-1.5-1-2.5-2l-2.5-2.5c-1-1-2.5-3-3.5-5s-1.5-5-1.5-5-0.5 3-1.5 5-2.5 4-3.5 5l-2.5 2.5c-1 1-1.5 1-2.5 2s-2 1.5-3 2.5-2 3.637-2 5.5 0.682 4.182 2 5.5 3.637 2 5.5 2 4.182-0.682 5.5-2 2-5.5 2-5.5"/>
   <path d="m180 582.36s1.82-11.153 5.333-14.667c3.514-3.514 9.698-5.333 14.667-5.333s11.153 1.82 14.667 5.333c3.514 3.514 5.333 9.698 5.333 14.667s-2.667 12-5.333 14.667c-2.667 2.667-5.333 4-8 6.667s-4 2.667-6.667 5.333l-6.667 6.667c-2.667 2.667-6.667 8-9.333 13.333-2.667 5.333-4 13.333-4 13.333s-1.333-8-4-13.333-6.667-10.667-9.333-13.333l-6.667-6.667c-2.667-2.667-4-2.667-6.667-5.333-2.667-2.667-5.333-4-8-6.667-2.66-2.67-5.33-9.7-5.33-14.67 0-4.969 1.82-11.153 5.333-14.667 3.514-3.514 9.698-5.333 14.667-5.333s11.153 1.82 14.667 5.333c3.514 3.514 5.333 14.667 5.333 14.667"/>
   <path d="m180 982.36s1.82 11.153 5.333 14.667c3.514 3.514 9.698 5.333 14.667 5.333s11.153-1.82 14.667-5.333c3.514-3.514 5.333-9.698 5.333-14.667s-2.667-12-5.333-14.667c-2.667-2.667-5.333-4-8-6.667s-4-2.667-6.667-5.333l-6.667-6.667c-2.667-2.667-6.667-8-9.333-13.333-2.667-5.333-4-13.333-4-13.333s-1.333 8-4 13.333-6.667 10.667-9.333 13.333l-6.667 6.667c-2.667 2.667-4 2.667-6.667 5.333-2.667 2.667-5.333 4-8 6.667s-5.333 9.698-5.333 14.667 1.82 11.153 5.333 14.667c3.514 3.514 9.698 5.333 14.667 5.333s11.153-1.82 14.667-5.333c3.51-3.52 5.33-14.67 5.33-14.67"/>
   <path d="m30 542.36c-5.54 0-10 4.46-10 10v5h5v-5c0-2.77 2.23-5 5-5s5 2.23 5 5v5c0 1.128-0.375 3.065-1 3.9-4.463 9.104-9.278 17.13-14 26.1v5h20v-10h-5v5h-9.5c4.489-7.915 8.218-15.572 12.5-23.6 1.25-1.669 2-4.145 2-6.4v-5c0-5.54-4.46-10-10-10"/>
   <path d="m330 1022.4c5.54 0 10-4.46 10-10v-5h-5v5c0 2.77-2.23 5-5 5s-5-2.23-5-5v-5c0-1.128 0.375-3.065 1-3.9 4.463-9.104 9.278-17.13 14-26.1v-5h-20v10h5v-5h9.5c-4.489 7.915-8.218 15.572-12.5 23.6-1.25 1.669-2 4.145-2 6.4v5c0 5.54 4.46 10 10 10"/>
  </g>
 </g>
</svg>
