<?xml version="1.0" encoding="UTF-8"?>
<svg version="1.1" viewBox="0 0 360 540" xmlns="http://www.w3.org/2000/svg">
 <g transform="translate(-2760 1797.6)">
  <rect x="2760.5" y="-1797.1" width="359" height="539" rx="29.944" fill="#fff" stroke="#000"/>
  <g fill="#f55">
   <path d="m2790-1700.1s0.682-4.182 2-5.5 3.637-2 5.5-2 4.182 0.682 5.5 2 2 3.637 2 5.5-1 4.5-2 5.5-2 1.5-3 2.5-1.5 1-2.5 2l-2.5 2.5c-1 1-2.5 3-3.5 5s-1.5 5-1.5 5-0.5-3-1.5-5-2.5-4-3.5-5l-2.5-2.5c-1-1-1.5-1-2.5-2s-2-1.5-3-2.5-2-3.637-2-5.5 0.682-4.182 2-5.5 3.637-2 5.5-2 4.182 0.682 5.5 2 2 5.5 2 5.5"/>
   <path d="m3090-1355.1s0.682 4.182 2 5.5 3.637 2 5.5 2 4.182-0.682 5.5-2 2-3.637 2-5.5-1-4.5-2-5.5-2-1.5-3-2.5-1.5-1-2.5-2l-2.5-2.5c-1-1-2.5-3-3.5-5s-1.5-5-1.5-5-0.5 3-1.5 5-2.5 4-3.5 5l-2.5 2.5c-1 1-1.5 1-2.5 2s-2 1.5-3 2.5-2 3.637-2 5.5 0.682 4.182 2 5.5 3.637 2 5.5 2 4.182-0.682 5.5-2 2-5.5 2-5.5"/>
   <path d="m2790-1767.6c-5.54 0-10 4.46-10 10v5c0 3 1.323 5.67 3.406 7.5-2.083 1.83-3.406 4.496-3.406 7.5v10c0 5.54 4.46 10 10 10s10-4.46 10-10v-10c0-3-1.323-5.67-3.406-7.5 2.083-1.83 3.406-4.496 3.406-7.5v-5c0-5.54-4.46-10-10-10m0 5c2.77 0 5 2.23 5 5v5c0 2.77-2.23 5-5 5s-5-2.23-5-5v-5c0-2.77 2.23-5 5-5m0 20c2.77 0 5 2.23 5 5v10c0 2.77-2.23 5-5 5s-5-2.23-5-5v-10c0-2.77 2.23-5 5-5"/>
   <path d="m3090-1287.6c-5.54 0-10-4.46-10-10v-5c0-3 1.323-5.67 3.406-7.5-2.083-1.83-3.406-4.496-3.406-7.5v-10c0-5.54 4.46-10 10-10s10 4.46 10 10v10c0 3-1.323 5.67-3.406 7.5 2.083 1.83 3.406 4.496 3.406 7.5v5c0 5.54-4.46 10-10 10m0-5c2.77 0 5-2.23 5-5v-5c0-2.77-2.23-5-5-5s-5 2.23-5 5v5c0 2.77 2.23 5 5 5m0-20c2.77 0 5-2.23 5-5v-10c0-2.77-2.23-5-5-5s-5 2.23-5 5v10c0 2.77 2.23 5 5 5"/>
   <path d="m2860-1727.6s1.82-11.153 5.333-14.667c3.514-3.514 9.698-5.333 14.667-5.333s11.153 1.82 14.667 5.333c3.514 3.514 5.333 9.698 5.333 14.667s-2.667 12-5.333 14.667c-2.667 2.667-5.333 4-8 6.667s-4 2.667-6.667 5.333l-6.667 6.667c-2.667 2.667-6.667 8-9.333 13.333-2.667 5.333-4 13.333-4 13.333s-1.333-8-4-13.333-6.667-10.667-9.333-13.333l-6.667-6.667c-2.667-2.667-4-2.667-6.667-5.333-2.667-2.667-5.333-4-8-6.667s-5.333-9.698-5.333-14.667 1.82-11.153 5.333-14.667c3.514-3.514 9.698-5.333 14.667-5.333s11.153 1.82 14.667 5.333c3.514 3.514 5.333 14.667 5.333 14.667"/>
   <path d="m3020-1727.6s1.82-11.153 5.333-14.667c3.514-3.514 9.698-5.333 14.667-5.333s11.153 1.82 14.667 5.333c3.514 3.514 5.333 9.698 5.333 14.667s-2.667 12-5.333 14.667c-2.667 2.667-5.333 4-8 6.667s-4 2.667-6.667 5.333l-6.667 6.667c-2.667 2.667-6.667 8-9.333 13.333-2.667 5.333-4 13.333-4 13.333s-1.333-8-4-13.333-6.667-10.667-9.333-13.333l-6.667-6.667c-2.667-2.667-4-2.667-6.667-5.333-2.667-2.667-5.333-4-8-6.667s-5.333-9.698-5.333-14.667 1.82-11.153 5.333-14.667c3.514-3.514 9.698-5.333 14.667-5.333s11.153 1.82 14.667 5.333c3.514 3.514 5.333 14.667 5.333 14.667"/>
   <path d="m2860-1547.6s1.82-11.153 5.333-14.667c3.514-3.514 9.698-5.333 14.667-5.333s11.153 1.82 14.667 5.333c3.514 3.514 5.333 9.698 5.333 14.667s-2.667 12-5.333 14.667c-2.667 2.667-5.333 4-8 6.667s-4 2.667-6.667 5.333l-6.667 6.667c-2.667 2.667-6.667 8-9.333 13.333-2.667 5.333-4 13.333-4 13.333s-1.333-8-4-13.333-6.667-10.667-9.333-13.333l-6.667-6.667c-2.667-2.667-4-2.667-6.667-5.333-2.667-2.667-5.333-4-8-6.667s-5.333-9.698-5.333-14.667 1.82-11.153 5.333-14.667c3.514-3.514 9.698-5.333 14.667-5.333s11.153 1.82 14.667 5.333c3.514 3.514 5.333 14.667 5.333 14.667"/>
   <path d="m3020-1547.6s1.82-11.153 5.333-14.667c3.514-3.514 9.698-5.333 14.667-5.333s11.153 1.82 14.667 5.333c3.514 3.514 5.333 9.698 5.333 14.667s-2.667 12-5.333 14.667c-2.667 2.667-5.333 4-8 6.667s-4 2.667-6.667 5.333l-6.667 6.667c-2.667 2.667-6.667 8-9.333 13.333-2.667 5.333-4 13.333-4 13.333s-1.333-8-4-13.333-6.667-10.667-9.333-13.333l-6.667-6.667c-2.667-2.667-4-2.667-6.667-5.333-2.667-2.667-5.333-4-8-6.667s-5.333-9.698-5.333-14.667 1.82-11.153 5.333-14.667c3.514-3.514 9.698-5.333 14.667-5.333s11.153 1.82 14.667 5.333c3.514 3.514 5.333 14.667 5.333 14.667"/>
   <path d="m2860-1327.6s1.82 11.153 5.333 14.667c3.514 3.514 9.698 5.333 14.667 5.333s11.153-1.82 14.667-5.333c3.514-3.514 5.333-9.698 5.333-14.667s-2.667-12-5.333-14.667c-2.667-2.667-5.333-4-8-6.667s-4-2.667-6.667-5.333l-6.667-6.667c-2.667-2.667-6.667-8-9.333-13.333-2.667-5.333-4-13.333-4-13.333s-1.333 8-4 13.333-6.667 10.667-9.333 13.333l-6.667 6.667c-2.667 2.667-4 2.667-6.667 5.333-2.667 2.667-5.333 4-8 6.667s-5.333 9.698-5.333 14.667 1.82 11.153 5.333 14.667c3.514 3.514 9.698 5.333 14.667 5.333s11.153-1.82 14.667-5.333c3.514-3.514 5.333-14.667 5.333-14.667"/>
   <path d="m3020-1327.6s1.82 11.153 5.333 14.667c3.514 3.514 9.698 5.333 14.667 5.333s11.153-1.82 14.667-5.333c3.514-3.514 5.333-9.698 5.333-14.667s-2.667-12-5.333-14.667c-2.667-2.667-5.333-4-8-6.667s-4-2.667-6.667-5.333l-6.667-6.667c-2.667-2.667-6.667-8-9.333-13.333-2.667-5.333-4-13.333-4-13.333s-1.333 8-4 13.333-6.667 10.667-9.333 13.333l-6.667 6.667c-2.667 2.667-4 2.667-6.667 5.333-2.667 2.667-5.333 4-8 6.667s-5.333 9.698-5.333 14.667 1.82 11.153 5.333 14.667c3.514 3.514 9.698 5.333 14.667 5.333s11.153-1.82 14.667-5.333c3.514-3.514 5.333-14.667 5.333-14.667"/>
   <path d="m2940-1417.6s1.82 11.153 5.333 14.667c3.514 3.514 9.698 5.333 14.667 5.333s11.153-1.82 14.667-5.333c3.514-3.514 5.333-9.698 5.333-14.667s-2.667-12-5.333-14.667c-2.667-2.667-5.333-4-8-6.667s-4-2.667-6.667-5.333l-6.667-6.667c-2.667-2.667-6.667-8-9.333-13.333-2.667-5.333-4-13.333-4-13.333s-1.333 8-4 13.333-6.667 10.667-9.333 13.333l-6.667 6.667c-2.667 2.667-4 2.667-6.667 5.333-2.667 2.667-5.333 4-8 6.667s-5.333 9.698-5.333 14.667 1.82 11.153 5.333 14.667c3.514 3.514 9.698 5.333 14.667 5.333s11.153-1.82 14.667-5.333c3.514-3.514 5.333-14.667 5.333-14.667"/>
   <path d="m2940-1637.6s1.82-11.153 5.333-14.667c3.514-3.514 9.698-5.333 14.667-5.333s11.153 1.82 14.667 5.333c3.514 3.514 5.333 9.698 5.333 14.667s-2.667 12-5.333 14.667c-2.667 2.667-5.333 4-8 6.667s-4 2.667-6.667 5.333l-6.667 6.667c-2.667 2.667-6.667 8-9.333 13.333-2.667 5.333-4 13.333-4 13.333s-1.333-8-4-13.333-6.667-10.667-9.333-13.333l-6.667-6.667c-2.667-2.667-4-2.667-6.667-5.333-2.667-2.667-5.333-4-8-6.667s-5.333-9.698-5.333-14.667 1.82-11.153 5.333-14.667c3.514-3.514 9.698-5.333 14.667-5.333s11.153 1.82 14.667 5.333c3.514 3.514 5.333 14.667 5.333 14.667"/>
  </g>
 </g>
</svg>
