<?xml version="1.0" encoding="UTF-8"?>
<svg version="1.1" viewBox="0 0 360 540" xmlns="http://www.w3.org/2000/svg">
 <g transform="translate(-30 1797.6)">
  <rect x="30.5" y="-1797.1" width="359" height="539" rx="29.944" fill="#fff" stroke="#000"/>
  <g fill="#f55">
   <path d="m50-1767.6v5h7.6v45h5v-45h7.4v-5h-12.4z"/>
   <path d="m350-1287.6v-5h7.6v-45h5v45h7.4v5h-12.4z"/>
   <path d="m210-1547.6s1.82-11.153 5.333-14.667c3.514-3.514 9.698-5.333 14.667-5.333s11.153 1.82 14.667 5.333c3.514 3.514 5.333 9.698 5.333 14.667s-2.667 12-5.333 14.667c-2.667 2.667-5.333 4-8 6.667s-4 2.667-6.667 5.333l-6.667 6.667c-2.667 2.667-6.667 8-9.333 13.333-2.667 5.333-4 13.333-4 13.333s-1.333-8-4-13.333-6.667-10.667-9.333-13.333l-6.667-6.667c-2.667-2.667-4-2.667-6.667-5.333-2.667-2.667-5.333-4-8-6.667s-5.333-9.698-5.333-14.667 1.82-11.153 5.333-14.667c3.514-3.514 9.698-5.333 14.667-5.333s11.153 1.82 14.667 5.333c3.514 3.514 5.333 14.667 5.333 14.667"/>
   <path d="m60-1700.1s0.682-4.182 2-5.5 3.637-2 5.5-2 4.182 0.682 5.5 2 2 3.637 2 5.5-1 4.5-2 5.5-2 1.5-3 2.5-1.5 1-2.5 2l-2.5 2.5c-1 1-2.5 3-3.5 5s-1.5 5-1.5 5-0.5-3-1.5-5-2.5-4-3.5-5l-2.5-2.5c-1-1-1.5-1-2.5-2s-2-1.5-3-2.5-2-3.637-2-5.5 0.682-4.182 2-5.5 3.637-2 5.5-2 4.182 0.682 5.5 2 2 5.5 2 5.5"/>
   <path d="m360-1355.1s0.682 4.182 2 5.5 3.637 2 5.5 2 4.182-0.682 5.5-2 2-3.637 2-5.5-1-4.5-2-5.5-2-1.5-3-2.5-1.5-1-2.5-2l-2.5-2.5c-1-1-2.5-3-3.5-5s-1.5-5-1.5-5-0.5 3-1.5 5-2.5 4-3.5 5l-2.5 2.5c-1 1-1.5 1-2.5 2s-2 1.5-3 2.5-2 3.637-2 5.5 0.682 4.182 2 5.5 3.637 2 5.5 2 4.182-0.682 5.5-2 2-5.5 2-5.5"/>
  </g>
 </g>
</svg>
