<?xml version="1.0" encoding="UTF-8"?>
<svg version="1.1" viewBox="0 0 360 540" xmlns="http://www.w3.org/2000/svg">
 <g transform="translate(0,-512.36)">
  <rect x=".5" y="512.86" width="359" height="539" rx="29.944" fill="#fff" stroke="#000"/>
  <g fill="#f55">
   <path d="m30 609.86s0.682-4.182 2-5.5 3.637-2 5.5-2 4.182 0.682 5.5 2 2 3.637 2 5.5-1 4.5-2 5.5-2 1.5-3 2.5-1.5 1-2.5 2l-2.5 2.5c-1 1-2.5 3-3.5 5s-1.5 5-1.5 5-0.5-3-1.5-5-2.5-4-3.5-5l-2.5-2.5c-1-1-1.5-1-2.5-2s-2-1.5-3-2.5-2-3.637-2-5.5 0.682-4.182 2-5.5 3.637-2 5.5-2 4.182 0.682 5.5 2 2 5.5 2 5.5"/>
   <path d="m330 954.86s0.682 4.182 2 5.5 3.637 2 5.5 2 4.182-0.682 5.5-2 2-3.637 2-5.5-1-4.5-2-5.5-2-1.5-3-2.5-1.5-1-2.5-2l-2.5-2.5c-1-1-2.5-3-3.5-5s-1.5-5-1.5-5-0.5 3-1.5 5-2.5 4-3.5 5l-2.5 2.5c-1 1-1.5 1-2.5 2s-2 1.5-3 2.5-2 3.637-2 5.5 0.682 4.182 2 5.5 3.637 2 5.5 2 4.182-0.682 5.5-2 2-5.5 2-5.5"/>
   <path d="m100 582.36s1.82-11.153 5.333-14.667c3.514-3.514 9.698-5.333 14.667-5.333s11.153 1.82 14.667 5.333c3.514 3.514 5.333 9.698 5.333 14.667s-2.667 12-5.333 14.667c-2.667 2.667-5.333 4-8 6.667s-4 2.667-6.667 5.333l-6.667 6.667c-2.667 2.667-6.667 8-9.333 13.333-2.667 5.333-4 13.333-4 13.333s-1.333-8-4-13.333-6.667-10.667-9.333-13.333l-6.667-6.667c-2.667-2.667-4-2.667-6.667-5.333-2.667-2.667-5.333-4-8-6.667-2.667-2.67-5.333-9.7-5.333-14.67 0-4.969 1.82-11.153 5.333-14.667 3.514-3.514 9.698-5.333 14.667-5.333s11.153 1.82 14.667 5.333c3.514 3.514 5.333 14.667 5.333 14.667"/>
   <path d="m100 982.36s1.82 11.153 5.333 14.667c3.514 3.514 9.698 5.333 14.667 5.333s11.153-1.82 14.667-5.333c3.514-3.514 5.333-9.698 5.333-14.667s-2.667-12-5.333-14.667c-2.667-2.667-5.333-4-8-6.667s-4-2.667-6.667-5.333l-6.667-6.667c-2.667-2.667-6.667-8-9.333-13.333-2.667-5.333-4-13.333-4-13.333s-1.333 8-4 13.333-6.667 10.667-9.333 13.333l-6.667 6.667c-2.667 2.667-4 2.667-6.667 5.333-2.667 2.667-5.333 4-8 6.667-2.667 2.67-5.333 9.7-5.333 14.67 0 4.969 1.82 11.153 5.333 14.667 3.514 3.514 9.698 5.333 14.667 5.333s11.153-1.82 14.667-5.333c3.514-3.52 5.333-14.67 5.333-14.67"/>
   <path d="m30 542.36-10 35v5h12v10h5v-10h3v-5h-3v-15h-5v15h-6.8l10-35z"/>
   <path d="m330 1022.4 10-35v-5h-12v-10h-5v10h-3v5h3v15h5v-15h6.8l-10 35z"/>
   <path d="m260 982.36s1.82 11.153 5.333 14.667c3.514 3.514 9.698 5.333 14.667 5.333s11.153-1.82 14.667-5.333c3.514-3.514 5.333-9.698 5.333-14.667s-2.667-12-5.333-14.667c-2.667-2.667-5.333-4-8-6.667s-4-2.667-6.667-5.333l-6.667-6.667c-2.667-2.667-6.667-8-9.333-13.333-2.667-5.333-4-13.333-4-13.333s-1.333 8-4 13.333-6.667 10.667-9.333 13.333l-6.667 6.667c-2.667 2.667-4 2.667-6.667 5.333-2.667 2.667-5.333 4-8 6.667s-5.333 9.698-5.333 14.667 1.82 11.153 5.333 14.667c3.514 3.514 9.698 5.333 14.667 5.333s11.153-1.82 14.667-5.333c3.51-3.52 5.33-14.67 5.33-14.67"/>
   <path d="m260 582.36s1.82-11.153 5.333-14.667c3.514-3.514 9.698-5.333 14.667-5.333s11.153 1.82 14.667 5.333c3.514 3.514 5.333 9.698 5.333 14.667s-2.667 12-5.333 14.667c-2.667 2.667-5.333 4-8 6.667s-4 2.667-6.667 5.333l-6.667 6.667c-2.667 2.667-6.667 8-9.333 13.333-2.667 5.333-4 13.333-4 13.333s-1.333-8-4-13.333-6.667-10.667-9.333-13.333l-6.667-6.667c-2.667-2.667-4-2.667-6.667-5.333-2.667-2.667-5.333-4-8-6.667-2.66-2.67-5.33-9.7-5.33-14.67 0-4.969 1.82-11.153 5.333-14.667 3.514-3.514 9.698-5.333 14.667-5.333s11.153 1.82 14.667 5.333c3.514 3.514 5.333 14.667 5.333 14.667"/>
  </g>
 </g>
</svg>
