<?xml version="1.0" encoding="UTF-8"?>
<svg version="1.1" viewBox="0 0 360 540" xmlns="http://www.w3.org/2000/svg">
 <g transform="translate(0,-512.36)">
  <rect x=".5" y="512.86" width="359" height="539" rx="29.944" fill="#fff" stroke="#000"/>
  <path d="m20 542.36v20h10c2.77 0 5 2.23 5 5v15c0 2.77-2.23 5-5 5s-5-2.23-5-5v-5h-5v5c0 5.54 4.46 10 10 10s10-4.46 10-10v-15c0-5.54-4.46-10-10-10h-5v-10h15v-5h-15z"/>
  <path d="m340 1022.4v-20h-10c-2.77 0-5-2.23-5-5v-15c0-2.77 2.23-5 5-5s5 2.23 5 5v5h5v-5c0-5.54-4.46-10-10-10s-10 4.46-10 10v15c0 5.54 4.46 10 10 10h5v10h-15v5h15z"/>
  <path d="m100 562.36c-1.333 6.667-2.855 8.392-5.333 12-2.135 3.109-5.122 5.562-8 8-2.917 2.471-6.248 4.408-9.333 6.667-3.586 2.625-7.819 4.588-10.667 8-3.184 3.815-6.667 8.364-6.667 13.333 0 3.975 2.408 7.975 5.333 10.667 3.523 3.241 8.548 5.444 13.333 5.333 5.369-0.124 10.8-2.94 14.667-6.667 2.862-2.758 5.333-10.667 5.333-10.667v2.667c0 1.333-0.133 7.29-1.333 10.667-1.404 3.951-3.83 7.579-6.667 10.667-3.01 3.273-10.667 8-10.667 8v1.333s10.612-2.221 16-2.667c2.658-0.22 5.342-0.22 8 0 5.388 0.446 16 2.667 16 2.667v-1.333s-7.66-4.727-10.667-8c-2.836-3.088-5.263-6.716-6.667-10.667-1.2-3.376-1.333-10.667-1.333-10.667v-2.667s2.471 7.908 5.333 10.667c3.867 3.726 9.298 6.543 14.667 6.667 4.786 0.11 9.811-2.092 13.333-5.333 2.925-2.692 5.333-6.691 5.333-10.667 0-4.969-3.483-9.518-6.667-13.333-2.848-3.412-7.08-5.375-10.667-8-3.085-2.258-6.416-4.195-9.333-6.667-2.878-2.438-5.865-4.891-8-8-2.478-3.608-4-5.333-5.333-12"/>
  <path d="m260 562.36c-1.333 6.667-2.855 8.392-5.333 12-2.135 3.109-5.122 5.562-8 8-2.917 2.471-6.248 4.408-9.333 6.667-3.586 2.625-7.819 4.588-10.667 8-3.184 3.815-6.667 8.364-6.667 13.333 0 3.975 2.408 7.975 5.333 10.667 3.523 3.241 8.548 5.444 13.333 5.333 5.369-0.124 10.8-2.94 14.667-6.667 2.862-2.758 5.333-10.667 5.333-10.667v2.667c0 1.333-0.133 7.29-1.333 10.667-1.404 3.951-3.83 7.579-6.667 10.667-3.01 3.273-10.667 8-10.667 8v1.333s10.612-2.221 16-2.667c2.658-0.22 5.342-0.22 8 0 5.388 0.446 16 2.667 16 2.667v-1.333s-7.66-4.727-10.667-8c-2.836-3.088-5.263-6.716-6.667-10.667-1.2-3.376-1.333-10.667-1.333-10.667v-2.667s2.471 7.908 5.333 10.667c3.867 3.726 9.298 6.543 14.667 6.667 4.786 0.11 9.811-2.092 13.333-5.333 2.925-2.692 5.333-6.691 5.333-10.667 0-4.969-3.483-9.518-6.667-13.333-2.848-3.412-7.08-5.375-10.667-8-3.085-2.258-6.416-4.195-9.333-6.667-2.878-2.438-5.865-4.891-8-8-2.478-3.608-4-5.333-5.333-12"/>
  <path d="m180 742.36c-1.333 6.667-2.855 8.392-5.333 12-2.135 3.109-5.122 5.562-8 8-2.917 2.471-6.248 4.408-9.333 6.667-3.586 2.625-7.819 4.588-10.667 8-3.184 3.815-6.667 8.364-6.667 13.333 0 3.975 2.408 7.975 5.333 10.667 3.523 3.241 8.548 5.444 13.333 5.333 5.369-0.124 10.8-2.94 14.667-6.667 2.862-2.758 5.333-10.667 5.333-10.667v2.667c0 1.333-0.133 7.29-1.333 10.667-1.404 3.951-3.83 7.579-6.667 10.667-3.01 3.273-10.667 8-10.667 8v1.333s10.612-2.221 16-2.667c2.658-0.22 5.342-0.22 8 0 5.388 0.446 16 2.667 16 2.667v-1.333s-7.66-4.727-10.667-8c-2.836-3.088-5.263-6.716-6.667-10.667-1.2-3.376-1.333-10.667-1.333-10.667v-2.667s2.471 7.908 5.333 10.667c3.867 3.726 9.298 6.543 14.667 6.667 4.786 0.11 9.811-2.092 13.333-5.333 2.925-2.692 5.333-6.691 5.333-10.667 0-4.969-3.483-9.518-6.667-13.333-2.848-3.412-7.08-5.375-10.667-8-3.085-2.258-6.416-4.195-9.333-6.667-2.878-2.438-5.865-4.891-8-8-2.478-3.608-4-5.333-5.333-12"/>
  <path d="m100 1002.4c-1.333-6.667-2.855-8.392-5.333-12-2.135-3.109-5.122-5.562-8-8-2.917-2.471-6.248-4.408-9.333-6.667-3.586-2.625-7.819-4.588-10.667-8-3.184-3.85-6.667-8.4-6.667-13.37 0-3.975 2.408-7.975 5.333-10.667 3.523-3.241 8.548-5.444 13.333-5.333 5.369 0.124 10.8 2.94 14.667 6.667 2.862 2.758 5.333 10.667 5.333 10.667v-2.667c0-1.333-0.133-7.29-1.333-10.667-1.404-3.951-3.83-7.579-6.667-10.667-3.01-3.273-10.667-8-10.667-8v-1.333s10.612 2.221 16 2.667c2.658 0.22 5.342 0.22 8 0 5.388-0.446 16-2.667 16-2.667v1.333s-7.66 4.727-10.667 8c-2.836 3.088-5.263 6.716-6.667 10.667-1.2 3.376-1.333 10.667-1.333 10.667v2.667s2.471-7.908 5.333-10.667c3.867-3.726 9.298-6.543 14.667-6.667 4.786-0.11 9.811 2.092 13.333 5.333 2.925 2.692 5.333 6.691 5.333 10.667 0 4.969-3.483 9.518-6.667 13.333-2.848 3.412-7.08 5.375-10.667 8-3.085 2.258-6.416 4.195-9.333 6.667-2.878 2.438-5.865 4.891-8 8-2.478 3.608-4 5.333-5.333 12"/>
  <path d="m260 1002.4c-1.333-6.667-2.855-8.392-5.333-12-2.135-3.109-5.122-5.562-8-8-2.917-2.471-6.248-4.408-9.333-6.667-3.586-2.625-7.819-4.588-10.667-8-3.184-3.815-6.667-8.364-6.667-13.333 0-3.975 2.408-7.975 5.333-10.667 3.523-3.241 8.548-5.444 13.333-5.333 5.369 0.124 10.8 2.94 14.667 6.667 2.862 2.758 5.333 10.667 5.333 10.667v-2.667c0-1.333-0.133-7.29-1.333-10.667-1.404-3.951-3.83-7.579-6.667-10.667-3.01-3.273-10.667-8-10.667-8v-1.333s10.612 2.221 16 2.667c2.658 0.22 5.342 0.22 8 0 5.388-0.446 16-2.667 16-2.667v1.333s-7.66 4.727-10.667 8c-2.836 3.088-5.263 6.716-6.667 10.667-1.2 3.376-1.333 10.667-1.333 10.667v2.667s2.471-7.908 5.333-10.667c3.867-3.726 9.298-6.543 14.667-6.667 4.786-0.11 9.811 2.092 13.333 5.333 2.925 2.692 5.333 6.691 5.333 10.667 0 4.969-3.483 9.518-6.667 13.333-2.848 3.412-7.08 5.375-10.667 8-3.085 2.258-6.416 4.195-9.333 6.667-2.878 2.438-5.865 4.891-8 8-2.478 3.608-4 5.333-5.333 12"/>
  <path d="m30 602.36c-0.5 2.5-1.071 3.147-2 4.5-0.801 1.166-1.921 2.086-3 3-1.094 0.927-2.343 1.653-3.5 2.5-1.345 0.984-2.932 1.72-4 3-1.194 1.431-2.5 3.137-2.5 5 0 1.491 0.903 2.991 2 4 1.321 1.215 3.205 2.041 5 2 2.01-0.046 4.05-1.103 5.5-2.5 1.073-1.034 2-4 2-4v1c0 0.5-0.05 2.734-0.5 4-0.527 1.482-1.436 2.842-2.5 4-1.127 1.227-4 3-4 3v0.5s3.979-0.833 6-1c0.997-0.082 2-0.082 3 0 2.02 0.167 6 1 6 1v-0.5s-2.873-1.773-4-3c-1.064-1.158-1.973-2.518-2.5-4-0.45-1.266-0.5-4-0.5-4v-1s0.927 2.966 2 4c1.45 1.397 3.487 2.454 5.5 2.5 1.795 0.041 3.679-0.785 5-2 1.097-1.01 2-2.509 2-4 0-1.863-1.306-3.569-2.5-5-1.068-1.28-2.655-2.02-4-3-1.157-0.847-2.406-1.573-3.5-2.5-1.079-0.914-2.199-1.834-3-3-0.929-1.353-1.5-2-2-4.5"/>
  <path d="m330 962.36c-0.5-2.5-1.071-3.147-2-4.5-0.801-1.166-1.921-2.086-3-3-1.094-0.927-2.343-1.653-3.5-2.5-1.345-0.984-2.932-1.72-4-3-1.194-1.431-2.5-3.137-2.5-5 0-1.491 0.903-2.991 2-4 1.321-1.215 3.205-2.041 5-2 2.01 0.046 4.05 1.103 5.5 2.5 1.073 1.034 2 4 2 4v-1c0-0.5-0.05-2.734-0.5-4-0.527-1.482-1.436-2.842-2.5-4-1.127-1.227-4-3-4-3v-0.5s3.979 0.833 6 1c0.997 0.082 2 0.082 3 0 2.02-0.167 6-1 6-1v0.5s-2.873 1.773-4 3c-1.064 1.158-1.973 2.518-2.5 4-0.45 1.266-0.5 4-0.5 4v1s0.927-2.966 2-4c1.45-1.397 3.487-2.454 5.5-2.5 1.795-0.041 3.679 0.785 5 2 1.097 1.01 2 2.509 2 4 0 1.863-1.306 3.569-2.5 5-1.068 1.28-2.655 2.02-4 3-1.157 0.847-2.406 1.573-3.5 2.5-1.079 0.914-2.199 1.834-3 3-0.929 1.353-1.5 2-2 4.5"/>
 </g>
</svg>
